<svg width="42" height="24" viewBox="0 0 42 24" fill="none" xmlns="http://www.w3.org/2000/svg">
<rect width="42" height="24" rx="6" fill="#F5F5F5"/>
<path d="M20.9811 18.9585C21.7077 19.6252 22.6583 19.9945 23.6444 19.9933C25.8401 19.9933 27.6179 18.2023 27.6179 16C27.6179 13.791 25.8401 12 23.6444 12C22.6583 11.9988 21.7077 12.3682 20.9811 13.0348C20.5684 13.41 20.2387 13.8673 20.0131 14.3773C19.7874 14.8874 19.6709 15.439 19.6709 15.9967C19.6709 16.5544 19.7874 17.106 20.0131 17.616C20.2387 18.1261 20.5684 18.5833 20.9811 18.9585Z" fill="#FAB31E"/>
<path d="M22.2664 15.5727C22.2512 15.43 22.228 15.2883 22.1967 15.1482H19.7689C19.7983 15.0071 19.8348 14.8676 19.8783 14.7303H22.0806C22.0309 14.5876 21.9778 14.4417 21.9148 14.3057H20.0475C20.1171 14.1631 20.1901 14.0172 20.273 13.8812H21.6826C21.5918 13.7351 21.491 13.5954 21.3808 13.4633H20.5781C20.7009 13.3107 20.8363 13.1687 20.9828 13.0387C20.2523 12.3741 19.3005 12.0052 18.3128 12.0039C16.1238 12.0039 14.3394 13.7949 14.3394 16.0039C14.3394 18.2062 16.1238 19.9973 18.3128 19.9973C18.8996 19.996 19.4789 19.8651 20.0093 19.614C20.5396 19.3628 21.0079 18.9976 21.3808 18.5445H20.5781C20.4701 18.4085 20.3693 18.2668 20.2763 18.12H21.6826C21.7709 17.9847 21.8485 17.8428 21.9148 17.6954H20.0475C19.9844 17.5594 19.9247 17.4201 19.875 17.2775H22.0806C22.1271 17.1415 22.1635 16.9956 22.1967 16.853C22.2232 16.717 22.2531 16.5711 22.2664 16.4284C22.2796 16.2925 22.2863 16.1531 22.2863 16.0105C22.2863 15.8513 22.2796 15.7087 22.2664 15.5727Z" fill="#E40520"/>
<path d="M27.0927 16.9242C27.092 16.9076 27.0947 16.891 27.1005 16.8754C27.1063 16.8598 27.1152 16.8456 27.1267 16.8335C27.1381 16.8214 27.1519 16.8118 27.1671 16.8051C27.1824 16.7985 27.1988 16.795 27.2155 16.7948C27.2326 16.7943 27.2497 16.7972 27.2656 16.8035C27.2815 16.8098 27.296 16.8194 27.3082 16.8315C27.3203 16.8436 27.3298 16.8581 27.3361 16.874C27.3424 16.89 27.3454 16.907 27.3448 16.9242C27.3448 16.9585 27.3312 16.9914 27.3069 17.0156C27.2827 17.0399 27.2498 17.0535 27.2155 17.0535C27.1988 17.0534 27.1824 17.0499 27.1671 17.0432C27.1519 17.0366 27.1381 17.0269 27.1267 17.0149C27.1152 17.0028 27.1063 16.9885 27.1005 16.973C27.0947 16.9574 27.092 16.9408 27.0927 16.9242ZM27.2155 17.0204C27.2345 17.0204 27.2531 17.0147 27.2689 17.0041C27.2847 16.9936 27.297 16.9786 27.3043 16.961C27.3116 16.9434 27.3135 16.9241 27.3098 16.9054C27.3061 16.8867 27.2969 16.8696 27.2835 16.8562C27.27 16.8427 27.2529 16.8335 27.2342 16.8298C27.2156 16.8261 27.1962 16.828 27.1786 16.8353C27.1611 16.8426 27.146 16.8549 27.1355 16.8707C27.1249 16.8866 27.1193 16.9051 27.1193 16.9242C27.1193 16.9497 27.1294 16.9741 27.1474 16.9922C27.1655 17.0102 27.1899 17.0204 27.2155 17.0204ZM27.2022 16.9806H27.1757V16.8711H27.2519C27.2652 16.8777 27.2652 16.891 27.2652 16.9043C27.2643 16.91 27.262 16.9154 27.2585 16.92C27.2551 16.9246 27.2505 16.9283 27.2453 16.9308L27.2718 16.9772H27.2387L27.2254 16.9374H27.2055L27.2022 16.9806V16.9175H27.2155C27.2221 16.9175 27.2287 16.9175 27.2287 16.9109C27.2354 16.9109 27.2354 16.9043 27.2354 16.8976C27.2354 16.8959 27.2347 16.8942 27.2334 16.8929C27.2322 16.8917 27.2305 16.891 27.2287 16.891C27.2287 16.8844 27.2221 16.891 27.2155 16.891H27.2022V16.9806ZM23.6135 15.0801L23.5372 15.5179C23.3846 15.4416 23.2752 15.4084 23.1524 15.4084C22.8307 15.4084 22.6019 15.7235 22.6019 16.1713C22.6019 16.4797 22.7544 16.6655 23.0065 16.6655C23.1093 16.6655 23.232 16.6323 23.3714 16.5626L23.2951 17.0237C23.1359 17.0635 23.033 17.0867 22.917 17.0867C22.4493 17.0867 22.1607 16.7517 22.1607 16.2078C22.1607 15.488 22.5587 14.9806 23.1292 14.9806C23.1961 14.9796 23.2629 14.9863 23.3282 15.0005L23.5007 15.0403C23.539 15.0514 23.5767 15.0647 23.6135 15.0801ZM22.2271 15.3819H22.1873C22.0447 15.3819 21.9617 15.4515 21.8291 15.6505L21.8689 15.3952H21.4775L21.2088 17.0436H21.64C21.7992 16.0353 21.839 15.8628 22.0447 15.8628H22.0712C22.1024 15.6973 22.1583 15.5374 22.237 15.3885L22.2271 15.3819ZM19.7428 17.0204C19.644 17.0566 19.5397 17.0757 19.4344 17.0767C19.2155 17.0767 19.0928 16.954 19.0928 16.7119C19.0942 16.6641 19.0986 16.6165 19.106 16.5693L19.1326 16.4034L19.1525 16.2741L19.3382 15.1497H19.7627L19.713 15.3952H19.9319L19.8755 15.7998H19.6599L19.5438 16.4864C19.5385 16.5092 19.5363 16.5326 19.5372 16.556C19.5372 16.6389 19.577 16.6721 19.6798 16.6721C19.719 16.6755 19.7585 16.671 19.7959 16.6588L19.7428 17.0204ZM18.0878 15.9159C18.0878 16.1215 18.184 16.2675 18.4095 16.3769C18.5886 16.4598 18.6151 16.4864 18.6151 16.556C18.6151 16.6588 18.5389 16.7086 18.3697 16.7086C18.2389 16.7079 18.1091 16.6867 17.985 16.6456L17.9219 17.0237L17.9418 17.0303L18.0181 17.0436C18.0561 17.0529 18.0951 17.0573 18.1342 17.0568C18.2112 17.0668 18.2888 17.0712 18.3664 17.0701C18.8208 17.0701 19.0331 16.8976 19.0331 16.5195C19.0331 16.294 18.9435 16.1613 18.7312 16.0585C18.5455 15.9756 18.5256 15.9557 18.5256 15.8794C18.5256 15.7898 18.6019 15.75 18.7379 15.75C18.841 15.7509 18.944 15.7575 19.0463 15.7699L19.1093 15.3918C18.9843 15.3715 18.8579 15.3604 18.7312 15.3587C18.2536 15.3587 18.0811 15.6141 18.0878 15.9159ZM26.9004 17.0403H26.4957L26.5156 16.8811C26.3995 17.0038 26.2768 17.0602 26.1176 17.0602C25.8025 17.0602 25.5969 16.7915 25.5969 16.3802C25.5969 15.8296 25.9186 15.3653 26.2967 15.3653C26.4692 15.3653 26.5919 15.4416 26.708 15.5908L26.8042 15.0137H27.2287L26.9004 17.0403ZM26.2669 16.6555C26.4659 16.6555 26.6019 16.4233 26.6019 16.0983C26.6019 15.886 26.5256 15.7766 26.3763 15.7766C26.1839 15.7766 26.0413 16.0021 26.0413 16.3272C26.0413 16.5461 26.1176 16.6555 26.2669 16.6555ZM21.0596 17.0071C20.9152 17.0549 20.7639 17.0785 20.6118 17.0767C20.1309 17.0767 19.8855 16.8214 19.8855 16.3371C19.8855 15.7733 20.2005 15.3554 20.635 15.3554C20.9932 15.3554 21.2188 15.5875 21.2188 15.9524C21.2181 16.0913 21.1991 16.2296 21.1624 16.3636H20.31C20.305 16.3786 20.3027 16.3943 20.3034 16.4101C20.3034 16.6024 20.4327 16.6986 20.6815 16.6986C20.8369 16.7019 20.9908 16.6665 21.1292 16.5958L21.0596 17.0071ZM20.8208 16.0253V15.9424C20.8208 15.8064 20.7445 15.7301 20.6151 15.7301C20.4792 15.7301 20.383 15.833 20.3399 16.0253H20.8208ZM16.4493 17.0403H16.0248L16.2702 15.4814L15.713 17.0403H15.4178L15.3846 15.4947L15.1226 17.0403H14.7246L15.0596 15.017H15.6798L15.6997 16.2741L16.111 15.017H16.7843L16.4493 17.0403ZM17.5107 16.3073C17.4709 16.3073 17.4477 16.3006 17.4145 16.3006C17.1757 16.3006 17.0496 16.3902 17.0496 16.556C17.0496 16.6588 17.106 16.7219 17.2022 16.7219C17.3813 16.7185 17.504 16.5527 17.5107 16.3073ZM17.8258 17.0403H17.4709L17.4775 16.8678C17.3681 17.0038 17.2221 17.0668 17.0231 17.0668C16.7909 17.0668 16.6317 16.8877 16.6317 16.619C16.6317 16.2144 16.907 15.9822 17.388 15.9822C17.4344 15.9822 17.4974 15.9889 17.5671 15.9955C17.5764 15.962 17.5808 15.9274 17.5803 15.8927C17.5803 15.7832 17.504 15.7401 17.305 15.7401C17.1845 15.7387 17.0642 15.7521 16.9468 15.7799L16.8838 15.7998L16.844 15.8064L16.907 15.435C17.0731 15.3809 17.2465 15.353 17.4211 15.352C17.7926 15.352 17.9916 15.5179 17.9916 15.833C17.989 15.9431 17.9779 16.0529 17.9584 16.1613L17.8622 16.7451L17.849 16.8479L17.8423 16.9308L17.8357 16.9938C17.8357 17.0005 17.8258 17.0403 17.8258 17.0403ZM24.3067 16.3073C24.2602 16.3073 24.237 16.3006 24.2105 16.3006C23.965 16.3006 23.839 16.3902 23.839 16.556C23.839 16.6588 23.902 16.7219 23.9982 16.7219C24.1674 16.7185 24.3 16.5527 24.3067 16.3073ZM24.6218 17.0403H24.2636L24.2702 16.8678C24.1607 17.0038 24.0148 17.0668 23.8158 17.0668C23.5836 17.0668 23.4244 16.8877 23.4244 16.619C23.4244 16.2144 23.6997 15.9822 24.1806 15.9822C24.2271 15.9822 24.2901 15.9889 24.3531 15.9955C24.3635 15.9621 24.3702 15.9276 24.373 15.8927C24.373 15.7832 24.2967 15.7401 24.0977 15.7401C23.9749 15.7387 23.8525 15.7521 23.7329 15.7799L23.6765 15.7998L23.6367 15.8064L23.6997 15.435C23.8658 15.3809 24.0392 15.353 24.2138 15.352C24.5853 15.352 24.7776 15.5179 24.7776 15.833C24.7786 15.9433 24.7675 16.0534 24.7445 16.1613L24.6549 16.7451L24.6417 16.8479L24.6284 16.9308L24.6218 16.9938V17.0403ZM25.7727 15.3819H25.7329C25.5902 15.3819 25.5073 15.4515 25.3747 15.6505L25.4145 15.3952H25.0231L24.7611 17.0436H25.1856C25.3448 16.0353 25.3846 15.8628 25.5903 15.8628H25.6168C25.648 15.6973 25.7039 15.5374 25.7826 15.3885L25.7727 15.3819Z" fill="white"/>
<g clip-path="url(#clip0_18464_80987)">
<path d="M17.9721 9.85817L18.9965 4.10011H20.6353L19.6108 9.85817H17.9721ZM25.5536 4.24194C25.0811 4.07839 24.5842 3.99661 24.0842 4.00011C22.4659 4.00011 21.3251 4.78173 21.3159 5.90007C21.3057 6.72761 22.1302 7.18985 22.7516 7.46535C23.3893 7.74698 23.6036 7.92657 23.6005 8.17962C23.5965 8.56533 23.0903 8.74084 22.621 8.74084C21.9638 8.74084 21.6159 8.65411 21.0781 8.4388L20.8669 8.34697L20.6363 9.63674C21.019 9.79694 21.7281 9.93674 22.4628 9.94286C24.1842 9.94286 25.3026 9.17144 25.3158 7.97657C25.3219 7.32148 24.8852 6.82353 23.9393 6.41231C23.3669 6.14599 23.0159 5.96844 23.0199 5.69804C23.0199 5.45927 23.3159 5.20315 23.9587 5.20315C24.4944 5.19498 24.8822 5.30723 25.1842 5.42355L25.3311 5.48988L25.5536 4.24194ZM29.7555 4.10623H28.4903C28.0974 4.10623 27.8035 4.20827 27.6311 4.58377L25.1975 9.86021H26.9188C26.9188 9.86021 27.1995 9.15104 27.2637 8.99492L29.3617 8.99696C29.4106 9.19899 29.5617 9.86021 29.5617 9.86021H31.082L29.7555 4.10521M27.7352 7.81739C27.8709 7.48576 28.3882 6.20721 28.3882 6.20721C28.378 6.22252 28.5229 5.87456 28.6056 5.65824L28.7158 6.15415L29.0953 7.81739H27.7352ZM16.5976 4.10419L14.9936 8.03065L14.8231 7.2327C14.5242 6.31333 13.5926 5.31641 12.5518 4.81744L14.0211 9.85306L15.7558 9.85102L18.3343 4.10419H16.5996" fill="#004F8B"/>
<path d="M13.5045 4.10156H10.8617L10.8413 4.22095C12.8964 4.69747 14.2566 5.84949 14.8208 7.23314L14.2463 4.58727C14.1474 4.22299 13.8596 4.11381 13.5045 4.10156Z" fill="#ED9F2D"/>
</g>
<defs>
<clipPath id="clip0_18464_80987">
<rect width="20.3262" height="6" fill="white" transform="translate(10.7754 4)"/>
</clipPath>
</defs>
</svg>
