<svg width="44" height="24" viewBox="0 0 44 24" fill="none" xmlns="http://www.w3.org/2000/svg">
<rect width="44" height="24" rx="6" fill="#F5F5F5"/>
<g clip-path="url(#clip0_19797_82380)">
<path d="M17.3042 6.61474V16.807H18.8675V13.3222H21.0306C23.0088 13.3222 24.3931 11.9481 24.3931 9.95975C24.3931 7.97283 23.0292 6.61328 21.083 6.61328H17.3042V6.61474ZM18.8675 7.94809H20.6696C22.0277 7.94809 22.8021 8.68026 22.8021 9.96703C22.8021 11.2538 22.0277 11.9962 20.6652 11.9962H18.8675V7.94954V7.94809ZM27.2417 16.8856C28.2228 16.8856 29.1311 16.3834 29.5445 15.5828H29.5751V16.8055H31.0205V11.7356C31.0205 10.2654 29.8589 9.31491 28.0729 9.31491C26.4164 9.31491 25.1864 10.2771 25.1413 11.5944H26.5503C26.6682 10.9685 27.2417 10.5536 28.0263 10.5536C28.9812 10.5536 29.5183 11.0049 29.5183 11.8346V12.4008L27.5678 12.5202C25.7555 12.6308 24.773 13.3834 24.773 14.6905C24.7788 16.0079 25.7919 16.8871 27.2417 16.8871V16.8856ZM27.6639 15.6774C26.8342 15.6774 26.3028 15.2699 26.3028 14.6527C26.3028 14.0093 26.8123 13.6381 27.789 13.5799L29.5241 13.4707V14.0457C29.5241 14.9977 28.7235 15.676 27.6653 15.676L27.6639 15.6774ZM32.9565 19.5785C34.4805 19.5785 35.1982 18.9875 35.8226 17.2044L38.5635 9.41244H36.974L35.1356 15.4314H35.105L33.2665 9.41244H31.6362L34.2782 16.8332L34.1341 17.283C33.8968 18.0457 33.5082 18.3441 32.8182 18.3441C32.693 18.3441 32.4558 18.3296 32.3582 18.3179V19.5407C32.4514 19.5625 32.8386 19.5785 32.9565 19.5785Z" fill="black"/>
<path d="M6.34872 11.9147C6.34872 11.5639 6.39966 11.2248 6.49428 10.906L4.69222 9.47656C4.31701 10.2272 4.1226 11.0552 4.12453 11.8943C4.12453 12.7634 4.32831 13.5945 4.68931 14.3325L6.49428 12.9089C6.39774 12.5863 6.34871 12.2514 6.34872 11.9147Z" fill="#FFB900"/>
<path d="M9.58958 8.66781C10.3698 8.68528 11.0598 8.98805 11.5794 9.48296L13.0641 7.9269C12.1204 7.00602 10.8499 6.49718 9.53136 6.51204C8.52832 6.50897 7.54428 6.78546 6.68963 7.31049C5.83497 7.83552 5.14353 8.58832 4.69287 9.48441L6.49493 10.9138C6.89086 9.59795 8.05099 8.63288 9.58958 8.66781Z" fill="#FE2727"/>
<path d="M9.5881 15.1537C8.04514 15.1537 6.88355 14.206 6.49199 12.8945L4.68848 14.3181C5.57495 16.1289 7.41049 17.3866 9.52987 17.3109C11.0219 17.257 12.2228 16.7927 13.0874 15.9935L11.3436 14.6646C10.8632 14.995 10.2664 15.1537 9.5881 15.1537Z" fill="#00AC47"/>
<path d="M9.47266 10.9233V13.0005H12.4217C12.234 13.7618 11.8584 14.3135 11.3446 14.6672L13.0884 15.9962C14.1132 15.05 14.6649 13.6366 14.6649 11.8826C14.6649 11.5551 14.6387 11.2334 14.5892 10.9219" fill="#2485FC"/>
</g>
<defs>
<clipPath id="clip0_19797_82380">
<rect width="35.5385" height="14" fill="white" transform="translate(3.73096 6.5)"/>
</clipPath>
</defs>
</svg>
