<svg width="23" height="22" viewBox="0 0 23 22" fill="none" xmlns="http://www.w3.org/2000/svg">
<g clip-path="url(#clip0_27740_12263)">
<path fill-rule="evenodd" clip-rule="evenodd" d="M13.7143 5.89189C13.6066 5.86704 13.4992 5.93415 13.4744 6.04177L10.595 18.5137C10.5702 18.6213 10.6373 18.7287 10.7449 18.7536L18.5035 20.5448C18.6111 20.5696 18.7185 20.5025 18.7434 20.3949L21.6227 7.92297C21.6476 7.81534 21.5805 7.70795 21.4729 7.6831L13.7143 5.89189ZM19.5998 8.94295L14.4396 7.75162L12.2121 17.3997L17.3723 18.591L19.5998 8.94295Z" fill="#111111"/>
<path fill-rule="evenodd" clip-rule="evenodd" d="M1.1136 3.44745C1.00421 3.46282 0.928005 3.56396 0.943378 3.67334L3.26061 20.1613C3.27598 20.2707 3.37712 20.3469 3.4865 20.3315L16.1619 18.5501C16.2713 18.5347 16.3475 18.4336 16.3321 18.3242L14.0149 1.83625C13.9995 1.72687 13.8984 1.65066 13.789 1.66603L1.1136 3.44745ZM9.55448 11.4275L11.4217 8.43832L10.1495 7.64364L8.94685 9.56891L6.5126 8.5952L4.48781 11.1262L5.65911 12.0632L6.98873 10.4012L9.55448 11.4275Z" fill="#111111"/>
</g>
<defs>
<clipPath id="clip0_27740_12263">
<rect width="22" height="22" fill="white" transform="translate(0.25)"/>
</clipPath>
</defs>
</svg>
