<svg width="23" height="22" viewBox="0 0 23 22" fill="none" xmlns="http://www.w3.org/2000/svg">
<g clip-path="url(#clip0_27740_12274)">
<g clip-path="url(#clip1_27740_12274)">
<path fill-rule="evenodd" clip-rule="evenodd" d="M17.8 3.50078C17.8 3.39032 17.7105 3.30078 17.6 3.30078H3.7C3.58954 3.30078 3.5 3.39032 3.5 3.50078V18.5008C3.5 18.6112 3.58954 18.7008 3.7 18.7008H20.35C20.4605 18.7008 20.55 18.6112 20.55 18.5008V6.80078C20.55 6.69032 20.4605 6.60078 20.35 6.60078H5.15V4.95078H17.6C17.7105 4.95078 17.8 4.86124 17.8 4.75078V3.50078ZM17.25 13.2008C17.8575 13.2008 18.35 12.7083 18.35 12.1008C18.35 11.4933 17.8575 11.0008 17.25 11.0008C16.6425 11.0008 16.15 11.4933 16.15 12.1008C16.15 12.7083 16.6425 13.2008 17.25 13.2008Z" fill="#111111"/>
</g>
</g>
<defs>
<clipPath id="clip0_27740_12274">
<rect width="22" height="22" fill="white" transform="translate(0.75)"/>
</clipPath>
<clipPath id="clip1_27740_12274">
<rect width="22" height="22" fill="white" transform="translate(0.75)"/>
</clipPath>
</defs>
</svg>
