<svg width="21" height="20" viewBox="0 0 21 20" fill="none" xmlns="http://www.w3.org/2000/svg">
<path d="M2.5 10.2C2.5 10.0895 2.58954 10 2.7 10H6.3C6.41046 10 6.5 10.0895 6.5 10.2V16.8C6.5 16.9105 6.41046 17 6.3 17H2.7C2.58954 17 2.5 16.9105 2.5 16.8V10.2Z" fill="#999999"/>
<path d="M14.5 8.2C14.5 8.08954 14.5895 8 14.7 8H18.3C18.4105 8 18.5 8.08954 18.5 8.2V16.8C18.5 16.9105 18.4105 17 18.3 17H14.7C14.5895 17 14.5 16.9105 14.5 16.8V8.2Z" fill="#999999"/>
<path d="M8.5 3.2C8.5 3.08954 8.58954 3 8.7 3H12.3C12.4105 3 12.5 3.08954 12.5 3.2V16.8C12.5 16.9105 12.4105 17 12.3 17H8.7C8.58954 17 8.5 16.9105 8.5 16.8V3.2Z" fill="#999999"/>
</svg>
