<svg width="21" height="20" viewBox="0 0 21 20" fill="none" xmlns="http://www.w3.org/2000/svg">
<path fill-rule="evenodd" clip-rule="evenodd" d="M12.7568 5.36064C12.6492 5.33579 12.5418 5.4029 12.5169 5.51052L9.90751 16.8132C9.88267 16.9208 9.94977 17.0282 10.0574 17.0531L17.0752 18.6733C17.1829 18.6981 17.2903 18.631 17.3151 18.5234L19.9245 7.2207C19.9494 7.11307 19.8823 7.00568 19.7747 6.98084L12.7568 5.36064ZM18.0896 8.13024L13.3985 7.04722L11.3735 15.8182L16.0646 16.9012L18.0896 8.13024Z" fill="#999999"/>
<path fill-rule="evenodd" clip-rule="evenodd" d="M1.305 3.132C1.19562 3.14738 1.11941 3.24851 1.13478 3.35789L3.2363 18.3109C3.25167 18.4203 3.3528 18.4965 3.46219 18.4812L14.9493 16.8668C15.0587 16.8514 15.1349 16.7502 15.1195 16.6409L13.018 1.68782C13.0026 1.57843 12.9015 1.50222 12.7921 1.5176L1.305 3.132ZM9.80643 11.4281L11.6736 8.43889L10.4014 7.64421L9.19881 9.56948L6.76455 8.59577L4.73976 11.1268L5.91107 12.0638L7.24069 10.4018L9.80643 11.4281Z" fill="#999999"/>
</svg>
