<svg width="23" height="22" viewBox="0 0 23 22" fill="none" xmlns="http://www.w3.org/2000/svg">
<g clip-path="url(#clip0_27740_12240)">
<path d="M20.0492 9.98441C20.0492 9.93136 20.0281 9.88049 19.9906 9.84298L11.4614 1.31369C11.3442 1.19654 11.1542 1.19654 11.0371 1.3137L2.5078 9.84298C2.47029 9.88049 2.44922 9.93136 2.44922 9.98441V19.0516C2.44922 19.162 2.53876 19.2516 2.64922 19.2516H8.84922C8.95968 19.2516 9.04922 19.162 9.04922 19.0516V13.7516H13.4492V19.0516C13.4492 19.162 13.5388 19.2516 13.6492 19.2516H19.8492C19.9597 19.2516 20.0492 19.162 20.0492 19.0516V9.98441Z" fill="#111111"/>
</g>
<defs>
<clipPath id="clip0_27740_12240">
<rect width="22" height="22" fill="white" transform="translate(0.25)"/>
</clipPath>
</defs>
</svg>
