<svg width="20" height="20" viewBox="0 0 20 20" fill="none" xmlns="http://www.w3.org/2000/svg">
<g clip-path="url(#clip0_9847_11503)">
<path d="M4.26571 1.8088C3.33577 2.45918 2.52895 3.25997 1.86649 4.18774C0.536039 6.04907 -0.120377 8.32637 0.0181969 10.5979C0.0474085 11.0882 0.469649 11.4612 0.959969 11.432C1.45029 11.4028 1.82352 10.981 1.79431 10.4907C1.55796 6.60168 4.12327 3.05476 7.89591 2.05481C10.7874 1.28927 13.8292 2.15065 15.8847 4.25606L14.4975 5.00204L18.8092 7.66609L18.9637 2.60162L17.5044 3.38671C16.3634 2.09368 14.9098 1.11907 13.2687 0.548841C11.3873 -0.10154 9.37291 -0.175655 7.4406 0.33591C6.29579 0.63889 5.22704 1.13476 4.26571 1.8088Z" fill="#111111"/>
<path d="M1.04053 17.398L2.4999 16.6149C3.64084 17.9079 5.09442 18.8825 6.73558 19.4508C8.61695 20.1012 10.6313 20.1753 12.5634 19.6637C13.3157 19.4646 14.0346 19.1833 14.7125 18.8219C15.0662 18.6343 15.408 18.4236 15.7383 18.193C16.6682 17.5426 17.4731 16.7438 18.1356 15.8179C19.466 13.9585 20.1244 11.6832 19.9877 9.41383C19.9585 8.92351 19.5363 8.55052 19.046 8.57973C18.5557 8.60894 18.1824 9.03094 18.2116 9.52102C18.4422 13.4018 15.8749 16.9449 12.1083 17.9448C9.21688 18.7104 6.17477 17.849 4.11957 15.7436L5.50676 14.9976L1.19503 12.3335L1.04053 17.398Z" fill="#111111"/>
</g>
<defs>
<clipPath id="clip0_9847_11503">
<rect width="20" height="20" fill="white"/>
</clipPath>
</defs>
</svg>
