<svg width="20" height="20" viewBox="0 0 20 20" fill="none" xmlns="http://www.w3.org/2000/svg">
<path d="M7.61833 17.9878C6.22204 17.5721 4.97916 16.8003 3.99503 15.7777C4.36216 15.3426 4.58341 14.7804 4.58341 14.1665C4.58341 12.7858 3.46413 11.6665 2.08341 11.6665C1.99989 11.6665 1.91733 11.6706 1.83591 11.6786C1.72499 11.1363 1.66675 10.5749 1.66675 9.99984C1.66675 9.12876 1.8004 8.28888 2.04833 7.49959C2.06 7.49976 2.0717 7.49984 2.08341 7.49984C3.46413 7.49984 4.58341 6.38055 4.58341 4.99984C4.58341 4.60347 4.49116 4.22867 4.327 3.89568C5.29071 2.99959 6.46696 2.32897 7.77179 1.96777C8.18525 2.77821 9.02787 3.33319 10.0001 3.33319C10.9723 3.33319 11.8149 2.77821 12.2284 1.96777C13.5332 2.32897 14.7095 2.99959 15.6732 3.89568C15.509 4.22867 15.4167 4.60347 15.4167 4.99984C15.4167 6.38055 16.536 7.49984 17.9167 7.49984C17.9285 7.49984 17.9402 7.49976 17.9518 7.49959C18.1997 8.28888 18.3334 9.12876 18.3334 9.99984C18.3334 10.5749 18.2752 11.1363 18.1642 11.6786C18.0828 11.6706 18.0003 11.6665 17.9167 11.6665C16.536 11.6665 15.4167 12.7858 15.4167 14.1665C15.4167 14.7804 15.638 15.3426 16.0051 15.7777C15.021 16.8003 13.7781 17.5721 12.3818 17.9878C12.0596 16.9798 11.1151 16.2498 10.0001 16.2498C8.88508 16.2498 7.94058 16.9798 7.61833 17.9878Z" stroke="#111111" stroke-width="1.25" stroke-linejoin="round"/>
<path d="M9.99992 12.9163C11.6108 12.9163 12.9166 11.6105 12.9166 9.99967C12.9166 8.38884 11.6108 7.08301 9.99992 7.08301C8.38909 7.08301 7.08325 8.38884 7.08325 9.99967C7.08325 11.6105 8.38909 12.9163 9.99992 12.9163Z" stroke="#111111" stroke-width="1.25" stroke-linejoin="round"/>
</svg>
