<svg width="28" height="28" viewBox="0 0 28 28" fill="none" xmlns="http://www.w3.org/2000/svg">
<path fill-rule="evenodd" clip-rule="evenodd" d="M14 1.86667C14 2.34531 13.6106 2.72986 13.1333 2.76617C7.31589 3.2087 2.73333 8.0692 2.73333 14C2.73333 17.0702 3.96019 19.852 5.95234 21.885L7.39601 23.3582H2.73333C2.25469 23.3582 1.86667 22.9702 1.86667 22.4916C1.86667 22.0129 2.25469 21.6249 2.73333 21.6249H3.46991C1.91661 19.4832 1 16.8481 1 14C1 7.11158 6.35761 1.4745 13.1332 1.02844C13.6108 0.996999 14 1.38802 14 1.86667ZM20.1938 4.34158L25.2667 4.34158C25.7453 4.34158 26.1333 4.7296 26.1333 5.20825C26.1333 5.68689 25.7453 6.07491 25.2667 6.07491H24.3057C25.9947 8.26831 27 11.0172 27 14C27 20.8884 21.6424 26.5255 14.8668 26.9716C14.3892 27.003 14 26.612 14 26.1333C14 25.6547 14.3894 25.2701 14.8667 25.2338C20.6841 24.7913 25.2667 19.9308 25.2667 14C25.2667 10.7872 23.923 7.88967 21.7646 5.83613L20.1938 4.34158Z" fill="#111111"/>
<path d="M17.7502 18.083L17.0002 17.333H11.0002L10.2502 18.083V18.9997H17.7502V18.083ZM19.4168 17.333V20.6663H8.5835V17.333H8.66683L10.3335 15.6663H17.6668L19.4168 17.333ZM17.7502 11.083C17.7502 13.1663 16.0835 14.833 14.0002 14.833C11.9168 14.833 10.2502 13.1663 10.2502 11.083C10.2502 8.99967 11.9168 7.33301 14.0002 7.33301C16.0835 7.33301 17.7502 8.99967 17.7502 11.083ZM16.0835 11.083C16.0835 9.91634 15.1668 8.99967 14.0002 8.99967C12.8335 8.99967 11.9168 9.91634 11.9168 11.083C11.9168 12.2497 12.8335 13.1663 14.0002 13.1663C15.1668 13.1663 16.0835 12.2497 16.0835 11.083Z" fill="#111111"/>
</svg>
