<svg width="16" height="16" viewBox="0 0 16 16" fill="none" xmlns="http://www.w3.org/2000/svg">
<path fill-rule="evenodd" clip-rule="evenodd" d="M5.64545 1.28404C5.86796 1.6104 5.82286 2.08662 5.54473 2.34771L4.67708 3.16218H11.5911C13.4738 3.16218 15 4.95304 15 7.16217V8.24325C15 8.66119 14.7113 9 14.3551 9C13.9989 9 13.7101 8.66119 13.7101 8.24325V7.16217C13.7101 5.78892 12.7614 4.67569 11.5911 4.67569H1L4.73897 1.16586C5.0171 0.904769 5.42295 0.957682 5.64545 1.28404Z" fill="#111111"/>
<path fill-rule="evenodd" clip-rule="evenodd" d="M10.3545 14.716C10.132 14.3896 10.1771 13.9134 10.4553 13.6523L11.3229 12.8378H4.40889C2.52621 12.8378 1 11.047 1 8.83783V7.75675C1 7.33881 1.28874 7 1.64493 7C2.00111 7 2.28985 7.33881 2.28985 7.75675V8.83783C2.28985 10.2111 3.23858 11.3243 4.40889 11.3243H15L11.261 14.8341C10.9829 15.0952 10.5771 15.0423 10.3545 14.716Z" fill="#111111"/>
</svg>
