<svg width="32" height="32" viewBox="0 0 32 32" fill="none" xmlns="http://www.w3.org/2000/svg">
<g clip-path="url(#clip0_310_2726)">
<path d="M16.0004 0.1625C24.6372 0.1625 31.6383 7.25108 31.6383 15.9958C31.6383 24.7406 24.6372 31.8292 16.0004 31.8292C7.36362 31.8292 0.362549 24.7406 0.362549 15.9958C0.362549 7.25108 7.36362 0.1625 16.0004 0.1625ZM16.0004 5.70417C14.7562 5.70417 13.5629 6.20461 12.6831 7.09541C11.8033 7.98621 11.3091 9.19439 11.3091 10.4542C11.3091 11.7139 11.8033 12.9221 12.6831 13.8129C13.5629 14.7037 14.7562 15.2042 16.0004 15.2042C17.2446 15.2042 18.4379 14.7037 19.3177 13.8129C20.1975 12.9221 20.6918 11.7139 20.6918 10.4542C20.6918 9.19439 20.1975 7.98621 19.3177 7.09541C18.4379 6.20461 17.2446 5.70417 16.0004 5.70417Z" fill="#BBBBBB"/>
<path d="M6 21C6 19.3431 7.34315 18 9 18H23C24.6569 18 26 19.3431 26 21V22.0836C26 23.0151 25.7907 23.9469 25.1912 24.6598C23.949 26.1369 21.1561 28.5 16 28.5C10.8439 28.5 8.05098 26.1369 6.80885 24.6598C6.20934 23.9469 6 23.0151 6 22.0836V21Z" fill="white"/>
</g>
<defs>
<clipPath id="clip0_310_2726">
<rect width="32" height="32" fill="white"/>
</clipPath>
</defs>
</svg>
