<svg width="16" height="16" viewBox="0 0 16 16" fill="none" xmlns="http://www.w3.org/2000/svg">
<path d="M7.59102 4.05859C7.50664 4.01992 7.41289 4 7.31797 4C7.15508 4 7.00391 4.05977 6.89023 4.16875L4.53711 6.16914H2.68555C2.55078 6.16914 2.40547 6.21484 2.2918 6.29102H2.24492L2.14297 6.39883C2.05508 6.49141 2 6.64258 2 6.79492V10.2016C2 10.3773 2.07852 10.5695 2.19805 10.6891C2.31758 10.8098 2.50977 10.8871 2.68555 10.8871H4.53945L6.89141 12.8277C6.98984 12.9203 7.16445 13.0152 7.30859 13.0152C7.37422 13.0152 7.50195 13.0152 7.62617 12.9215C7.74336 12.8723 7.83477 12.7996 7.89687 12.7035C7.96367 12.6027 7.99531 12.4797 7.99531 12.3285V4.66445C7.99531 4.51328 7.9625 4.39023 7.89687 4.28945C7.82891 4.18398 7.72578 4.10664 7.59102 4.05859ZM7.30039 4.73125V12.2652L4.88398 10.2719L4.78789 10.1922V10.1934H2.69375V6.86406H4.79141L7.30039 4.73125ZM11.7875 6.02383C11.5426 5.64063 11.2426 5.30781 10.898 5.03711L10.8969 5.03594C10.8816 5.02305 10.8711 5.01484 10.8629 5.00781C10.8102 4.975 10.7504 4.95742 10.6859 4.95742C10.5652 4.95742 10.4328 5.01953 10.3215 5.12734L10.3203 5.12852C10.2219 5.28672 10.2746 5.54922 10.4258 5.6582L10.427 5.65938C10.4984 5.68867 10.5992 5.77305 10.6707 5.83984C10.7809 5.9418 10.9473 6.11758 11.1172 6.37422C11.402 6.80547 11.7418 7.54258 11.7418 8.61016C11.7418 9.67656 11.4207 10.4137 11.1523 10.8438C10.9918 11.1016 10.8336 11.2762 10.7293 11.3781C10.6285 11.4754 10.55 11.5363 10.4938 11.5598L10.4926 11.5609C10.3297 11.6758 10.291 11.8961 10.3977 12.1082C10.4422 12.1984 10.5992 12.2594 10.7176 12.2594C10.7621 12.2594 10.8805 12.2594 10.9215 12.2184C10.9297 12.2102 10.9391 12.202 10.9602 12.1855C11.2895 11.9172 11.5766 11.5879 11.8121 11.2035C12.2668 10.4629 12.4977 9.59102 12.4977 8.60898C12.4977 7.63164 12.2586 6.76211 11.7875 6.02383Z" fill="black"/>
<path d="M10.0695 6.92544C9.79063 6.60435 9.50235 6.45435 9.44024 6.43208H9.42149L9.39922 6.41685C9.36172 6.39106 9.31251 6.37817 9.2586 6.37817C9.11915 6.37817 8.9668 6.46724 8.93282 6.57036L8.9293 6.58208L8.92227 6.59263C8.87774 6.6606 8.87188 6.75903 8.90587 6.85864C8.93985 6.95708 9.00665 7.0356 9.07696 7.05903L9.08399 7.06138L9.09102 7.06489C9.09922 7.06958 9.29258 7.17622 9.48477 7.41294C9.66172 7.62974 9.87266 8.00239 9.87266 8.54614C9.87266 9.67817 9.23516 10.052 9.16133 10.0918C8.99961 10.202 8.8918 10.4188 8.99024 10.5653L8.99376 10.57L8.9961 10.5758C9.04649 10.6778 9.21758 10.7938 9.31602 10.7938C9.38047 10.7938 9.41446 10.7926 9.45313 10.7493L9.47891 10.7235H9.50704C9.57969 10.6965 9.84336 10.5407 10.1 10.2055C10.3414 9.89028 10.6285 9.33364 10.6285 8.47817C10.6285 7.72583 10.325 7.21841 10.0695 6.92544Z" fill="black"/>
</svg>
