<svg width="197" height="163" viewBox="0 0 197 163" fill="none" xmlns="http://www.w3.org/2000/svg">
<path d="M14.5 40.5L195.5 1.5L58.5 58.5L14.5 40.5Z" fill="white" stroke="#111111"/>
<path d="M66.5 102L59 58.5L195.5 1L66.5 102Z" fill="white" stroke="#111111"/>
<ellipse cx="94.5" cy="50" rx="17" ry="27" fill="#593500" fill-opacity="0.3"/>
<path d="M123.256 25.2998C120.945 12.2269 110.865 8.48341 100.746 16.9355C90.6268 25.3876 84.2964 42.839 86.6076 55.9119C88.9187 68.9848 98.9971 72.7311 109.116 64.279C119.235 55.8269 125.566 38.3755 123.256 25.2998Z" fill="#FFB904"/>
<path d="M86.6109 55.9221C87.7728 62.5007 90.9041 66.7185 95.0167 68.2049L90.5242 66.5797C86.4126 65.0904 83.284 60.8737 82.1184 54.2968C80.9685 47.7881 81.9618 40.1928 84.4959 33.1633L88.9835 34.8023C86.4504 41.829 85.46 49.4161 86.6109 55.9221Z" fill="#333333"/>
<path d="M100.658 16.8079C104.72 13.4125 108.799 11.9576 112.39 12.296L110.317 11.5461C106.331 10.1055 101.378 11.2594 96.3773 15.4364C91.364 19.6259 87.2756 26.0453 84.7247 33.0495L88.9023 34.5753C91.4697 27.5253 95.5862 21.0452 100.658 16.8079Z" fill="white" stroke="#666666" stroke-width="0.330003"/>
<path d="M195.5 1L77.5 69.5L130 98.5L195.5 1Z" fill="white" stroke="#111111"/>
<path d="M1.3125 73.5352L11.5 71.499M40.4982 109.499L26 123.499M82.5 127.999L73.5 147.999" stroke="#111111"/>
<path d="M67 102L77.5 69.5L96.5 80L67 102Z" fill="#DDDDDD" stroke="#111111"/>
</svg>
