<svg width="25" height="24" viewBox="0 0 25 24" fill="none" xmlns="http://www.w3.org/2000/svg">
<g clip-path="url(#clip0_25666_93095)">
<path d="M21.25 14.25V19.5C21.25 19.8978 21.092 20.2794 20.8107 20.5607C20.5294 20.842 20.1478 21 19.75 21H4.75C4.35218 21 3.97064 20.842 3.68934 20.5607C3.40804 20.2794 3.25 19.8978 3.25 19.5V14.25C3.25 14.0511 3.32902 13.8603 3.46967 13.7197C3.61032 13.579 3.80109 13.5 4 13.5C4.19891 13.5 4.38968 13.579 4.53033 13.7197C4.67098 13.8603 4.75 14.0511 4.75 14.25V19.5H19.75V14.25C19.75 14.0511 19.829 13.8603 19.9697 13.7197C20.1103 13.579 20.3011 13.5 20.5 13.5C20.6989 13.5 20.8897 13.579 21.0303 13.7197C21.171 13.8603 21.25 14.0511 21.25 14.25ZM11.7194 14.7806C11.789 14.8504 11.8717 14.9057 11.9628 14.9434C12.0538 14.9812 12.1514 15.0006 12.25 15.0006C12.3486 15.0006 12.4462 14.9812 12.5372 14.9434C12.6283 14.9057 12.711 14.8504 12.7806 14.7806L16.5306 11.0306C16.6356 10.9257 16.7072 10.792 16.7361 10.6465C16.7651 10.5009 16.7503 10.35 16.6935 10.2129C16.6367 10.0758 16.5404 9.95861 16.417 9.87621C16.2935 9.79381 16.1484 9.74988 16 9.75H13V3.75C13 3.55109 12.921 3.36032 12.7803 3.21967C12.6397 3.07902 12.4489 3 12.25 3C12.0511 3 11.8603 3.07902 11.7197 3.21967C11.579 3.36032 11.5 3.55109 11.5 3.75V9.75H8.5C8.35158 9.74988 8.20646 9.79381 8.08301 9.87621C7.95957 9.95861 7.86335 10.0758 7.80653 10.2129C7.74972 10.35 7.73487 10.5009 7.76385 10.6465C7.79284 10.792 7.86437 10.9257 7.96937 11.0306L11.7194 14.7806Z" fill="#333333"/>
</g>
<defs>
<clipPath id="clip0_25666_93095">
<rect width="24" height="24" fill="white" transform="translate(0.25)"/>
</clipPath>
</defs>
</svg>
