<svg width="12" height="12" viewBox="0 0 12 12" fill="none" xmlns="http://www.w3.org/2000/svg">
<path fill-rule="evenodd" clip-rule="evenodd" d="M8.42369 4.92197L7.92642 5.34057L8.76362 6.3351L9.26089 5.9165L11.1515 4.32497L11.6868 3.87434L11.198 3.37364L10.7329 3.8277L11.198 3.37362L11.198 3.37359L11.1979 3.37347L11.1974 3.37302L11.1957 3.37131L11.1892 3.36464L11.1637 3.33854L11.0642 3.23701C10.977 3.14809 10.8487 3.01758 10.6842 2.85088C10.3553 2.5175 9.88163 2.03934 9.3019 1.45962L8.84229 1L7.92305 1.91924L8.38267 2.37886C8.67723 2.67342 8.94426 2.94161 9.17863 3.1777H5.84229H5.19229V4.4777H5.84229H8.95144L8.42369 4.92197ZM3.26168 6.41477L3.75894 5.99617L2.92174 5.00163L2.42448 5.42023L0.533853 7.01177L-0.00146484 7.4624L0.487345 7.9631L0.952453 7.50903L0.487361 7.96312L0.487395 7.96315L0.487512 7.96327L0.487947 7.96372L0.489618 7.96543L0.496134 7.97209L0.52167 7.9982L0.621163 8.09973C0.708406 8.18865 0.836679 8.31916 1.00114 8.48586C1.33004 8.81923 1.80374 9.2974 2.38346 9.87712L2.84308 10.3367L3.76232 9.4175L3.3027 8.95788C3.00813 8.66332 2.7411 8.39512 2.50673 8.15903H5.84308H6.49308V6.85903H5.84308H2.73392L3.26168 6.41477Z" fill="#EFAF00"/>
</svg>
