<svg xmlns="http://www.w3.org/2000/svg" width="22" height="22" viewBox="0 0 22 22" fill="none">
  <path fill-rule="evenodd" clip-rule="evenodd" d="M1.83203 4.12467C1.83203 2.85902 2.85805 1.83301 4.1237 1.83301H17.8737C19.1393 1.83301 20.1654 2.85902 20.1654 4.12467V17.8747C20.1654 19.1403 19.1393 20.1663 17.8737 20.1663H4.1237C2.85804 20.1663 1.83203 19.1403 1.83203 17.8747V4.12467ZM6.41536 6.41634C6.41536 5.91008 6.82577 5.49967 7.33203 5.49967H14.6654C15.1716 5.49967 15.582 5.91008 15.582 6.41634C15.582 6.9226 15.1716 7.33301 14.6654 7.33301H7.33203C6.82577 7.33301 6.41536 6.9226 6.41536 6.41634ZM11.9154 9.16634C11.9154 8.66008 11.505 8.24967 10.9987 8.24967C10.4924 8.24967 10.082 8.66008 10.082 9.16634V14.2866L7.98021 12.1848C7.62223 11.8268 7.04183 11.8268 6.68385 12.1848C6.32587 12.5428 6.32587 13.1232 6.68385 13.4812L10.3505 17.1479C10.7085 17.5058 11.2889 17.5058 11.6469 17.1479L15.3135 13.4812C15.6715 13.1232 15.6715 12.5428 15.3135 12.1848C14.9556 11.8268 14.3752 11.8268 14.0172 12.1848L11.9154 14.2866V9.16634Z" fill="black" fill-opacity="0.85"/>
</svg>