<svg width="18" height="18" viewBox="0 0 18 18" fill="none" xmlns="http://www.w3.org/2000/svg">
<mask id="path-1-inside-1_20916_90122" fill="white">
<path fill-rule="evenodd" clip-rule="evenodd" d="M13.0486 1.8H5.50644C4.67026 1.8 4.15138 1.8014 3.76144 1.83326C3.39499 1.8632 3.30137 1.91096 3.28838 1.91758L3.28813 1.91771C3.08491 2.02126 2.91969 2.18648 2.81615 2.38969L2.81602 2.38994C2.80939 2.40294 2.76164 2.49655 2.7317 2.863C2.69984 3.25294 2.69844 3.77182 2.69844 4.608V13.392C2.69844 14.2282 2.69984 14.7471 2.7317 15.137C2.76164 15.5035 2.80939 15.5971 2.81602 15.6101L2.81615 15.6103C2.91969 15.8135 3.08491 15.9787 3.28813 16.0823L3.28838 16.0824C3.30138 16.089 3.395 16.1368 3.76144 16.1667C4.15138 16.1986 4.67026 16.2 5.50643 16.2H12.4904C13.3266 16.2 13.8455 16.1986 14.2354 16.1667C14.6019 16.1368 14.6955 16.089 14.7085 16.0824L14.7087 16.0823C14.912 15.9787 15.0772 15.8135 15.1807 15.6103L15.1809 15.6101C15.1875 15.5971 15.2352 15.5034 15.2652 15.137C15.297 14.7471 15.2984 14.2282 15.2984 13.392V4.07509C15.2984 3.99007 15.2984 3.92486 15.298 3.86863C15.2588 3.82827 15.2131 3.78183 15.1534 3.72128L13.4076 1.95019C13.3467 1.88841 13.3 1.84103 13.2593 1.80048C13.2019 1.80001 13.1354 1.8 13.0486 1.8ZM1.21234 1.57251C0.898438 2.18857 0.898438 2.99505 0.898438 4.608V13.392C0.898438 15.005 0.898438 15.8114 1.21234 16.4275C1.48845 16.9694 1.92904 17.41 2.47094 17.6861C3.08701 18 3.89349 18 5.50643 18H12.4904C14.1034 18 14.9099 18 15.5259 17.6861C16.0678 17.41 16.5084 16.9694 16.7845 16.4275C17.0984 15.8114 17.0984 15.005 17.0984 13.392V4.07509C17.0984 3.72635 17.0984 3.55198 17.0594 3.3877C17.0247 3.24205 16.9676 3.10268 16.89 2.97464C16.8025 2.83022 16.6801 2.70604 16.4353 2.45768L14.6895 0.686588L14.6895 0.686576C14.4398 0.433269 14.315 0.306614 14.1687 0.216003C14.0391 0.135669 13.8976 0.0764358 13.7494 0.0405161C13.5822 0 13.4043 0 13.0486 0H5.50644C3.89349 0 3.08701 0 2.47094 0.313901C1.92904 0.590017 1.48845 1.0306 1.21234 1.57251Z"/>
</mask>
<path fill-rule="evenodd" clip-rule="evenodd" d="M13.0486 1.8H5.50644C4.67026 1.8 4.15138 1.8014 3.76144 1.83326C3.39499 1.8632 3.30137 1.91096 3.28838 1.91758L3.28813 1.91771C3.08491 2.02126 2.91969 2.18648 2.81615 2.38969L2.81602 2.38994C2.80939 2.40294 2.76164 2.49655 2.7317 2.863C2.69984 3.25294 2.69844 3.77182 2.69844 4.608V13.392C2.69844 14.2282 2.69984 14.7471 2.7317 15.137C2.76164 15.5035 2.80939 15.5971 2.81602 15.6101L2.81615 15.6103C2.91969 15.8135 3.08491 15.9787 3.28813 16.0823L3.28838 16.0824C3.30138 16.089 3.395 16.1368 3.76144 16.1667C4.15138 16.1986 4.67026 16.2 5.50643 16.2H12.4904C13.3266 16.2 13.8455 16.1986 14.2354 16.1667C14.6019 16.1368 14.6955 16.089 14.7085 16.0824L14.7087 16.0823C14.912 15.9787 15.0772 15.8135 15.1807 15.6103L15.1809 15.6101C15.1875 15.5971 15.2352 15.5034 15.2652 15.137C15.297 14.7471 15.2984 14.2282 15.2984 13.392V4.07509C15.2984 3.99007 15.2984 3.92486 15.298 3.86863C15.2588 3.82827 15.2131 3.78183 15.1534 3.72128L13.4076 1.95019C13.3467 1.88841 13.3 1.84103 13.2593 1.80048C13.2019 1.80001 13.1354 1.8 13.0486 1.8ZM1.21234 1.57251C0.898438 2.18857 0.898438 2.99505 0.898438 4.608V13.392C0.898438 15.005 0.898438 15.8114 1.21234 16.4275C1.48845 16.9694 1.92904 17.41 2.47094 17.6861C3.08701 18 3.89349 18 5.50643 18H12.4904C14.1034 18 14.9099 18 15.5259 17.6861C16.0678 17.41 16.5084 16.9694 16.7845 16.4275C17.0984 15.8114 17.0984 15.005 17.0984 13.392V4.07509C17.0984 3.72635 17.0984 3.55198 17.0594 3.3877C17.0247 3.24205 16.9676 3.10268 16.89 2.97464C16.8025 2.83022 16.6801 2.70604 16.4353 2.45768L14.6895 0.686588L14.6895 0.686576C14.4398 0.433269 14.315 0.306614 14.1687 0.216003C14.0391 0.135669 13.8976 0.0764358 13.7494 0.0405161C13.5822 0 13.4043 0 13.0486 0H5.50644C3.89349 0 3.08701 0 2.47094 0.313901C1.92904 0.590017 1.48845 1.0306 1.21234 1.57251Z" fill="#111111"/>
<path d="M3.76144 1.83326L3.85932 3.03135H3.85932L3.76144 1.83326ZM3.28838 1.91758L2.74213 0.846778L2.74193 0.846882L3.28838 1.91758ZM3.28813 1.91771L3.83386 2.98878L3.83458 2.98842L3.28813 1.91771ZM2.81615 2.38969L1.74508 1.84395L1.74503 1.84405L2.81615 2.38969ZM2.81602 2.38994L3.88682 2.93621L3.88714 2.93558L2.81602 2.38994ZM2.7317 2.863L1.5336 2.76511L1.5336 2.76511L2.7317 2.863ZM2.7317 15.137L1.5336 15.2349H1.5336L2.7317 15.137ZM2.81602 15.6101L1.74521 16.1563L1.74553 16.1569L2.81602 15.6101ZM2.81615 15.6103L3.88722 15.0646L3.88664 15.0634L2.81615 15.6103ZM3.28813 16.0823L3.8409 15.0148L3.83386 15.0112L3.28813 16.0823ZM3.28838 16.0824L2.73561 17.1499L2.74231 17.1533L3.28838 16.0824ZM3.76144 16.1667L3.66355 17.3648H3.66355L3.76144 16.1667ZM14.2354 16.1667L14.3333 17.3648H14.3333L14.2354 16.1667ZM14.7085 16.0824L15.2546 17.1533L15.2604 17.1503L14.7085 16.0824ZM14.7087 16.0823L14.163 15.0112L14.1568 15.0144L14.7087 16.0823ZM15.1807 15.6103L16.2518 16.156L16.2535 16.1527L15.1807 15.6103ZM15.1809 15.6101L14.1101 15.0637L14.1081 15.0676L15.1809 15.6101ZM15.2652 15.137L16.4633 15.2349V15.2349L15.2652 15.137ZM15.298 3.86863L16.5 3.85903L16.4962 3.37737L16.1608 3.03164L15.298 3.86863ZM15.1534 3.72128L16.0095 2.87741L16.0095 2.87741L15.1534 3.72128ZM13.4076 1.95019L14.2637 1.10632L14.2637 1.10632L13.4076 1.95019ZM13.2593 1.80048L14.1085 0.949671L13.7606 0.602436L13.2691 0.598434L13.2593 1.80048ZM1.21234 1.57251L0.141271 1.02677L0.141271 1.02677L1.21234 1.57251ZM1.21234 16.4275L0.141271 16.9732H0.141272L1.21234 16.4275ZM2.47094 17.6861L3.01668 16.615L3.01668 16.615L2.47094 17.6861ZM15.5259 17.6861L14.9802 16.615H14.9802L15.5259 17.6861ZM16.7845 16.4275L15.7135 15.8818V15.8818L16.7845 16.4275ZM17.0594 3.3877L15.8899 3.66579L15.8899 3.66581L17.0594 3.3877ZM16.89 2.97464L15.8619 3.59755L15.8619 3.59756L16.89 2.97464ZM16.4353 2.45768L15.5792 3.30154L15.5792 3.30154L16.4353 2.45768ZM14.6895 0.686588L13.7892 1.48315L13.8107 1.5074L13.8334 1.53046L14.6895 0.686588ZM14.6895 0.686576L15.5898 -0.109985L15.5683 -0.134234L15.5456 -0.157293L14.6895 0.686576ZM14.1687 0.216003L13.5355 1.23777L14.1687 0.216003ZM13.7494 0.0405161L13.4662 1.20878L13.4662 1.20878L13.7494 0.0405161ZM2.47094 0.313901L1.92521 -0.757166L1.92521 -0.757166L2.47094 0.313901ZM5.50644 3.00209H13.0486V0.597913H5.50644V3.00209ZM3.85932 3.03135C4.18872 3.00444 4.64937 3.00209 5.50644 3.00209V0.597913C4.69115 0.597913 4.11405 0.598358 3.66355 0.635165L3.85932 3.03135ZM3.83463 2.98839C3.83505 2.98818 3.83232 2.98957 3.82891 2.99128C3.82528 2.99311 3.82087 2.99529 3.81585 2.99772C3.80563 3.00267 3.79487 3.00768 3.78363 3.01265C3.76115 3.02259 3.74086 3.03057 3.72332 3.03688C3.68908 3.04921 3.66784 3.05426 3.66523 3.05487C3.66261 3.05548 3.6752 3.05244 3.70758 3.04773C3.73979 3.04305 3.78908 3.03709 3.85932 3.03135L3.66355 0.635165C3.22764 0.67078 2.95578 0.73779 2.74213 0.846778L3.83463 2.98839ZM3.83458 2.98842L3.83483 2.98829L2.74193 0.846882L2.74168 0.847011L3.83458 2.98842ZM3.88722 2.93543C3.87551 2.9584 3.85684 2.97708 3.83386 2.98878L2.74239 0.846646C2.31299 1.06544 1.96387 1.41455 1.74508 1.84395L3.88722 2.93543ZM3.88714 2.93558L3.88727 2.93533L1.74503 1.84405L1.7449 1.84431L3.88714 2.93558ZM3.92979 2.96089C3.93553 2.89064 3.94149 2.84135 3.94617 2.80914C3.95087 2.77676 3.95392 2.76417 3.95331 2.7668C3.9527 2.76941 3.94765 2.79064 3.93532 2.82489C3.92901 2.84242 3.92103 2.86272 3.91108 2.8852C3.90612 2.89643 3.90111 2.9072 3.89616 2.91741C3.89373 2.92243 3.89154 2.92684 3.88972 2.93048C3.88801 2.93389 3.88661 2.93662 3.88682 2.93621L1.74522 1.84368C1.63622 2.05734 1.56922 2.32922 1.5336 2.76511L3.92979 2.96089ZM3.90052 4.608C3.90052 3.75093 3.90288 3.29028 3.92979 2.96089L1.5336 2.76511C1.4968 3.21561 1.49635 3.79272 1.49635 4.608H3.90052ZM3.90052 13.392V4.608H1.49635V13.392H3.90052ZM3.92979 15.0391C3.90288 14.7097 3.90052 14.2491 3.90052 13.392H1.49635C1.49635 14.2073 1.4968 14.7844 1.5336 15.2349L3.92979 15.0391ZM3.88683 15.0638C3.88662 15.0634 3.88801 15.0661 3.88972 15.0695C3.89155 15.0732 3.89373 15.0776 3.89616 15.0826C3.90111 15.0928 3.90612 15.1036 3.91109 15.1148C3.92103 15.1373 3.92901 15.1576 3.93532 15.1751C3.94765 15.2094 3.9527 15.2306 3.95331 15.2332C3.95392 15.2358 3.95087 15.2232 3.94617 15.1909C3.94149 15.1587 3.93553 15.1094 3.92979 15.0391L1.5336 15.2349C1.56922 15.6708 1.63623 15.9427 1.74521 16.1563L3.88683 15.0638ZM3.88664 15.0634L3.88651 15.0632L1.74553 16.1569L1.74566 16.1572L3.88664 15.0634ZM3.83386 15.0112C3.85684 15.0229 3.87551 15.0416 3.88722 15.0646L1.74508 16.156C1.96387 16.5854 2.31299 16.9346 2.74239 17.1534L3.83386 15.0112ZM3.84114 15.015L3.84088 15.0148L2.73537 17.1497L2.73563 17.1499L3.84114 15.015ZM3.85933 14.9686C3.78908 14.9629 3.73979 14.9569 3.70758 14.9523C3.6752 14.9476 3.66261 14.9445 3.66523 14.9451C3.66784 14.9457 3.68907 14.9508 3.7233 14.9631C3.74083 14.9694 3.76111 14.9774 3.78357 14.9873C3.7948 14.9923 3.80555 14.9973 3.81575 15.0022C3.82076 15.0047 3.82516 15.0068 3.82878 15.0087C3.83218 15.0104 3.8349 15.0118 3.83446 15.0115L2.74231 17.1533C2.95583 17.2622 3.22757 17.3292 3.66355 17.3648L3.85933 14.9686ZM5.50643 14.9979C4.64937 14.9979 4.18871 14.9956 3.85932 14.9686L3.66355 17.3648C4.11405 17.4016 4.69115 17.4021 5.50643 17.4021V14.9979ZM12.4904 14.9979H5.50643V17.4021H12.4904V14.9979ZM14.1376 14.9686C13.8082 14.9956 13.3475 14.9979 12.4904 14.9979V17.4021C13.3057 17.4021 13.8828 17.4016 14.3333 17.3648L14.1376 14.9686ZM14.1624 15.0115C14.162 15.0117 14.1647 15.0104 14.1681 15.0087C14.1717 15.0068 14.1761 15.0047 14.1811 15.0022C14.1913 14.9973 14.2021 14.9923 14.2133 14.9873C14.2358 14.9774 14.256 14.9694 14.2736 14.9631C14.3078 14.9508 14.329 14.9457 14.3316 14.9451C14.3343 14.9445 14.3217 14.9476 14.2893 14.9523C14.2571 14.9569 14.2078 14.9629 14.1375 14.9686L14.3333 17.3648C14.7693 17.3292 15.041 17.2622 15.2546 17.1533L14.1624 15.0115ZM14.1568 15.0144L14.1566 15.0145L15.2604 17.1503L15.2607 17.1502L14.1568 15.0144ZM14.1097 15.0646C14.1214 15.0416 14.14 15.0229 14.163 15.0112L15.2545 17.1534C15.6839 16.9346 16.033 16.5854 16.2518 16.156L14.1097 15.0646ZM14.1081 15.0676L14.108 15.0679L16.2535 16.1527L16.2536 16.1525L14.1081 15.0676ZM14.0671 15.0391C14.0613 15.1094 14.0554 15.1586 14.0507 15.1909C14.046 15.2232 14.043 15.2358 14.0436 15.2332C14.0442 15.2306 14.0492 15.2094 14.0616 15.1751C14.0679 15.1576 14.0758 15.1373 14.0858 15.1148C14.0908 15.1036 14.0958 15.0928 14.1007 15.0826C14.1032 15.0775 14.1053 15.0731 14.1072 15.0695C14.1089 15.0661 14.1103 15.0633 14.1101 15.0637L16.2516 16.1564C16.3607 15.9427 16.4277 15.6708 16.4633 15.2349L14.0671 15.0391ZM14.0963 13.392C14.0963 14.2491 14.094 14.7097 14.0671 15.0391L16.4633 15.2349C16.5001 14.7844 16.5005 14.2073 16.5005 13.392H14.0963ZM14.0963 4.07509V13.392H16.5005V4.07509H14.0963ZM14.0959 3.87824C14.0963 3.92869 14.0963 3.9887 14.0963 4.07509H16.5005C16.5005 3.99144 16.5005 3.92104 16.5 3.85903L14.0959 3.87824ZM14.2973 4.56514C14.3579 4.62669 14.4 4.66942 14.4352 4.70563L16.1608 3.03164C16.1176 2.98712 16.0682 2.93696 16.0095 2.87741L14.2973 4.56514ZM12.5515 2.79406L14.2973 4.56515L16.0095 2.87741L14.2637 1.10632L12.5515 2.79406ZM12.4101 2.65129C12.4466 2.68767 12.4896 2.73127 12.5515 2.79406L14.2637 1.10632C14.2038 1.04555 14.1533 0.994379 14.1085 0.949671L12.4101 2.65129ZM13.0486 3.00209C13.1368 3.00209 13.1981 3.00211 13.2495 3.00253L13.2691 0.598434C13.2058 0.597919 13.134 0.597913 13.0486 0.597913V3.00209ZM2.10052 4.608C2.10052 3.78169 2.10146 3.23425 2.13577 2.81431C2.16893 2.4084 2.22719 2.22857 2.28341 2.11824L0.141271 1.02677C-0.116415 1.53251 -0.215108 2.06395 -0.260419 2.61853C-0.304584 3.15908 -0.303649 3.82136 -0.303649 4.608H2.10052ZM2.10052 13.392V4.608H-0.303649V13.392H2.10052ZM2.28341 15.8818C2.22719 15.7714 2.16893 15.5916 2.13577 15.1857C2.10146 14.7657 2.10052 14.2183 2.10052 13.392H-0.303649C-0.303649 14.1786 -0.304584 14.8409 -0.260419 15.3815C-0.215108 15.9361 -0.116415 16.4675 0.141271 16.9732L2.28341 15.8818ZM3.01668 16.615C2.70096 16.4542 2.44427 16.1975 2.28341 15.8818L0.141272 16.9732C0.532635 17.7413 1.15711 18.3658 1.92521 18.7572L3.01668 16.615ZM5.50643 16.7979C4.68012 16.7979 4.13269 16.797 3.71275 16.7627C3.30684 16.7295 3.12701 16.6712 3.01668 16.615L1.92521 18.7572C2.43095 19.0149 2.96239 19.1135 3.51697 19.1589C4.05752 19.203 4.7198 19.2021 5.50643 19.2021V16.7979ZM12.4904 16.7979H5.50643V19.2021H12.4904V16.7979ZM14.9802 16.615C14.8699 16.6712 14.69 16.7295 14.2841 16.7627C13.8642 16.797 13.3167 16.7979 12.4904 16.7979V19.2021C13.2771 19.2021 13.9394 19.203 14.4799 19.1589C15.0345 19.1135 15.5659 19.0149 16.0717 18.7572L14.9802 16.615ZM15.7135 15.8818C15.5526 16.1975 15.2959 16.4542 14.9802 16.615L16.0717 18.7572C16.8398 18.3658 17.4642 17.7413 17.8556 16.9732L15.7135 15.8818ZM15.8963 13.392C15.8963 14.2183 15.8954 14.7657 15.8611 15.1857C15.8279 15.5916 15.7697 15.7714 15.7135 15.8818L17.8556 16.9732C18.1133 16.4675 18.212 15.9361 18.2573 15.3815C18.3015 14.8409 18.3005 14.1786 18.3005 13.392H15.8963ZM15.8963 4.07509V13.392H18.3005V4.07509H15.8963ZM15.8899 3.66581C15.886 3.64951 15.8898 3.65332 15.8927 3.71666C15.8961 3.79096 15.8963 3.89035 15.8963 4.07509H18.3005C18.3005 3.78296 18.3081 3.4429 18.2288 3.1096L15.8899 3.66581ZM15.8619 3.59756C15.8747 3.61871 15.8842 3.64174 15.8899 3.66579L18.2288 3.10961C18.1653 2.84236 18.0605 2.58665 17.9181 2.35172L15.8619 3.59756ZM15.5792 3.30154C15.7089 3.43311 15.7785 3.50409 15.8282 3.55937C15.8706 3.6065 15.8706 3.61188 15.8619 3.59755L17.9181 2.35172C17.7406 2.05871 17.4965 1.82185 17.2914 1.61381L15.5792 3.30154ZM13.8334 1.53046L15.5792 3.30154L17.2914 1.61381L15.5456 -0.157278L13.8334 1.53046ZM13.7892 1.48314L13.7892 1.48315L15.5898 -0.109972L15.5898 -0.109985L13.7892 1.48314ZM13.5355 1.23777C13.5209 1.22875 13.5265 1.22871 13.574 1.27269C13.6297 1.32423 13.7011 1.39627 13.8334 1.53044L15.5456 -0.157293C15.3365 -0.369421 15.0987 -0.621914 14.802 -0.805769L13.5355 1.23777ZM13.4662 1.20878C13.4907 1.21472 13.5141 1.2245 13.5355 1.23777L14.802 -0.805769C14.5642 -0.953163 14.3044 -1.06184 14.0325 -1.12775L13.4662 1.20878ZM13.0486 1.20209C13.2371 1.20209 13.3385 1.20238 13.4143 1.20588C13.479 1.20886 13.4829 1.21282 13.4662 1.20878L14.0325 -1.12775C13.6933 -1.20996 13.3465 -1.20209 13.0486 -1.20209V1.20209ZM5.50644 1.20209H13.0486V-1.20209H5.50644V1.20209ZM3.01668 1.38497C3.12701 1.32875 3.30684 1.2705 3.71275 1.23733C4.13269 1.20302 4.68013 1.20209 5.50644 1.20209V-1.20209C4.7198 -1.20209 4.05752 -1.20302 3.51697 -1.15886C2.96239 -1.11355 2.43095 -1.01485 1.92521 -0.757166L3.01668 1.38497ZM2.28341 2.11824C2.44427 1.80252 2.70096 1.54584 3.01668 1.38497L1.92521 -0.757166C1.15711 -0.365803 0.532635 0.258677 0.141271 1.02677L2.28341 2.11824Z" fill="#111111" mask="url(#path-1-inside-1_20916_90122)"/>
<path d="M12.3604 0V2.22171C12.3604 3.02819 12.3604 3.43143 12.5173 3.73946C12.6554 4.01041 12.8757 4.23071 13.1466 4.36876C13.4546 4.52571 13.8579 4.52571 14.6644 4.52571H16.8861" stroke="#111111" stroke-width="1.8"/>
<rect x="4.81641" y="11.5859" width="8.22857" height="1.8" rx="0.9" fill="#111111"/>
<rect x="4.81641" y="7.67969" width="4.93714" height="1.8" rx="0.9" fill="#111111"/>
</svg>
