<svg width="19" height="18" viewBox="0 0 19 18" fill="none" xmlns="http://www.w3.org/2000/svg">
<path d="M7.86526 5.84152C7.76962 5.74615 7.65149 5.67641 7.52177 5.63872C7.39206 5.60102 7.25494 5.5966 7.12307 5.62586C6.99119 5.65512 6.86882 5.71712 6.76723 5.80613C6.66564 5.89514 6.58811 6.00829 6.5418 6.13516L3.86993 13.4826C3.82604 13.6038 3.81186 13.7337 3.82859 13.8615C3.84532 13.9893 3.89246 14.1112 3.96606 14.2169C4.03967 14.3227 4.13758 14.4093 4.25158 14.4695C4.36559 14.5296 4.49236 14.5615 4.62125 14.5625C4.71615 14.5619 4.81021 14.5446 4.89918 14.5116L12.248 11.8399C12.3749 11.7937 12.4881 11.7162 12.5772 11.6147C12.6663 11.5131 12.7284 11.3908 12.7577 11.2589C12.787 11.1271 12.7826 10.99 12.745 10.8603C12.7073 10.7306 12.6375 10.6124 12.5422 10.5168L7.86526 5.84152ZM7.44124 12.7223L5.65966 10.9412L6.32954 9.09847L9.28442 12.0526L7.44124 12.7223ZM4.64161 13.7401L5.35425 11.7854L6.59881 13.0297L4.64161 13.7401ZM10.1309 11.7452L6.63699 8.25217L7.29872 6.42675L11.9527 11.0796L10.1309 11.7452ZM10.3345 6.82726C10.3422 6.55203 10.4088 6.28165 10.53 6.03439C10.7998 5.49547 11.3088 5.19878 11.9634 5.19878C12.3045 5.19878 12.5233 5.08225 12.6582 4.83187C12.7293 4.69179 12.77 4.53835 12.7778 4.3815C12.7782 4.27352 12.8215 4.17013 12.8982 4.09407C12.9749 4.018 13.0786 3.9755 13.1866 3.9759C13.2946 3.97631 13.398 4.01959 13.4741 4.09623C13.5502 4.17286 13.5927 4.27657 13.5923 4.38455C13.5923 5.03899 13.1586 6.01302 11.9634 6.01302C11.6224 6.01302 11.4035 6.12956 11.2686 6.37994C11.1976 6.52001 11.1568 6.67346 11.149 6.83031C11.1488 6.88377 11.138 6.93667 11.1174 6.98599C11.0967 7.03531 11.0666 7.08008 11.0286 7.11774C10.9907 7.1554 10.9457 7.18522 10.8962 7.2055C10.8467 7.22577 10.7937 7.2361 10.7402 7.2359C10.6867 7.2357 10.6338 7.22497 10.5845 7.20433C10.5352 7.18368 10.4904 7.15353 10.4527 7.11558C10.4151 7.07763 10.3852 7.03264 10.3649 6.98317C10.3447 6.9337 10.3343 6.88072 10.3345 6.82726ZM9.11288 5.19878V3.97743C9.11288 3.86946 9.15578 3.7659 9.23215 3.68955C9.30852 3.61321 9.41209 3.57031 9.52009 3.57031C9.6281 3.57031 9.73167 3.61321 9.80804 3.68955C9.88441 3.7659 9.92731 3.86946 9.92731 3.97743V5.19878C9.92731 5.30676 9.88441 5.41031 9.80804 5.48666C9.73167 5.56301 9.6281 5.6059 9.52009 5.6059C9.41209 5.6059 9.30852 5.56301 9.23215 5.48666C9.15578 5.41031 9.11288 5.30676 9.11288 5.19878ZM14.2876 9.38905C14.3254 9.42687 14.3554 9.47177 14.3758 9.52118C14.3963 9.57059 14.4068 9.62354 14.4068 9.67701C14.4067 9.73048 14.3962 9.78342 14.3757 9.83281C14.3552 9.8822 14.3252 9.92707 14.2874 9.96487C14.2495 10.0027 14.2046 10.0326 14.1552 10.0531C14.1058 10.0735 14.0528 10.084 13.9993 10.084C13.9458 10.084 13.8929 10.0734 13.8435 10.0529C13.7941 10.0324 13.7492 10.0024 13.7114 9.96461L12.897 9.15038C12.8205 9.07398 12.7776 8.97037 12.7776 8.86234C12.7776 8.7543 12.8205 8.65069 12.897 8.5743C12.9734 8.49791 13.077 8.45499 13.1851 8.45499C13.2931 8.45499 13.3968 8.49791 13.4732 8.5743L14.2876 9.38905ZM14.5355 7.21351L13.3138 7.62063C13.2114 7.65478 13.0995 7.64683 13.0029 7.59854C12.9063 7.55025 12.8329 7.46557 12.7987 7.36313C12.7646 7.26069 12.7725 7.14888 12.8208 7.05229C12.8691 6.95571 12.9538 6.88227 13.0563 6.84812L14.2779 6.441C14.3804 6.40686 14.4922 6.4148 14.5888 6.46309C14.6855 6.51139 14.7589 6.59607 14.7931 6.69851C14.8272 6.80095 14.8193 6.91276 14.771 7.00934C14.7227 7.10592 14.638 7.17936 14.5355 7.21351Z" fill="#EAAD36"/>
</svg>
