<svg width="40" height="40" viewBox="0 0 40 40" fill="none" xmlns="http://www.w3.org/2000/svg">
<rect width="40" height="40" rx="10" fill="#F1F1F1"/>
<g clip-path="url(#clip0_13188_87057)">
<path d="M28.2313 27.9242L24.4624 26.5273C24.4523 26.5223 24.437 26.5223 24.4269 26.5223H15.538C15.2586 26.5223 15.03 26.2937 15.03 26.0143V15.8556C15.03 15.5762 15.2586 15.3477 15.538 15.3477H28.4091C28.6884 15.3477 28.917 15.5762 28.917 15.8556V27.4518C28.917 27.8023 28.5665 28.0461 28.2313 27.9242ZM16.4878 25.1661H24.6656C24.6757 25.1661 24.691 25.1661 24.7011 25.1711L27.4237 26.1667C27.4897 26.1921 27.5608 26.1413 27.5608 26.0702V16.8004C27.5608 16.7445 27.5151 16.6988 27.4592 16.6988H16.4878C16.4319 16.6988 16.3862 16.7445 16.3862 16.8004V25.0645C16.3862 25.1204 16.4319 25.1661 16.4878 25.1661Z" fill="#111111" stroke="#111111" stroke-width="0.444444"/>
<path d="M11.1392 23.4891V12.5431C11.1392 12.2637 11.3677 12.0352 11.6471 12.0352H23.4312C23.7106 12.0352 23.9392 12.2637 23.9392 12.5431V14.4377C23.9392 14.4936 23.8934 14.5393 23.8376 14.5393H22.6846C22.6287 14.5393 22.583 14.4936 22.583 14.4377V13.4929C22.583 13.4371 22.5373 13.3913 22.4814 13.3913H12.5969C12.5411 13.3913 12.4954 13.4371 12.4954 13.4929V22.0821C12.4954 22.1533 12.5665 22.204 12.6325 22.1786L13.6534 21.8079C13.7093 21.7875 13.7652 21.818 13.7855 21.8688L14.1919 23.0777C14.2122 23.1336 14.1817 23.1894 14.1258 23.2047L11.8096 23.9666C11.4795 24.0834 11.1392 23.8396 11.1392 23.4891Z" fill="#111111" stroke="#111111" stroke-width="0.444444"/>
</g>
<defs>
<clipPath id="clip0_13188_87057">
<rect width="19.0476" height="17.7778" fill="white" transform="translate(9.92041 11.1094)"/>
</clipPath>
</defs>
</svg>
