<svg width="20" height="20" viewBox="0 0 20 20" fill="none" xmlns="http://www.w3.org/2000/svg">
<path d="M1.00049 3.75C1.00049 1.88604 2.51153 0.375 4.37549 0.375H10.7405C11.2238 0.375 11.6155 0.766751 11.6155 1.25C11.6155 1.73325 11.2238 2.125 10.7405 2.125H4.37549C3.47803 2.125 2.75049 2.85254 2.75049 3.75V16.25C2.75049 17.1475 3.47803 17.875 4.37549 17.875H15.6255C16.523 17.875 17.2505 17.1475 17.2505 16.25V6.67307C17.2505 6.18982 17.6422 5.79807 18.1255 5.79807C18.6087 5.79807 19.0005 6.18982 19.0005 6.67307V16.25C19.0005 18.114 17.4894 19.625 15.6255 19.625H4.37549C2.51153 19.625 1.00049 18.114 1.00049 16.25V3.75Z" fill="#111111"/>
<path fill-rule="evenodd" clip-rule="evenodd" d="M18.1414 0.67382C18.4596 1.0375 18.4228 1.59029 18.0591 1.90852L13.0591 6.28352C12.6954 6.60174 12.1426 6.56489 11.8244 6.2012C11.5062 5.83752 11.543 5.28473 11.9067 4.96651L16.9067 0.591507C17.2704 0.273286 17.8232 0.310138 18.1414 0.67382Z" fill="#111111"/>
<path d="M4.35645 8.03125C4.35645 7.548 4.7482 7.15625 5.23145 7.15625H9.73144C10.2147 7.15625 10.6064 7.548 10.6064 8.03125C10.6064 8.5145 10.2147 8.90625 9.73144 8.90625H5.23145C4.7482 8.90625 4.35645 8.5145 4.35645 8.03125Z" fill="#111111"/>
<path d="M4.35645 11.7812C4.35645 11.298 4.7482 10.9062 5.23145 10.9062H12.2314C12.7147 10.9062 13.1064 11.298 13.1064 11.7812C13.1064 12.2645 12.7147 12.6562 12.2314 12.6562H5.23145C4.7482 12.6562 4.35645 12.2645 4.35645 11.7812Z" fill="#111111"/>
</svg>
