<svg width="36" height="36" viewBox="0 0 36 36" fill="none" xmlns="http://www.w3.org/2000/svg">
<path d="M17.671 9.45755C17.842 9.25204 18.1576 9.25204 18.3287 9.45755L21.6015 13.3894C21.6471 13.4441 21.7056 13.4866 21.7717 13.513L26.5225 15.4107C26.7708 15.5099 26.8683 15.81 26.7257 16.0362L23.9977 20.3639C23.9597 20.4241 23.9374 20.4929 23.9327 20.5639L23.596 25.6686C23.5784 25.9354 23.3231 26.1209 23.0639 26.0552L18.105 24.798C18.036 24.7805 17.9637 24.7805 17.8947 24.798L12.9357 26.0552C12.6766 26.1209 12.4213 25.9354 12.4037 25.6686L12.067 20.5639C12.0623 20.4929 12.0399 20.4241 12.002 20.3639L9.27391 16.0362C9.13133 15.81 9.22884 15.5099 9.47714 15.4107L14.228 13.513C14.2941 13.4866 14.3525 13.4441 14.3981 13.3894L17.671 9.45755Z" fill="#FFD429"/>
</svg>
