<svg width="16" height="16" viewBox="0 0 16 16" fill="none" xmlns="http://www.w3.org/2000/svg">
<path fill-rule="evenodd" clip-rule="evenodd" d="M8 16C12.4183 16 16 12.4183 16 8C16 3.58172 12.4183 0 8 0C3.58172 0 0 3.58172 0 8C0 10.4007 1.05741 12.5543 2.73189 14.0207L1 16H8Z" fill="#333333"/>
<path d="M12.4887 6.04329L12.198 7.21063C12.191 7.24739 12.1708 7.28033 12.1413 7.30331C12.1117 7.32629 12.0748 7.33774 12.0375 7.33554H10.3336L10.0009 8.6675H11.6224C11.6476 8.66716 11.6725 8.67265 11.6951 8.68353C11.7178 8.69442 11.7376 8.7104 11.7531 8.73024C11.7694 8.75044 11.7808 8.77419 11.7863 8.79958C11.7918 8.82497 11.7913 8.85129 11.7848 8.87644L11.4912 10.042C11.4859 10.0796 11.4662 10.1137 11.4362 10.137C11.4062 10.1603 11.3684 10.1711 11.3306 10.167H9.62565L9.20488 11.8748C9.19782 11.9115 9.17764 11.9445 9.14809 11.9675C9.11855 11.9905 9.08165 12.0019 9.04428 11.9997H7.87752C7.85159 12.0004 7.82585 11.995 7.80229 11.9842C7.77874 11.9733 7.758 11.9571 7.74168 11.937C7.72614 11.9163 7.71526 11.8926 7.70979 11.8673C7.70433 11.8421 7.7044 11.816 7.71002 11.7908L8.11583 10.1675H6.7948L6.37288 11.8748C6.36581 11.9117 6.34555 11.9447 6.31588 11.9677C6.28621 11.9907 6.24917 12.002 6.21171 11.9997H5.03977C5.01463 12 4.98975 11.9945 4.96708 11.9837C4.94441 11.9728 4.92457 11.9568 4.90911 11.937C4.89357 11.9163 4.88268 11.8926 4.87722 11.8673C4.87175 11.8421 4.87183 11.816 4.87745 11.7908L5.28325 10.1687H3.66464C3.6395 10.169 3.61462 10.1635 3.59195 10.1526C3.56928 10.1418 3.54944 10.1258 3.53398 10.1059C3.51843 10.0853 3.50755 10.0616 3.50209 10.0363C3.49662 10.0111 3.4967 9.98495 3.50232 9.95974L3.79415 8.79125C3.80121 8.75449 3.82139 8.72155 3.85094 8.69857C3.88049 8.67559 3.91738 8.66414 3.95475 8.66634H5.65798L5.99068 7.33438H4.37322C4.34807 7.33472 4.32319 7.32923 4.30052 7.31835C4.27785 7.30746 4.25801 7.29148 4.24255 7.27164C4.22623 7.25144 4.21486 7.22769 4.20936 7.2023C4.20387 7.17691 4.20439 7.15059 4.21089 7.12544L4.5033 5.95868C4.50861 5.92108 4.52834 5.88702 4.55831 5.86371C4.58828 5.8404 4.62615 5.82966 4.6639 5.83377H6.36655L6.78732 4.12594C6.79517 4.08848 6.81638 4.05515 6.84698 4.03217C6.87759 4.00919 6.91551 3.99812 6.95367 4.00103H8.11928C8.14442 4.0007 8.16931 4.00618 8.19198 4.01707C8.21464 4.02795 8.23448 4.04394 8.24994 4.06377C8.26549 4.0844 8.27637 4.10816 8.28183 4.1334C8.2873 4.15864 8.28722 4.18477 8.2816 4.20998L7.8758 5.8332H9.1997L9.62104 4.12536C9.6289 4.0879 9.6501 4.05458 9.68071 4.0316C9.71131 4.00861 9.74923 3.99755 9.7874 4.00046H10.953C10.9781 4.00012 11.003 4.00561 11.0257 4.01649C11.0484 4.02738 11.0682 4.04336 11.0837 4.0632C11.0992 4.08382 11.1101 4.10758 11.1156 4.13282C11.121 4.15807 11.1209 4.18419 11.1153 4.2094L10.7095 5.83262H12.3287C12.3539 5.83228 12.3787 5.83777 12.4014 5.84866C12.4241 5.85954 12.4439 5.87553 12.4594 5.89536C12.4747 5.91655 12.4853 5.94074 12.4906 5.96634C12.4958 5.99194 12.4956 6.01837 12.4899 6.04387L12.4887 6.04329ZM8.49112 8.6675L8.82383 7.33554H7.49993L7.16722 8.6675H8.49112Z" fill="white"/>
</svg>
