<svg width="45" height="44" viewBox="0 0 45 44" fill="none" xmlns="http://www.w3.org/2000/svg">
<g filter="url(#filter0_b_6023_117982)">
<rect x="1" width="44" height="44" rx="22" fill="#F5F5F5"/>
</g>
<g clip-path="url(#clip0_6023_117982)">
<path d="M13.0439 31.9997L14.4504 26.8648C13.5814 25.3582 13.1251 23.6491 13.1274 21.9099C13.1294 16.445 17.5769 12 23.0408 12C24.3438 11.9967 25.6345 12.2519 26.8381 12.7508C28.0418 13.2497 29.1346 13.9824 30.0532 14.9065C30.9764 15.8253 31.7082 16.918 32.2062 18.1215C32.7043 19.325 32.9586 20.6154 32.9546 21.9179C32.9521 27.3818 28.5047 31.8277 23.0408 31.8277H23.0368C21.3817 31.8276 19.753 31.413 18.2994 30.6217L13.0439 31.9997Z" fill="#1EBA62"/>
<path d="M20.5658 17.765C20.3648 17.2825 20.1608 17.348 20.0088 17.34C19.8638 17.333 19.6988 17.332 19.5338 17.332C19.3688 17.332 19.1003 17.3935 18.8738 17.6415C18.6463 17.8895 18.0068 18.4885 18.0068 19.7075C18.0068 20.9265 18.8943 22.104 19.0178 22.2689C19.1418 22.4339 20.7648 24.9354 23.2497 26.0079C23.8402 26.2629 24.3017 26.4154 24.6617 26.5299C25.2547 26.7179 25.7947 26.6919 26.2217 26.6279C26.6972 26.5569 27.6867 26.0289 27.8937 25.4504C28.0997 24.8719 28.0997 24.3759 28.0387 24.2724C27.9762 24.1699 27.8112 24.1074 27.5637 23.9834C27.3157 23.8599 26.0977 23.2604 25.8707 23.1784C25.6437 23.0949 25.4787 23.0534 25.3132 23.3019C25.1482 23.5499 24.6732 24.1074 24.5292 24.2724C24.3842 24.4379 24.2397 24.4589 23.9922 24.3349C23.7447 24.2109 22.9468 23.9494 22.0008 23.1059C21.2643 22.4494 20.7673 21.638 20.6228 21.39C20.4778 21.1425 20.6073 21.0085 20.7308 20.885C20.8423 20.774 20.9788 20.5955 21.1028 20.4515C21.2268 20.3065 21.2678 20.203 21.3503 20.038C21.4328 19.873 21.3918 19.728 21.3298 19.604C21.2678 19.48 20.7723 18.2615 20.5658 17.7655V17.765Z" fill="white"/>
</g>
<defs>
<filter id="filter0_b_6023_117982" x="-63" y="-64" width="172" height="172" filterUnits="userSpaceOnUse" color-interpolation-filters="sRGB">
<feFlood flood-opacity="0" result="BackgroundImageFix"/>
<feGaussianBlur in="BackgroundImageFix" stdDeviation="32"/>
<feComposite in2="SourceAlpha" operator="in" result="effect1_backgroundBlur_6023_117982"/>
<feBlend mode="normal" in="SourceGraphic" in2="effect1_backgroundBlur_6023_117982" result="shape"/>
</filter>
<clipPath id="clip0_6023_117982">
<rect width="20" height="20" fill="white" transform="translate(13 12)"/>
</clipPath>
</defs>
</svg>
