<svg width="20" height="21" viewBox="0 0 20 21" fill="none" xmlns="http://www.w3.org/2000/svg">
<path d="M4.16797 8.41797C4.16797 8.41797 2.02511 9.2513 1.66797 12.168" stroke="#DDDDDD" stroke-width="1.25" stroke-linecap="round"/>
<path d="M15.8359 8.41797C15.8359 8.41797 17.9788 9.2513 18.3359 12.168" stroke="#DDDDDD" stroke-width="1.25" stroke-linecap="round"/>
<path d="M7.5 8.41797C7.5 8.41797 9.5 8.90409 10 11.3346" stroke="#DDDDDD" stroke-width="1.25" stroke-linecap="round"/>
<path d="M12.5 8.41797C12.5 8.41797 10.5 8.90409 10 11.3346" stroke="#DDDDDD" stroke-width="1.25" stroke-linecap="round"/>
<path d="M8.33594 14.668C8.33594 14.668 6.58594 14.9805 5.83594 17.168" stroke="#DDDDDD" stroke-width="1.25" stroke-linecap="round"/>
<path d="M11.668 14.668C11.668 14.668 13.418 14.9805 14.168 17.168" stroke="#DDDDDD" stroke-width="1.25" stroke-linecap="round"/>
<path d="M10.0013 15.5026C11.1519 15.5026 12.0846 14.5699 12.0846 13.4193C12.0846 12.2687 11.1519 11.3359 10.0013 11.3359C8.85071 11.3359 7.91797 12.2687 7.91797 13.4193C7.91797 14.5699 8.85071 15.5026 10.0013 15.5026Z" stroke="#DDDDDD" stroke-width="1.25" stroke-linecap="round" stroke-linejoin="round"/>
<path d="M14.168 8.83594C15.5487 8.83594 16.668 7.71665 16.668 6.33594C16.668 4.95523 15.5487 3.83594 14.168 3.83594C12.7873 3.83594 11.668 4.95523 11.668 6.33594C11.668 7.71665 12.7873 8.83594 14.168 8.83594Z" stroke="#DDDDDD" stroke-width="1.25" stroke-linecap="round" stroke-linejoin="round"/>
<path d="M5.83594 8.83594C7.21665 8.83594 8.33594 7.71665 8.33594 6.33594C8.33594 4.95523 7.21665 3.83594 5.83594 3.83594C4.45523 3.83594 3.33594 4.95523 3.33594 6.33594C3.33594 7.71665 4.45523 8.83594 5.83594 8.83594Z" stroke="#DDDDDD" stroke-width="1.25" stroke-linecap="round" stroke-linejoin="round"/>
</svg>
