<svg width="20" height="21" viewBox="0 0 20 21" fill="none" xmlns="http://www.w3.org/2000/svg">
<path d="M5.83464 6.7487C8.13582 6.7487 10.0013 5.81596 10.0013 4.66536C10.0013 3.51477 8.13582 2.58203 5.83464 2.58203C3.53345 2.58203 1.66797 3.51477 1.66797 4.66536C1.66797 5.81596 3.53345 6.7487 5.83464 6.7487Z" stroke="#DDDDDD" stroke-width="1.25" stroke-linecap="round" stroke-linejoin="round"/>
<path d="M1.66797 4.66406C1.66797 4.66406 1.66797 6.43015 1.66797 7.58073C1.66797 8.73131 3.53345 9.66406 5.83464 9.66406C8.1358 9.66406 10.0013 8.73131 10.0013 7.58073C10.0013 6.89923 10.0013 4.66406 10.0013 4.66406" stroke="#DDDDDD" stroke-width="1.25" stroke-linecap="round" stroke-linejoin="round"/>
<path d="M1.66797 7.58203C1.66797 7.58203 1.66797 9.34811 1.66797 10.4987C1.66797 11.6493 3.53345 12.582 5.83464 12.582C8.1358 12.582 10.0013 11.6493 10.0013 10.4987C10.0013 9.8172 10.0013 7.58203 10.0013 7.58203" stroke="#DDDDDD" stroke-width="1.25" stroke-linecap="round" stroke-linejoin="round"/>
<path d="M1.66797 10.5C1.66797 10.5 1.66797 12.2661 1.66797 13.4167C1.66797 14.5672 3.53345 15.5 5.83464 15.5C8.1358 15.5 10.0013 14.5672 10.0013 13.4167C10.0013 12.7352 10.0013 10.5 10.0013 10.5" stroke="#DDDDDD" stroke-width="1.25" stroke-linecap="round" stroke-linejoin="round"/>
<path d="M1.66797 13.4141C1.66797 13.4141 1.66797 15.1801 1.66797 16.3307C1.66797 17.4813 3.53345 18.4141 5.83464 18.4141C8.1358 18.4141 10.0013 17.4813 10.0013 16.3307C10.0013 15.6492 10.0013 13.4141 10.0013 13.4141" stroke="#DDDDDD" stroke-width="1.25" stroke-linecap="round" stroke-linejoin="round"/>
<path d="M14.1667 12.5807C16.4679 12.5807 18.3333 11.648 18.3333 10.4974C18.3333 9.3468 16.4679 8.41406 14.1667 8.41406C11.8655 8.41406 10 9.3468 10 10.4974C10 11.648 11.8655 12.5807 14.1667 12.5807Z" stroke="#DDDDDD" stroke-width="1.25" stroke-linecap="round" stroke-linejoin="round"/>
<path d="M10 10.5C10 10.5 10 12.2661 10 13.4167C10 14.5672 11.8655 15.5 14.1667 15.5C16.4678 15.5 18.3333 14.5672 18.3333 13.4167C18.3333 12.7352 18.3333 10.5 18.3333 10.5" stroke="#DDDDDD" stroke-width="1.25" stroke-linecap="round" stroke-linejoin="round"/>
<path d="M10 13.4141C10 13.4141 10 15.1801 10 16.3307C10 17.4813 11.8655 18.4141 14.1667 18.4141C16.4678 18.4141 18.3333 17.4813 18.3333 16.3307C18.3333 15.6492 18.3333 13.4141 18.3333 13.4141" stroke="#DDDDDD" stroke-width="1.25" stroke-linecap="round" stroke-linejoin="round"/>
</svg>
