<svg width="20" height="21" viewBox="0 0 20 21" fill="none" xmlns="http://www.w3.org/2000/svg">
<path d="M6.24968 6.49219C7.9686 7.16527 10.0031 7.16527 10.0031 7.16527C10.0031 7.16527 12.033 7.16527 13.7497 6.49219C15.6254 8.68127 16.9398 11.5671 17.8037 13.9976C18.6783 16.4581 16.7499 18.8319 14.1386 18.8319H5.84122C3.23642 18.8319 1.31046 16.4689 2.18063 14.0138C3.04048 11.5877 4.35585 8.70085 6.24968 6.49219Z" stroke="#DDDDDD" stroke-width="1.25" stroke-linejoin="round"/>
<path d="M10.5597 16.9476H9.58952V16.0754C8.69446 15.997 7.98232 15.6409 7.45313 15.0072L8.24692 14.282C8.62586 14.7328 9.10279 15.0039 9.67773 15.0954V13.106C8.96559 12.9557 8.44946 12.7238 8.12933 12.4102C7.80919 12.0966 7.64912 11.7013 7.64912 11.2244C7.64912 10.7017 7.81899 10.2836 8.15873 9.97C8.49846 9.64987 8.97539 9.45387 9.58952 9.382V8.5H10.5597V9.382C11.3633 9.47347 11.9775 9.79033 12.4021 10.3326L11.5985 11.0284C11.3568 10.7017 10.9811 10.4796 10.4715 10.362V12.1848C11.1641 12.3416 11.6737 12.5703 12.0003 12.8708C12.3335 13.1648 12.5001 13.5633 12.5001 14.0664C12.5001 14.5695 12.3368 15.0007 12.0101 15.36C11.6835 15.7193 11.2 15.948 10.5597 16.046V16.9476ZM9.67773 12.0084V10.3522C9.11586 10.4567 8.83492 10.7311 8.83492 11.1754C8.83492 11.4041 8.90352 11.5837 9.04072 11.7144C9.17792 11.8385 9.39026 11.9365 9.67773 12.0084ZM10.4715 15.0856C10.7459 15.0268 10.955 14.9157 11.0987 14.7524C11.249 14.5825 11.3241 14.3833 11.3241 14.1546C11.3241 13.9586 11.2621 13.7887 11.1379 13.645C11.0138 13.4947 10.7917 13.3739 10.4715 13.2824V15.0856Z" fill="#DDDDDD"/>
<path fill-rule="evenodd" clip-rule="evenodd" d="M9.9987 7.16797C12.9902 7.16797 15.4154 6.04868 15.4154 4.66797C15.4154 3.28726 12.9902 2.16797 9.9987 2.16797C7.00716 2.16797 4.58203 3.28726 4.58203 4.66797C4.58203 6.04868 7.00716 7.16797 9.9987 7.16797Z" stroke="#DDDDDD" stroke-width="1.25" stroke-linecap="round" stroke-linejoin="round"/>
</svg>
