<svg width="90" height="24" viewBox="0 0 90 24" fill="none" xmlns="http://www.w3.org/2000/svg">
<path d="M72.0166 17.1074L77.8134 11.958L72.0166 6.80859H75.6653L79.6083 10.3396L83.5366 6.80859H87.2L81.4033 11.958L87.2 17.1074H83.5366L79.6083 13.5764L75.6653 17.1074H72.0166Z" fill="white"/>
<path d="M70.7442 6.80859V9.0302H65.7419V17.1074H63.0936V9.0302H58.0913V6.80859H70.7442Z" fill="white"/>
<path d="M52.879 6.80859C55.2184 6.80859 56.822 8.29457 56.822 10.5897C56.822 12.8849 55.2184 14.3562 52.879 14.3562H47.4354V17.1074H44.7871V6.80859H52.879ZM52.1434 12.1346C52.9379 12.1346 54.1738 12.1346 54.1738 10.5897C54.1738 9.0302 52.9379 9.0302 52.1434 9.0302H47.4354V12.1346H52.1434Z" fill="white"/>
<path d="M42.9471 11.9433C42.9471 15.5185 40.9903 17.2546 36.4736 17.2546C31.9421 17.2546 30 15.5332 30 11.9433V6.80859H32.6483V11.9433C32.6483 13.3851 33.0455 15.0329 36.4736 15.0329C39.9016 15.0329 40.2988 13.3704 40.2988 11.9433V6.80859H42.9471V11.9433Z" fill="white"/>
<rect x="0.2" y="0.2" width="23.6" height="23.6" rx="5.8" stroke="white" stroke-width="0.4"/>
<path d="M10.1909 6.27553C10.1909 6.07158 10.0255 5.90625 9.82158 5.90625H6.27651C6.07256 5.90625 5.90723 6.07158 5.90723 6.27553V9.8206C5.90723 10.0245 6.07256 10.1899 6.27651 10.1899H9.53778C9.81863 10.1899 9.99669 10.491 9.86137 10.7371L5.95238 17.8466C5.88113 17.9762 6.0234 18.1184 6.15298 18.0472L13.2626 14.1382C13.5087 14.0028 13.8098 14.1809 13.8098 14.4618V17.6493C13.8098 17.8532 13.9751 18.0186 14.1791 18.0186H17.7241C17.9281 18.0186 18.0934 17.8532 18.0934 17.6493V14.1042C18.0934 13.9003 17.9281 13.735 17.7241 13.735H14.5034C14.2226 13.735 14.0445 13.4339 14.1798 13.1878L18.0483 6.15193C18.1195 6.02235 17.9773 5.88008 17.8477 5.95133L10.7381 9.86039C10.4919 9.9957 10.1909 9.81765 10.1909 9.5368V6.27553Z" fill="white"/>
</svg>
