<svg width="200" height="220" viewBox="0 0 200 220" fill="none" xmlns="http://www.w3.org/2000/svg">
<line x1="8.58675" y1="162.909" x2="190.273" y2="58.2233" stroke="#999999" stroke-width="0.859375" stroke-dasharray="1.72 3.44"/>
<line y1="-0.429688" x2="209.688" y2="-0.429688" transform="matrix(-0.86646 -0.499246 -0.499246 0.86646 189.27 163.281)" stroke="#999999" stroke-width="0.859375" stroke-dasharray="1.72 3.44"/>
<line y1="-0.429688" x2="209.688" y2="-0.429688" transform="matrix(-4.37114e-08 -1 -1 4.37114e-08 98.5103 214.438)" stroke="#999999" stroke-width="0.859375" stroke-dasharray="1.72 3.44"/>
<path d="M3.76202 56.1606L10.8516 55.2161L6.48877 62.7726L3.76202 56.1606Z" fill="#0C0D0F"/>
<path d="M98.7242 0L103.087 5.66743H94.3614L98.7242 0Z" fill="#0C0D0F"/>
<path d="M98.7242 219.141L103.087 213.473H94.3614L98.7242 219.141Z" fill="#0C0D0F"/>
<path d="M3.0086 165.89L10.0981 166.835L5.73535 159.278L3.0086 165.89Z" fill="#0C0D0F"/>
<path d="M195.508 54.3285L193.668 61.24L188.356 54.3178L195.508 54.3285Z" fill="#0C0D0F"/>
<path d="M195.033 165.89L187.943 166.835L192.306 159.278L195.033 165.89Z" fill="#0C0D0F"/>
</svg>
