<svg width="21" height="20" viewBox="0 0 21 20" fill="none" xmlns="http://www.w3.org/2000/svg">
<rect x="0.5" width="20" height="20" rx="10" fill="#F1F1F1"/>
<path d="M5.50098 14.7977C5.50098 14.9094 5.59423 15 5.70927 15L15.2901 15C15.4051 15 15.4984 14.9094 15.4984 14.7977V14.5561C15.5032 14.4833 15.5129 14.1199 15.2734 13.7181C15.1223 13.4648 14.9031 13.246 14.6218 13.0677C14.2815 12.852 13.8485 12.6958 13.3249 12.6017C13.321 12.6012 12.9328 12.5497 12.535 12.4482C11.8424 12.2712 11.7818 12.1147 11.7814 12.1131C11.7773 12.0977 11.7714 12.0828 11.7639 12.0688C11.7582 12.0396 11.7442 11.9297 11.771 11.6352C11.8389 10.8871 12.2402 10.445 12.5626 10.0898C12.6643 9.97776 12.7603 9.87194 12.8343 9.76818C13.1533 9.32055 13.1829 8.81155 13.1843 8.78C13.1843 8.71608 13.1769 8.66352 13.1612 8.61481C13.1299 8.51734 13.071 8.4566 13.028 8.41226L13.0277 8.41194C13.0168 8.40079 13.0066 8.39021 12.9982 8.3805C12.995 8.37679 12.9866 8.36697 12.9943 8.31658C13.0226 8.13108 13.0396 7.97576 13.0478 7.82779C13.0623 7.56416 13.0736 7.16989 13.0056 6.78618C12.9972 6.72066 12.9828 6.65145 12.9604 6.569C12.8885 6.30477 12.7731 6.07887 12.6127 5.89243C12.5852 5.86243 11.9146 5.156 9.9681 5.01105C9.69895 4.99102 9.43287 5.00181 9.17095 5.0152C9.10781 5.01832 9.02137 5.0226 8.94047 5.04356C8.7395 5.09562 8.68587 5.22301 8.67179 5.2943C8.64845 5.41239 8.68947 5.50425 8.7166 5.56505C8.72055 5.57386 8.72542 5.58477 8.71692 5.61315C8.67174 5.68313 8.60066 5.74621 8.52818 5.80598C8.50724 5.82378 8.01913 6.24465 7.99229 6.79445C7.91992 7.21258 7.92539 7.86405 8.01097 8.31431C8.01595 8.33918 8.02329 8.376 8.01137 8.40087C7.91934 8.48334 7.81503 8.57681 7.81529 8.7901C7.81639 8.81155 7.846 9.32055 8.16505 9.76818C8.23895 9.87186 8.33489 9.9776 8.4365 10.0895L8.43674 10.0898C8.75916 10.445 9.16039 10.8871 9.22837 11.6351C9.2551 11.9297 9.2411 12.0396 9.23545 12.0688C9.22789 12.0828 9.222 12.0976 9.21795 12.1131C9.21752 12.1146 9.15721 12.2707 8.46768 12.4473C8.06989 12.5491 7.67829 12.6012 7.6666 12.6029C7.15774 12.6888 6.72747 12.8411 6.38777 13.0557C6.1074 13.2327 5.88777 13.452 5.73497 13.7073C5.49084 14.1152 5.49744 14.4868 5.50098 14.5546V14.7977Z" fill="#A1A1A1"/>
</svg>
