<svg width="20" height="20" viewBox="0 0 20 20" fill="none" xmlns="http://www.w3.org/2000/svg">
<path d="M9.63463 0.5073C9.8247 0.27896 10.1753 0.27896 10.3654 0.5073L14.0019 4.87606C14.0525 4.93685 14.1175 4.98405 14.1909 5.01339L19.4696 7.12193C19.7455 7.23214 19.8539 7.56559 19.6954 7.81692L16.6643 12.6255C16.6221 12.6924 16.5973 12.7688 16.5921 12.8477L16.2179 18.5196C16.1984 18.8161 15.9147 19.0222 15.6267 18.9491L10.1168 17.5523C10.0402 17.5328 9.95985 17.5328 9.88317 17.5523L4.37326 18.9491C4.08527 19.0222 3.80162 18.8161 3.78207 18.5196L3.40793 12.8477C3.40273 12.7688 3.37791 12.6924 3.33573 12.6255L0.30455 7.81692C0.146121 7.56559 0.254465 7.23214 0.530364 7.12193L5.80905 5.01339C5.88251 4.98405 5.94748 4.93685 5.99808 4.87606L9.63463 0.5073Z" fill="#FFD429"/>
</svg>
