<svg width="20" height="20" viewBox="0 0 20 20" fill="none" xmlns="http://www.w3.org/2000/svg">
<path d="M14.5833 6.66667C15.7339 6.66667 16.6667 5.73392 16.6667 4.58333C16.6667 3.43274 15.7339 2.5 14.5833 2.5C13.4327 2.5 12.5 3.43274 12.5 4.58333C12.5 5.73392 13.4327 6.66667 14.5833 6.66667Z" stroke="#DDDDDD" stroke-width="1.5" stroke-linejoin="round"/>
<path d="M5.41536 12.0846C6.56595 12.0846 7.4987 11.1519 7.4987 10.0013C7.4987 8.85072 6.56595 7.91797 5.41536 7.91797C4.26478 7.91797 3.33203 8.85072 3.33203 10.0013C3.33203 11.1519 4.26478 12.0846 5.41536 12.0846Z" stroke="#DDDDDD" stroke-width="1.5" stroke-linejoin="round"/>
<path d="M12.502 5.65625L7.22656 8.85246" stroke="#DDDDDD" stroke-width="1.5" stroke-linecap="round" stroke-linejoin="round"/>
<path d="M7.22266 11.0664L12.7812 14.351" stroke="#DDDDDD" stroke-width="1.5" stroke-linecap="round" stroke-linejoin="round"/>
<path d="M14.5833 13.332C15.7339 13.332 16.6667 14.2648 16.6667 15.4154C16.6667 16.5659 15.7339 17.4987 14.5833 17.4987C13.4327 17.4987 12.5 16.5659 12.5 15.4154C12.5 14.2648 13.4327 13.332 14.5833 13.332Z" stroke="#DDDDDD" stroke-width="1.5" stroke-linejoin="round"/>
</svg>
