<svg width="24" height="24" viewBox="0 0 24 24" fill="none" xmlns="http://www.w3.org/2000/svg">
<path d="M23.8368 4.11414C23.7064 3.72304 23.3153 3.59267 22.9242 3.59267H21.0991L21.8813 1.63716C22.0116 1.37643 22.0116 0.985328 21.7509 0.724594C21.4902 0.463859 21.3598 0.203125 20.9687 0.203125H17.0577C16.6666 0.203125 16.2755 0.463859 16.1451 0.724594L13.5378 6.59112C13.4074 6.85185 13.4074 7.24295 13.6681 7.50369C13.9289 7.76442 14.1896 7.89479 14.4504 7.89479H15.3629L14.8415 12.7184C14.8415 13.1095 14.9718 13.5006 15.3629 13.7613C15.4933 13.7613 15.6237 13.8917 15.754 13.8917C16.0148 13.8917 16.2755 13.7613 16.5362 13.5006L23.7064 5.15708C23.9672 4.89634 23.9672 4.37487 23.8368 4.11414ZM17.1881 9.8503L17.4488 7.11259C17.4488 6.85185 17.4488 6.59112 17.1881 6.33038C17.0577 6.06965 16.797 6.06965 16.4059 6.06965H16.0148L17.7095 2.15863H19.5347L18.7525 4.11414C18.6221 4.37487 18.6221 4.76598 18.8828 5.02671C19.1436 5.28745 19.4043 5.41781 19.665 5.41781H20.8383L17.1881 9.8503Z" fill="#111111"/>
<path d="M12 1H5C2.79086 1 1 2.79086 1 5V19C1 21.2091 2.79086 23 5 23H19C21.2091 23 23 21.2091 23 19V12" stroke="#111111" stroke-width="2" stroke-linecap="round"/>
<rect x="4.85742" y="10" width="7" height="2" rx="1" fill="#111111"/>
<rect x="4.85742" y="16" width="9" height="2" rx="1" fill="#111111"/>
</svg>
