<svg width="24" height="24" viewBox="0 0 24 24" fill="none" xmlns="http://www.w3.org/2000/svg">
<path d="M3 2L7.20514 2C7.51375 2 7.66805 2 7.79847 2.05236C7.91361 2.09858 8.01501 2.17349 8.09302 2.26997C8.18139 2.37924 8.22673 2.52674 8.31741 2.82172L8.5838 3.68831C8.70848 4.09392 8.77083 4.29672 8.89233 4.44698C8.9996 4.57963 9.13903 4.68263 9.29734 4.74619C9.47667 4.81818 9.68884 4.81818 10.1132 4.81818H13.8875C14.3118 4.81818 14.524 4.81818 14.7033 4.74619C14.8616 4.68263 15.001 4.57963 15.1083 4.44698C15.2298 4.29672 15.2922 4.09392 15.4168 3.68831L15.7378 2.64421C15.7761 2.51954 15.7953 2.4572 15.8215 2.40436C15.9256 2.19429 16.1246 2.04728 16.3559 2.0095C16.4141 2 16.4794 2 16.6098 2C17.4371 2 17.8508 2 18.1945 2.0696C19.5735 2.34879 20.6512 3.42652 20.9304 4.80547C21 5.14925 21 5.5629 21 6.39021V22H7.36364C5.83622 22 5.07251 22 4.48912 21.7027C3.97595 21.4413 3.55873 21.0241 3.29725 20.5109C3 19.9275 3 19.1638 3 17.6364V2Z" fill="#4D4D4D"/>
<rect x="6.05469" y="15.9219" width="7.30435" height="1.53043" fill="white"/>
<rect x="6.05469" y="12.4766" width="3.65217" height="1.53043" fill="white"/>
<path d="M9.33791 2.84368C9.24231 2.55891 9.19451 2.41653 9.2228 2.30316C9.24756 2.20393 9.30939 2.11795 9.39559 2.0629C9.49406 2 9.64425 2 9.94463 2H14.1511C14.4555 2 14.6077 2 14.7067 2.06383C14.7933 2.11969 14.8551 2.20683 14.879 2.30708C14.9064 2.42164 14.8558 2.56522 14.7548 2.85239L14.5767 3.35859C14.4955 3.58951 14.4549 3.70497 14.3819 3.7902C14.3175 3.86549 14.2354 3.92363 14.143 3.95945C14.0383 4 13.9159 4 13.6711 4H10.4165C10.1682 4 10.044 4 9.93832 3.95851C9.84498 3.92187 9.76231 3.86242 9.69787 3.78559C9.6249 3.69859 9.58539 3.5809 9.50637 3.34551L9.33791 2.84368Z" fill="#EFAF00"/>
</svg>
