<svg width="24" height="24" viewBox="0 0 24 24" fill="none" xmlns="http://www.w3.org/2000/svg">
<rect x="5" y="2" width="15" height="18" rx="3" fill="#CCCCCC"/>
<path d="M18 2H3V19C3 20.6569 4.34315 22 6 22H8.5H21V14V5C21 3.34315 19.6569 2 18 2Z" fill="#4D4D4D"/>
<path d="M21 14H11C9.89543 14 9 14.8954 9 16V22H12.6667H21V18.8V14Z" fill="#EFAF00"/>
<rect x="7.47656" y="6.47656" width="7.30435" height="1.6" fill="white"/>
<rect x="7.47656" y="10.1328" width="3.65217" height="1.6" fill="white"/>
<path d="M17.2983 20.4586L18.2887 17.8827L17.374 15.5415H18.1167L18.6463 16.9987L19.1828 15.5415H19.9255L18.9902 17.8827L20.0012 20.4586H19.2584L18.6463 18.8012L18.0411 20.4586H17.2983Z" fill="#4D4D4D"/>
<path d="M14.9863 16.5566C14.9863 16.3909 15.0138 16.2436 15.0688 16.1146C15.1284 15.9857 15.2064 15.8752 15.3027 15.7831C15.3989 15.6911 15.509 15.622 15.6328 15.576C15.7612 15.5253 15.8941 15.5 16.0317 15.5C16.1692 15.5 16.2999 15.5253 16.4237 15.576C16.5521 15.622 16.6644 15.6911 16.7607 15.7831C16.857 15.8752 16.9326 15.9857 16.9876 16.1146C17.0473 16.2436 17.0771 16.3909 17.0771 16.5566V19.4434C17.0771 19.6091 17.0473 19.7564 16.9876 19.8854C16.9326 20.0143 16.857 20.1248 16.7607 20.2169C16.6644 20.3089 16.5521 20.3803 16.4237 20.4309C16.2999 20.477 16.1692 20.5 16.0317 20.5C15.8941 20.5 15.7612 20.477 15.6328 20.4309C15.509 20.3803 15.3989 20.3089 15.3027 20.2169C15.2064 20.1248 15.1284 20.0143 15.0688 19.8854C15.0138 19.7564 14.9863 19.6091 14.9863 19.4434V16.5566ZM15.6878 19.4434C15.6878 19.5447 15.7199 19.6298 15.7841 19.6989C15.8483 19.7634 15.9308 19.7956 16.0317 19.7956C16.1325 19.7956 16.2151 19.7634 16.2793 19.6989C16.3435 19.6298 16.3755 19.5447 16.3755 19.4434V16.5566C16.3755 16.4553 16.3435 16.3725 16.2793 16.308C16.2151 16.239 16.1325 16.2044 16.0317 16.2044C15.9308 16.2044 15.8483 16.239 15.7841 16.308C15.7199 16.3725 15.6878 16.4553 15.6878 16.5566V19.4434Z" fill="#4D4D4D"/>
<path d="M12.4263 16.5566C12.4263 16.3909 12.4538 16.2436 12.5088 16.1146C12.5684 15.9857 12.6464 15.8752 12.7427 15.7831C12.8389 15.6911 12.949 15.622 13.0728 15.576C13.2012 15.5253 13.3341 15.5 13.4717 15.5C13.6092 15.5 13.7399 15.5253 13.8637 15.576C13.9921 15.622 14.1044 15.6911 14.2007 15.7831C14.297 15.8752 14.3726 15.9857 14.4276 16.1146C14.4873 16.2436 14.5171 16.3909 14.5171 16.5566V19.4434C14.5171 19.6091 14.4873 19.7564 14.4276 19.8854C14.3726 20.0143 14.297 20.1248 14.2007 20.2169C14.1044 20.3089 13.9921 20.3803 13.8637 20.4309C13.7399 20.477 13.6092 20.5 13.4717 20.5C13.3341 20.5 13.2012 20.477 13.0728 20.4309C12.949 20.3803 12.8389 20.3089 12.7427 20.2169C12.6464 20.1248 12.5684 20.0143 12.5088 19.8854C12.4538 19.7564 12.4263 19.6091 12.4263 19.4434V16.5566ZM13.1278 19.4434C13.1278 19.5447 13.1599 19.6298 13.2241 19.6989C13.2883 19.7634 13.3708 19.7956 13.4717 19.7956C13.5725 19.7956 13.6551 19.7634 13.7193 19.6989C13.7835 19.6298 13.8155 19.5447 13.8155 19.4434V16.5566C13.8155 16.4553 13.7835 16.3725 13.7193 16.308C13.6551 16.239 13.5725 16.2044 13.4717 16.2044C13.3708 16.2044 13.2883 16.239 13.2241 16.308C13.1599 16.3725 13.1278 16.4553 13.1278 16.5566V19.4434Z" fill="#4D4D4D"/>
<path d="M10.7015 20.4586V16.2874L10 16.8053V16.0595L10.7015 15.5415H11.403V20.4586H10.7015Z" fill="#4D4D4D"/>
</svg>
