<svg width="36" height="36" viewBox="0 0 36 36" fill="none" xmlns="http://www.w3.org/2000/svg">
<circle cx="18" cy="18" r="17.5" stroke="#EEEEEE"/>
<g clip-path="url(#clip0_14211_106071)">
<path d="M25.4085 25.1314L22.0165 23.8742C22.0073 23.8696 21.9936 23.8696 21.9845 23.8696H13.9845C13.7331 23.8696 13.5273 23.6639 13.5273 23.4125V14.2696C13.5273 14.0182 13.7331 13.8125 13.9845 13.8125H25.5685C25.8199 13.8125 26.0256 14.0182 26.0256 14.2696V24.7062C26.0256 25.0216 25.7102 25.2411 25.4085 25.1314ZM14.8393 22.6491H22.1993C22.2085 22.6491 22.2222 22.6491 22.2313 22.6536L24.6816 23.5496C24.7411 23.5725 24.8051 23.5268 24.8051 23.4628V15.1199C24.8051 15.0696 24.7639 15.0285 24.7136 15.0285H14.8393C14.7891 15.0285 14.7479 15.0696 14.7479 15.1199V22.5576C14.7479 22.6079 14.7891 22.6491 14.8393 22.6491Z" fill="#111111" stroke="#111111" stroke-width="0.4"/>
<path d="M10.0254 21.1406V11.2892C10.0254 11.0377 10.2311 10.832 10.4825 10.832H21.0882C21.3397 10.832 21.5454 11.0377 21.5454 11.2892V12.9943C21.5454 13.0446 21.5042 13.0857 21.454 13.0857H20.4162C20.366 13.0857 20.3248 13.0446 20.3248 12.9943V12.144C20.3248 12.0937 20.2837 12.0526 20.2334 12.0526H11.3374C11.2871 12.0526 11.246 12.0937 11.246 12.144V19.8743C11.246 19.9383 11.31 19.984 11.3694 19.9612L12.2882 19.6275C12.3385 19.6092 12.3888 19.6366 12.4071 19.6823L12.7728 20.7703C12.7911 20.8206 12.7637 20.8709 12.7134 20.8846L10.6288 21.5703C10.3317 21.6755 10.0254 21.456 10.0254 21.1406Z" fill="#111111" stroke="#111111" stroke-width="0.4"/>
</g>
<defs>
<clipPath id="clip0_14211_106071">
<rect width="17.1429" height="16" fill="white" transform="translate(8.92871 10)"/>
</clipPath>
</defs>
</svg>
