<svg width="36" height="36" viewBox="0 0 36 36" fill="none" xmlns="http://www.w3.org/2000/svg">
<circle cx="18" cy="18" r="17.5" stroke="#EEEEEE"/>
<path d="M17.6195 10.4023C17.7203 10.4023 17.817 10.4424 17.8882 10.5136C17.9595 10.5849 17.9995 10.6816 17.9995 10.7823V17.2223C17.9995 17.3231 17.9595 17.4198 17.8882 17.491C17.817 17.5623 17.7203 17.6023 17.6195 17.6023H11.1795C11.0787 17.6023 10.9821 17.5623 10.9108 17.491C10.8396 17.4198 10.7995 17.3231 10.7995 17.2223V10.7823C10.7995 10.6816 10.8396 10.5849 10.9108 10.5136C10.9821 10.4424 11.0787 10.4023 11.1795 10.4023H17.6195ZM16.5595 11.8423H12.2395V16.1623H16.5595V11.8423ZM24.8195 18.4023C24.9203 18.4023 25.017 18.4424 25.0882 18.5136C25.1595 18.5849 25.1995 18.6816 25.1995 18.7823V25.2223C25.1995 25.3231 25.1595 25.4198 25.0882 25.491C25.017 25.5623 24.9203 25.6023 24.8195 25.6023H18.3795C18.2787 25.6023 18.1821 25.5623 18.1108 25.491C18.0396 25.4198 17.9995 25.3231 17.9995 25.2223V18.7823C17.9995 18.6816 18.0396 18.5849 18.1108 18.5136C18.1821 18.4424 18.2787 18.4023 18.3795 18.4023H24.8195ZM23.7595 19.8423H19.4395V24.1623H23.7595V19.8423ZM11.2011 25.1999L11.2031 22.3983H10.2075L11.8707 20.4015H12.6435V24.1695H15.4715V25.6023H13.9743C13.1837 25.5966 12.393 25.5956 11.6023 25.5995C11.4963 25.5998 11.3945 25.5579 11.3194 25.4831C11.2442 25.4083 11.2018 25.3068 11.2015 25.2007V25.2003L11.2011 25.1999ZM24.8139 10.8039L24.8115 13.6051H25.8083L24.1451 15.6023H23.3719V11.8343H20.5439V10.4023H22.0415C22.8999 10.4079 23.6907 10.4087 24.4135 10.4047C24.5195 10.4045 24.6213 10.4464 24.6965 10.5212C24.7716 10.596 24.814 10.6975 24.8143 10.8035V10.8039H24.8139Z" fill="#111111" stroke="black" stroke-width="0.3"/>
</svg>
