<svg width="65" height="64" viewBox="0 0 65 64" fill="none" xmlns="http://www.w3.org/2000/svg">
<circle cx="32.5" cy="32" r="32" fill="#F5F5F5"/>
<path d="M41.8047 42.4015H42.0444L42.2592 42.5081L46.4773 44.6009V28.625C46.4773 27.3259 45.4241 26.2727 44.125 26.2727H28.375C27.0759 26.2727 26.0227 27.3259 26.0227 28.625V40.0492C26.0227 41.3483 27.0759 42.4015 28.375 42.4015H36.2031H41.8047ZM46.6545 44.6888C46.6545 44.6888 46.6544 44.6888 46.6544 44.6887L46.6545 44.6888Z" fill="white" stroke="#0C0D0F" stroke-width="2.04545"/>
<path d="M23.1953 34.9015H22.9556L22.7408 35.0081L18.5227 37.1009V21.125C18.5227 19.8259 19.5759 18.7727 20.875 18.7727H36.625C37.9241 18.7727 38.9773 19.8259 38.9773 21.125V32.5492C38.9773 33.8483 37.9241 34.9015 36.625 34.9015H28.7969H23.1953ZM18.3455 37.1888C18.3455 37.1888 18.3456 37.1888 18.3456 37.1887L18.3455 37.1888Z" fill="white" stroke="#0C0D0F" stroke-width="2.04545"/>
</svg>
