<svg width="16" height="16" viewBox="0 0 16 16" fill="none" xmlns="http://www.w3.org/2000/svg">
<path d="M0.800049 0.79646C0.800049 0.585226 0.883961 0.382643 1.03333 0.233278C1.18269 0.0839125 1.38527 0 1.59651 0H14.3399C14.5511 0 14.7537 0.0839125 14.9031 0.233278C15.0524 0.382643 15.1363 0.585226 15.1363 0.79646V3.58407C15.1363 3.70968 15.1065 3.83349 15.0495 3.9454C14.9925 4.05732 14.9098 4.15415 14.8082 4.22801L10.7558 7.17531V12.7434C10.7558 12.8809 10.7202 13.0161 10.6524 13.1358C10.5847 13.2555 10.4871 13.3556 10.3691 13.4263L6.38682 15.8157C6.26596 15.8882 6.12802 15.9274 5.98709 15.9292C5.84616 15.9309 5.70727 15.8953 5.58462 15.8258C5.46197 15.7564 5.35995 15.6556 5.28896 15.5339C5.21798 15.4121 5.18058 15.2737 5.18058 15.1327V7.17531L1.12819 4.22841C1.02654 4.15451 0.943816 4.05761 0.886785 3.94562C0.829753 3.83364 0.800031 3.70974 0.800049 3.58407V0.79646ZM2.39297 1.59292V3.17867L6.44536 6.12558C6.54701 6.19947 6.62973 6.29637 6.68677 6.40836C6.7438 6.52035 6.77352 6.64424 6.7735 6.76991V13.7262L9.16288 12.2926V6.76991C9.16293 6.64431 9.19268 6.52049 9.24971 6.40858C9.30674 6.29667 9.38943 6.19983 9.49102 6.12597L13.5434 3.17867V1.59292H2.39297Z" fill="#111111"/>
</svg>
