<svg width="12" height="13" viewBox="0 0 12 13" fill="none" xmlns="http://www.w3.org/2000/svg">
<g clip-path="url(#clip0_17989_48128)">
<path d="M2.55943 1.58528C2.00146 1.97551 1.51737 2.45598 1.1199 3.01264C0.321623 4.12944 -0.0722263 5.49582 0.0109182 6.85872C0.0284451 7.15292 0.281789 7.37671 0.575982 7.35918C0.870174 7.34166 1.09411 7.0886 1.07659 6.79441C0.934777 4.46101 2.47396 2.33286 4.73755 1.73288C6.47243 1.27356 8.29755 1.79039 9.53081 3.05364L8.6985 3.50122L11.2855 5.09965L11.3782 2.06097L10.5026 2.53203C9.81805 1.75621 8.9459 1.17144 7.96121 0.829305C6.83238 0.439076 5.62375 0.394607 4.46436 0.701546C3.77748 0.883334 3.13622 1.18086 2.55943 1.58528Z" fill="#666666"/>
<path d="M0.624512 10.9404L1.50014 10.4705C2.1847 11.2463 3.05685 11.8311 4.04154 12.172C5.17037 12.5623 6.379 12.6067 7.53825 12.2998C7.9896 12.1803 8.42097 12.0115 8.82771 11.7947C9.03992 11.6822 9.24502 11.5557 9.44318 11.4174C10.0011 11.0271 10.4841 10.5478 10.8815 9.99232C11.6798 8.87668 12.0748 7.51146 11.9928 6.14986C11.9753 5.85567 11.722 5.63187 11.4278 5.6494C11.1336 5.66693 10.9097 5.92013 10.9272 6.21417C11.0655 8.54265 9.52517 10.6685 7.2652 11.2685C5.53032 11.7278 3.70506 11.211 2.47194 9.94771L3.30425 9.50012L0.717216 7.90169L0.624512 10.9404Z" fill="#666666"/>
</g>
<defs>
<clipPath id="clip0_17989_48128">
<rect width="12" height="12" fill="white" transform="translate(0 0.5)"/>
</clipPath>
</defs>
</svg>
