<svg width="28" height="29" viewBox="0 0 28 29" fill="none" xmlns="http://www.w3.org/2000/svg">
<mask id="mask0_20802_90176" style="mask-type:luminance" maskUnits="userSpaceOnUse" x="1" y="4" width="26" height="22">
<path d="M26.0716 4.8125H1.92859V25.2H26.0716V4.8125Z" fill="white"/>
</mask>
<g mask="url(#mask0_20802_90176)">
<path d="M26.0716 11.8458L21.0333 4.8125H14.0001H6.96859L1.92859 11.8458L14.0001 25.2L26.0716 11.8458Z" fill="#97A2C3"/>
<path d="M21.0333 4.8125H14.0001H6.96859L1.92859 11.8458H14.0001H26.0716L21.0333 4.8125Z" fill="#C3CFED"/>
<path d="M6.96851 4.8125L9.88926 11.8458L14 4.8125H6.96851Z" fill="#EDF1FF"/>
<path d="M21.0333 4.8125L18.1125 11.8458L14 4.8125H21.0333Z" fill="#EDF1FF"/>
<path d="M9.8894 11.8438H18.1127L14.0002 25.198L9.8894 11.8438Z" fill="#C3CFED"/>
<path d="M19.6246 10.8594H17.4126L14.6073 15.6911L11.5501 10.8594H8.38781H7.97656V11.9006H9.05281L14.2066 19.9751L19.6246 10.8594Z" fill="#3E5277"/>
</g>
</svg>
