<svg width="20" height="20" viewBox="0 0 20 20" fill="none" xmlns="http://www.w3.org/2000/svg">
<path fill-rule="evenodd" clip-rule="evenodd" d="M4.3549 5.7098C5.10318 5.7098 5.7098 5.10318 5.7098 4.3549C5.7098 3.60661 5.10318 3 4.3549 3C3.60661 3 3 3.60661 3 4.3549C3 5.10318 3.60661 5.7098 4.3549 5.7098ZM10.0014 5.7098C10.7497 5.7098 11.3563 5.10318 11.3563 4.3549C11.3563 3.60661 10.7497 3 10.0014 3C9.25311 3 8.64648 3.60661 8.64648 4.3549C8.64648 5.10318 9.25311 5.7098 10.0014 5.7098ZM17.0008 4.3549C17.0008 5.10318 16.3942 5.7098 15.6459 5.7098C14.8976 5.7098 14.291 5.10318 14.291 4.3549C14.291 3.60661 14.8976 3 15.6459 3C16.3942 3 17.0008 3.60661 17.0008 4.3549ZM4.3549 11.3549C5.10318 11.3549 5.7098 10.7483 5.7098 10C5.7098 9.25172 5.10318 8.6451 4.3549 8.6451C3.60661 8.6451 3 9.25172 3 10C3 10.7483 3.60661 11.3549 4.3549 11.3549ZM11.3563 10C11.3563 10.7483 10.7497 11.3549 10.0014 11.3549C9.25311 11.3549 8.64648 10.7483 8.64648 10C8.64648 9.25172 9.25311 8.6451 10.0014 8.6451C10.7497 8.6451 11.3563 9.25172 11.3563 10ZM15.6459 11.3549C16.3942 11.3549 17.0008 10.7483 17.0008 10C17.0008 9.25172 16.3942 8.6451 15.6459 8.6451C14.8976 8.6451 14.291 9.25172 14.291 10C14.291 10.7483 14.8976 11.3549 15.6459 11.3549ZM5.7098 15.6451C5.7098 16.3934 5.10318 17 4.3549 17C3.60661 17 3 16.3934 3 15.6451C3 14.8968 3.60661 14.2902 4.3549 14.2902C5.10318 14.2902 5.7098 14.8968 5.7098 15.6451ZM10.0014 17C10.7497 17 11.3563 16.3934 11.3563 15.6451C11.3563 14.8968 10.7497 14.2902 10.0014 14.2902C9.25311 14.2902 8.64648 14.8968 8.64648 15.6451C8.64648 16.3934 9.25311 17 10.0014 17ZM17.0008 15.6451C17.0008 16.3934 16.3942 17 15.6459 17C14.8976 17 14.291 16.3934 14.291 15.6451C14.291 14.8968 14.8976 14.2902 15.6459 14.2902C16.3942 14.2902 17.0008 14.8968 17.0008 15.6451Z" fill="#333333"/>
</svg>
