<svg width="23" height="22" viewBox="0 0 23 22" fill="none" xmlns="http://www.w3.org/2000/svg">
<path fill-rule="evenodd" clip-rule="evenodd" d="M8.74769 6.23622C5.75419 6.86395 3.5 9.50233 3.5 12.6729C3.5 16.3124 6.47043 19.2513 10.1204 19.2513C12.7064 19.2513 14.9478 17.7774 16.0372 15.6267C18.3535 14.7297 20 12.4873 20 9.85665C20 6.43477 17.2144 3.66797 13.787 3.66797C11.7129 3.66797 9.87557 4.6811 8.74769 6.23622ZM11.3845 6.21434C14.4321 6.80024 16.7407 9.46429 16.7407 12.6729C16.7407 12.811 16.7364 12.9482 16.728 13.0843C17.6125 12.2865 18.1667 11.1347 18.1667 9.85665C18.1667 7.45523 16.2098 5.5013 13.787 5.5013C12.8998 5.5013 12.0743 5.76341 11.3845 6.21434Z" fill="#111111"/>
<path fill-rule="evenodd" clip-rule="evenodd" d="M2.67578 2.12578C2.67578 2.01532 2.76532 1.92578 2.87578 1.92578H8.45078V3.57578H4.32578V7.70078H2.67578V2.12578Z" fill="#111111"/>
<path fill-rule="evenodd" clip-rule="evenodd" d="M19.1758 18.4258V14.3008H20.8258V19.8758C20.8258 19.9862 20.7362 20.0758 20.6258 20.0758H15.0508V18.4258H19.1758Z" fill="#111111"/>
</svg>
