<svg width="12" height="13" viewBox="0 0 12 13" fill="none" xmlns="http://www.w3.org/2000/svg">
<path fill-rule="evenodd" clip-rule="evenodd" d="M8.42515 5.42197L7.92788 5.84057L8.76508 6.8351L9.26235 6.4165L11.153 4.82497L11.6883 4.37434L11.1995 3.87364L10.7344 4.3277L11.1995 3.87362L11.1994 3.87359L11.1993 3.87347L11.1989 3.87302L11.1972 3.87131L11.1907 3.86464L11.1652 3.83854L11.0657 3.73701C10.9784 3.64809 10.8501 3.51758 10.6857 3.35088C10.3568 3.0175 9.88309 2.53934 9.30337 1.95962L8.84375 1.5L7.92451 2.41924L8.38413 2.87886C8.67869 3.17342 8.94573 3.44161 9.18009 3.6777H5.84375H5.19375V4.9777H5.84375H8.95291L8.42515 5.42197ZM3.26314 6.91477L3.76041 6.49617L2.92321 5.50163L2.42594 5.92023L0.535317 7.51177L0 7.9624L0.488809 8.4631L0.953918 8.00903L0.488826 8.46312L0.48886 8.46315L0.488977 8.46327L0.489412 8.46372L0.491083 8.46543L0.497599 8.47209L0.523134 8.4982L0.622627 8.59973C0.709871 8.68865 0.838144 8.81916 1.0026 8.98586C1.33151 9.31923 1.8052 9.7974 2.38492 10.3771L2.84454 10.8367L3.76378 9.9175L3.30416 9.45788C3.0096 9.16332 2.74256 8.89512 2.5082 8.65903H5.84454H6.49454V7.35903H5.84454H2.73539L3.26314 6.91477Z" fill="#EFAF00"/>
</svg>
