<svg width="44" height="44" viewBox="0 0 44 44" fill="none" xmlns="http://www.w3.org/2000/svg">
<g filter="url(#filter0_b_7534_63934)">
<rect width="44" height="44" rx="22" fill="#F5F5F5"/>
</g>
<g clip-path="url(#clip0_7534_63934)">
<path fill-rule="evenodd" clip-rule="evenodd" d="M25.3338 14.2215H18.6671C17.6056 14.2215 16.8985 14.2226 16.3552 14.267C15.8292 14.31 15.5885 14.386 15.436 14.4637C15.0179 14.6767 14.678 15.0167 14.4649 15.4348C14.3872 15.5873 14.3112 15.828 14.2682 16.354C14.2238 16.8973 14.2227 17.6043 14.2227 18.6659V25.3326C14.2227 26.3942 14.2238 27.1012 14.2682 27.6445C14.3112 28.1705 14.3872 28.4112 14.4649 28.5637C14.678 28.9818 15.0179 29.3218 15.436 29.5348C15.5885 29.6125 15.8292 29.6885 16.3552 29.7315C16.8985 29.7759 17.6056 29.777 18.6671 29.777H25.3338C26.3954 29.777 27.1025 29.7759 27.6457 29.7315C28.1717 29.6885 28.4124 29.6125 28.5649 29.5348C28.983 29.3218 29.323 28.9818 29.536 28.5637C29.6137 28.4112 29.6897 28.1705 29.7327 27.6445C29.7771 27.1012 29.7782 26.3942 29.7782 25.3326V18.6659C29.7782 17.6043 29.7771 16.8973 29.7327 16.354C29.6897 15.828 29.6137 15.5873 29.536 15.4348C29.323 15.0167 28.983 14.6767 28.5649 14.4637C28.4124 14.386 28.1717 14.31 27.6457 14.267C27.1025 14.2226 26.3954 14.2215 25.3338 14.2215ZM13.1449 14.7622C12.7412 15.5545 12.7412 16.5916 12.7412 18.6659V25.3326C12.7412 27.4069 12.7412 28.444 13.1449 29.2363C13.5 29.9331 14.0666 30.4997 14.7635 30.8548C15.5557 31.2585 16.5929 31.2585 18.6671 31.2585H25.3338C27.4081 31.2585 28.4452 31.2585 29.2375 30.8548C29.9344 30.4997 30.501 29.9331 30.8561 29.2363C31.2597 28.444 31.2597 27.4069 31.2597 25.3326V18.6659C31.2597 16.5916 31.2597 15.5545 30.8561 14.7622C30.501 14.0654 29.9344 13.4988 29.2375 13.1437C28.4452 12.74 27.4081 12.74 25.3338 12.74H18.6671C16.5929 12.74 15.5557 12.74 14.7635 13.1437C14.0666 13.4988 13.5 14.0654 13.1449 14.7622Z" fill="#4D4D4D"/>
<path fill-rule="evenodd" clip-rule="evenodd" d="M20.6819 24.0844C20.2018 23.7415 19.5373 23.8337 19.1686 24.2944L14.7084 29.8688L13.5517 28.9432L18.0118 23.3689C18.872 22.2938 20.4225 22.0786 21.543 22.8788L29.8384 28.8033L28.9774 30.0089L20.6819 24.0844Z" fill="#4D4D4D"/>
<path d="M26.6301 18.2955C26.6301 19.3183 25.801 20.1474 24.7782 20.1474C23.7555 20.1474 22.9264 19.3183 22.9264 18.2955C22.9264 17.2728 23.7555 16.4437 24.7782 16.4437C25.801 16.4437 26.6301 17.2728 26.6301 18.2955Z" fill="#4D4D4D"/>
<path d="M16.3552 14.267L16.3715 14.4663L16.3552 14.267ZM15.436 14.4637L15.5268 14.6419L15.436 14.4637ZM14.4649 15.4348L14.6431 15.5256L14.4649 15.4348ZM14.2682 16.354L14.4676 16.3703L14.2682 16.354ZM14.2682 27.6445L14.4676 27.6282L14.2682 27.6445ZM14.4649 28.5637L14.6431 28.4729L14.6431 28.4729L14.4649 28.5637ZM15.436 29.5348L15.3452 29.713H15.3452L15.436 29.5348ZM16.3552 29.7315L16.3389 29.9308L16.3552 29.7315ZM27.6457 29.7315L27.662 29.9308L27.6457 29.7315ZM28.5649 29.5348L28.6557 29.713L28.5649 29.5348ZM29.536 28.5637L29.7142 28.6545L29.536 28.5637ZM29.7327 27.6445L29.932 27.6608L29.7327 27.6445ZM29.7327 16.354L29.932 16.3377L29.7327 16.354ZM29.536 15.4348L29.7142 15.344V15.344L29.536 15.4348ZM28.5649 14.4637L28.4741 14.6419L28.4741 14.6419L28.5649 14.4637ZM27.6457 14.267L27.6295 14.4663L27.6457 14.267ZM13.1449 14.7622L13.3231 14.853L13.1449 14.7622ZM13.1449 29.2363L12.9667 29.327H12.9667L13.1449 29.2363ZM14.7635 30.8548L14.6727 31.033H14.6727L14.7635 30.8548ZM29.2375 30.8548L29.3283 31.033L29.2375 30.8548ZM30.8561 29.2363L31.0343 29.327L30.8561 29.2363ZM30.8561 14.7622L31.0343 14.6714V14.6714L30.8561 14.7622ZM29.2375 13.1437L29.3283 12.9655V12.9655L29.2375 13.1437ZM14.7635 13.1437L14.8543 13.3219L14.7635 13.1437ZM19.1686 24.2944L19.3248 24.4194H19.3248L19.1686 24.2944ZM20.6819 24.0844L20.5657 24.2472L20.6819 24.0844ZM14.7084 29.8688L14.5835 30.025L14.7397 30.1499L14.8646 29.9938L14.7084 29.8688ZM13.5517 28.9432L13.3955 28.8183L13.2706 28.9745L13.4267 29.0994L13.5517 28.9432ZM18.0118 23.3689L17.8557 23.2439L18.0118 23.3689ZM21.543 22.8788L21.6592 22.7161L21.543 22.8788ZM29.8384 28.8033L30.0012 28.9195L30.1174 28.7568L29.9547 28.6405L29.8384 28.8033ZM28.9774 30.0089L28.8612 30.1716L29.0239 30.2879L29.1402 30.1251L28.9774 30.0089ZM18.6671 14.4215H25.3338V14.0215H18.6671V14.4215ZM16.3715 14.4663C16.9047 14.4228 17.6021 14.4215 18.6671 14.4215V14.0215C17.609 14.0215 16.8922 14.0225 16.3389 14.0677L16.3715 14.4663ZM15.5268 14.6419C15.6464 14.581 15.8577 14.5083 16.3715 14.4663L16.3389 14.0677C15.8007 14.1117 15.5307 14.191 15.3452 14.2855L15.5268 14.6419ZM14.6431 15.5256C14.837 15.1451 15.1463 14.8358 15.5268 14.6419L15.3452 14.2855C14.8895 14.5177 14.5189 14.8883 14.2867 15.344L14.6431 15.5256ZM14.4676 16.3703C14.5095 15.8565 14.5822 15.6451 14.6431 15.5256L14.2867 15.344C14.1922 15.5295 14.1129 15.7995 14.0689 16.3377L14.4676 16.3703ZM14.4227 18.6659C14.4227 17.6009 14.424 16.9035 14.4676 16.3703L14.0689 16.3377C14.0237 16.891 14.0227 17.6077 14.0227 18.6659H14.4227ZM14.4227 25.3326V18.6659H14.0227V25.3326H14.4227ZM14.4676 27.6282C14.424 27.095 14.4227 26.3976 14.4227 25.3326H14.0227C14.0227 26.3908 14.0237 27.1075 14.0689 27.6608L14.4676 27.6282ZM14.6431 28.4729C14.5822 28.3534 14.5095 28.142 14.4676 27.6282L14.0689 27.6608C14.1129 28.199 14.1922 28.469 14.2867 28.6545L14.6431 28.4729ZM15.5268 29.3566C15.1463 29.1627 14.837 28.8534 14.6431 28.4729L14.2867 28.6545C14.5189 29.1102 14.8895 29.4808 15.3452 29.713L15.5268 29.3566ZM16.3715 29.5322C15.8577 29.4902 15.6464 29.4175 15.5268 29.3566L15.3452 29.713C15.5307 29.8075 15.8007 29.8868 16.3389 29.9308L16.3715 29.5322ZM18.6671 29.577C17.6021 29.577 16.9047 29.5757 16.3715 29.5322L16.3389 29.9308C16.8922 29.976 17.609 29.977 18.6671 29.977V29.577ZM25.3338 29.577H18.6671V29.977H25.3338V29.577ZM27.6295 29.5322C27.0962 29.5757 26.3988 29.577 25.3338 29.577V29.977C26.392 29.977 27.1087 29.976 27.662 29.9308L27.6295 29.5322ZM28.4741 29.3566C28.3546 29.4175 28.1432 29.4902 27.6295 29.5322L27.662 29.9308C28.2003 29.8868 28.4703 29.8075 28.6557 29.713L28.4741 29.3566ZM29.3578 28.4729C29.164 28.8534 28.8546 29.1627 28.4741 29.3566L28.6557 29.713C29.1115 29.4808 29.482 29.1102 29.7142 28.6545L29.3578 28.4729ZM29.5334 27.6282C29.4914 28.142 29.4187 28.3534 29.3578 28.4729L29.7142 28.6545C29.8087 28.469 29.8881 28.199 29.932 27.6608L29.5334 27.6282ZM29.5782 25.3326C29.5782 26.3976 29.5769 27.095 29.5334 27.6282L29.932 27.6608C29.9773 27.1075 29.9782 26.3908 29.9782 25.3326H29.5782ZM29.5782 18.6659V25.3326H29.9782V18.6659H29.5782ZM29.5334 16.3703C29.5769 16.9035 29.5782 17.6009 29.5782 18.6659H29.9782C29.9782 17.6077 29.9773 16.891 29.932 16.3377L29.5334 16.3703ZM29.3578 15.5256C29.4187 15.6451 29.4914 15.8565 29.5334 16.3703L29.932 16.3377C29.8881 15.7995 29.8087 15.5295 29.7142 15.344L29.3578 15.5256ZM28.4741 14.6419C28.8546 14.8358 29.164 15.1451 29.3578 15.5256L29.7142 15.344C29.482 14.8883 29.1115 14.5177 28.6557 14.2855L28.4741 14.6419ZM27.6295 14.4663C28.1432 14.5083 28.3546 14.581 28.4741 14.6419L28.6557 14.2855C28.4703 14.191 28.2003 14.1117 27.662 14.0677L27.6295 14.4663ZM25.3338 14.4215C26.3988 14.4215 27.0962 14.4228 27.6295 14.4663L27.662 14.0677C27.1087 14.0225 26.392 14.0215 25.3338 14.0215V14.4215ZM12.9412 18.6659C12.9412 17.6255 12.9414 16.8572 12.991 16.2496C13.0405 15.6444 13.138 15.2163 13.3231 14.853L12.9667 14.6714C12.7481 15.1005 12.6438 15.5871 12.5923 16.217C12.5411 16.8447 12.5412 17.6321 12.5412 18.6659H12.9412ZM12.9412 25.3326V18.6659H12.5412V25.3326H12.9412ZM13.3231 29.1455C13.138 28.7822 13.0405 28.3541 12.991 27.7489C12.9414 27.1413 12.9412 26.373 12.9412 25.3326H12.5412C12.5412 26.3664 12.5411 27.1538 12.5923 27.7815C12.6438 28.4114 12.7481 28.898 12.9667 29.327L13.3231 29.1455ZM14.8543 30.6766C14.195 30.3407 13.659 29.8047 13.3231 29.1455L12.9667 29.327C13.341 30.0616 13.9381 30.6588 14.6727 31.033L14.8543 30.6766ZM18.6671 31.0585C17.6267 31.0585 16.8584 31.0584 16.2508 31.0087C15.6456 30.9593 15.2175 30.8617 14.8543 30.6766L14.6727 31.033C15.1017 31.2516 15.5883 31.3559 16.2183 31.4074C16.8459 31.4587 17.6333 31.4585 18.6671 31.4585V31.0585ZM25.3338 31.0585H18.6671V31.4585H25.3338V31.0585ZM29.1467 30.6766C28.7834 30.8617 28.3553 30.9593 27.7501 31.0087C27.1425 31.0584 26.3742 31.0585 25.3338 31.0585V31.4585C26.3676 31.4585 27.155 31.4587 27.7827 31.4074C28.4126 31.3559 28.8992 31.2516 29.3283 31.033L29.1467 30.6766ZM30.6778 29.1455C30.3419 29.8047 29.8059 30.3407 29.1467 30.6766L29.3283 31.033C30.0628 30.6588 30.66 30.0616 31.0343 29.327L30.6778 29.1455ZM31.0597 25.3326C31.0597 26.373 31.0596 27.1413 31.0099 27.7489C30.9605 28.3541 30.8629 28.7822 30.6778 29.1455L31.0343 29.327C31.2529 28.898 31.3571 28.4114 31.4086 27.7815C31.4599 27.1538 31.4597 26.3664 31.4597 25.3326H31.0597ZM31.0597 18.6659V25.3326H31.4597V18.6659H31.0597ZM30.6778 14.853C30.8629 15.2163 30.9605 15.6444 31.0099 16.2496C31.0596 16.8572 31.0597 17.6255 31.0597 18.6659H31.4597C31.4597 17.6321 31.4599 16.8447 31.4086 16.217C31.3571 15.5871 31.2529 15.1005 31.0343 14.6714L30.6778 14.853ZM29.1467 13.3219C29.8059 13.6578 30.3419 14.1938 30.6778 14.853L31.0343 14.6714C30.66 13.9369 30.0628 13.3397 29.3283 12.9655L29.1467 13.3219ZM25.3338 12.94C26.3742 12.94 27.1425 12.9401 27.7501 12.9898C28.3553 13.0392 28.7834 13.1368 29.1467 13.3219L29.3283 12.9655C28.8992 12.7469 28.4126 12.6426 27.7827 12.5911C27.155 12.5398 26.3676 12.54 25.3338 12.54V12.94ZM18.6671 12.94H25.3338V12.54H18.6671V12.94ZM14.8543 13.3219C15.2175 13.1368 15.6456 13.0392 16.2508 12.9898C16.8584 12.9401 17.6267 12.94 18.6671 12.94V12.54C17.6333 12.54 16.8459 12.5398 16.2183 12.5911C15.5883 12.6426 15.1017 12.7469 14.6727 12.9655L14.8543 13.3219ZM13.3231 14.853C13.659 14.1938 14.195 13.6578 14.8543 13.3219L14.6727 12.9655C13.9381 13.3397 13.341 13.9369 12.9667 14.6714L13.3231 14.853ZM19.3248 24.4194C19.6271 24.0416 20.172 23.9659 20.5657 24.2472L20.7982 23.9216C20.2316 23.517 19.4474 23.6258 19.0124 24.1695L19.3248 24.4194ZM14.8646 29.9938L19.3248 24.4194L19.0124 24.1695L14.5523 29.7439L14.8646 29.9938ZM13.4267 29.0994L14.5835 30.025L14.8334 29.7126L13.6766 28.7871L13.4267 29.0994ZM17.8557 23.2439L13.3955 28.8183L13.7078 29.0682L18.168 23.4938L17.8557 23.2439ZM21.6592 22.7161C20.4523 21.8541 18.7822 22.0859 17.8557 23.2439L18.168 23.4938C18.9618 22.5017 20.3927 22.3031 21.4267 23.0416L21.6592 22.7161ZM29.9547 28.6405L21.6592 22.7161L21.4267 23.0416L29.7222 28.966L29.9547 28.6405ZM29.1402 30.1251L30.0012 28.9195L29.6757 28.687L28.8147 29.8926L29.1402 30.1251ZM20.5657 24.2472L28.8612 30.1716L29.0936 29.8461L20.7982 23.9216L20.5657 24.2472ZM26.4301 18.2955C26.4301 19.2078 25.6905 19.9474 24.7782 19.9474V20.3474C25.9115 20.3474 26.8301 19.4288 26.8301 18.2955H26.4301ZM24.7782 19.9474C23.866 19.9474 23.1264 19.2078 23.1264 18.2955H22.7264C22.7264 19.4288 23.645 20.3474 24.7782 20.3474V19.9474ZM23.1264 18.2955C23.1264 17.3833 23.866 16.6437 24.7782 16.6437V16.2437C23.645 16.2437 22.7264 17.1623 22.7264 18.2955H23.1264ZM24.7782 16.6437C25.6905 16.6437 26.4301 17.3833 26.4301 18.2955H26.8301C26.8301 17.1623 25.9115 16.2437 24.7782 16.2437V16.6437Z" fill="#4D4D4D"/>
</g>
<defs>
<filter id="filter0_b_7534_63934" x="-64" y="-64" width="172" height="172" filterUnits="userSpaceOnUse" color-interpolation-filters="sRGB">
<feFlood flood-opacity="0" result="BackgroundImageFix"/>
<feGaussianBlur in="BackgroundImageFix" stdDeviation="32"/>
<feComposite in2="SourceAlpha" operator="in" result="effect1_backgroundBlur_7534_63934"/>
<feBlend mode="normal" in="SourceGraphic" in2="effect1_backgroundBlur_7534_63934" result="shape"/>
</filter>
<clipPath id="clip0_7534_63934">
<rect width="20" height="20" fill="white" transform="translate(12 12)"/>
</clipPath>
</defs>
</svg>
