<svg width="45" height="44" viewBox="0 0 45 44" fill="none" xmlns="http://www.w3.org/2000/svg">
<g filter="url(#filter0_b_6023_117996)">
<rect x="1" width="44" height="44" rx="22" fill="#F5F5F5"/>
</g>
<g clip-path="url(#clip0_6023_117996)">
<path d="M20.7365 25.9988C20.4933 25.9988 20.2595 25.9053 20.0724 25.7275C19.9857 25.641 19.9169 25.5382 19.8699 25.425C19.823 25.3119 19.7988 25.1906 19.7988 25.0681C19.7988 24.9455 19.823 24.8242 19.8699 24.7111C19.9169 24.5979 19.9857 24.4951 20.0724 24.4086L24.8992 19.5818C24.9858 19.4952 25.0886 19.4265 25.2018 19.3796C25.3149 19.3327 25.4362 19.3086 25.5587 19.3086C25.6812 19.3086 25.8024 19.3327 25.9156 19.3796C26.0287 19.4265 26.1316 19.4952 26.2182 19.5818C26.3048 19.6684 26.3735 19.7712 26.4203 19.8843C26.4672 19.9975 26.4913 20.1188 26.4913 20.2412C26.4913 20.3637 26.4672 20.485 26.4203 20.5981C26.3735 20.7113 26.3048 20.8141 26.2182 20.9007L21.3913 25.7275C21.2136 25.9053 20.9798 25.9988 20.7365 25.9988Z" fill="#4D4D4D"/>
<path d="M19.708 31.3124C18.3142 31.3124 17.0046 30.7699 16.0224 29.7877C15.0474 28.8089 14.5 27.4836 14.5 26.1021C14.5 24.7206 15.0474 23.3953 16.0224 22.4165L18.6696 19.7692L19.9886 21.0882L17.3413 23.7355C16.0411 25.0357 16.0411 27.1591 17.3413 28.4687C18.6042 29.7316 20.8024 29.7316 22.0746 28.4687L24.7219 25.8215L26.0408 27.1404L23.3936 29.7877C22.9105 30.2728 22.336 30.6573 21.7034 30.9191C21.0708 31.1808 20.3926 31.3145 19.708 31.3124ZM27.6404 25.5408L26.3215 24.2219L28.9687 21.5746C30.269 20.2744 30.269 18.1509 28.9687 16.8413C27.6685 15.5411 25.5451 15.5411 24.2355 16.8413L21.5882 19.4886L20.2599 18.1696L22.9071 15.5224C23.886 14.5474 25.2112 14 26.5927 14C27.9743 14 29.2995 14.5474 30.2783 15.5224C31.2533 16.5012 31.8007 17.8264 31.8007 19.208C31.8007 20.5895 31.2533 21.9148 30.2783 22.8936L27.6404 25.5408Z" fill="#4D4D4D"/>
</g>
<defs>
<filter id="filter0_b_6023_117996" x="-63" y="-64" width="172" height="172" filterUnits="userSpaceOnUse" color-interpolation-filters="sRGB">
<feFlood flood-opacity="0" result="BackgroundImageFix"/>
<feGaussianBlur in="BackgroundImageFix" stdDeviation="32"/>
<feComposite in2="SourceAlpha" operator="in" result="effect1_backgroundBlur_6023_117996"/>
<feBlend mode="normal" in="SourceGraphic" in2="effect1_backgroundBlur_6023_117996" result="shape"/>
</filter>
<clipPath id="clip0_6023_117996">
<rect width="19" height="19" fill="white" transform="translate(13.5 13)"/>
</clipPath>
</defs>
</svg>
