<svg width="36" height="36" viewBox="0 0 36 36" fill="none" xmlns="http://www.w3.org/2000/svg">
<path d="M12.7633 19.884L12.0019 20.3639L12.7633 19.884L10.3377 16.0361L14.5618 14.3488C14.7669 14.2669 14.9484 14.135 15.0897 13.9652C15.0897 13.9652 15.0897 13.9652 15.0897 13.9652L17.9998 10.4693L20.9098 13.9652C21.0511 14.135 21.2326 14.2669 21.4378 14.3488L25.6618 16.0361L23.2362 19.884C23.1184 20.0709 23.0491 20.2842 23.0346 20.5047L22.7352 25.0434L18.3261 23.9256C18.1119 23.8713 17.8876 23.8713 17.6734 23.9256L13.2643 25.0434L12.9649 20.5047C12.9504 20.2842 12.8811 20.0709 12.7633 19.884ZM23.285 25.1828L23.2843 25.1826L23.285 25.1828ZM12.7145 25.1828C12.7147 25.1828 12.7149 25.1827 12.7151 25.1827L12.7145 25.1828Z" stroke="black" stroke-width="1.8"/>
</svg>
