<svg width="20" height="20" viewBox="0 0 20 20" fill="none" xmlns="http://www.w3.org/2000/svg">
<path d="M18.3307 5.83594C18.3307 4.45523 17.2114 3.33594 15.8307 3.33594H4.16406C2.78335 3.33594 1.66406 4.45523 1.66406 5.83594V13.3359C1.66406 14.7166 2.78335 15.8359 4.16406 15.8359H7.91406L9.9974 17.9193L12.0807 15.8359H15.8307C17.2114 15.8359 18.3307 14.7166 18.3307 13.3359V5.83594Z" fill="#FFB21C" stroke="#FFB21C" stroke-width="1.25" stroke-linecap="round" stroke-linejoin="round"/>
<path d="M12.556 14H7.924C7.884 14 7.848 13.988 7.816 13.964C7.792 13.932 7.78 13.896 7.78 13.856V12.776C7.78 12.704 7.8 12.644 7.84 12.596L10.912 8.78C11.16 8.492 11.284 8.176 11.284 7.832C11.284 7.16 10.94 6.8 10.252 6.752C9.964 6.752 9.728 6.84 9.544 7.016C9.36 7.192 9.252 7.428 9.22 7.724C9.204 7.82 9.152 7.868 9.064 7.868H7.936C7.856 7.868 7.808 7.82 7.792 7.724C7.84 7.044 8.084 6.5 8.524 6.092C8.964 5.684 9.54 5.48 10.252 5.48C10.988 5.48 11.58 5.696 12.028 6.128C12.476 6.56 12.7 7.136 12.7 7.856C12.7 8.176 12.64 8.468 12.52 8.732C12.408 8.996 12.2 9.312 11.896 9.68L9.448 12.68H12.556C12.596 12.68 12.628 12.696 12.652 12.728C12.684 12.752 12.7 12.784 12.7 12.824V13.856C12.7 13.896 12.684 13.932 12.652 13.964C12.628 13.988 12.596 14 12.556 14Z" fill="white"/>
</svg>
