<svg width="12" height="12" viewBox="0 0 12 12" fill="none" xmlns="http://www.w3.org/2000/svg">
<path fill-rule="evenodd" clip-rule="evenodd" d="M5.62988 1.50265C4.9819 0.954366 4.19328 0.655126 2.91981 0.778397C1.63669 0.903346 0.176785 2.02788 0 4.19886V4.90879C0.142569 6.79437 1.46703 8.33209 5.22514 11.0029C5.45101 11.1636 5.72168 11.25 5.99929 11.25C6.2769 11.25 6.54756 11.1636 6.77344 11.0029C10.5344 8.32641 11.8532 6.78869 12 4.90311V4.19318C11.8246 2.02788 10.3647 0.903346 9.08162 0.778397C8.89058 0.759939 8.70667 0.75 8.53558 0.75C7.57743 0.75 6.9333 1.03238 6.38537 1.49201C6.25253 1.60345 6.12535 1.7253 6.00071 1.85608C5.88083 1.72941 5.75811 1.61116 5.62988 1.50265ZM10.8 4.24487C10.6545 2.67124 9.6439 2.03909 8.96582 1.9728C8.80611 1.95738 8.66143 1.95 8.53558 1.95C8.09452 1.95 7.80031 2.02897 7.57685 2.1353C7.34684 2.24475 7.12648 2.41421 6.86939 2.68396C6.64242 2.92212 6.32762 3.05664 5.99864 3.05607C5.66965 3.0555 5.35532 2.91989 5.12917 2.68095C4.84304 2.37863 4.5953 2.19884 4.32141 2.09124C4.04743 1.98361 3.65633 1.91279 3.03611 1.97275M10.8 4.24487V4.85284C10.6863 6.10111 9.8401 7.34765 6.07766 10.0252C6.05528 10.0411 6.02788 10.05 5.99929 10.05C5.97069 10.05 5.94328 10.0411 5.9209 10.0251C2.15809 7.35103 1.31033 6.10541 1.2 4.85994V4.25081C1.3468 2.66994 2.35922 2.0388 3.03611 1.97275" fill="#BBBBBB"/>
</svg>
