<svg width="24" height="24" viewBox="0 0 24 24" fill="none" xmlns="http://www.w3.org/2000/svg">
<path d="M5.57153 12.0006C5.57153 11.2905 6.14717 10.7148 6.85725 10.7148V10.7148C7.56733 10.7148 8.14296 11.2905 8.14296 12.0006V12.0006C8.14296 12.7106 7.56733 13.2863 6.85725 13.2863V13.2863C6.14717 13.2863 5.57153 12.7106 5.57153 12.0006V12.0006Z" fill="white"/>
<path d="M10.7144 12.0006C10.7144 11.2905 11.29 10.7148 12.0001 10.7148V10.7148C12.7102 10.7148 13.2858 11.2905 13.2858 12.0006V12.0006C13.2858 12.7106 12.7102 13.2863 12.0001 13.2863V13.2863C11.29 13.2863 10.7144 12.7106 10.7144 12.0006V12.0006Z" fill="white"/>
<path d="M15.8572 12.0006C15.8572 11.2905 16.4329 10.7148 17.143 10.7148V10.7148C17.853 10.7148 18.4287 11.2905 18.4287 12.0006V12.0006C18.4287 12.7106 17.853 13.2863 17.143 13.2863V13.2863C16.4329 13.2863 15.8572 12.7106 15.8572 12.0006V12.0006Z" fill="white"/>
</svg>
