<svg width="12" height="12" viewBox="0 0 12 12" fill="none" xmlns="http://www.w3.org/2000/svg">
<path d="M9.08162 0.778514C8.89058 0.75998 8.70667 0.75 8.53558 0.75C7.34514 0.75 6.63942 1.18769 6.00071 1.86061C5.27504 1.09074 4.44529 0.630242 2.91981 0.778514C1.63669 0.903974 0.176785 2.03312 0 4.21299V4.92584C0.142569 6.81915 1.46703 8.36317 5.22514 11.0449C5.45101 11.2063 5.72168 11.293 5.99929 11.293C6.2769 11.293 6.54756 11.2063 6.77344 11.0449C10.5344 8.35746 11.8532 6.81344 12 4.92013V4.20729C11.8246 2.03312 10.3647 0.903974 9.08162 0.778514Z" fill="#D90000"/>
</svg>
