<svg width="17" height="17" viewBox="0 0 17 17" fill="none" xmlns="http://www.w3.org/2000/svg">
<path d="M4.28955 5.13478H3.10981C2.92749 5.13478 2.83633 5.13478 2.75963 5.14102C1.8275 5.21685 1.09013 5.96145 1.02337 6.89427C1.01788 6.97102 1.01876 7.06217 1.02054 7.24448L1.07036 12.3616C1.0806 13.4134 1.08572 13.9393 1.29364 14.3406C1.47656 14.6937 1.76591 14.9802 2.1207 15.1597C2.524 15.3637 3.04993 15.3637 4.10179 15.3637H12.6818L15.3897 12.3057V8.16636C15.3897 7.10521 15.3897 6.57463 15.1832 6.16932C15.0015 5.81281 14.7117 5.52295 14.3552 5.34129C13.9499 5.13478 13.4193 5.13478 12.3581 5.13478H8.63248C8.58053 5.13478 8.54529 5.08193 8.56526 5.03397L9.25865 3.36899C9.76766 2.14673 8.86962 0.799927 7.54561 0.799927C6.79635 0.799927 6.12061 1.25051 5.83256 1.94218L4.58505 4.93774C4.53536 5.05705 4.41879 5.13478 4.28955 5.13478Z" stroke="#4D4D4D" stroke-width="1.4"/>
<rect x="3.38379" y="5.06836" width="1.33389" height="10.8316" fill="#4D4D4D"/>
</svg>
