<svg width="17" height="16" viewBox="0 0 17 16" fill="none" xmlns="http://www.w3.org/2000/svg">
<path fill-rule="evenodd" clip-rule="evenodd" d="M3.48694 4.5497H3.19459C2.91521 4.5497 2.77552 4.5497 2.65846 4.56433C1.79155 4.6727 1.11112 5.35978 1.01119 6.22771C0.997699 6.34491 0.999059 6.48459 1.00178 6.76396L1.05551 12.2835C1.06575 13.3353 1.07087 13.8612 1.2788 14.2625C1.46172 14.6155 1.75106 14.9021 2.10586 15.0816C2.42396 15.2425 2.81836 15.2765 3.48694 15.2836V4.5497ZM4.88694 15.2856H13.241L16.0831 12.076V7.58127C16.0831 6.52012 16.0831 5.98955 15.8766 5.58424C15.6949 5.22772 15.4051 4.93786 15.0486 4.75621C14.6432 4.5497 14.1127 4.5497 13.0515 4.5497H8.99098C8.93645 4.5497 8.89947 4.49423 8.92043 4.44389L9.64818 2.69639C10.1824 1.41355 9.23987 0 7.85024 0C7.06385 0 6.35462 0.472915 6.05229 1.19887L4.74295 4.34289C4.74006 4.34982 4.73696 4.35662 4.73365 4.36328H4.88694V15.2856Z" fill="#E64F44"/>
</svg>
