<svg width="12" height="12" viewBox="0 0 12 12" fill="none" xmlns="http://www.w3.org/2000/svg">
<g clip-path="url(#clip0_8914_134323)">
<path d="M6.32823 11.25C6.35309 11.25 6.37694 11.2401 6.39452 11.2225C6.4121 11.205 6.42198 11.1811 6.42198 11.1563V7.33125L7.82673 5.925L9.11298 7.215C9.13066 7.23229 9.15426 7.24221 9.17898 7.24275C9.19139 7.24278 9.20368 7.24033 9.21514 7.23557C9.22659 7.23081 9.23699 7.22382 9.24573 7.215L9.71298 6.75C9.72179 6.74156 9.7287 6.73133 9.73323 6.72C9.73823 6.70866 9.74081 6.6964 9.74081 6.684C9.74081 6.67161 9.73823 6.65935 9.73323 6.648C9.72879 6.6364 9.72188 6.62591 9.71298 6.61725L8.42373 5.328L9.79548 3.95625C9.80427 3.9478 9.81118 3.93757 9.81573 3.92625C9.82068 3.9149 9.82324 3.90264 9.82324 3.89025C9.82324 3.87786 9.82068 3.86561 9.81573 3.85425C9.81127 3.84267 9.80436 3.83218 9.79548 3.8235L9.33123 3.35925C9.31354 3.34197 9.28995 3.33205 9.26523 3.3315C9.25282 3.33148 9.24053 3.33392 9.22907 3.33869C9.21761 3.34345 9.20721 3.35044 9.19848 3.35925L2.20473 10.353C2.19593 10.3615 2.18903 10.3717 2.18448 10.383C2.17943 10.3943 2.17683 10.4066 2.17683 10.419C2.17683 10.4314 2.17943 10.4437 2.18448 10.455C2.18894 10.4666 2.19585 10.4771 2.20473 10.4858L2.66898 10.95C2.68685 10.9675 2.71075 10.9774 2.73573 10.9778C2.74802 10.9778 2.7602 10.9753 2.77153 10.9705C2.78286 10.9658 2.79313 10.9588 2.80173 10.95L5.57673 8.175V11.157C5.57668 11.1694 5.57924 11.1817 5.58423 11.193C5.58876 11.2043 5.59567 11.2146 5.60448 11.223C5.62194 11.2406 5.64567 11.2506 5.67048 11.2508L6.32823 11.25ZM2.88423 7.215L5.57823 4.521V5.565C5.5781 5.58345 5.58359 5.60151 5.59398 5.61675C5.60413 5.63227 5.61878 5.64431 5.63598 5.65125C5.65305 5.65838 5.67186 5.66021 5.68998 5.6565C5.70818 5.65302 5.7249 5.64413 5.73798 5.631L6.36648 5.0025C6.38415 4.98526 6.39813 4.9646 6.40754 4.94177C6.41695 4.91895 6.42161 4.89444 6.42123 4.86975V4.521L6.57123 4.671C6.5891 4.68846 6.61299 4.6984 6.63798 4.69875C6.6627 4.69821 6.68629 4.68829 6.70398 4.671L7.16823 4.20675C7.17702 4.1983 7.18393 4.18807 7.18848 4.17675C7.19348 4.16541 7.19606 4.15315 7.19606 4.14075C7.19606 4.12836 7.19348 4.1161 7.18848 4.10475C7.18402 4.09317 7.17711 4.08268 7.16823 4.074L6.26823 3.174C6.22438 3.13077 6.17069 3.09883 6.11177 3.08093C6.05285 3.06303 5.99047 3.05971 5.92998 3.07125C5.85738 3.08618 5.79067 3.12187 5.73798 3.174L5.40648 3.5055L2.29098 6.621C2.28218 6.62946 2.27528 6.63968 2.27073 6.651C2.26568 6.66233 2.26308 6.6746 2.26308 6.687C2.26308 6.69941 2.26568 6.71167 2.27073 6.723C2.27519 6.73459 2.28209 6.74508 2.29098 6.75375L2.75523 7.218C2.7731 7.23546 2.797 7.2454 2.82198 7.24575C2.8467 7.24521 2.87029 7.23529 2.88798 7.218L2.88423 7.215ZM9.26015 1.59C9.27834 1.59004 9.29615 1.58482 9.31145 1.57497C9.32675 1.56513 9.33889 1.55107 9.3464 1.5345C9.35132 1.52363 9.35412 1.51192 9.35465 1.5V0.843753C9.35465 0.831003 9.3524 0.819003 9.34715 0.807753C9.34261 0.796423 9.33571 0.786193 9.3269 0.777753C9.30943 0.760136 9.2857 0.750157 9.2609 0.750003H2.74006C2.72772 0.749903 2.71549 0.75226 2.70407 0.756936C2.69265 0.761612 2.68227 0.768514 2.67355 0.777239C2.66482 0.785965 2.65792 0.796339 2.65325 0.807759C2.64857 0.819178 2.64621 0.831414 2.64631 0.843753V1.5C2.64626 1.5124 2.64882 1.52466 2.65381 1.536C2.65836 1.54732 2.66527 1.55755 2.67406 1.566C2.68268 1.57476 2.69296 1.58172 2.70429 1.58648C2.71561 1.59125 2.72777 1.59372 2.74006 1.59375L9.26015 1.59Z" fill="#EAAD36" stroke="#EAAD36" stroke-width="0.333333"/>
</g>
<defs>
<clipPath id="clip0_8914_134323">
<rect width="12" height="12" fill="white"/>
</clipPath>
</defs>
</svg>
