<svg width="36" height="36" viewBox="0 0 36 36" fill="none" xmlns="http://www.w3.org/2000/svg">
<path d="M25.3127 18.6108C25.1932 20.0002 24.6794 21.3265 23.8317 22.4338C22.984 23.541 21.8377 24.3831 20.5276 24.861C19.2176 25.3389 17.7983 25.4327 16.4368 25.1314C15.0752 24.8301 13.8281 24.1462 12.842 23.1601C11.856 22.174 11.172 20.9269 10.8707 19.5653C10.5694 18.2038 10.6632 16.7845 11.1411 15.4745C11.619 14.1644 12.4611 13.0181 13.5684 12.1704C14.6756 11.3227 16.0019 10.8089 17.3913 10.6894C17.4652 10.6833 17.5395 10.6918 17.6101 10.7145C17.6807 10.7371 17.7461 10.7734 17.8026 10.8213C17.8592 10.8693 17.9057 10.9279 17.9396 10.9938C17.9735 11.0597 17.9941 11.1316 18.0002 11.2055C18.0063 11.2794 17.9978 11.3537 17.9751 11.4243C17.9525 11.4949 17.9162 11.5603 17.8683 11.6168C17.8203 11.6734 17.7617 11.7199 17.6958 11.7538C17.6299 11.7877 17.558 11.8083 17.4841 11.8144C16.3082 11.9154 15.1856 12.3502 14.2484 13.0676C13.3112 13.785 12.5984 14.7552 12.1939 15.8639C11.7893 16.9727 11.7099 18.1739 11.9649 19.3263C12.2199 20.4787 12.7988 21.5342 13.6333 22.3688C14.4679 23.2034 15.5234 23.7822 16.6758 24.0372C17.8282 24.2922 19.0294 24.2128 20.1382 23.8082C21.2469 23.4037 22.2171 22.6909 22.9345 21.7537C23.6519 20.8165 24.0867 19.6939 24.1877 18.518C24.2 18.3688 24.2711 18.2306 24.3853 18.1338C24.4995 18.0371 24.6474 17.9896 24.7966 18.0019C24.9458 18.0142 25.084 18.0853 25.1808 18.1995C25.2775 18.3137 25.325 18.4616 25.3127 18.6108ZM17.4377 14.0644V18.0019C17.4377 18.1511 17.497 18.2942 17.6024 18.3997C17.7079 18.5051 17.851 18.5644 18.0002 18.5644H21.9377C22.0869 18.5644 22.23 18.5051 22.3354 18.3997C22.4409 18.2942 22.5002 18.1511 22.5002 18.0019C22.5002 17.8527 22.4409 17.7097 22.3354 17.6042C22.23 17.4987 22.0869 17.4394 21.9377 17.4394H18.5627V14.0644C18.5627 13.9152 18.5034 13.7722 18.3979 13.6667C18.2925 13.5612 18.1494 13.5019 18.0002 13.5019C17.851 13.5019 17.7079 13.5612 17.6024 13.6667C17.497 13.7722 17.4377 13.9152 17.4377 14.0644ZM20.2502 12.3769C20.4171 12.3769 20.5802 12.3274 20.719 12.2347C20.8577 12.142 20.9659 12.0102 21.0297 11.8561C21.0936 11.7019 21.1103 11.5322 21.0777 11.3686C21.0452 11.2049 20.9648 11.0545 20.8468 10.9365C20.7288 10.8185 20.5785 10.7382 20.4148 10.7056C20.2511 10.6731 20.0815 10.6898 19.9273 10.7536C19.7731 10.8175 19.6414 10.9256 19.5486 11.0644C19.4559 11.2032 19.4064 11.3663 19.4064 11.5332C19.4064 11.7569 19.4953 11.9715 19.6536 12.1298C19.8118 12.288 20.0264 12.3769 20.2502 12.3769ZM22.7814 14.0644C22.9483 14.0644 23.1115 14.0149 23.2502 13.9222C23.389 13.8295 23.4971 13.6977 23.561 13.5436C23.6248 13.3894 23.6415 13.2197 23.609 13.0561C23.5764 12.8924 23.4961 12.742 23.3781 12.624C23.2601 12.506 23.1097 12.4257 22.9461 12.3931C22.7824 12.3606 22.6127 12.3773 22.4586 12.4411C22.3044 12.505 22.1726 12.6131 22.0799 12.7519C21.9872 12.8907 21.9377 13.0538 21.9377 13.2207C21.9377 13.4444 22.0266 13.659 22.1848 13.8173C22.3431 13.9755 22.5577 14.0644 22.7814 14.0644ZM24.4689 16.5957C24.6358 16.5957 24.799 16.5462 24.9377 16.4535C25.0765 16.3608 25.1846 16.229 25.2485 16.0748C25.3123 15.9206 25.329 15.751 25.2965 15.5873C25.2639 15.4236 25.1836 15.2733 25.0656 15.1553C24.9476 15.0373 24.7972 14.9569 24.6336 14.9244C24.4699 14.8918 24.3002 14.9085 24.1461 14.9724C23.9919 15.0362 23.8601 15.1444 23.7674 15.2831C23.6747 15.4219 23.6252 15.585 23.6252 15.7519C23.6252 15.9757 23.7141 16.1903 23.8723 16.3485C24.0306 16.5068 24.2452 16.5957 24.4689 16.5957Z" fill="#151517" stroke="#111111" stroke-width="0.5"/>
</svg>
