<svg width="36" height="36" viewBox="0 0 36 36" fill="none" xmlns="http://www.w3.org/2000/svg">
<g clip-path="url(#clip0_20777_87382)">
<path d="M11 25L25 25" stroke="#999999" stroke-width="1.6" stroke-linecap="round"/>
<path fill-rule="evenodd" clip-rule="evenodd" d="M19.4862 9.70696C19.8767 9.31643 20.5099 9.31643 20.9004 9.70696L25.0238 13.8303C25.4143 14.2209 25.4143 14.854 25.0238 15.2446L17.0445 23.2239C16.654 23.6144 16.0208 23.6144 15.6303 23.2239L11.5069 19.1005C11.1164 18.71 11.1164 18.0768 11.5069 17.6863L19.4862 9.70696ZM18.7935 12.6625L20.1933 11.2626L23.4682 14.5374L22.0683 15.9373L18.7935 12.6625ZM17.6621 13.7938L13.0625 18.3934L16.3374 21.6683L20.9369 17.0687L17.6621 13.7938Z" fill="#999999"/>
</g>
<defs>
<clipPath id="clip0_20777_87382">
<rect width="18" height="18" fill="white" transform="translate(9 9)"/>
</clipPath>
</defs>
</svg>
