<svg width="20" height="20" viewBox="0 0 20 20" fill="none" xmlns="http://www.w3.org/2000/svg">
<g clip-path="url(#clip0_12924_62948)">
<path d="M13.27 14.5871L14.9107 6.85285C15.0557 6.17215 14.665 5.90428 14.2186 6.07143L4.57572 9.78785C3.91713 10.0443 3.92857 10.4129 4.46428 10.58L6.93072 11.35L12.6564 7.745C12.9243 7.56643 13.17 7.66715 12.9693 7.84572L8.33785 12.0307L8.15928 14.5757C8.41572 14.5757 8.52785 14.4643 8.66143 14.33L9.86643 13.1693L12.3664 15.0107C12.8243 15.2671 13.1479 15.1336 13.2707 14.5864L13.27 14.5871ZM20 10C20 15.5243 15.5243 20 10 20C4.47572 20 0 15.5243 0 10C0 4.47572 4.47572 0 10 0C15.5243 0 20 4.47572 20 10Z" fill="#1296DB"/>
<circle cx="10" cy="10" r="10" fill="#4D4D4D"/>
<path fill-rule="evenodd" clip-rule="evenodd" d="M9.56318 7.15479C9.56318 5.96315 8.59757 5 7.40838 5C6.21919 5 5.25605 5.9656 5.25359 7.15479C5.25359 8.34644 6.21919 9.30958 7.40838 9.30958C8.60003 9.30958 9.56318 8.34398 9.56318 7.15479ZM7.48701 10.398L4.53369 15H16.347L12.5509 8.91155L9.59512 13.371L7.48701 10.398Z" fill="white"/>
</g>
<defs>
<clipPath id="clip0_12924_62948">
<rect width="20" height="20" fill="white"/>
</clipPath>
</defs>
</svg>
