<svg width="17" height="16" viewBox="0 0 17 16" fill="none" xmlns="http://www.w3.org/2000/svg">
<path d="M16 9C16 9.55229 15.5523 10 15 10L13.6 10C13.0477 10 12.6 9.55228 12.6 9L12.6 7.6C12.6 7.04771 13.0477 6.6 13.6 6.6L15 6.6C15.5523 6.6 16 7.04772 16 7.6L16 9Z" fill="#333333"/>
<path d="M10.2 9C10.2 9.55228 9.75228 10 9.2 10L7.8 10C7.24771 10 6.8 9.55228 6.8 9L6.8 7.6C6.8 7.04771 7.24772 6.6 7.8 6.6L9.2 6.6C9.75229 6.6 10.2 7.04772 10.2 7.6L10.2 9Z" fill="#333333"/>
<path d="M4.4 9C4.4 9.55228 3.95228 10 3.4 10L2 10C1.44771 10 1 9.55228 1 9L1 7.6C1 7.04771 1.44772 6.6 2 6.6L3.4 6.6C3.95229 6.6 4.4 7.04771 4.4 7.6L4.4 9Z" fill="#333333"/>
</svg>
