<svg width="19" height="19" viewBox="0 0 19 19" fill="none" xmlns="http://www.w3.org/2000/svg">
<g clip-path="url(#clip0_12924_64666)">
<path d="M8.14982 11.9835C7.93316 11.9835 7.72482 11.9001 7.55816 11.7418C7.4809 11.6647 7.41961 11.5731 7.3778 11.4723C7.33598 11.3715 7.31445 11.2634 7.31445 11.1543C7.31445 11.0451 7.33598 10.9371 7.3778 10.8363C7.41961 10.7355 7.4809 10.6439 7.55816 10.5668L11.8582 6.26679C11.9353 6.18964 12.0269 6.12844 12.1277 6.08668C12.2285 6.04493 12.3365 6.02344 12.4457 6.02344C12.5548 6.02344 12.6628 6.04493 12.7636 6.08668C12.8644 6.12844 12.956 6.18964 13.0332 6.26679C13.1103 6.34394 13.1715 6.43553 13.2133 6.53634C13.255 6.63714 13.2765 6.74518 13.2765 6.85429C13.2765 6.9634 13.255 7.07144 13.2133 7.17224C13.1715 7.27304 13.1103 7.36464 13.0332 7.44179L8.73316 11.7418C8.57482 11.9001 8.36649 11.9835 8.14982 11.9835Z" fill="#666666"/>
<path d="M7.23391 16.7159C5.99224 16.7159 4.82558 16.2325 3.95058 15.3575C3.08202 14.4855 2.59436 13.3049 2.59436 12.0742C2.59436 10.8434 3.08202 9.66283 3.95058 8.79085L6.30891 6.43252L7.48391 7.60752L5.12558 9.96585C3.96724 11.1242 3.96724 13.0159 5.12558 14.1825C6.25058 15.3075 8.20891 15.3075 9.34224 14.1825L11.7006 11.8242L12.8756 12.9992L10.5172 15.3575C10.0869 15.7897 9.57514 16.1323 9.01157 16.3654C8.448 16.5986 7.8438 16.7177 7.23391 16.7159ZM14.3006 11.5742L13.1256 10.3992L15.4839 8.04085C16.6422 6.88252 16.6422 4.99085 15.4839 3.82419C14.3256 2.66585 12.4339 2.66585 11.2672 3.82419L8.90891 6.18252L7.72558 5.00752L10.0839 2.64919C10.9559 1.78063 12.1365 1.29297 13.3672 1.29297C14.598 1.29297 15.7786 1.78063 16.6506 2.64919C17.5191 3.52117 18.0068 4.70177 18.0068 5.93252C18.0068 7.16327 17.5191 8.34387 16.6506 9.21585L14.3006 11.5742Z" fill="#666666"/>
</g>
<defs>
<clipPath id="clip0_12924_64666">
<rect width="19" height="19" fill="white"/>
</clipPath>
</defs>
</svg>
