<svg width="28" height="28" viewBox="0 0 28 28" fill="none" xmlns="http://www.w3.org/2000/svg">
<rect width="28" height="28" rx="14" fill="black" fill-opacity="0.2"/>
<path d="M13.6151 6.93359H11.2022C9.70874 6.93359 8.962 6.93359 8.39157 7.22424C7.88981 7.47991 7.48186 7.88785 7.2262 8.38962C6.93555 8.96005 6.93555 9.70679 6.93555 11.2003V16.7968C6.93555 18.2903 6.93555 19.037 7.2262 19.6074C7.48186 20.1092 7.88981 20.5172 8.39157 20.7728C8.962 21.0635 9.70874 21.0635 11.2022 21.0635H16.7987C18.2922 21.0635 19.039 21.0635 19.6094 20.7728C20.1112 20.5172 20.5191 20.1092 20.7748 19.6074C21.0654 19.037 21.0654 18.2903 21.0654 16.7968V14.6129" stroke="white" stroke-width="1.6" stroke-linecap="round"/>
<path d="M13.6655 14.9388C13.2845 12.6531 14.0464 8.08166 20.1417 9.60541" stroke="white" stroke-width="1.6" stroke-linecap="round"/>
<path d="M18.2373 6.93359L20.904 9.60026L18.2373 12.2669" stroke="white" stroke-width="1.6" stroke-linecap="round" stroke-linejoin="round"/>
</svg>
