<svg width="20" height="21" viewBox="0 0 20 21" fill="none" xmlns="http://www.w3.org/2000/svg">
<path d="M10.0013 18.8307C14.6037 18.8307 18.3346 15.0998 18.3346 10.4974C18.3346 5.89502 14.6037 2.16406 10.0013 2.16406C5.39893 2.16406 1.66797 5.89502 1.66797 10.4974C1.66797 15.0998 5.39893 18.8307 10.0013 18.8307Z" stroke="#DDDDDD" stroke-width="1.25" stroke-linecap="round" stroke-linejoin="round"/>
<path d="M8.33464 7.16667V10.5H11.2513C12.1718 10.5 12.918 9.75379 12.918 8.83333C12.918 7.91287 12.1718 7.16667 11.2513 7.16667H10.418M8.33464 7.16667H6.66797M8.33464 7.16667V5.5M8.33464 7.16667H10.418M10.418 7.16667V5.5" stroke="#DDDDDD" stroke-width="1.25" stroke-linecap="round" stroke-linejoin="round"/>
<path d="M8.33464 13.8333V10.5H12.0846C13.0051 10.5 13.7513 11.2462 13.7513 12.1667C13.7513 13.0871 13.0051 13.8333 12.0846 13.8333H10.418M8.33464 13.8333V15.5M8.33464 13.8333H6.66797H10.418M8.33464 13.8333H10.418M10.418 13.8333V15.5" stroke="#DDDDDD" stroke-width="1.25" stroke-linecap="round" stroke-linejoin="round"/>
</svg>
