<svg width="20" height="21" viewBox="0 0 20 21" fill="none" xmlns="http://www.w3.org/2000/svg">
<path d="M4.16406 7.58594V18.8359H15.8307V7.58594" stroke="#DDDDDD" stroke-width="1.25" stroke-linecap="round" stroke-linejoin="round"/>
<path d="M10.5597 16.0023H9.58952V15.1301C8.69446 15.0517 7.98232 14.6956 7.45312 14.0619L8.24692 13.3367C8.62586 13.7875 9.10279 14.0586 9.67773 14.1501V12.1607C8.96559 12.0104 8.44946 11.7785 8.12933 11.4649C7.80919 11.1513 7.64912 10.756 7.64912 10.2791C7.64912 9.75642 7.81899 9.33829 8.15873 9.02469C8.49846 8.70455 8.97539 8.50855 9.58952 8.43669V7.55469H10.5597V8.43669C11.3633 8.52815 11.9775 8.84502 12.4021 9.38729L11.5985 10.0831C11.3568 9.75642 10.9811 9.53429 10.4715 9.41669V11.2395C11.1641 11.3963 11.6737 11.625 12.0003 11.9255C12.3335 12.2195 12.5001 12.618 12.5001 13.1211C12.5001 13.6242 12.3368 14.0554 12.0101 14.4147C11.6835 14.774 11.2 15.0027 10.5597 15.1007V16.0023ZM9.67773 11.0631V9.40689C9.11586 9.51142 8.83492 9.78582 8.83492 10.2301C8.83492 10.4588 8.90352 10.6384 9.04072 10.7691C9.17792 10.8932 9.39026 10.9912 9.67773 11.0631ZM10.4715 14.1403C10.7459 14.0815 10.955 13.9704 11.0987 13.8071C11.249 13.6372 11.3241 13.438 11.3241 13.2093C11.3241 13.0133 11.2621 12.8434 11.1379 12.6997C11.0138 12.5494 10.7917 12.4286 10.4715 12.3371V14.1403Z" fill="#DDDDDD"/>
<path d="M2.08203 9.66797L4.16536 7.58464L9.9987 2.16797L15.832 7.58464L17.9154 9.66797" stroke="#DDDDDD" stroke-width="1.25" stroke-linecap="round" stroke-linejoin="round"/>
</svg>
