<svg width="20" height="20" viewBox="0 0 20 20" fill="none" xmlns="http://www.w3.org/2000/svg">
<rect x="1" y="1" width="18" height="18" rx="9" stroke="#0C0D0F" stroke-width="2"/>
<path d="M10.0073 11.2636C11.699 11.2636 13.2942 11.9994 14.3841 13.2825C14.5564 13.4848 14.5334 13.7844 14.3318 13.9643C14.2475 14.0387 14.1387 14.0794 14.0262 14.0786C13.9553 14.0787 13.8851 14.0638 13.8203 14.0349C13.7555 14.006 13.6975 13.9639 13.6501 13.9111C12.7292 12.8381 11.3968 12.222 9.9956 12.222C8.5845 12.222 7.252 12.8381 6.3401 13.9122C6.2481 14.0203 6.1163 14.0823 5.9785 14.0823C5.86501 14.0822 5.75558 14.0401 5.6712 13.9642C5.5695 13.8779 5.5094 13.7608 5.5006 13.6334C5.49636 13.5721 5.50456 13.5105 5.5247 13.4524C5.54484 13.3942 5.5765 13.3408 5.6178 13.2952C6.7265 12.0037 8.3261 11.2636 10.0073 11.2636ZM12.751 8.78762C12.3114 8.78762 11.9403 8.40762 11.9403 7.95782V6.74592C11.9403 6.29602 12.3116 5.91602 12.751 5.91602C13.1904 5.91602 13.5617 6.29602 13.5617 6.74592V7.95782C13.5617 8.41542 13.198 8.78762 12.751 8.78762ZM7.2489 8.78762C6.8095 8.78762 6.4383 8.40762 6.4383 7.95782V6.74592C6.4383 6.29602 6.8096 5.91602 7.2489 5.91602C7.6885 5.91602 8.0597 6.29602 8.0597 6.74592V7.95782C8.0598 8.40752 7.6886 8.78762 7.2489 8.78762Z" fill="#111111" stroke="#111111"/>
</svg>
