<svg width="20" height="18" viewBox="0 0 20 18" fill="none" xmlns="http://www.w3.org/2000/svg">
<path d="M5.17421 2.9048C5.67319 2.06535 5.73729 1.9986 5.77825 1.96278C5.8595 1.89172 5.95522 1.83804 6.0592 1.80523C6.11162 1.78868 6.20319 1.76814 7.20115 1.76814L12.7988 1.76814C13.7968 1.76814 13.8884 1.78868 13.9408 1.80523C14.0448 1.83804 14.1405 1.89172 14.2217 1.96278C14.2627 1.9986 14.3268 2.06535 14.8258 2.9048L17.6246 7.61334C18.1236 8.45279 18.1511 8.54008 18.1625 8.59245C18.1853 8.69632 18.1853 8.80368 18.1625 8.90755C18.1511 8.95992 18.1236 9.04721 17.6246 9.88666L14.8258 14.5952C14.3268 15.4347 14.2627 15.5014 14.2217 15.5372C14.1405 15.6083 14.0448 15.662 13.9408 15.6948C13.8884 15.7113 13.7968 15.7319 12.7988 15.7319L7.20116 15.7319C6.20319 15.7319 6.11162 15.7113 6.0592 15.6948C5.95522 15.662 5.8595 15.6083 5.77825 15.5372C5.73729 15.5014 5.67319 15.4347 5.17421 14.5952L2.37536 9.88666C1.87638 9.04721 1.84891 8.95992 1.83745 8.90755C1.81472 8.80368 1.81472 8.69632 1.83745 8.59245C1.84891 8.54009 1.87638 8.45279 2.37536 7.61334L5.17421 2.9048ZM0.0568285 9.27517C0.142465 9.66649 0.361258 10.0346 0.798845 10.7707L3.59769 15.4793C4.03528 16.2154 4.25407 16.5835 4.56016 16.8512C4.831 17.0881 5.15006 17.267 5.49667 17.3764C5.8884 17.5 6.32598 17.5 7.20116 17.5L12.7988 17.5C13.674 17.5 14.1116 17.5 14.5033 17.3764C14.8499 17.267 15.169 17.0881 15.4398 16.8512C15.7459 16.5835 15.9647 16.2154 16.4023 15.4793L19.2012 10.7707C19.6387 10.0346 19.8575 9.66649 19.9432 9.27517C20.0189 8.92892 20.0189 8.57108 19.9432 8.22483C19.8575 7.83351 19.6387 7.46543 19.2012 6.72927L16.4023 2.02073L16.4023 2.02071C15.9647 1.28456 15.7459 0.916486 15.4398 0.648793C15.169 0.411937 14.8499 0.233014 14.5033 0.123628C14.1116 1.29051e-06 13.674 1.30964e-06 12.7988 1.34789e-06L7.20115 1.59258e-06C6.32598 1.63083e-06 5.8884 1.64996e-06 5.49667 0.123628C5.15006 0.233015 4.831 0.411938 4.56016 0.648794C4.25407 0.916488 4.03528 1.28457 3.59769 2.02073L0.798844 6.72928C0.361258 7.46544 0.142465 7.83351 0.0568285 8.22484C-0.0189433 8.57108 -0.0189433 8.92892 0.0568285 9.27517Z" fill="#111111"/>
<path d="M10.001 9.74805C9.44869 9.74805 9.00098 9.30033 9.00098 8.74805C9.00098 8.19576 9.44869 7.74805 10.001 7.74805C10.5533 7.74805 11.001 8.19576 11.001 8.74805C11.001 9.30033 10.5533 9.74805 10.001 9.74805ZM10.001 11.248C11.3817 11.248 12.501 10.1288 12.501 8.74805C12.501 7.36734 11.3817 6.24805 10.001 6.24805C8.62026 6.24805 7.50098 7.36734 7.50098 8.74805C7.50098 10.1288 8.62026 11.248 10.001 11.248Z" fill="#111111"/>
</svg>
