<svg width="18" height="18" viewBox="0 0 18 18" fill="none" xmlns="http://www.w3.org/2000/svg">
<g id="icons_line">
<g id="Vector">
<path d="M9.63027 1.3501C10.1273 1.3501 10.5303 1.75304 10.5303 2.2501L10.5303 3.5101C10.5303 4.00715 10.1273 4.4101 9.63027 4.4101L8.37027 4.4101C7.87322 4.4101 7.47027 4.00715 7.47027 3.5101L7.47027 2.2501C7.47027 1.75304 7.87322 1.3501 8.37027 1.3501L9.63027 1.3501Z" fill="#111111"/>
<path d="M9.63027 7.4701C10.1273 7.4701 10.5303 7.87304 10.5303 8.3701L10.5303 9.6301C10.5303 10.1272 10.1273 10.5301 9.63027 10.5301L8.37027 10.5301C7.87322 10.5301 7.47027 10.1272 7.47027 9.6301L7.47027 8.3701C7.47027 7.87304 7.87322 7.4701 8.37027 7.4701L9.63027 7.4701Z" fill="#111111"/>
<path d="M9.63027 13.5901C10.1273 13.5901 10.5303 13.993 10.5303 14.4901L10.5303 15.7501C10.5303 16.2472 10.1273 16.6501 9.63027 16.6501L8.37027 16.6501C7.87322 16.6501 7.47027 16.2472 7.47027 15.7501L7.47027 14.4901C7.47027 13.993 7.87322 13.5901 8.37027 13.5901L9.63027 13.5901Z" fill="#111111"/>
</g>
</g>
</svg>
