<svg width="14" height="15" viewBox="0 0 14 15" fill="none" xmlns="http://www.w3.org/2000/svg">
<path d="M2.91927 4.28906C2.91927 2.83932 4.09452 1.66406 5.54427 1.66406C6.99402 1.66406 8.16927 2.83932 8.16927 4.28906C8.16927 5.73881 6.99402 6.91406 5.54427 6.91406C4.09452 6.91406 2.91927 5.73881 2.91927 4.28906Z" fill="black" fill-opacity="0.85"/>
<path d="M9.81425 2.03937C9.53831 1.8731 9.17983 1.962 9.01355 2.23794C8.84728 2.51388 8.93618 2.87237 9.21212 3.03864C9.63715 3.29475 9.9193 3.75922 9.9193 4.28901C9.9193 4.81879 9.63715 5.28326 9.21212 5.53937C8.93618 5.70564 8.84728 6.06413 9.01355 6.34007C9.17983 6.61602 9.53831 6.70492 9.81425 6.53864C10.575 6.08023 11.086 5.24456 11.086 4.28901C11.086 3.33345 10.575 2.49779 9.81425 2.03937Z" fill="black" fill-opacity="0.85"/>
<path d="M6.21091 8.08073H4.87764C4.24543 8.08072 3.73551 8.08072 3.32258 8.11446C2.89742 8.14919 2.52397 8.22259 2.17846 8.39862C1.62965 8.67825 1.18346 9.12446 0.903835 9.67327C0.727794 10.0188 0.654403 10.3922 0.619665 10.8174C0.585928 11.2303 0.585932 11.7402 0.585938 12.3724V12.7474C0.585938 13.0696 0.847105 13.3307 1.16927 13.3307H9.91927C10.2414 13.3307 10.5026 13.0696 10.5026 12.7474V12.3724C10.5026 11.7402 10.5026 11.2303 10.4689 10.8174C10.4341 10.3922 10.3608 10.0188 10.1847 9.67326C9.90509 9.12446 9.45886 8.67824 8.91006 8.39861C8.56456 8.22258 8.19112 8.14919 7.76596 8.11446C7.35304 8.08072 6.84311 8.08072 6.21091 8.08073Z" fill="black" fill-opacity="0.85"/>
<path d="M11.8267 8.39865C11.5396 8.25238 11.1884 8.36652 11.0421 8.65357C10.8959 8.94062 11.01 9.29189 11.297 9.43815C11.6263 9.60593 11.8941 9.87367 12.0618 10.203C12.1401 10.3566 12.1939 10.5594 12.2227 10.9124C12.2521 11.2722 12.2526 11.7344 12.2526 12.3974V12.7474C12.2526 13.0696 12.5137 13.3308 12.8359 13.3308C13.1581 13.3308 13.4192 13.0696 13.4192 12.7474V12.3725C13.4192 11.7403 13.4192 11.2303 13.3855 10.8174C13.3508 10.3922 13.2774 10.0188 13.1013 9.67329C12.8217 9.12449 12.3755 8.67828 11.8267 8.39865Z" fill="black" fill-opacity="0.85"/>
</svg>
