<svg width="12" height="12" viewBox="0 0 12 12" fill="none" xmlns="http://www.w3.org/2000/svg">
<g id="icon/switch">
<path id="Vector (Stroke)" fill-rule="evenodd" clip-rule="evenodd" d="M7.14645 1.39645C7.34171 1.20118 7.6583 1.20118 7.85356 1.39645L10.8536 4.39645C10.9966 4.53945 11.0393 4.7545 10.9619 4.94134C10.8846 5.12818 10.7022 5.25 10.5 5.25H1.5C1.22386 5.25 1 5.02614 1 4.75C1 4.47386 1.22386 4.25 1.5 4.25H9.2929L7.14645 2.10355C6.95119 1.90829 6.95119 1.59171 7.14645 1.39645ZM1.23781 7.05866C1.3152 6.87182 1.49752 6.75 1.69975 6.75H10.6998C10.9759 6.75 11.1998 6.97386 11.1998 7.25C11.1998 7.52614 10.9759 7.75 10.6998 7.75H2.90686L5.05331 9.89645C5.24857 10.0917 5.24857 10.4083 5.05331 10.6036C4.85805 10.7988 4.54146 10.7988 4.3462 10.6036L1.34619 7.60355C1.2032 7.46056 1.16042 7.2455 1.23781 7.05866Z" fill="#2EBD87"/>
</g>
</svg>
