<svg width="25" height="24" viewBox="0 0 25 24" fill="none" xmlns="http://www.w3.org/2000/svg">
<g clip-path="url(#clip0_26026_83566)">
<path d="M21.625 14.25V19.5C21.625 19.8978 21.467 20.2794 21.1857 20.5607C20.9044 20.842 20.5228 21 20.125 21H5.125C4.72718 21 4.34564 20.842 4.06434 20.5607C3.78304 20.2794 3.625 19.8978 3.625 19.5V14.25C3.625 14.0511 3.70402 13.8603 3.84467 13.7197C3.98532 13.579 4.17609 13.5 4.375 13.5C4.57391 13.5 4.76468 13.579 4.90533 13.7197C5.04598 13.8603 5.125 14.0511 5.125 14.25V19.5H20.125V14.25C20.125 14.0511 20.204 13.8603 20.3447 13.7197C20.4853 13.579 20.6761 13.5 20.875 13.5C21.0739 13.5 21.2647 13.579 21.4053 13.7197C21.546 13.8603 21.625 14.0511 21.625 14.25ZM12.0944 14.7806C12.164 14.8504 12.2467 14.9057 12.3378 14.9434C12.4288 14.9812 12.5264 15.0006 12.625 15.0006C12.7236 15.0006 12.8212 14.9812 12.9122 14.9434C13.0033 14.9057 13.086 14.8504 13.1556 14.7806L16.9056 11.0306C17.0106 10.9257 17.0822 10.792 17.1111 10.6465C17.1401 10.5009 17.1253 10.35 17.0685 10.2129C17.0117 10.0758 16.9154 9.95861 16.792 9.87621C16.6685 9.79381 16.5234 9.74988 16.375 9.75H13.375V3.75C13.375 3.55109 13.296 3.36032 13.1553 3.21967C13.0147 3.07902 12.8239 3 12.625 3C12.4261 3 12.2353 3.07902 12.0947 3.21967C11.954 3.36032 11.875 3.55109 11.875 3.75V9.75H8.875C8.72658 9.74988 8.58146 9.79381 8.45801 9.87621C8.33457 9.95861 8.23835 10.0758 8.18153 10.2129C8.12472 10.35 8.10987 10.5009 8.13885 10.6465C8.16784 10.792 8.23937 10.9257 8.34437 11.0306L12.0944 14.7806Z" fill="#333333"/>
</g>
<defs>
<clipPath id="clip0_26026_83566">
<rect width="24" height="24" fill="white" transform="translate(0.625)"/>
</clipPath>
</defs>
</svg>
