<svg width="25" height="24" viewBox="0 0 25 24" fill="none" xmlns="http://www.w3.org/2000/svg">
<g clip-path="url(#clip0_26026_83562)">
<path d="M15.125 9.79431C14.9802 9.64952 14.8258 9.519 14.6667 9.39798L14.6664 9.39824C14.5027 9.24076 14.2804 9.14377 14.0353 9.14377C13.5322 9.14377 13.1244 9.55159 13.1244 10.0547C13.1244 10.2772 13.2043 10.4811 13.337 10.6393L13.3371 10.6394C13.4008 10.7154 13.4766 10.781 13.5617 10.8329C13.6476 10.9037 13.7319 10.9734 13.8108 11.0523L13.8859 11.1274C14.8299 12.0702 14.5481 13.6947 13.604 14.6388L9.57557 18.666C8.63155 19.6089 7.09678 19.6089 6.15271 18.666L6.07702 18.5903C5.13292 17.6463 5.13292 16.1104 6.07702 15.1686L7.85676 13.3895C8.0851 13.2082 8.23169 12.9285 8.23169 12.6144C8.23169 12.068 7.78876 11.625 7.24236 11.625C7.03618 11.625 6.84479 11.6882 6.6863 11.7961C6.6858 11.795 6.68527 11.794 6.68474 11.7929L6.66577 11.8107C6.59571 11.861 6.53237 11.9201 6.47767 11.9867L4.62814 13.7174C2.88958 15.4571 2.88958 18.3025 4.62814 20.0398L4.70323 20.1149C6.44179 21.8523 9.28595 21.8523 11.0245 20.1149L15.0518 16.0864C16.7879 14.348 16.9351 11.6056 15.199 9.8682L15.125 9.79431Z" fill="#333333"/>
<path d="M20.9301 3.88682L20.8551 3.81173C19.1165 2.07317 16.2724 2.07317 14.5338 3.81173L10.5066 7.84016C8.76799 9.57872 8.67225 12.0893 10.4108 13.829L10.4847 13.9017C10.5637 13.9807 10.6456 14.0551 10.7293 14.1265C10.7898 14.1941 10.861 14.252 10.94 14.2978C10.9406 14.2983 10.9413 14.2988 10.9419 14.2992L10.9421 14.299C11.0682 14.3715 11.2142 14.4132 11.37 14.4132C11.845 14.4132 12.23 14.0281 12.23 13.5533C12.23 13.4192 12.1993 13.2923 12.1445 13.1792C12.0308 12.924 11.818 12.7686 11.6708 12.6214L11.5969 12.5486C10.6529 11.6046 11.0114 10.2331 11.9554 9.28909L15.985 5.26181C16.9267 4.31774 18.462 4.31774 19.4061 5.26181L19.4812 5.33571C20.4253 6.2798 20.4253 7.8163 19.4812 8.75917L17.7073 10.5343C17.466 10.7131 17.3095 10.9999 17.3095 11.3232C17.3095 11.8652 17.7489 12.3046 18.2909 12.3046C18.4795 12.3046 18.6556 12.2512 18.8052 12.159C18.8063 12.1609 18.8074 12.1627 18.8085 12.1646L18.836 12.1392C18.9208 12.0825 18.9961 12.0128 19.0593 11.9332L20.9289 10.2081C22.6687 8.46956 22.6687 5.62536 20.9301 3.88682Z" fill="#333333"/>
</g>
<defs>
<clipPath id="clip0_26026_83562">
<rect width="24" height="24" fill="white" transform="translate(0.875)"/>
</clipPath>
</defs>
</svg>
