<svg width="14" height="14" viewBox="0 0 14 14" fill="none" xmlns="http://www.w3.org/2000/svg">
<path d="M2.91927 3.79102C2.91927 2.34127 4.09452 1.16602 5.54427 1.16602C6.99402 1.16602 8.16927 2.34127 8.16927 3.79102C8.16927 5.24077 6.99402 6.41602 5.54427 6.41602C4.09452 6.41602 2.91927 5.24077 2.91927 3.79102Z" fill="black" fill-opacity="0.85"/>
<path d="M9.81425 1.54132C9.53831 1.37505 9.17983 1.46395 9.01355 1.73989C8.84728 2.01584 8.93618 2.37432 9.21212 2.5406C9.63715 2.7967 9.91931 3.26117 9.91931 3.79096C9.91931 4.32075 9.63715 4.78522 9.21212 5.04132C8.93618 5.2076 8.84728 5.56608 9.01355 5.84203C9.17983 6.11797 9.53831 6.20687 9.81425 6.0406C10.575 5.58218 11.086 4.74652 11.086 3.79096C11.086 2.8354 10.575 1.99974 9.81425 1.54132Z" fill="black" fill-opacity="0.85"/>
<path d="M6.21091 7.58268H4.87764C4.24543 7.58268 3.73551 7.58267 3.32258 7.61641C2.89742 7.65114 2.52397 7.72454 2.17846 7.90057C1.62965 8.18021 1.18346 8.62642 0.903835 9.17522C0.727794 9.52072 0.654403 9.89416 0.619665 10.3193C0.585928 10.7323 0.585932 11.2422 0.585938 11.8744V12.2493C0.585938 12.5715 0.847105 12.8327 1.16927 12.8327H9.91927C10.2414 12.8327 10.5026 12.5715 10.5026 12.2493V11.8744C10.5026 11.2422 10.5026 10.7322 10.4689 10.3193C10.4341 9.89417 10.3608 9.52072 10.1847 9.17521C9.90509 8.62641 9.45886 8.18019 8.91006 7.90056C8.56456 7.72453 8.19112 7.65114 7.76596 7.61641C7.35304 7.58267 6.84311 7.58268 6.21091 7.58268Z" fill="black" fill-opacity="0.85"/>
<path d="M11.8267 7.9006C11.5397 7.75434 11.1884 7.86847 11.0421 8.15552C10.8959 8.44257 11.01 8.79384 11.297 8.9401C11.6263 9.10788 11.8941 9.37563 12.0618 9.70491C12.1401 9.85853 12.1939 10.0614 12.2227 10.4144C12.2521 10.7742 12.2526 11.2364 12.2526 11.8994V12.2494C12.2526 12.5715 12.5137 12.8327 12.8359 12.8327C13.1581 12.8327 13.4192 12.5715 13.4192 12.2494V11.8744C13.4192 11.2422 13.4192 10.7323 13.3855 10.3194C13.3508 9.8942 13.2774 9.52075 13.1013 9.17525C12.8217 8.62644 12.3755 8.18023 11.8267 7.9006Z" fill="black" fill-opacity="0.85"/>
</svg>
