<svg width="121" height="143" viewBox="0 0 121 143" fill="none" xmlns="http://www.w3.org/2000/svg">
<path d="M45.9333 0.5C48.0504 0.5 49.7667 2.21624 49.7667 4.33333V42.603C49.7667 46.279 53.7075 48.6095 56.9287 46.8384L140.357 0.967136C141.439 0.372234 142.627 1.56011 142.032 2.64211L96.6375 85.2046C94.8664 88.4258 97.1968 92.3667 100.873 92.3667H138.667C140.784 92.3667 142.5 94.0829 142.5 96.2V137.8C142.5 139.917 140.784 141.633 138.667 141.633H97.0667C94.9496 141.633 93.2333 139.917 93.2333 137.8V100.395C93.2333 96.7194 89.2925 94.3889 86.0713 96.16L2.64295 142.031C1.56096 142.626 0.373076 141.438 0.967985 140.356L46.8385 56.9287C48.6095 53.7075 46.2791 49.7667 42.6031 49.7667H4.33334C2.21625 49.7667 0.5 48.0504 0.5 45.9333V4.33333C0.5 2.21624 2.21624 0.5 4.33333 0.5H45.9333Z" stroke="url(#paint0_linear_25046_80929)"/>
<defs>
<linearGradient id="paint0_linear_25046_80929" x1="71.5" y1="0" x2="71.5" y2="142.693" gradientUnits="userSpaceOnUse">
<stop stop-color="white" stop-opacity="0.24"/>
<stop offset="1" stop-color="white" stop-opacity="0"/>
</linearGradient>
</defs>
</svg>
