<svg width="14" height="30" viewBox="0 0 14 30" fill="none" xmlns="http://www.w3.org/2000/svg">
<path d="M12.0824 11.3152C12.1041 11.3902 12.1257 11.4452 12.1257 11.4985C12.1791 12.2819 12.0607 13.0452 11.8157 13.7752C11.7091 14.0902 11.5807 14.3835 11.4207 14.6785C11.2274 15.0369 10.9391 15.3085 10.5341 15.3952C10.488 15.4077 10.4472 15.4346 10.4174 15.4719C10.3507 15.6469 10.2557 15.8219 10.2557 15.9952C10.2224 16.9735 10.1391 17.9319 9.91407 18.8902C9.90241 18.9235 9.90241 18.9552 9.93574 18.9985C9.95574 18.9435 9.98907 18.8902 9.99907 18.8252C10.1274 18.2035 10.3191 17.6052 10.7041 17.0835C11.1741 16.4519 11.7407 15.9502 12.4991 15.6902C12.5207 15.6785 12.5424 15.6785 12.5641 15.6685C12.5741 15.6685 12.5841 15.6685 12.6274 15.6785C12.6274 15.7885 12.6374 15.9085 12.6057 16.0169C12.3824 16.9735 11.9857 17.8335 11.3141 18.5419C11.0041 18.8685 10.6307 19.0752 10.1474 19.0319C10.1057 19.0319 10.0307 19.0535 10.0091 19.0852C9.91407 19.2485 9.79574 19.4119 9.73241 19.5969C9.42241 20.5769 9.04907 21.5235 8.55741 22.4169C8.52407 22.4702 8.50407 22.5352 8.47074 22.5902L8.52407 22.6235C8.57741 22.5469 8.64241 22.4819 8.67407 22.4052C8.92074 21.9152 9.20741 21.4685 9.62407 21.1102C10.2241 20.5869 10.9074 20.3052 11.7074 20.3152C11.9224 20.3152 11.9324 20.3369 11.8691 20.5552C11.7524 20.9252 11.5491 21.2519 11.3141 21.5552C10.9807 21.9802 10.6191 22.3835 10.1274 22.6335C9.67741 22.8619 9.20907 22.9602 8.71741 22.7202C8.68407 22.7102 8.64241 22.6985 8.62074 22.7102C8.48241 22.8185 8.30074 22.8935 8.21574 23.0369C7.72407 23.8202 7.16741 24.5485 6.51574 25.2135C6.49574 25.2352 6.47407 25.2569 6.45241 25.2902C6.44074 25.3002 6.45241 25.3119 6.44074 25.3869C6.53741 25.3119 6.61241 25.2669 6.66574 25.2035C7.02907 24.8002 7.44574 24.4619 7.96907 24.2985C8.76074 24.0602 9.52907 24.1469 10.2874 24.4735C10.3091 24.4835 10.3207 24.4952 10.3724 24.5385C10.2657 24.6685 10.1807 24.8102 10.0641 24.9185C9.32574 25.5719 8.49241 25.9852 7.49907 25.9635C7.20995 25.9543 6.93351 25.8427 6.71907 25.6485C6.52741 25.4735 6.29241 25.4635 6.07741 25.6485C5.51074 26.1602 4.89241 26.5852 4.21907 26.9435L3.76907 27.1719C3.78074 27.1935 3.78074 27.2052 3.79241 27.2269C3.86741 27.2052 3.94241 27.1935 3.99574 27.1602C4.35907 26.9552 4.73241 26.7802 5.14907 26.7269C6.00407 26.6169 6.75074 26.8885 7.44574 27.3785C7.56241 27.4669 7.68074 27.5635 7.82907 27.6835C7.67074 27.7919 7.55241 27.9002 7.40241 27.9669C6.60241 28.3252 5.76907 28.4569 4.90241 28.2169C4.48574 28.0969 4.13408 27.8802 3.91908 27.4885C3.84574 27.3469 3.53574 27.2585 3.36407 27.3252C2.79741 27.5535 2.20074 27.7052 1.60241 27.8035C1.54568 27.8127 1.48815 27.8161 1.43074 27.8135C1.40907 27.6519 1.47407 27.5635 1.62407 27.5419C2.22436 27.4416 2.81141 27.2739 3.37407 27.0419C3.66407 26.9219 3.78074 26.7485 3.73907 26.4319C3.66972 25.8125 3.7772 25.1861 4.04907 24.6252C4.33069 24.024 4.78881 23.5228 5.36241 23.1885C5.40574 23.1669 5.45907 23.1452 5.53407 23.1019C5.52241 23.2219 5.51241 23.3085 5.50074 23.3952C5.38407 24.0819 5.31907 24.7669 5.09574 25.4302C4.92407 25.9302 4.62574 26.3135 4.16574 26.5635C4.10264 26.5997 4.0339 26.6251 3.96241 26.6385C3.81241 26.6385 3.79241 26.7152 3.79241 26.8669C3.84574 26.8452 3.88741 26.8335 3.93074 26.8135C4.79183 26.4007 5.57903 25.8489 6.26074 25.1802C6.44074 24.9969 6.41074 24.7335 6.33407 24.5385C6.00408 23.6352 6.05741 22.7319 6.35574 21.8385C6.50939 21.384 6.74871 20.9631 7.06074 20.5985C7.09407 20.5652 7.12574 20.5435 7.17741 20.4902C7.21074 20.7402 7.24407 20.9685 7.26407 21.1869C7.30741 21.6202 7.36074 22.0569 7.38074 22.4919C7.41407 23.0919 7.37074 23.6902 7.00741 24.1902C6.89795 24.3509 6.76082 24.4908 6.60241 24.6035C6.47407 24.7019 6.45241 24.7885 6.49574 24.9635C6.65574 24.7785 6.80407 24.6252 6.94407 24.4635C7.46122 23.8738 7.90913 23.2268 8.27907 22.5352C8.38574 22.3285 8.32241 22.0785 8.20407 21.9052C7.34907 20.5985 7.37074 19.2385 7.92741 17.8335C7.93741 17.8002 7.95907 17.7802 7.96907 17.7469C7.96907 17.7352 7.99074 17.7352 8.01241 17.7252C8.33241 18.5952 8.76074 19.4235 8.84574 20.3585C8.89907 20.9252 8.81241 21.4585 8.43907 21.9152C8.38574 21.9819 8.40574 22.1002 8.39741 22.1869C8.41741 22.1985 8.43907 22.1985 8.45074 22.2085L8.64241 21.8502C9.07345 20.9405 9.40967 19.9888 9.64574 19.0102C9.65741 18.9652 9.66741 18.9102 9.65741 18.8785C9.55074 18.6619 9.48574 18.4219 9.25074 18.2702C8.81407 17.9652 8.56741 17.4969 8.35407 17.0069C8.01241 16.2119 7.97074 15.3969 8.08741 14.5569C8.08741 14.5369 8.09741 14.5152 8.10741 14.4935C8.12907 14.5035 8.15074 14.5035 8.15074 14.5152C8.53407 15.0585 8.95074 15.5819 9.31574 16.1485C9.66741 16.6819 9.87074 17.2685 9.77407 17.9219C9.75788 18.0544 9.71838 18.1831 9.65741 18.3019C9.55074 18.4535 9.62407 18.5519 9.73241 18.7152C9.79574 18.3669 9.87074 18.0619 9.90241 17.7585C9.97741 16.9852 10.0191 16.2235 10.0741 15.4502C10.0841 15.2985 9.86074 14.9385 9.73241 14.8952C9.06907 14.6885 8.64241 14.1985 8.29907 13.6219C7.93741 13.0119 7.76574 12.3485 7.73407 11.6519V11.5319C7.73407 11.5219 7.74574 11.5102 7.75574 11.4785C7.84074 11.5535 7.93741 11.6202 8.02241 11.6952C8.40574 12.0219 8.80241 12.3385 9.16574 12.6869C9.60407 13.1102 9.88241 13.6335 9.92407 14.2635C9.93574 14.4269 9.92407 14.5902 9.90241 14.7435C9.87074 14.8952 9.94574 14.9602 10.0741 15.0702C10.0741 14.8952 10.0841 14.7652 10.0741 14.6335C10.0091 13.6669 9.90241 12.7085 9.67907 11.7602C9.65271 11.6318 9.58301 11.5164 9.48167 11.4332C9.38033 11.3501 9.25349 11.3043 9.12241 11.3035C8.52407 11.2935 8.06574 10.9869 7.65907 10.5969C7.16741 10.1285 6.87907 9.54021 6.67574 8.89854C6.67574 8.88854 6.66574 8.86521 6.66574 8.84354C6.66574 8.83354 6.67574 8.82188 6.67574 8.81021C6.68741 8.81021 6.69741 8.80021 6.70907 8.80021C7.26407 9.04021 7.84241 9.25854 8.38574 9.53021C8.86741 9.78021 9.21907 10.1719 9.33574 10.7269C9.36312 10.8482 9.37433 10.9726 9.36907 11.0969C9.35741 11.2385 9.43241 11.2935 9.56074 11.3469C9.56074 11.3035 9.57241 11.2602 9.56074 11.2269C9.30558 10.262 8.96248 9.32247 8.53574 8.42021C8.48241 8.31021 8.16241 8.15854 8.04407 8.20354C7.23241 8.46354 6.56907 8.15854 5.96074 7.64687C5.66074 7.39687 5.41574 7.08021 5.21241 6.71021C5.32907 6.71021 5.43741 6.70021 5.53407 6.71021C6.06741 6.75521 6.60074 6.73354 7.11407 6.91854C7.63741 7.10188 8.01241 7.42854 8.14074 7.99521C8.17241 8.13688 8.26907 8.13688 8.39741 8.17021C8.36407 8.09354 8.35407 8.05021 8.33241 8.00688C7.96907 7.28854 7.55241 6.60188 7.07241 5.96021C6.97574 5.84021 6.68741 5.76354 6.55907 5.83021C5.69241 6.28688 4.90241 6.09021 4.16574 5.51354C3.97407 5.37188 3.82407 5.17688 3.65241 5.00188L3.68574 4.94854C3.76907 4.93688 3.86741 4.91521 3.95241 4.90354C4.41241 4.82854 4.87074 4.70854 5.34074 4.76354C5.89741 4.82854 6.36741 5.03521 6.61241 5.60021C6.66574 5.72021 6.67574 5.72021 6.87908 5.68854C6.67574 5.44854 6.50574 5.22021 6.30241 5.01354C6.00241 4.70854 5.70407 4.41354 5.39407 4.11021C5.34253 4.06299 5.28013 4.02921 5.21241 4.01188C4.40074 3.95688 3.79241 3.54521 3.33241 2.89021C3.09907 2.56354 2.92741 2.19354 2.81907 1.80187C2.80907 1.76854 2.80907 1.72687 2.79907 1.67188C3.03241 1.75854 3.24741 1.83521 3.46074 1.91187C3.97407 2.09521 4.47574 2.30354 4.87074 2.71687C5.18074 3.04354 5.38407 3.40188 5.34074 3.87021C5.34074 3.90354 5.36241 3.95688 5.39407 3.97854C6.08907 4.60021 6.69741 5.29521 7.25407 6.03688C7.26407 6.05854 7.29574 6.07021 7.30741 6.09021C7.31741 6.08021 7.33908 6.08021 7.34907 6.06854C7.30741 5.97021 7.28574 5.85188 7.22074 5.78521C6.58074 5.07854 6.27074 4.23021 6.20574 3.28188C6.17407 2.86854 6.20574 2.45521 6.21741 2.04187C6.21741 1.97521 6.25074 1.92187 6.28074 1.80187C6.49574 2.04188 6.68741 2.22688 6.84741 2.44521C7.29741 3.05354 7.62741 3.72854 7.71407 4.50188C7.76574 4.96854 7.74574 5.41521 7.43574 5.80688C7.41407 5.84021 7.39241 5.89521 7.40241 5.92688C7.40898 6.14733 7.47585 6.36176 7.59574 6.54688C8.10043 7.26066 8.5331 8.02272 8.88741 8.82188L8.95241 8.95354C8.96241 8.95354 8.98574 8.94187 8.99574 8.94187C8.97407 8.86521 8.97407 8.76854 8.94074 8.70188C8.49241 7.90854 8.34407 7.04854 8.38574 6.14521C8.41312 5.597 8.55147 5.06006 8.79241 4.56688C8.80241 4.53354 8.82407 4.51188 8.85574 4.45854C8.90907 4.54521 8.97241 4.61021 9.00574 4.68688C9.47574 5.66688 9.71074 6.70021 9.61407 7.80021C9.58241 8.17021 9.43241 8.49521 9.16574 8.75688C9.13241 8.79021 9.09074 8.84354 9.10241 8.87688C9.10241 9.09354 9.09074 9.30188 9.17574 9.51854C9.50595 10.3299 9.75332 11.1725 9.91407 12.0335C9.91407 12.0435 9.92407 12.0669 9.97741 12.0769C9.97741 11.9902 9.99907 11.8919 9.98907 11.8052C9.92407 11.3152 9.80574 10.8252 9.78574 10.3352C9.74241 9.32354 10.0741 8.44188 10.7257 7.66854C10.7357 7.65854 10.7591 7.65854 10.8007 7.62521C10.8441 7.77688 10.9074 7.91854 10.9391 8.07188C11.1442 9.00444 11.1408 9.97079 10.9291 10.9019C10.8324 11.3352 10.6074 11.6952 10.2024 11.9135C10.1691 11.9235 10.1374 11.9569 10.1374 11.9802C10.1057 12.1852 10.0207 12.4035 10.0541 12.5985C10.1907 13.5235 10.2441 14.4485 10.2657 15.3735C10.2657 15.3969 10.2774 15.4285 10.2774 15.4502C10.2874 15.4502 10.3091 15.4502 10.3191 15.4619C10.3307 15.3852 10.3624 15.2985 10.3624 15.2219C10.3524 14.6785 10.3407 14.1335 10.4907 13.6119C10.7574 12.7085 11.2274 11.9569 11.9857 11.3902C11.9974 11.3685 12.0191 11.3469 12.0824 11.3152Z" fill="url(#paint0_linear_25675_21065)"/>
<defs>
<linearGradient id="paint0_linear_25675_21065" x1="7.02779" y1="1.67187" x2="7.02779" y2="28.3385" gradientUnits="userSpaceOnUse">
<stop stop-color="#EEEEEE"/>
<stop offset="1" stop-color="#666666"/>
</linearGradient>
</defs>
</svg>
