<svg width="20" height="20" viewBox="0 0 20 20" fill="none" xmlns="http://www.w3.org/2000/svg">
<path d="M15.5942 12.7819L15.5942 12.7819L15.2616 17.8249L10.3626 16.5829C10.1246 16.5226 9.87538 16.5226 9.63743 16.5829L4.73842 17.8249L4.40576 12.7819C4.38961 12.5369 4.31258 12.2999 4.18168 12.0922L3.33573 12.6255L4.18168 12.0922L1.48658 7.8168L6.18 5.94205C6.40797 5.85099 6.60961 5.70449 6.76666 5.51581L10 1.63144L13.2333 5.51582C13.3904 5.70449 13.592 5.85099 13.82 5.94205L18.5134 7.8168L15.8183 12.0922C15.6874 12.2999 15.6104 12.5369 15.5942 12.7819ZM19.0987 8.05059C19.0985 8.0505 19.0983 8.05042 19.098 8.05033L19.0987 8.05059Z" stroke="black" stroke-width="2"/>
</svg>
