<svg width="125" height="66" viewBox="0 0 125 66" fill="none" xmlns="http://www.w3.org/2000/svg">
<path d="M10.6159 64.4462C10.5391 63.2811 10.5 62.1056 10.5 60.921C10.5 31.9956 33.7812 8.54688 62.5 8.54688C91.2188 8.54688 114.5 31.9956 114.5 60.921C114.5 62.1056 114.461 63.2811 114.384 64.4462" stroke="#ECECEC" stroke-dasharray="2 2"/>
<path d="M122.501 62.4285C122.501 53.2054 120.45 44.4648 116.781 36.6445" stroke="#43CBDE" stroke-width="4" stroke-linecap="round"/>
<path d="M44.1016 4.89465C49.8997 3.01512 56.0828 2 62.5014 2C68.9199 2 75.1031 3.01512 80.9012 4.89465" stroke="#F6D836" stroke-width="4" stroke-linecap="round"/>
<path d="M35.7006 8.35156C27.4793 12.4925 20.3341 18.4791 14.8002 25.7722C14.1026 26.6916 13.4305 27.6318 12.7852 28.5917" stroke="#FA7D23" stroke-width="4" stroke-linecap="round"/>
<path d="M112.098 29.015C111.366 27.9066 110.599 26.824 109.798 25.7687C104.175 18.3575 96.8874 12.2955 88.4979 8.14844" stroke="#43DEA3" stroke-width="4" stroke-linecap="round"/>
<path d="M2.5 62.4285C2.5 53.2054 4.55143 44.4648 8.21979 36.6445" stroke="#F22929" stroke-width="4" stroke-linecap="round"/>
</svg>
