<svg width="20" height="20" viewBox="0 0 20 20" fill="none" xmlns="http://www.w3.org/2000/svg">
<path d="M18.3307 5.83594C18.3307 4.45523 17.2114 3.33594 15.8307 3.33594H4.16406C2.78335 3.33594 1.66406 4.45523 1.66406 5.83594V13.3359C1.66406 14.7166 2.78335 15.8359 4.16406 15.8359H7.91406L9.9974 17.9193L12.0807 15.8359H15.8307C17.2114 15.8359 18.3307 14.7166 18.3307 13.3359V5.83594Z" fill="#FFD429" stroke="#FFD429" stroke-width="1.25" stroke-linecap="round" stroke-linejoin="round"/>
<path d="M10.12 14.144C9.368 14.144 8.768 13.948 8.32 13.556C7.872 13.156 7.608 12.604 7.528 11.9V11.876C7.528 11.796 7.572 11.756 7.66 11.756L8.8 11.732C8.888 11.732 8.94 11.78 8.956 11.876C9.084 12.508 9.472 12.824 10.12 12.824C10.864 12.824 11.256 12.416 11.296 11.6C11.296 11.2 11.188 10.892 10.972 10.676C10.756 10.452 10.456 10.34 10.072 10.34C10.024 10.34 9.984 10.328 9.952 10.304C9.928 10.272 9.916 10.236 9.916 10.196V9.116C9.916 9.076 9.928 9.044 9.952 9.02C9.984 8.988 10.02 8.972 10.06 8.972C10.772 8.972 11.144 8.616 11.176 7.904C11.176 7.208 10.824 6.836 10.12 6.788C9.544 6.788 9.188 7.088 9.052 7.688C9.044 7.776 8.996 7.82 8.908 7.82H7.768C7.68 7.82 7.636 7.776 7.636 7.688V7.664C7.708 6.992 7.968 6.46 8.416 6.068C8.872 5.676 9.44 5.48 10.12 5.48C10.856 5.48 11.452 5.704 11.908 6.152C12.364 6.592 12.592 7.164 12.592 7.868C12.592 8.708 12.24 9.308 11.536 9.668C12.328 10.044 12.724 10.712 12.724 11.672C12.724 12.424 12.488 13.024 12.016 13.472C11.552 13.92 10.92 14.144 10.12 14.144Z" fill="white"/>
</svg>
