<svg width="16" height="16" viewBox="0 0 16 16" fill="none" xmlns="http://www.w3.org/2000/svg">
<g clip-path="url(#clip0_8245_35896)">
<path d="M13.5611 2.4375V14.3541C13.5611 14.5648 13.4774 14.7669 13.3284 14.9158C13.1794 15.0648 12.9774 15.1485 12.7667 15.1485C12.556 15.1485 12.3539 15.0648 12.2049 14.9158C12.0559 14.7669 11.9722 14.5648 11.9722 14.3541V4.02638H1.64454C1.43384 4.02638 1.23177 3.94268 1.08278 3.79369C0.933797 3.64471 0.850098 3.44264 0.850098 3.23194C0.850098 3.02124 0.933797 2.81917 1.08278 2.67019C1.23177 2.5212 1.43384 2.4375 1.64454 2.4375H13.5611Z" fill="white"/>
<path d="M14.3555 13.5587H2.43896V1.6421C2.43896 1.4314 2.52266 1.22933 2.67165 1.08034C2.82064 0.931356 3.02271 0.847656 3.2334 0.847656C3.4441 0.847656 3.64617 0.931356 3.79516 1.08034C3.94414 1.22933 4.02784 1.4314 4.02784 1.6421V11.9698H14.3555C14.5662 11.9698 14.7683 12.0535 14.9173 12.2025C15.0663 12.3515 15.15 12.5535 15.15 12.7642C15.15 12.9749 15.0663 13.177 14.9173 13.326C14.7683 13.475 14.5662 13.5587 14.3555 13.5587Z" fill="white"/>
<path d="M9.59993 7.60466C9.90469 7.78062 9.90469 8.2205 9.59993 8.39646L7.54279 9.58415C7.23803 9.7601 6.85707 9.54016 6.85707 9.18825L6.85707 6.81287C6.85707 6.46096 7.23803 6.24101 7.54279 6.41697L9.59993 7.60466Z" fill="white"/>
</g>
<defs>
<clipPath id="clip0_8245_35896">
<rect width="16" height="16" fill="white"/>
</clipPath>
</defs>
</svg>
