<svg width="24" height="24" viewBox="0 0 24 24" fill="none" xmlns="http://www.w3.org/2000/svg">
<path d="M18.1632 1.55679C17.7812 1.51988 17.4133 1.5 17.0712 1.5C14.6903 1.5 13.2788 2.3718 12.0014 3.71215C10.5501 2.1787 8.89058 1.26146 5.83961 1.55679C3.27338 1.80669 0.35357 4.05576 0 8.39771V9.81758C0.285137 13.5887 2.93406 16.6642 10.4503 22.0057C10.902 22.3272 11.4434 22.5 11.9986 22.5C12.5538 22.5 13.0951 22.3272 13.5469 22.0057C21.0688 16.6528 23.7063 13.5774 24 9.80622V8.38635C23.6493 4.05576 20.7295 1.80669 18.1632 1.55679Z" fill="#D90000"/>
</svg>
