<svg width="21" height="20" viewBox="0 0 21 20" fill="none" xmlns="http://www.w3.org/2000/svg">
<path d="M15.0833 6.66667C16.2339 6.66667 17.1667 5.73392 17.1667 4.58333C17.1667 3.43274 16.2339 2.5 15.0833 2.5C13.9327 2.5 13 3.43274 13 4.58333C13 5.73392 13.9327 6.66667 15.0833 6.66667Z" stroke="#666666" stroke-width="1.5" stroke-linejoin="round"/>
<path d="M5.91536 12.0846C7.06595 12.0846 7.9987 11.1519 7.9987 10.0013C7.9987 8.85072 7.06595 7.91797 5.91536 7.91797C4.76478 7.91797 3.83203 8.85072 3.83203 10.0013C3.83203 11.1519 4.76478 12.0846 5.91536 12.0846Z" stroke="#666666" stroke-width="1.5" stroke-linejoin="round"/>
<path d="M13.002 5.65625L7.72656 8.85246" stroke="#666666" stroke-width="1.5" stroke-linecap="round" stroke-linejoin="round"/>
<path d="M7.72266 11.0664L13.2812 14.351" stroke="#666666" stroke-width="1.5" stroke-linecap="round" stroke-linejoin="round"/>
<path d="M15.0833 13.332C16.2339 13.332 17.1667 14.2648 17.1667 15.4154C17.1667 16.5659 16.2339 17.4987 15.0833 17.4987C13.9327 17.4987 13 16.5659 13 15.4154C13 14.2648 13.9327 13.332 15.0833 13.332Z" stroke="#666666" stroke-width="1.5" stroke-linejoin="round"/>
</svg>
