<svg width="19" height="19" viewBox="0 0 19 19" fill="none" xmlns="http://www.w3.org/2000/svg">
<path d="M9.49763 0H9.50239C14.7408 0 19 4.26154 19 9.5C19 14.7385 14.7401 19 9.50239 19C7.57072 19 5.77839 18.4245 4.27739 17.4309L0.625427 18.5978L1.80897 15.0678C0.63059 13.4508 -0.00293375 11.5008 1.02141e-05 9.5C1.02141e-05 4.26154 4.25997 0 9.49763 0ZM6.77984 5.22183C6.59855 4.78879 6.4608 4.77217 6.18609 4.76108C6.08173 4.75429 5.97718 4.7506 5.87259 4.75C5.51476 4.75 5.14109 4.8545 4.91468 5.08488C4.64155 5.36433 3.95834 6.01667 3.95834 7.35696C3.95834 8.69567 4.93764 9.99083 5.06905 10.1721C5.2068 10.3526 6.97855 13.1409 9.72801 14.2769C11.879 15.166 12.5171 15.0836 13.0071 14.9791C13.722 14.8255 14.6181 14.2983 14.8438 13.6626C15.0694 13.0253 15.0694 12.4822 15.0037 12.3666C14.9372 12.2518 14.7559 12.1861 14.4812 12.0484C14.2057 11.9114 12.8693 11.2528 12.616 11.1649C12.3682 11.0723 12.1323 11.1047 11.9455 11.3683C11.6811 11.7357 11.423 12.1093 11.2132 12.3342C11.0485 12.5099 10.7786 12.5321 10.5537 12.4387C10.2513 12.312 9.40422 12.0159 8.35843 11.0881C7.55014 10.3693 6.99993 9.47467 6.8408 9.20629C6.68089 8.93158 6.82418 8.77246 6.95084 8.62442C7.0878 8.45421 7.22001 8.33387 7.35776 8.17475C7.49551 8.01562 7.57151 7.93329 7.66018 7.74646C7.75359 7.56517 7.68789 7.37833 7.62139 7.24137C7.55568 7.10442 7.00547 5.76492 6.77984 5.22262V5.22183Z" fill="#25D366"/>
</svg>
