<svg width="18" height="19" viewBox="0 0 18 19" fill="none" xmlns="http://www.w3.org/2000/svg">
<path d="M9.63027 2.75C10.1273 2.75 10.5303 3.15294 10.5303 3.65L10.5303 4.91C10.5303 5.40706 10.1273 5.81 9.63027 5.81L8.37027 5.81C7.87322 5.81 7.47027 5.40706 7.47027 4.91L7.47027 3.65C7.47027 3.15294 7.87322 2.75 8.37027 2.75L9.63027 2.75Z" fill="#ABABAB"/>
<path d="M9.63027 7.97C10.1273 7.97 10.5303 8.37294 10.5303 8.87L10.5303 10.13C10.5303 10.6271 10.1273 11.03 9.63027 11.03L8.37027 11.03C7.87322 11.03 7.47027 10.6271 7.47027 10.13L7.47027 8.87C7.47027 8.37294 7.87322 7.97 8.37027 7.97L9.63027 7.97Z" fill="#ABABAB"/>
<path d="M9.63027 13.19C10.1273 13.19 10.5303 13.5929 10.5303 14.09L10.5303 15.35C10.5303 15.8471 10.1273 16.25 9.63027 16.25L8.37027 16.25C7.87322 16.25 7.47027 15.8471 7.47027 15.35L7.47027 14.09C7.47027 13.5929 7.87322 13.19 8.37027 13.19L9.63027 13.19Z" fill="#ABABAB"/>
</svg>
