<svg width="32" height="20" viewBox="0 0 32 20" fill="none" xmlns="http://www.w3.org/2000/svg">
<path opacity="0.5" d="M14.1057 7.61457C15.3296 8.40952 15.9416 8.80699 16.1535 9.31114C16.3386 9.75171 16.3386 10.2483 16.1535 10.6889C15.9416 11.193 15.3296 11.5905 14.1057 12.3854L8.83881 15.8064C7.40875 16.7352 6.69371 17.1997 6.10195 17.1594C5.5863 17.1242 5.11146 16.8664 4.80113 16.4531C4.44499 15.9788 4.44499 15.1262 4.44499 13.4209L4.44499 6.57905C4.44499 4.8738 4.44499 4.02118 4.80113 3.54686C5.11146 3.13356 5.5863 2.87577 6.10195 2.84064C6.69371 2.80033 7.40875 3.26476 8.83882 4.19362L14.1057 7.61457Z" fill="white"/>
<path d="M27.4387 7.61457C28.6626 8.40952 29.2746 8.80699 29.4865 9.31114C29.6717 9.75171 29.6717 10.2483 29.4865 10.6889C29.2746 11.193 28.6626 11.5905 27.4387 12.3854L22.1718 15.8064C20.7418 16.7352 20.0267 17.1997 19.435 17.1594C18.9193 17.1242 18.4445 16.8664 18.1341 16.4531C17.778 15.9788 17.778 15.1262 17.778 13.4209L17.778 6.57905C17.778 4.8738 17.778 4.02118 18.1341 3.54686C18.4445 3.13356 18.9193 2.87577 19.435 2.84064C20.0267 2.80033 20.7418 3.26476 22.1718 4.19362L27.4387 7.61457Z" fill="white"/>
</svg>
