<svg width="20" height="20" viewBox="0 0 20 20" fill="none" xmlns="http://www.w3.org/2000/svg">
<path d="M3 3.69998V16.3C3 16.9628 3.53725 17.5 4.19998 17.5H6.80002C7.46275 17.5 8 16.9628 8 16.3V3.69998C8 3.03725 7.46275 2.5 6.80002 2.5H4.19998C3.53725 2.5 3 3.03725 3 3.69998Z" stroke="#0C0D0F" stroke-width="2" stroke-linecap="round"/>
<path d="M12 9.69998V16.3C12 16.9628 12.5372 17.5 13.2 17.5H15.8C16.4628 17.5 17 16.9628 17 16.3V9.69998C17 9.03725 16.4628 8.5 15.8 8.5H13.2C12.5372 8.5 12 9.03725 12 9.69998Z" stroke="#0C0D0F" stroke-width="2" stroke-linecap="round"/>
<path d="M1 17.5L19 17.5" stroke="#0C0D0F" stroke-width="2" stroke-linecap="round"/>
</svg>
