<svg width="24" height="24" viewBox="0 0 24 24" fill="none" xmlns="http://www.w3.org/2000/svg">
<path fill-rule="evenodd" clip-rule="evenodd" d="M11.2598 3.0053C9.9638 1.90873 8.38655 1.31025 5.83961 1.55679C3.27338 1.80669 0.35357 4.05576 0 8.39771V9.81758C0.285137 13.5887 2.93406 16.6642 10.4503 22.0057C10.902 22.3272 11.4434 22.5 11.9986 22.5C12.5538 22.5 13.0951 22.3272 13.5469 22.0057C21.0688 16.6528 23.7063 13.5774 24 9.80622V8.38635C23.6493 4.05576 20.7295 1.80669 18.1632 1.55679C17.7812 1.51988 17.4133 1.5 17.0712 1.5C15.1549 1.5 13.8666 2.06476 12.7707 2.98402C12.5051 3.20689 12.2507 3.4506 12.0014 3.71215C11.7617 3.45882 11.5162 3.22231 11.2598 3.0053ZM17.9694 3.54738C17.6399 3.51558 17.3377 3.5 17.0712 3.5C16.1376 3.5 15.4893 3.66795 14.9818 3.90942C14.4635 4.15607 13.9842 4.53068 13.4492 5.09196C13.0709 5.48889 12.5463 5.7131 11.998 5.71215C11.4496 5.7112 10.9258 5.48518 10.5489 5.08694C9.95102 4.45528 9.4085 4.05352 8.78909 3.81019C8.16951 3.56679 7.32142 3.42284 6.03345 3.54738M17.9699 3.54742C19.5267 3.69927 21.6983 5.12618 22 8.47153V9.72357C21.7607 12.4302 19.9161 15.0184 12.3873 20.3762C12.2747 20.4563 12.1388 20.5 11.9986 20.5C11.8584 20.5 11.7225 20.4563 11.6099 20.3762L11.6088 20.3755C4.08038 15.0252 2.23225 12.4393 2 9.73727V8.48333C2.3044 5.12433 4.47816 3.69909 6.03295 3.54743" fill="white"/>
</svg>
