<svg width="20" height="20" viewBox="0 0 20 20" fill="none" xmlns="http://www.w3.org/2000/svg">
<path d="M10 16C5.7 16 2.3 14 0 10C2.3 6 5.7 4 10 4C14.3 4 17.7 6 20 10C17.7 14 14.3 16 10 16ZM10.2 6C7.2 6 3.8667 7.3 2.1667 10C3.8667 12.7 7.2 14 10.2 14C13.2 14 16.0648 12.7 17.7648 10C15.9502 7.55323 13.2 6 10.2 6ZM10 13C8.3 13 7 11.7 7 10C7 8.3 8.3 7 10 7C11.7 7 13 8.3 13 10C13 11.7 11.7 13 10 13ZM10 11C10.6 11 11 10.6 11 10C11 9.4 10.6 9 10 9C9.4 9 9 9.4 9 10C9 10.6 9.4 11 10 11Z" fill="#111111"/>
</svg>
