<svg width="14" height="14" viewBox="0 0 14 14" fill="none" xmlns="http://www.w3.org/2000/svg">
<rect x="1.8304" y="1.16829" width="9.99275" height="11.1087" rx="1.09058" stroke="#999999" stroke-width="1.16667"/>
<path d="M7.00049 10.2642C7.00049 9.32672 7.00049 8.85798 7.18293 8.49991C7.34342 8.18494 7.59949 7.92887 7.91446 7.76838C8.27253 7.58594 8.74127 7.58594 9.67875 7.58594H10.1556C11.093 7.58594 11.5618 7.58594 11.9198 7.76838C12.2348 7.92887 12.4909 8.18494 12.6514 8.49991C12.8338 8.85798 12.8338 9.32672 12.8338 10.2642V10.741C12.8338 11.6785 12.8338 12.1472 12.6514 12.5053C12.4909 12.8203 12.2348 13.0763 11.9198 13.2368C11.5618 13.4193 11.093 13.4193 10.1556 13.4193H9.67875C8.74127 13.4193 8.27253 13.4193 7.91446 13.2368C7.59949 13.0763 7.34342 12.8203 7.18293 12.5053C7.00049 12.1472 7.00049 11.6785 7.00049 10.741V10.2642Z" fill="white"/>
<path d="M7.91446 13.2368L7.64963 13.7566L7.91446 13.2368ZM7.18293 12.5053L7.70269 12.2405L7.18293 12.5053ZM12.6514 12.5053L13.1711 12.7701L12.6514 12.5053ZM11.9198 13.2368L12.1847 13.7566L11.9198 13.2368ZM12.6514 8.49991L13.1711 8.23508L12.6514 8.49991ZM9.67875 8.16927H10.1556V7.0026H9.67875V8.16927ZM12.2505 10.2642V10.741H13.4172V10.2642H12.2505ZM10.1556 12.8359H9.67875V14.0026H10.1556V12.8359ZM7.58382 10.741V10.2642H6.41715V10.741H7.58382ZM9.67875 12.8359C9.20038 12.8359 8.87669 12.8355 8.62683 12.8151C8.38377 12.7952 8.26238 12.7594 8.17929 12.7171L7.64963 13.7566C7.92461 13.8967 8.21662 13.9521 8.53182 13.9779C8.84022 14.0031 9.21964 14.0026 9.67875 14.0026V12.8359ZM6.41715 10.741C6.41715 11.2001 6.4167 11.5795 6.4419 11.8879C6.46765 12.2031 6.52307 12.4952 6.66318 12.7701L7.70269 12.2405C7.66035 12.1574 7.62455 12.036 7.60469 11.7929C7.58428 11.5431 7.58382 11.2194 7.58382 10.741H6.41715ZM8.17929 12.7171C7.97408 12.6125 7.80725 12.4457 7.70269 12.2405L6.66318 12.7701C6.87959 13.1949 7.2249 13.5402 7.64963 13.7566L8.17929 12.7171ZM12.2505 10.741C12.2505 11.2194 12.25 11.5431 12.2296 11.7929C12.2098 12.036 12.174 12.1574 12.1316 12.2405L13.1711 12.7701C13.3112 12.4952 13.3667 12.2031 13.3924 11.8879C13.4176 11.5795 13.4172 11.2001 13.4172 10.741H12.2505ZM10.1556 14.0026C10.6147 14.0026 10.9941 14.0031 11.3025 13.9779C11.6177 13.9521 11.9097 13.8967 12.1847 13.7566L11.655 12.7171C11.5719 12.7594 11.4505 12.7952 11.2075 12.8151C10.9576 12.8355 10.6339 12.8359 10.1556 12.8359V14.0026ZM12.1316 12.2405C12.0271 12.4457 11.8602 12.6125 11.655 12.7171L12.1847 13.7566C12.6094 13.5402 12.9547 13.1949 13.1711 12.7701L12.1316 12.2405ZM10.1556 8.16927C10.6339 8.16927 10.9576 8.16972 11.2075 8.19014C11.4505 8.21 11.5719 8.2458 11.655 8.28814L12.1847 7.24863C11.9097 7.10852 11.6177 7.0531 11.3025 7.02735C10.9941 7.00215 10.6147 7.0026 10.1556 7.0026V8.16927ZM13.4172 10.2642C13.4172 9.80508 13.4176 9.42567 13.3924 9.11727C13.3667 8.80207 13.3112 8.51006 13.1711 8.23508L12.1316 8.76474C12.174 8.84783 12.2098 8.96922 12.2296 9.21228C12.25 9.46214 12.2505 9.78583 12.2505 10.2642H13.4172ZM11.655 8.28814C11.8602 8.39269 12.0271 8.55953 12.1316 8.76474L13.1711 8.23508C12.9547 7.81035 12.6094 7.46504 12.1847 7.24863L11.655 8.28814ZM9.67875 7.0026C9.21963 7.0026 8.84022 7.00215 8.53182 7.02735C8.21662 7.0531 7.92461 7.10852 7.64963 7.24863L8.17929 8.28814C8.26238 8.2458 8.38377 8.21 8.62683 8.19014C8.87669 8.16972 9.20038 8.16927 9.67875 8.16927V7.0026ZM7.58382 10.2642C7.58382 9.78583 7.58428 9.46214 7.60469 9.21228C7.62455 8.96922 7.66035 8.84783 7.70269 8.76474L6.66318 8.23508C6.52307 8.51006 6.46765 8.80207 6.4419 9.11727C6.4167 9.42567 6.41715 9.80509 6.41715 10.2642H7.58382ZM7.64963 7.24863C7.2249 7.46504 6.87959 7.81035 6.66318 8.23508L7.70269 8.76474C7.80725 8.55953 7.97408 8.39269 8.17929 8.28814L7.64963 7.24863Z" fill="#999999"/>
<path d="M9.33398 9.85653C9.33398 9.61001 9.53383 9.41016 9.78036 9.41016C10.0269 9.41016 10.2267 9.61001 10.2267 9.85653V10.6377C10.2267 10.8842 10.0269 11.0841 9.78036 11.0841C9.53383 11.0841 9.33398 10.8842 9.33398 10.6377V9.85653Z" fill="#999999"/>
<path d="M10.5616 10.19C10.8081 10.19 11.0079 10.3898 11.0079 10.6364C11.0079 10.8829 10.8081 11.0827 10.5616 11.0827H9.7804C9.53387 11.0827 9.33402 10.8829 9.33402 10.6364C9.33402 10.3898 9.53387 10.19 9.7804 10.19H10.5616Z" fill="#999999"/>
<rect x="3.47754" y="2.81543" width="3.34783" height="1.16667" rx="0.583333" fill="#999999"/>
<rect x="3.47754" y="5.04639" width="5.57971" height="1.16667" rx="0.583333" fill="#999999"/>
</svg>
