<svg width="20" height="20" viewBox="0 0 20 20" fill="none" xmlns="http://www.w3.org/2000/svg">
<path d="M15.6254 6.11111C16.9677 6.11111 18.0559 5.0229 18.0559 3.68055C18.0559 2.3382 16.9677 1.25 15.6254 1.25C14.283 1.25 13.1948 2.3382 13.1948 3.68055C13.1948 5.0229 14.283 6.11111 15.6254 6.11111Z" stroke="#111111" stroke-width="2" stroke-linejoin="round"/>
<path d="M4.93055 12.4314C6.2729 12.4314 7.3611 11.3432 7.3611 10.0009C7.3611 8.65852 6.2729 7.57031 4.93055 7.57031C3.58821 7.57031 2.5 8.65852 2.5 10.0009C2.5 11.3432 3.58821 12.4314 4.93055 12.4314Z" stroke="#111111" stroke-width="2" stroke-linejoin="round"/>
<path d="M13.1947 4.93359L7.04004 8.6625" stroke="#111111" stroke-width="2" stroke-linecap="round" stroke-linejoin="round"/>
<path d="M7.03955 11.2461L13.5245 15.0781" stroke="#111111" stroke-width="2" stroke-linecap="round" stroke-linejoin="round"/>
<path d="M15.6254 13.8887C16.9677 13.8887 18.0559 14.9769 18.0559 16.3192C18.0559 17.6616 16.9677 18.7498 15.6254 18.7498C14.283 18.7498 13.1948 17.6616 13.1948 16.3192C13.1948 14.9769 14.283 13.8887 15.6254 13.8887Z" stroke="#111111" stroke-width="2" stroke-linejoin="round"/>
</svg>
