<svg width="80" height="80" viewBox="0 0 80 80" fill="none" xmlns="http://www.w3.org/2000/svg">
<circle cx="40" cy="40" r="40" fill="#F6465D" fill-opacity="0.1"/>
<circle cx="40" cy="40" r="30" fill="#F6465D" fill-opacity="0.1"/>
<circle cx="40" cy="40" r="29.7917" stroke="#F6465D" stroke-opacity="0.5" stroke-width="0.416667" stroke-dasharray="0.83 0.83"/>
<circle cx="40" cy="40" r="20" fill="#F7647E"/>
<path d="M41.6693 48.1536C41.6693 49.0741 40.9231 49.8203 40.0026 49.8203C39.0821 49.8203 38.3359 49.0741 38.3359 48.1536C38.3359 47.2332 39.0821 46.487 40.0026 46.487C40.9231 46.487 41.6693 47.2332 41.6693 48.1536Z" fill="white"/>
<path d="M38.3359 31.8385C38.3359 30.9181 39.0821 30.1719 40.0026 30.1719C40.9231 30.1719 41.6693 30.9181 41.6693 31.8385V43.3929C41.6693 44.3134 40.9231 45.0596 40.0026 45.0596C39.0821 45.0596 38.3359 44.3134 38.3359 43.3929V31.8385Z" fill="white"/>
</svg>
