<svg width="24" height="24" viewBox="0 0 24 24" fill="none" xmlns="http://www.w3.org/2000/svg">
<rect x="5.90234" y="2.35156" width="3" height="6" transform="rotate(-30 5.90234 2.35156)" fill="#EFAF00"/>
<rect width="3" height="6" transform="matrix(0.866025 0.5 0.5 -0.866025 12.5 6.05078)" fill="#EFAF00"/>
<rect x="2.5" y="5" width="9" height="6" fill="#4D4D4D"/>
<path d="M12.5 5H21.5V11H12.5V5Z" fill="#4D4D4D"/>
<path d="M2.5 12H11.5V22H8.1C6.13982 22 5.15972 22 4.41103 21.6185C3.75247 21.283 3.21703 20.7475 2.88148 20.089C2.5 19.3403 2.5 18.3602 2.5 16.4V12Z" fill="#4D4D4D"/>
<path d="M12.5 12H21.5V16.4C21.5 18.3602 21.5 19.3403 21.1185 20.089C20.783 20.7475 20.2475 21.283 19.589 21.6185C18.8403 22 17.8602 22 15.9 22H12.5V12Z" fill="#4D4D4D"/>
</svg>
