<svg width="24" height="24" viewBox="0 0 24 24" fill="none" xmlns="http://www.w3.org/2000/svg">
<path fill-rule="evenodd" clip-rule="evenodd" d="M19.4503 10.918C18.8943 15.3678 15.3677 18.8945 10.918 19.4508C11.9585 21.5523 14.1248 22.9971 16.6285 22.9971C20.1457 22.9971 22.9969 20.1459 22.9969 16.6287C22.9969 14.1248 21.5519 11.9584 19.4503 10.918Z" fill="#EFAF00"/>
<path fill-rule="evenodd" clip-rule="evenodd" d="M9.68421 18.3684C14.4804 18.3684 18.3684 14.4804 18.3684 9.68421C18.3684 4.88805 14.4804 1 9.68421 1C4.88805 1 1 4.88805 1 9.68421C1 14.4804 4.88805 18.3684 9.68421 18.3684ZM9.68518 6.40857L6.41016 9.68359L9.68518 12.9586L12.9602 9.68359L9.68518 6.40857Z" fill="#4D4D4D"/>
</svg>
