<svg width="21" height="20" viewBox="0 0 21 20" fill="none" xmlns="http://www.w3.org/2000/svg">
<rect x="0.5" width="20" height="20" rx="10" fill="#0C0D0F"/>
<path d="M17.4353 8.88575L16.2608 8.17095L15.7298 8.99817L18.5 10.6841V9.80393C18.5 5.49396 14.9115 2 10.485 2C7.15698 2 4.21171 3.99317 3.01872 6.96037L3.87244 7.45326C4.91639 4.85699 7.57301 2.97549 10.485 2.97549C14.0384 2.97549 16.9746 5.54859 17.4353 8.88575ZM4.79498 11.8249L5.30755 10.9371L2.5 9.31618V10.1961C2.5 14.5063 6.08848 18 10.515 18C13.9159 18 16.912 15.9185 18.0524 12.8557L17.2022 12.3649C16.204 15.0445 13.4906 17.0245 10.515 17.0245C6.96162 17.0245 4.02536 14.4517 3.5645 11.1145L4.79498 11.8249Z" fill="white" stroke="white" stroke-width="0.4"/>
<circle cx="10.5" cy="10" r="2" fill="#FFCE1F"/>
</svg>
