<svg width="24" height="24" viewBox="0 0 24 24" fill="none" xmlns="http://www.w3.org/2000/svg">
<rect x="5" y="2" width="15" height="18" rx="3" fill="#CCCCCC"/>
<path d="M18 2H3V19C3 20.6569 4.34315 22 6 22H8.5H18C19.6569 22 21 20.6569 21 19V14V5C21 3.34315 19.6569 2 18 2Z" fill="#4D4D4D"/>
<path d="M21 14H11C9.89543 14 9 14.8954 9 16V22H12.6667H21V18.8V14Z" fill="#EFAF00"/>
<path d="M18.5898 21.0035V20.1875H19.4058V21.0035H18.5898Z" fill="#4D4D4D"/>
<path d="M16.2965 19.6807C16.2965 19.846 16.3285 19.9794 16.3925 20.0807C16.4565 20.182 16.5578 20.2327 16.6965 20.2327C16.8191 20.2327 16.9178 20.1874 16.9925 20.0967C17.0671 20.0007 17.1045 19.878 17.1045 19.7287V18.1527C17.1045 18.0247 17.0645 17.9207 16.9845 17.8407C16.9098 17.7554 16.8138 17.7127 16.6965 17.7127C16.5418 17.7127 16.4351 17.7607 16.3765 17.8567C16.3231 17.9527 16.2965 18.0647 16.2965 18.1927V19.6807ZM17.1045 21.0007V20.6327C17.0511 20.6914 17.0005 20.7474 16.9525 20.8007C16.9045 20.8487 16.8511 20.8914 16.7925 20.9287C16.7338 20.966 16.6671 20.9954 16.5925 21.0167C16.5178 21.038 16.4298 21.0487 16.3285 21.0487C15.9871 21.0487 15.7498 20.9207 15.6165 20.6647C15.5685 20.574 15.5338 20.462 15.5125 20.3287C15.4911 20.1954 15.4805 20.0167 15.4805 19.7927V18.2487C15.4805 17.9554 15.4885 17.7394 15.5045 17.6007C15.5365 17.334 15.6618 17.134 15.8805 17.0007C15.9818 16.9314 16.1338 16.8967 16.3365 16.8967C16.4965 16.8967 16.6378 16.934 16.7605 17.0087C16.8885 17.078 16.9978 17.1794 17.0885 17.3127H17.1045V15.3047H17.9205V21.0007H17.1045Z" fill="#4D4D4D"/>
<path d="M13.8455 16.9468V15.7148H14.6615V16.9468H15.1655V17.5868H14.6615V19.8348C14.6615 19.9308 14.6695 20.0055 14.6855 20.0588C14.7068 20.1122 14.7388 20.1522 14.7815 20.1788C14.8242 20.2055 14.8748 20.2215 14.9335 20.2268C14.9975 20.2322 15.0748 20.2348 15.1655 20.2348V21.0028H14.8295C14.6428 21.0028 14.4855 20.9735 14.3575 20.9148C14.2348 20.8562 14.1362 20.7815 14.0615 20.6908C13.9868 20.6002 13.9308 20.4988 13.8935 20.3868C13.8615 20.2695 13.8455 20.1575 13.8455 20.0508V17.5868H13.4375V16.9468H13.8455Z" fill="#4D4D4D"/>
<path d="M13.2844 16.9458H12.4684V16.7618C12.4684 16.5751 12.423 16.4151 12.3324 16.2818C12.247 16.1431 12.1004 16.0738 11.8924 16.0738C11.7804 16.0738 11.6897 16.0951 11.6204 16.1378C11.551 16.1805 11.495 16.2338 11.4524 16.2978C11.4097 16.3671 11.3804 16.4471 11.3644 16.5378C11.3484 16.6231 11.3404 16.7138 11.3404 16.8098C11.3404 16.9218 11.343 17.0151 11.3484 17.0898C11.359 17.1645 11.3804 17.2311 11.4124 17.2898C11.4444 17.3485 11.4897 17.3991 11.5484 17.4418C11.6124 17.4845 11.6977 17.5271 11.8044 17.5698L12.4284 17.8178C12.6097 17.8871 12.7564 17.9698 12.8684 18.0658C12.9804 18.1565 13.0684 18.2631 13.1324 18.3858C13.191 18.5138 13.231 18.6605 13.2524 18.8258C13.2737 18.9858 13.2844 19.1698 13.2844 19.3778C13.2844 19.6178 13.2604 19.8418 13.2124 20.0498C13.1644 20.2525 13.087 20.4258 12.9804 20.5698C12.8684 20.7191 12.7217 20.8365 12.5404 20.9218C12.359 21.0071 12.1377 21.0498 11.8764 21.0498C11.679 21.0498 11.495 21.0151 11.3244 20.9458C11.1537 20.8765 11.007 20.7805 10.8844 20.6578C10.7617 20.5351 10.663 20.3938 10.5884 20.2338C10.519 20.0685 10.4844 19.8898 10.4844 19.6978V19.3938H11.3004V19.6498C11.3004 19.7991 11.343 19.9351 11.4284 20.0578C11.519 20.1751 11.6684 20.2338 11.8764 20.2338C12.015 20.2338 12.1217 20.2151 12.1964 20.1778C12.2764 20.1351 12.3377 20.0765 12.3804 20.0018C12.423 19.9271 12.447 19.8391 12.4524 19.7378C12.463 19.6311 12.4684 19.5138 12.4684 19.3858C12.4684 19.2365 12.463 19.1138 12.4524 19.0178C12.4417 18.9218 12.4204 18.8445 12.3884 18.7858C12.351 18.7271 12.3004 18.6791 12.2364 18.6418C12.1777 18.6045 12.0977 18.5645 11.9964 18.5218L11.4124 18.2818C11.0604 18.1378 10.823 17.9485 10.7004 17.7138C10.583 17.4738 10.5244 17.1751 10.5244 16.8178C10.5244 16.6045 10.5537 16.4018 10.6124 16.2098C10.671 16.0178 10.759 15.8525 10.8764 15.7138C10.9884 15.5751 11.1297 15.4658 11.3004 15.3858C11.4764 15.3005 11.6844 15.2578 11.9244 15.2578C12.127 15.2578 12.311 15.2951 12.4764 15.3698C12.647 15.4445 12.7937 15.5431 12.9164 15.6658C13.1617 15.9218 13.2844 16.2151 13.2844 16.5458V16.9458Z" fill="#4D4D4D"/>
<rect x="7.47656" y="6.47656" width="7.30435" height="1.6" fill="white"/>
<rect x="7.47656" y="10.1328" width="3.65217" height="1.6" fill="white"/>
</svg>
