<?xml version="1.0" encoding="UTF-8"?>
<svg width="30px" height="30px" viewBox="0 0 30 30" version="1.1" xmlns="http://www.w3.org/2000/svg" xmlns:xlink="http://www.w3.org/1999/xlink">
    <title>编组备份</title>
    <g id="白版_充值提现" stroke="none" stroke-width="1" fill="none" fill-rule="evenodd">
        <g id="6个图标" transform="translate(-303.000000, -102.000000)" fill="#1BA27A">
            <g id="编组备份" transform="translate(303.000000, 102.000000)">
                <path d="M14.9996084,0 C23.2841666,0 30,6.71583344 30,15.0003916 C30,23.2849497 23.2841666,30 14.9996084,30 C6.71583344,30 0,23.2849497 0,15.0003916 C0,6.71583344 6.71583344,0 14.9996084,0 Z M22.0396815,7.56402558 L7.83657486,7.56402558 L7.83657486,10.9928208 L13.223339,10.9928208 L13.223339,13.2640647 C9.05599791,13.4465474 5.90993343,14.2696776 5.90993343,15.2572771 C5.90993343,16.2448766 9.05521472,17.06879 13.2241222,17.2512727 L13.2241222,24.4863595 L16.6529174,24.4863595 L16.6529174,17.2536222 C20.8531523,17.0766219 24.0313275,16.250359 24.0313275,15.2572771 C24.0313275,14.2641953 20.8523691,13.4379324 16.6529174,13.260932 L16.6529174,10.9928208 L22.0396815,10.9928208 L22.0396815,7.56402558 Z M16.6526041,13.4535961 C20.301475,13.6047513 23.0402819,14.2367837 23.0402819,14.9949093 C23.0402819,15.8650307 19.4266545,16.5698995 14.9711004,16.5698995 C10.5139799,16.5698995 6.90113562,15.8650307 6.90113562,14.9949093 C6.90113562,14.2414828 9.60704869,13.6125832 13.2238089,13.4567289 L13.2238089,16.033416 L16.6526041,16.033416 Z" id="形状结合"></path>
            </g>
        </g>
    </g>
</svg>