<svg width="20" height="16" viewBox="0 0 20 16" fill="none" xmlns="http://www.w3.org/2000/svg">
<path d="M18 4C18 1.79086 16.2091 0 14 0H0V10C0 12.2091 1.79086 14 4 14H8C8 12.9565 8.53276 12.0375 9.34111 11.5C8.53276 10.9625 8 10.0435 8 9C8 7.34315 9.34315 6 11 6H18V4Z" fill="#666666"/>
<rect x="3" y="3" width="5" height="2" fill="white"/>
<path fill-rule="evenodd" clip-rule="evenodd" d="M12 7.75C10.8954 7.75 10 8.64543 10 9.75C10 10.8546 10.8954 11.75 12 11.75C10.8954 11.75 10 12.6454 10 13.75C10 14.8546 10.8954 15.75 12 15.75H18C19.1046 15.75 20 14.8546 20 13.75C20 12.6454 19.1046 11.75 18 11.75C19.1046 11.75 20 10.8546 20 9.75C20 8.64543 19.1046 7.75 18 7.75H12Z" fill="#EFAF00"/>
</svg>
