<svg width="23" height="18" viewBox="0 0 23 18" fill="none" xmlns="http://www.w3.org/2000/svg">
<path fill-rule="evenodd" clip-rule="evenodd" d="M15.5 0C13.2909 0 11.5 1.79086 11.5 4V17H14.2572C13.4718 16.0491 13 14.8296 13 13.5C13 10.4624 15.4624 8 18.5 8C19.8296 8 21.0491 8.47182 22 9.25716V0H15.5Z" fill="#666666"/>
<path fill-rule="evenodd" clip-rule="evenodd" d="M18.5 18C20.9853 18 23 15.9853 23 13.5C23 11.0147 20.9853 9 18.5 9C16.0147 9 14 11.0147 14 13.5C14 15.9853 16.0147 18 18.5 18ZM18.5002 11.3787L16.3789 13.5L18.5002 15.6213L20.6215 13.5L18.5002 11.3787Z" fill="#EFAF00"/>
<path fill-rule="evenodd" clip-rule="evenodd" d="M6.5 0H0V13C0 15.2091 1.79086 17 4 17H10.5V4C10.5 1.79086 8.70914 0 6.5 0ZM8 3H2V4H8V3ZM8 6H2V7H8V6ZM2 9H5V10H2V9Z" fill="#666666"/>
</svg>
