<svg width="16" height="16" viewBox="0 0 16 16" fill="none" xmlns="http://www.w3.org/2000/svg">
<path fill-rule="evenodd" clip-rule="evenodd" d="M14.6654 8.0026C14.6654 11.6845 11.6806 14.6693 7.9987 14.6693C4.3168 14.6693 1.33203 11.6845 1.33203 8.0026C1.33203 4.3207 4.3168 1.33594 7.9987 1.33594C11.6806 1.33594 14.6654 4.3207 14.6654 8.0026ZM10.2374 5.76494C10.4327 5.9602 10.4327 6.27678 10.2374 6.47204L8.70535 8.00411L10.2374 9.53617C10.4327 9.73143 10.4327 10.048 10.2374 10.2433C10.0422 10.4385 9.72557 10.4385 9.53031 10.2433L7.99825 8.71121L6.46618 10.2433C6.27092 10.4385 5.95434 10.4385 5.75908 10.2433C5.56381 10.048 5.56381 9.73143 5.75908 9.53617L7.29114 8.00411L5.75908 6.47204C5.56381 6.27678 5.56381 5.9602 5.75908 5.76494C5.95434 5.56967 6.27092 5.56967 6.46618 5.76494L7.99825 7.297L9.53031 5.76494C9.72557 5.56967 10.0422 5.56967 10.2374 5.76494Z" fill="#ABABAB"/>
</svg>
