<svg width="96" height="96" viewBox="0 0 96 96" fill="none" xmlns="http://www.w3.org/2000/svg">
<rect width="96" height="96" fill="white"/>
<rect x="32.6328" y="57.8359" width="9.01172" height="22.0307" fill="#FFCE1F"/>
<rect x="22.0195" y="57.8482" width="22.0184" height="22.0184" rx="11.0092" fill="#FFCE1F"/>
<path fill-rule="evenodd" clip-rule="evenodd" d="M62.0526 58.346C53.6509 49.9443 42.4738 46.0285 31.4577 46.6023L30.671 31.497C45.7856 30.7099 61.1907 36.0932 72.748 47.6505C76.4845 51.3869 79.5828 55.5344 82.0354 59.9525C84.1642 63.7873 85.8028 67.8196 86.952 71.9566L72.378 76.0047C71.5431 72.9989 70.3538 70.0736 68.8107 67.2937C67.0342 64.0936 64.7841 61.0775 62.0526 58.346Z" fill="#EAEAEA"/>
<path fill-rule="evenodd" clip-rule="evenodd" d="M50.1048 45.5762C38.2231 45.5762 27.5508 50.7108 20.1669 58.906L8.92969 48.7813C19.0607 37.5371 33.7603 30.4506 50.1048 30.4506C69.0243 30.4506 85.7258 39.9397 95.7109 54.384L83.2688 62.9851C75.9872 52.4517 63.8482 45.5762 50.1048 45.5762Z" fill="#EAEAEA"/>
<path d="M10.4961 79.8667L85.5029 79.8666" stroke="black"/>
<path d="M45.6763 39.0881C33.2458 39.0881 22.0619 44.384 14.2403 52.8653L3.19604 42.9145C13.7192 31.4362 28.8603 24.223 45.6763 24.223C65.1699 24.223 82.3994 33.9103 92.8145 48.7007L80.5861 57.1541C72.8295 46.2081 60.0835 39.0881 45.6763 39.0881Z" fill="white" stroke="black"/>
<path d="M52.7675 59.6718C43.9778 50.8821 32.3249 46.7187 20.7969 47.1851L20.0238 32.3393C35.5812 31.6639 51.3881 37.2699 63.2787 49.1605C67.1646 53.0464 70.3864 57.3592 72.9365 61.953C75.0674 65.7916 76.726 69.8206 77.9129 73.954L63.5893 77.9325C62.7119 74.9112 61.4951 71.97 59.9396 69.1678C58.054 65.7709 55.6658 62.57 52.7675 59.6718Z" fill="white" stroke="black"/>
<rect x="31.5469" y="58.3482" width="21.0184" height="21.0184" rx="10.5092" fill="white" stroke="black"/>
<path d="M66.6484 10.27L66.6484 31.813" stroke="black"/>
<path d="M33.0273 11.8619L33.0273 19.4029" stroke="black"/>
<path d="M60.2266 22.3239L60.2266 35.5831" stroke="black"/>
</svg>
