<svg width="16" height="16" viewBox="0 0 16 16" fill="none" xmlns="http://www.w3.org/2000/svg">
<path d="M8 16C10.2091 16 12.2091 15.1046 13.6568 13.6568C15.1046 12.2091 16 10.2091 16 8C16 5.79088 15.1046 3.79088 13.6568 2.34314C12.2091 0.895432 10.2091 0 8 0C5.79088 0 3.79088 0.895432 2.34314 2.34314C0.895432 3.79088 0 5.79088 0 8C0 10.2091 0.895432 12.2091 2.34314 13.6568C3.79088 15.1046 5.79088 16 8 16Z" fill="#EAAD36"/>
<path fill-rule="evenodd" clip-rule="evenodd" d="M8 13.1992C8.55228 13.1992 9 12.7515 9 12.1992C9 11.6469 8.55228 11.1992 8 11.1992C7.44772 11.1992 7 11.6469 7 12.1992C7 12.7515 7.44772 13.1992 8 13.1992Z" fill="white"/>
<path d="M8 3.19922V9.59922" stroke="white" stroke-width="1.2" stroke-linecap="round" stroke-linejoin="round"/>
</svg>
