<svg width="23" height="22" viewBox="0 0 23 22" fill="none" xmlns="http://www.w3.org/2000/svg">
<g clip-path="url(#clip0_27740_12246)">
<path d="M2.94922 11.2008C2.94922 11.0903 3.03876 11.0008 3.14922 11.0008H7.14922C7.25968 11.0008 7.34922 11.0903 7.34922 11.2008V18.5008C7.34922 18.6112 7.25968 18.7008 7.14922 18.7008H3.14922C3.03876 18.7008 2.94922 18.6112 2.94922 18.5008V11.2008Z" fill="#111111"/>
<path d="M16.1492 9.00078C16.1492 8.89032 16.2388 8.80078 16.3492 8.80078H20.3492C20.4597 8.80078 20.5492 8.89032 20.5492 9.00078V18.5008C20.5492 18.6112 20.4597 18.7008 20.3492 18.7008H16.3492C16.2388 18.7008 16.1492 18.6112 16.1492 18.5008V9.00078Z" fill="#111111"/>
<path d="M9.54922 3.50078C9.54922 3.39032 9.63876 3.30078 9.74922 3.30078H13.7492C13.8597 3.30078 13.9492 3.39032 13.9492 3.50078V18.5008C13.9492 18.6112 13.8597 18.7008 13.7492 18.7008H9.74922C9.63876 18.7008 9.54922 18.6112 9.54922 18.5008V3.50078Z" fill="#111111"/>
</g>
<defs>
<clipPath id="clip0_27740_12246">
<rect width="22" height="22" fill="white" transform="translate(0.75)"/>
</clipPath>
</defs>
</svg>
