<svg width="21" height="20" viewBox="0 0 21 20" fill="none" xmlns="http://www.w3.org/2000/svg">
<path fill-rule="evenodd" clip-rule="evenodd" d="M7.77063 5.6668C5.04927 6.23746 3 8.63599 3 11.5183C3 14.827 5.70039 17.4987 9.01852 17.4987C11.3694 17.4987 13.4071 16.1588 14.3975 14.2036C16.5032 13.3881 18 11.3496 18 8.95811C18 5.84731 15.4676 3.33203 12.3519 3.33203C10.4663 3.33203 8.79597 4.25306 7.77063 5.6668ZM10.1678 5.64691C12.9383 6.17955 15.037 8.60141 15.037 11.5183C15.037 11.6439 15.0331 11.7686 15.0254 11.8923C15.8295 11.1671 16.3333 10.12 16.3333 8.95811C16.3333 6.77499 14.5544 4.9987 12.3519 4.9987C11.5452 4.9987 10.7948 5.23698 10.1678 5.64691Z" fill="#999999"/>
<path fill-rule="evenodd" clip-rule="evenodd" d="M2.25 1.95C2.25 1.83954 2.33954 1.75 2.45 1.75H7.5V3.25H3.75V7H2.25V1.95Z" fill="#999999"/>
<path fill-rule="evenodd" clip-rule="evenodd" d="M17.25 16.75V13H18.75V18.05C18.75 18.1605 18.6605 18.25 18.55 18.25H13.5V16.75H17.25Z" fill="#999999"/>
</svg>
