<svg width="28" height="28" viewBox="0 0 28 28" fill="none" xmlns="http://www.w3.org/2000/svg">
<mask id="path-1-inside-1_1266_9851" fill="white">
<path fill-rule="evenodd" clip-rule="evenodd" d="M9.09995 4.1H17.7417C18.8965 4.1 19.6362 4.10163 20.1979 4.14752C20.735 4.19141 20.9219 4.26508 21.0043 4.30709C21.3618 4.48925 21.6525 4.77991 21.8346 5.13742C21.8766 5.21986 21.9503 5.40667 21.9942 5.94381C22.0401 6.50547 22.0417 7.24524 22.0417 8.4V16.7979H24.1417V8.4C24.1417 6.15979 24.1417 5.03969 23.7057 4.18404C23.3223 3.43139 22.7103 2.81947 21.9577 2.43597C21.102 2 19.9819 2 17.7417 2H9.09995C6.85974 2 5.73964 2 4.88399 2.43597C4.13134 2.81947 3.51942 3.43139 3.13593 4.18404C2.69995 5.03969 2.69995 6.15979 2.69995 8.4V19.6C2.69995 21.8402 2.69995 22.9603 3.13593 23.816C3.51942 24.5686 4.13134 25.1805 4.88399 25.564C5.73964 26 6.85974 26 9.09995 26H15.249V23.9H9.09995C7.94519 23.9 7.20542 23.8984 6.64377 23.8525C6.10662 23.8086 5.91981 23.7349 5.83737 23.6929C5.47986 23.5108 5.1892 23.2201 5.00704 22.8626C4.96503 22.7801 4.89136 22.5933 4.84747 22.0562C4.80158 21.4945 4.79995 20.7548 4.79995 19.6V8.4C4.79995 7.24524 4.80158 6.50547 4.84747 5.94381C4.89136 5.40667 4.96503 5.21986 5.00704 5.13742C5.1892 4.77991 5.47986 4.48925 5.83737 4.30709C5.91981 4.26508 6.10662 4.19141 6.64377 4.14752C7.20542 4.10163 7.94519 4.1 9.09995 4.1Z"/>
</mask>
<path fill-rule="evenodd" clip-rule="evenodd" d="M9.09995 4.1H17.7417C18.8965 4.1 19.6362 4.10163 20.1979 4.14752C20.735 4.19141 20.9219 4.26508 21.0043 4.30709C21.3618 4.48925 21.6525 4.77991 21.8346 5.13742C21.8766 5.21986 21.9503 5.40667 21.9942 5.94381C22.0401 6.50547 22.0417 7.24524 22.0417 8.4V16.7979H24.1417V8.4C24.1417 6.15979 24.1417 5.03969 23.7057 4.18404C23.3223 3.43139 22.7103 2.81947 21.9577 2.43597C21.102 2 19.9819 2 17.7417 2H9.09995C6.85974 2 5.73964 2 4.88399 2.43597C4.13134 2.81947 3.51942 3.43139 3.13593 4.18404C2.69995 5.03969 2.69995 6.15979 2.69995 8.4V19.6C2.69995 21.8402 2.69995 22.9603 3.13593 23.816C3.51942 24.5686 4.13134 25.1805 4.88399 25.564C5.73964 26 6.85974 26 9.09995 26H15.249V23.9H9.09995C7.94519 23.9 7.20542 23.8984 6.64377 23.8525C6.10662 23.8086 5.91981 23.7349 5.83737 23.6929C5.47986 23.5108 5.1892 23.2201 5.00704 22.8626C4.96503 22.7801 4.89136 22.5933 4.84747 22.0562C4.80158 21.4945 4.79995 20.7548 4.79995 19.6V8.4C4.79995 7.24524 4.80158 6.50547 4.84747 5.94381C4.89136 5.40667 4.96503 5.21986 5.00704 5.13742C5.1892 4.77991 5.47986 4.48925 5.83737 4.30709C5.91981 4.26508 6.10662 4.19141 6.64377 4.14752C7.20542 4.10163 7.94519 4.1 9.09995 4.1Z" fill="#111111"/>
<path d="M20.1979 4.14752L20.0619 5.81154V5.81154L20.1979 4.14752ZM21.0043 4.30709L20.2463 5.79468L20.2463 5.79468L21.0043 4.30709ZM21.8346 5.13742L20.347 5.89538L20.347 5.89541L21.8346 5.13742ZM21.9942 5.94381L23.6582 5.80786V5.80786L21.9942 5.94381ZM22.0417 16.7979H20.3722V18.4674H22.0417V16.7979ZM24.1417 16.7979V18.4674H25.8113V16.7979H24.1417ZM23.7057 4.18404L22.2182 4.942V4.942L23.7057 4.18404ZM21.9577 2.43597L21.1997 3.92357L21.1997 3.92357L21.9577 2.43597ZM4.88399 2.43597L4.12602 0.94838H4.12602L4.88399 2.43597ZM3.13593 4.18404L1.64833 3.42607V3.42607L3.13593 4.18404ZM3.13593 23.816L4.62352 23.058L4.62352 23.058L3.13593 23.816ZM4.88399 25.564L5.64196 24.0764H5.64196L4.88399 25.564ZM15.249 26V27.6696H16.9185V26H15.249ZM15.249 23.9H16.9185V22.2304H15.249V23.9ZM6.64377 23.8525L6.50781 25.5165H6.50781L6.64377 23.8525ZM5.83737 23.6929L6.59536 22.2053L6.59533 22.2053L5.83737 23.6929ZM5.00704 22.8626L6.49463 22.1046L6.49463 22.1046L5.00704 22.8626ZM4.84747 22.0562L6.51149 21.9202H6.51149L4.84747 22.0562ZM4.84747 5.94381L6.51149 6.07977L6.51149 6.07977L4.84747 5.94381ZM5.00704 5.13742L6.49463 5.89539L6.49463 5.89539L5.00704 5.13742ZM5.83737 4.30709L6.59534 5.79468L6.59534 5.79468L5.83737 4.30709ZM6.64377 4.14752L6.77972 5.81154L6.77972 5.81154L6.64377 4.14752ZM17.7417 2.43044H9.09995V5.76957H17.7417V2.43044ZM20.3339 2.4835C19.6882 2.43075 18.8677 2.43044 17.7417 2.43044V5.76957C18.9252 5.76957 19.5843 5.77252 20.0619 5.81154L20.3339 2.4835ZM21.7623 2.8195C21.4043 2.63708 20.9725 2.53568 20.3339 2.4835L20.0619 5.81154C20.2753 5.82898 20.3697 5.84861 20.3899 5.85336C20.3978 5.85521 20.3836 5.85228 20.3536 5.84148C20.3201 5.82943 20.283 5.81336 20.2463 5.79468L21.7623 2.8195ZM23.3222 4.37946C22.98 3.70779 22.4339 3.16172 21.7623 2.81949L20.2463 5.79468C20.2897 5.81678 20.3249 5.85203 20.347 5.89538L23.3222 4.37946ZM23.6582 5.80786C23.606 5.16923 23.5046 4.73745 23.3222 4.37943L20.347 5.89541C20.3284 5.85874 20.3123 5.82166 20.3002 5.78817C20.2894 5.75817 20.2865 5.74392 20.2884 5.75179C20.2931 5.77202 20.3127 5.86637 20.3302 6.07977L23.6582 5.80786ZM23.7113 8.4C23.7113 7.27401 23.711 6.45356 23.6582 5.80786L20.3302 6.07977C20.3692 6.55739 20.3722 7.21648 20.3722 8.4H23.7113ZM23.7113 16.7979V8.4H20.3722V16.7979H23.7113ZM22.0417 18.4674H24.1417V15.1283H22.0417V18.4674ZM25.8113 16.7979V8.4H22.4722V16.7979H25.8113ZM25.8113 8.4C25.8113 7.30744 25.8126 6.38762 25.7512 5.63685C25.6883 4.8666 25.5512 4.12848 25.1933 3.42607L22.2182 4.942C22.2962 5.09524 22.3771 5.345 22.4232 5.90876C22.4709 6.49202 22.4722 7.25235 22.4722 8.4H25.8113ZM25.1933 3.42607C24.6498 2.35927 23.7824 1.49194 22.7156 0.94838L21.1997 3.92357C21.6382 4.14699 21.9947 4.5035 22.2182 4.942L25.1933 3.42607ZM22.7156 0.948381C22.0132 0.590483 21.2751 0.453409 20.5049 0.390476C19.7541 0.329136 18.8343 0.330435 17.7417 0.330435V3.66957C18.8894 3.66957 19.6497 3.67086 20.233 3.71852C20.7967 3.76458 21.0465 3.84549 21.1997 3.92357L22.7156 0.948381ZM17.7417 0.330435H9.09995V3.66957H17.7417V0.330435ZM9.09995 0.330435C8.00739 0.330435 7.08757 0.329136 6.3368 0.390476C5.56655 0.453409 4.82844 0.590483 4.12602 0.94838L5.64196 3.92357C5.79519 3.84549 6.04495 3.76458 6.60871 3.71852C7.19197 3.67086 7.9523 3.66957 9.09995 3.66957V0.330435ZM4.12602 0.94838C3.05923 1.49194 2.19189 2.35927 1.64833 3.42607L4.62352 4.942C4.84695 4.50351 5.20346 4.14699 5.64196 3.92357L4.12602 0.94838ZM1.64833 3.42607C1.29043 4.12848 1.15336 4.8666 1.09043 5.63685C1.02909 6.38762 1.03039 7.30744 1.03039 8.4H4.36952C4.36952 7.25235 4.37081 6.49202 4.41847 5.90876C4.46453 5.345 4.54544 5.09524 4.62352 4.942L1.64833 3.42607ZM1.03039 8.4V19.6H4.36952V8.4H1.03039ZM1.03039 19.6C1.03039 20.6926 1.02909 21.6124 1.09043 22.3631C1.15336 23.1334 1.29043 23.8715 1.64833 24.5739L4.62352 23.058C4.54544 22.9048 4.46453 22.655 4.41847 22.0912C4.37081 21.508 4.36952 20.7477 4.36952 19.6H1.03039ZM1.64833 24.5739C2.19189 25.6407 3.05923 26.5081 4.12602 27.0516L5.64196 24.0764C5.20346 23.853 4.84695 23.4965 4.62352 23.058L1.64833 24.5739ZM4.12602 27.0516C4.82844 27.4095 5.56655 27.5466 6.3368 27.6095C7.08757 27.6709 8.00739 27.6696 9.09995 27.6696V24.3304C7.9523 24.3304 7.19197 24.3291 6.60871 24.2815C6.04495 24.2354 5.79519 24.1545 5.64196 24.0764L4.12602 27.0516ZM9.09995 27.6696H15.249V24.3304H9.09995V27.6696ZM16.9185 26V23.9H13.5794V26H16.9185ZM9.09995 25.5696H15.249V22.2304H9.09995V25.5696ZM6.50781 25.5165C7.15351 25.5693 7.97396 25.5696 9.09995 25.5696V22.2304C7.91643 22.2304 7.25734 22.2275 6.77972 22.1885L6.50781 25.5165ZM5.07938 25.1805C5.4374 25.3629 5.86918 25.4643 6.50781 25.5165L6.77972 22.1885C6.56632 22.171 6.47197 22.1514 6.45174 22.1466C6.44387 22.1448 6.45812 22.1477 6.48813 22.1585C6.52161 22.1706 6.55869 22.1866 6.59536 22.2053L5.07938 25.1805ZM3.51945 23.6205C3.86167 24.2922 4.40774 24.8383 5.07941 25.1805L6.59533 22.2053C6.55198 22.1832 6.51673 22.148 6.49463 22.1046L3.51945 23.6205ZM3.18345 22.1921C3.23563 22.8308 3.33703 23.2625 3.51945 23.6206L6.49463 22.1046C6.51331 22.1413 6.52938 22.1784 6.54143 22.2118C6.55223 22.2418 6.55516 22.2561 6.55331 22.2482C6.54856 22.228 6.52893 22.1336 6.51149 21.9202L3.18345 22.1921ZM3.13039 19.6C3.13039 20.726 3.1307 21.5464 3.18345 22.1921L6.51149 21.9202C6.47247 21.4426 6.46952 20.7835 6.46952 19.6H3.13039ZM3.13039 8.4V19.6H6.46952V8.4H3.13039ZM3.18345 5.80786C3.1307 6.45356 3.13039 7.27401 3.13039 8.4H6.46952C6.46952 7.21648 6.47247 6.55739 6.51149 6.07977L3.18345 5.80786ZM3.51945 4.37945C3.33703 4.73746 3.23563 5.16922 3.18345 5.80786L6.51149 6.07977C6.52893 5.86637 6.54856 5.77202 6.55331 5.75179C6.55516 5.74392 6.55223 5.75817 6.54143 5.78816C6.52938 5.82165 6.51331 5.85872 6.49463 5.89539L3.51945 4.37945ZM5.0794 2.81949C4.40775 3.16172 3.86167 3.70779 3.51945 4.37945L6.49463 5.89539C6.51673 5.85203 6.55198 5.81677 6.59534 5.79468L5.0794 2.81949ZM6.50781 2.4835C5.86917 2.53568 5.43741 2.63708 5.0794 2.81949L6.59534 5.79468C6.55867 5.81336 6.5216 5.82943 6.48812 5.84148C6.45812 5.85228 6.44387 5.85521 6.45174 5.85336C6.47197 5.84861 6.56632 5.82898 6.77972 5.81154L6.50781 2.4835ZM9.09995 2.43044C7.97396 2.43044 7.15351 2.43075 6.50781 2.4835L6.77972 5.81154C7.25734 5.77252 7.91643 5.76957 9.09995 5.76957V2.43044Z" fill="#111111" mask="url(#path-1-inside-1_1266_9851)"/>
<path d="M17.1802 21.1242L20.1876 24.1977L25.2 19.0752" stroke="#111111" stroke-width="1.96364"/>
<rect x="7.75879" y="7.21777" width="11.1386" height="2.27668" rx="1.13834" fill="#111111"/>
<rect x="7.75879" y="12.624" width="11.1386" height="2.27668" rx="1.13834" fill="#111111"/>
<rect x="7.75879" y="18.0312" width="6.68315" height="2.27668" rx="1.13834" fill="#111111"/>
</svg>
