<svg width="112" height="112" viewBox="0 0 112 112" fill="none" xmlns="http://www.w3.org/2000/svg">
<g clip-path="url(#clip0_5065_24702)">
<path d="M8.14453 55.0404C8.14453 82.2489 29.6299 104.307 56.1309 104.307C82.6339 104.307 104.119 82.2489 104.119 55.0404C104.119 27.83 82.6339 5.77344 56.1309 5.77344C29.628 5.77344 8.14453 27.83 8.14453 55.0404Z" fill="#E9EAEB"/>
<path d="M105.684 108.152H92.2494V104.208H101.876V94.3218H105.719L105.682 108.15L105.684 108.152ZM19.3094 108.152H5.875V94.3759H9.7166V104.262H19.3449L19.3094 108.152ZM105.684 17.5252H101.842V7.64122H92.2139V3.73242H105.648L105.684 17.5252ZM9.70913 17.5252H5.875V3.73242H19.3094V7.67669H9.683L9.70727 17.5271L9.70913 17.5252Z" fill="#BCC0C4"/>
<path d="M112 85.2184H0V26.6797H112V85.2184Z" fill="white"/>
<path d="M55.9985 68.4941C49.5491 68.4941 36.6523 70.3141 36.6523 76.5861V83.1288H75.3446V76.5861C75.3446 70.3141 62.4459 68.4941 55.9985 68.4941Z" fill="#FFCE1F"/>
<path d="M55.999 60.5275C50.0126 60.5275 45.3086 55.5137 45.3086 49.3611V44.1195C45.3086 37.967 50.0126 32.9531 55.999 32.9531C61.9854 32.9531 66.6894 37.967 66.6894 44.1195V49.3611C66.6894 55.5137 61.9854 60.5275 55.999 60.5275Z" fill="#151615"/>
<path d="M55.9998 37.7383C52.3654 37.7383 49.5859 40.7007 49.5859 44.3463V49.5879C49.5859 53.2335 52.3654 56.1959 55.9998 56.1959C59.6342 56.1959 62.4137 53.2335 62.4137 49.5879V44.3463C62.4137 40.7007 59.6342 37.7383 55.9998 37.7383Z" fill="#E9EAEB"/>
<path d="M77.3846 83.129H73.108V76.4781C73.108 71.9197 63.2707 69.6424 56.0019 69.6424C48.7312 69.6424 38.8958 71.9197 38.8958 76.4781V83.1272H34.6211V76.4781C34.6211 67.3632 48.5184 65.084 56.0019 65.084C63.4872 65.084 77.3846 67.3613 77.3846 76.4781V83.1272V83.129Z" fill="#151615"/>
</g>
<defs>
<clipPath id="clip0_5065_24702">
<rect width="112" height="112" fill="white"/>
</clipPath>
</defs>
</svg>
