<svg width="24" height="24" viewBox="0 0 24 24" fill="none" xmlns="http://www.w3.org/2000/svg">
<path fill-rule="evenodd" clip-rule="evenodd" d="M12.3333 20.6667C16.9357 20.6667 20.6667 16.9357 20.6667 12.3333C20.6667 7.73096 16.9357 4 12.3333 4C7.73096 4 4 7.73096 4 12.3333C4 16.9357 7.73096 20.6667 12.3333 20.6667Z" stroke="#333333" stroke-width="1.25" stroke-linecap="round" stroke-linejoin="round"/>
<path d="M4 12.333H20.6667" stroke="#333333" stroke-width="1.25" stroke-linecap="round" stroke-linejoin="round"/>
<path fill-rule="evenodd" clip-rule="evenodd" d="M12.3333 20.6667C14.1743 20.6667 15.6667 16.9357 15.6667 12.3333C15.6667 7.73096 14.1743 4 12.3333 4C10.4924 4 9 7.73096 9 12.3333C9 16.9357 10.4924 20.6667 12.3333 20.6667Z" stroke="#333333" stroke-width="1.25" stroke-linecap="round" stroke-linejoin="round"/>
<path d="M6.44067 6.55859C7.94871 8.06664 10.032 8.99939 12.3332 8.99939C14.6344 8.99939 16.7178 8.06664 18.2258 6.55859" stroke="#333333" stroke-width="1.25" stroke-linecap="round" stroke-linejoin="round"/>
<path d="M18.2258 18.1068C16.7178 16.5988 14.6344 15.666 12.3332 15.666C10.032 15.666 7.94871 16.5988 6.44067 18.1068" stroke="#333333" stroke-width="1.25" stroke-linecap="round" stroke-linejoin="round"/>
</svg>
