<svg width="16" height="16" viewBox="0 0 16 16" fill="none" xmlns="http://www.w3.org/2000/svg">
<path fill-rule="evenodd" clip-rule="evenodd" d="M8 14.6C4.35492 14.6 1.4 11.6451 1.4 8C1.4 4.35492 4.35492 1.4 8 1.4C11.6451 1.4 14.6 4.35492 14.6 8C14.6 11.6451 11.6451 14.6 8 14.6ZM8 16C12.4183 16 16 12.4183 16 8C16 3.58172 12.4183 0 8 0C3.58172 0 0 3.58172 0 8C0 12.4183 3.58172 16 8 16Z" fill="#111111"/>
<path d="M8.70078 4.7C8.70078 5.0866 8.38738 5.4 8.00078 5.4C7.61418 5.4 7.30078 5.0866 7.30078 4.7C7.30078 4.3134 7.61418 4 8.00078 4C8.38738 4 8.70078 4.3134 8.70078 4.7Z" fill="#111111"/>
<path d="M7.30078 7.30352C7.30078 6.91692 7.61418 6.60352 8.00078 6.60352C8.38738 6.60352 8.70078 6.91692 8.70078 7.30352V11.9035C8.70078 12.2901 8.38738 12.6035 8.00078 12.6035C7.61418 12.6035 7.30078 12.2901 7.30078 11.9035V7.30352Z" fill="#111111"/>
</svg>
