<svg width="16" height="16" viewBox="0 0 16 16" fill="none" xmlns="http://www.w3.org/2000/svg">
<path d="M10.7611 4.31096C10.7611 2.07621 8.94271 0.257812 6.70795 0.257812C4.4732 0.257812 2.6548 2.0752 2.6548 4.31096C2.6548 5.74846 3.4085 7.01374 4.54006 7.73299C2.10574 8.62041 0.362305 10.9595 0.362305 13.6967C0.362305 13.9763 0.589224 14.2032 0.868822 14.2032C1.14842 14.2032 1.37534 13.9763 1.37534 13.6967C1.37534 10.7559 3.76813 8.36411 6.70795 8.36411C8.94271 8.36411 10.7611 6.54572 10.7611 4.31096ZM6.70795 7.35108C5.03138 7.35108 3.66784 5.98753 3.66784 4.31096C3.66784 2.63439 5.03138 1.27085 6.70795 1.27085C8.38452 1.27085 9.74807 2.63439 9.74807 4.31096C9.74807 5.98753 8.38452 7.35108 6.70795 7.35108ZM11.4449 7.99841C9.44416 7.99841 7.8152 9.62636 7.8152 11.6281C7.8152 13.6289 9.44314 15.2578 11.4449 15.2578C13.4467 15.2578 15.0746 13.6299 15.0746 11.6281C15.0736 9.62737 13.4456 7.99841 11.4449 7.99841ZM8.82823 11.6281C8.82823 10.1855 10.0023 9.01144 11.4449 9.01144C11.997 9.01144 12.5096 9.18366 12.932 9.47744L9.21015 12.9866C8.96803 12.5905 8.82823 12.1255 8.82823 11.6281ZM11.4449 14.2448C10.8644 14.2448 10.3285 14.0543 9.89394 13.7342L13.6381 10.2038C13.9148 10.6273 14.062 11.1223 14.0616 11.6281C14.0606 13.0707 12.8875 14.2448 11.4449 14.2448Z" fill="#111111" stroke="#111111" stroke-width="0.400993"/>
</svg>
