<svg width="87" height="65" viewBox="0 0 87 65" fill="none" xmlns="http://www.w3.org/2000/svg">
<g filter="url(#filter0_i_2866_43137)">
<path d="M42.3682 1.15904C42.9889 0.523436 44.0111 0.523433 44.6317 1.15904L55.6783 12.4719C55.9805 12.7814 56.3963 12.9536 56.8289 12.9485L72.6393 12.7601C73.5276 12.7496 74.2504 13.4724 74.2399 14.3607L74.0515 30.1711C74.0464 30.6037 74.2186 31.0195 74.5281 31.3217L85.841 42.3682C86.4766 42.9889 86.4766 44.0111 85.841 44.6317L74.5281 55.6783C74.2186 55.9805 74.0464 56.3963 74.0515 56.8289L74.2399 72.6393C74.2504 73.5276 73.5276 74.2504 72.6393 74.2399L56.8289 74.0515C56.3963 74.0464 55.9805 74.2186 55.6783 74.5281L44.6318 85.841C44.0111 86.4766 42.9889 86.4766 42.3683 85.841L31.3217 74.5281C31.0195 74.2186 30.6037 74.0464 30.1711 74.0515L14.3607 74.2399C13.4724 74.2504 12.7496 73.5276 12.7601 72.6393L12.9485 56.8289C12.9536 56.3963 12.7814 55.9805 12.4719 55.6783L1.15904 44.6318C0.523436 44.0111 0.523433 42.9889 1.15904 42.3683L12.4719 31.3217C12.7814 31.0195 12.9536 30.6037 12.9485 30.1711L12.7601 14.3607C12.7496 13.4724 13.4724 12.7496 14.3607 12.7601L30.1711 12.9485C30.6037 12.9536 31.0195 12.7814 31.3217 12.4719L42.3682 1.15904Z" fill="#ECECEC"/>
</g>
<mask id="mask0_2866_43137" style="mask-type:alpha" maskUnits="userSpaceOnUse" x="0" y="0" width="87" height="87">
<path d="M42.3682 1.15904C42.9889 0.523436 44.0111 0.523433 44.6317 1.15904L55.6783 12.4719C55.9805 12.7814 56.3963 12.9536 56.8289 12.9485L72.6393 12.7601C73.5276 12.7496 74.2504 13.4724 74.2399 14.3607L74.0515 30.1711C74.0464 30.6037 74.2186 31.0195 74.5281 31.3217L85.841 42.3682C86.4766 42.9889 86.4766 44.0111 85.841 44.6317L74.5281 55.6783C74.2186 55.9805 74.0464 56.3963 74.0515 56.8289L74.2399 72.6393C74.2504 73.5276 73.5276 74.2504 72.6393 74.2399L56.8289 74.0515C56.3963 74.0464 55.9805 74.2186 55.6783 74.5281L44.6318 85.841C44.0111 86.4766 42.9889 86.4766 42.3683 85.841L31.3217 74.5281C31.0195 74.2186 30.6037 74.0464 30.1711 74.0515L14.3607 74.2399C13.4724 74.2504 12.7496 73.5276 12.7601 72.6393L12.9485 56.8289C12.9536 56.3963 12.7814 55.9805 12.4719 55.6783L1.15904 44.6318C0.523436 44.0111 0.523433 42.9889 1.15904 42.3683L12.4719 31.3217C12.7814 31.0195 12.9536 30.6037 12.9485 30.1711L12.7601 14.3607C12.7496 13.4724 13.4724 12.7496 14.3607 12.7601L30.1711 12.9485C30.6037 12.9536 31.0195 12.7814 31.3217 12.4719L42.3682 1.15904Z" fill="#BBBBBB"/>
</mask>
<g mask="url(#mask0_2866_43137)">
<path d="M78.5165 95.8809L26.082 44.3978L41.5363 51.7855L63.2887 36.457L121.329 95.8809H78.5165Z" fill="url(#paint0_linear_2866_43137)" fill-opacity="0.1"/>
</g>
<path d="M29.0039 41.5224L40.8675 53.386L60.6403 33.6133" stroke="#F5F5F5" stroke-width="7.90904"/>
<defs>
<filter id="filter0_i_2866_43137" x="0.681641" y="0.681641" width="85.6367" height="89.3388" filterUnits="userSpaceOnUse" color-interpolation-filters="sRGB">
<feFlood flood-opacity="0" result="BackgroundImageFix"/>
<feBlend mode="normal" in="SourceGraphic" in2="BackgroundImageFix" result="shape"/>
<feColorMatrix in="SourceAlpha" type="matrix" values="0 0 0 0 0 0 0 0 0 0 0 0 0 0 0 0 0 0 127 0" result="hardAlpha"/>
<feOffset dy="3.7021"/>
<feGaussianBlur stdDeviation="3.7021"/>
<feComposite in2="hardAlpha" operator="arithmetic" k2="-1" k3="1"/>
<feColorMatrix type="matrix" values="0 0 0 0 0 0 0 0 0 0 0 0 0 0 0 0 0 0 0.02 0"/>
<feBlend mode="normal" in2="shape" result="effect1_innerShadow_2866_43137"/>
</filter>
<linearGradient id="paint0_linear_2866_43137" x1="43.0363" y1="44.4264" x2="70.6794" y2="70.8877" gradientUnits="userSpaceOnUse">
<stop stop-color="#151515"/>
<stop offset="1" stop-color="#ECECEC"/>
</linearGradient>
</defs>
</svg>
