<svg width="20" height="21" viewBox="0 0 20 21" fill="none" xmlns="http://www.w3.org/2000/svg">
<path d="M10 3C5.85787 3 2.5 6.3475 2.5 10.4768V11.3333C2.5 10.301 3.33947 9.25 4.375 9.25C5.41054 9.25 6.25 10.301 6.25 11.3333C6.25 10.301 7.08946 9.25 8.125 9.25C9.16054 9.25 10 10.301 10 11.3333C10 10.301 10.8395 9.25 11.875 9.25C12.9105 9.25 13.75 10.301 13.75 11.3333C13.75 10.301 14.5895 9.25 15.625 9.25C16.6605 9.25 17.5 10.301 17.5 11.3333V10.4768C17.5 6.3475 14.1421 3 10 3Z" stroke="#DDDDDD" stroke-width="1.25" stroke-linecap="round" stroke-linejoin="round"/>
<path d="M6.2485 11.3333C6.2485 11.3333 5.62334 9.04167 6.66525 6.75C7.70717 4.45833 9.99846 3 9.99846 3" stroke="#DDDDDD" stroke-width="1.25" stroke-linecap="round" stroke-linejoin="round"/>
<path d="M13.75 11.3333C13.75 11.3333 13.9585 9.45834 12.9167 6.75C11.8749 4.04167 10 3 10 3" stroke="#DDDDDD" stroke-width="1.25" stroke-linecap="round" stroke-linejoin="round"/>
<path d="M10 10.918V16.9596C10 17.9952 9.16054 18.8346 8.125 18.8346C7.08946 18.8346 6.25 17.9952 6.25 16.9596V16.4104" stroke="#DDDDDD" stroke-width="1.25" stroke-linecap="round" stroke-linejoin="round"/>
<path d="M10 10.9167V3" stroke="#DDDDDD" stroke-width="1.25" stroke-linecap="round" stroke-linejoin="round"/>
<path d="M10 3.0013V2.16797" stroke="#DDDDDD" stroke-width="1.25" stroke-linecap="round" stroke-linejoin="round"/>
<path d="M11.875 9.25C12.9105 9.25 13.75 10.301 13.75 11.3333C13.75 10.301 14.5895 9.25 15.625 9.25" stroke="#DDDDDD" stroke-width="1.25" stroke-linecap="round" stroke-linejoin="round"/>
<path d="M11.875 9.25C10.8395 9.25 10 10.301 10 11.3333C10 10.301 9.16054 9.25 8.125 9.25" stroke="#DDDDDD" stroke-width="1.25" stroke-linecap="round" stroke-linejoin="round"/>
<path d="M4.375 9.25C5.41054 9.25 6.25 10.301 6.25 11.3333C6.25 10.301 7.08946 9.25 8.125 9.25" stroke="#DDDDDD" stroke-width="1.25" stroke-linecap="round" stroke-linejoin="round"/>
<path d="M6.55469 3.83333C7.5861 3.30082 8.75731 3 9.99902 3C11.2407 3 12.4119 3.30082 13.4433 3.83333" stroke="#DDDDDD" stroke-width="1.25" stroke-linecap="round" stroke-linejoin="round"/>
</svg>
