<svg width="20" height="21" viewBox="0 0 20 21" fill="none" xmlns="http://www.w3.org/2000/svg">
<path d="M1.66406 5.91797H18.3307V15.918H1.66406V5.91797Z" stroke="#DDDDDD" stroke-width="1.25" stroke-linejoin="round"/>
<path fill-rule="evenodd" clip-rule="evenodd" d="M1.66406 9.2513C3.50501 9.2513 4.9974 7.75893 4.9974 5.91797H1.66406V9.2513Z" stroke="#DDDDDD" stroke-width="1.25" stroke-linecap="round" stroke-linejoin="round"/>
<path fill-rule="evenodd" clip-rule="evenodd" d="M1.66406 12.5859C3.50501 12.5859 4.9974 14.0783 4.9974 15.9193H1.66406V12.5859Z" stroke="#DDDDDD" stroke-width="1.25" stroke-linecap="round" stroke-linejoin="round"/>
<path fill-rule="evenodd" clip-rule="evenodd" d="M18.3333 12.5859V15.9193H15C15 14.0783 16.4924 12.5859 18.3333 12.5859Z" stroke="#DDDDDD" stroke-width="1.25" stroke-linecap="round" stroke-linejoin="round"/>
<path fill-rule="evenodd" clip-rule="evenodd" d="M18.3333 9.2513C16.4924 9.2513 15 7.75893 15 5.91797H18.3333V9.2513Z" stroke="#DDDDDD" stroke-width="1.25" stroke-linecap="round" stroke-linejoin="round"/>
<path d="M9.9974 13.418C11.148 13.418 12.0807 12.2987 12.0807 10.918C12.0807 9.53726 11.148 8.41797 9.9974 8.41797C8.84681 8.41797 7.91406 9.53726 7.91406 10.918C7.91406 12.2987 8.84681 13.418 9.9974 13.418Z" stroke="#DDDDDD" stroke-width="1.25" stroke-linejoin="round"/>
</svg>
