<svg width="20" height="21" viewBox="0 0 20 21" fill="none" xmlns="http://www.w3.org/2000/svg">
<path d="M7.5 3H3.33333C2.8731 3 2.5 3.3731 2.5 3.83333V8C2.5 8.46025 2.8731 8.83333 3.33333 8.83333H7.5C7.96025 8.83333 8.33333 8.46025 8.33333 8V3.83333C8.33333 3.3731 7.96025 3 7.5 3Z" stroke="#DDDDDD" stroke-width="1.25" stroke-linejoin="round"/>
<path d="M7.5 12.1641H3.33333C2.8731 12.1641 2.5 12.5371 2.5 12.9974V17.1641C2.5 17.6243 2.8731 17.9974 3.33333 17.9974H7.5C7.96025 17.9974 8.33333 17.6243 8.33333 17.1641V12.9974C8.33333 12.5371 7.96025 12.1641 7.5 12.1641Z" stroke="#DDDDDD" stroke-width="1.25" stroke-linejoin="round"/>
<path d="M14.5846 8.83333C16.1955 8.83333 17.5013 7.5275 17.5013 5.91667C17.5013 4.30584 16.1955 3 14.5846 3C12.9738 3 11.668 4.30584 11.668 5.91667C11.668 7.5275 12.9738 8.83333 14.5846 8.83333Z" stroke="#DDDDDD" stroke-width="1.25" stroke-linejoin="round"/>
<path d="M16.668 12.1641H12.5013C12.0411 12.1641 11.668 12.5371 11.668 12.9974V17.1641C11.668 17.6243 12.0411 17.9974 12.5013 17.9974H16.668C17.1282 17.9974 17.5013 17.6243 17.5013 17.1641V12.9974C17.5013 12.5371 17.1282 12.1641 16.668 12.1641Z" stroke="#DDDDDD" stroke-width="1.25" stroke-linejoin="round"/>
</svg>
