<svg width="16" height="16" viewBox="0 0 16 16" fill="none" xmlns="http://www.w3.org/2000/svg">
<path d="M12.1004 4.88888C13.1743 4.88888 14.0449 4.01832 14.0449 2.94444C14.0449 1.87056 13.1743 1 12.1004 1C11.0266 1 10.156 1.87056 10.156 2.94444C10.156 4.01832 11.0266 4.88888 12.1004 4.88888Z" stroke="#111111" stroke-width="1.6" stroke-linejoin="round"/>
<path d="M3.54454 9.94357C4.61842 9.94357 5.48898 9.07301 5.48898 7.99913C5.48898 6.92525 4.61842 6.05469 3.54454 6.05469C2.47066 6.05469 1.6001 6.92525 1.6001 7.99913C1.6001 9.07301 2.47066 9.94357 3.54454 9.94357Z" stroke="#111111" stroke-width="1.6" stroke-linejoin="round"/>
<path d="M10.1559 3.94531L5.23218 6.92844" stroke="#111111" stroke-width="1.6" stroke-linecap="round" stroke-linejoin="round"/>
<path d="M5.23181 8.99707L10.4197 12.0627" stroke="#111111" stroke-width="1.6" stroke-linecap="round" stroke-linejoin="round"/>
<path d="M12.1004 11.1108C13.1743 11.1108 14.0449 11.9814 14.0449 13.0553C14.0449 14.1292 13.1743 14.9997 12.1004 14.9997C11.0266 14.9997 10.156 14.1292 10.156 13.0553C10.156 11.9814 11.0266 11.1108 12.1004 11.1108Z" stroke="#111111" stroke-width="1.6" stroke-linejoin="round"/>
</svg>
