<svg width="83" height="73" viewBox="0 0 83 73" fill="none" xmlns="http://www.w3.org/2000/svg">
<g filter="url(#filter0_i_6175_64941)">
<ellipse cx="37.5219" cy="47.6689" rx="17.3851" ry="6.16892" fill="#333333"/>
</g>
<circle cx="17.5309" cy="17.5309" r="17.5309" transform="matrix(0.996195 0.0871557 -0.438371 0.898794 30.3672 7.56836)" fill="url(#paint0_linear_6175_64941)"/>
<circle cx="17.5309" cy="17.5309" r="17.3678" transform="matrix(0.996195 0.0871557 -0.438371 0.898794 27.7891 3.24487)" fill="white" stroke="black" stroke-width="0.326157"/>
<g filter="url(#filter1_i_6175_64941)">
<circle cx="13.454" cy="13.454" r="13.454" transform="matrix(0.996195 0.0871557 -0.438371 0.898794 30.0625 7.26343)" fill="white"/>
</g>
<circle cx="13.454" cy="13.454" r="13.2909" transform="matrix(0.996195 0.0871557 -0.438371 0.898794 30.0625 7.26343)" stroke="black" stroke-width="0.326157"/>
<mask id="path-6-outside-1_6175_64941" maskUnits="userSpaceOnUse" x="23.6426" y="13.6809" width="26.9071" height="14.8991" fill="black">
<rect fill="white" x="23.6426" y="13.6809" width="26.9071" height="14.8991"/>
<path d="M40.4666 23.5014C38.9983 24.8618 36.4614 25.932 33.5513 26.0005L32.0137 27.425L30.0203 27.2506L31.5025 25.8774C29.9382 25.6423 28.7618 25.132 28.3524 24.5344L31.4547 22.7551C31.9166 23.3714 32.9906 23.8586 34.3362 23.9764C35.6984 24.0955 36.5486 23.8469 37.0195 23.4105C38.5572 21.986 30.8236 22.4471 34.4252 19.1103C35.9489 17.6986 38.5496 16.6198 41.5177 16.5986L43.0415 15.1869L45.0349 15.3613L43.5389 16.7473C44.685 16.9319 45.6207 17.2947 46.0938 17.7996L43.0442 19.5975C42.4299 19.0381 41.5828 18.7112 40.5695 18.6225C39.1907 18.5019 38.3045 18.8176 37.8196 19.2668C36.3374 20.64 44.0406 20.1903 40.4666 23.5014Z"/>
</mask>
<path d="M40.4666 23.5014C38.9983 24.8618 36.4614 25.932 33.5513 26.0005L32.0137 27.425L30.0203 27.2506L31.5025 25.8774C29.9382 25.6423 28.7618 25.132 28.3524 24.5344L31.4547 22.7551C31.9166 23.3714 32.9906 23.8586 34.3362 23.9764C35.6984 24.0955 36.5486 23.8469 37.0195 23.4105C38.5572 21.986 30.8236 22.4471 34.4252 19.1103C35.9489 17.6986 38.5496 16.6198 41.5177 16.5986L43.0415 15.1869L45.0349 15.3613L43.5389 16.7473C44.685 16.9319 45.6207 17.2947 46.0938 17.7996L43.0442 19.5975C42.4299 19.0381 41.5828 18.7112 40.5695 18.6225C39.1907 18.5019 38.3045 18.8176 37.8196 19.2668C36.3374 20.64 44.0406 20.1903 40.4666 23.5014Z" fill="black"/>
<path d="M34.5165 24.3866L34.74 24.1309L34.4244 24.1383L34.1874 24.3578L34.5165 24.3866ZM33.1457 25.6567L32.8712 25.911L33.2003 25.9398L33.4748 25.6855L33.1457 25.6567ZM31.3684 25.5012L31.0393 25.4724L30.7648 25.7267L31.0939 25.7555L31.3684 25.5012ZM32.6899 24.2769L33.019 24.3057L33.2749 24.0686L32.9866 24.0253L32.6899 24.2769ZM29.8814 23.0795L29.6923 22.9498L29.373 23.1329L29.4686 23.2724L29.8814 23.0795ZM32.6472 21.4931L33.0577 21.2969L32.9123 21.103L32.4582 21.3634L32.6472 21.4931ZM41.6191 16.0042L41.3871 16.2601L41.7056 16.2578L41.9483 16.033L41.6191 16.0042ZM42.9777 14.7456L43.2521 14.4913L42.923 14.4625L42.6485 14.7168L42.9777 14.7456ZM44.7549 14.9011L45.0841 14.9299L45.3585 14.6756L45.0294 14.6468L44.7549 14.9011ZM43.4211 16.1368L43.092 16.108L42.8389 16.3425L43.121 16.3879L43.4211 16.1368ZM45.699 17.075L45.8978 17.199L46.228 17.0044L46.1025 16.8705L45.699 17.075ZM42.9801 18.6779L42.5825 18.8883L42.7593 19.0493L43.1789 18.802L42.9801 18.6779ZM40.3529 22.1297C39.7672 22.6724 38.9759 23.152 38.0392 23.5057C37.0983 23.861 35.9765 24.1018 34.74 24.1309L34.293 24.6424C35.6511 24.6104 36.9575 24.3436 38.1234 23.9034C39.2936 23.4615 40.2877 22.8576 41.0111 22.1873L40.3529 22.1297ZM34.1874 24.3578L32.8165 25.6279L33.4748 25.6855L34.8457 24.4154L34.1874 24.3578ZM33.4201 25.4024L31.6428 25.2469L31.0939 25.7555L32.8712 25.911L33.4201 25.4024ZM31.6975 25.53L33.019 24.3057L32.3607 24.2481L31.0393 25.4724L31.6975 25.53ZM32.9866 24.0253C31.6272 23.8209 30.6322 23.3799 30.2942 22.8865L29.4686 23.2724C29.8606 23.8447 30.9633 24.3136 32.3931 24.5285L32.9866 24.0253ZM30.0704 23.2092L32.8363 21.6229L32.4582 21.3634L29.6923 22.9498L30.0704 23.2092ZM32.2368 21.6894C32.6723 22.2703 33.6763 22.7255 34.9419 22.8362L35.4908 22.3277C34.3571 22.2285 33.446 21.8149 33.0577 21.2969L32.2368 21.6894ZM34.9419 22.8362C35.5697 22.8912 36.1295 22.8672 36.6279 22.7523C37.1633 22.6289 37.62 22.4007 37.9378 22.1063L37.2796 22.0487C37.1775 22.1433 37.0452 22.2205 36.793 22.2786C36.5038 22.3453 36.0774 22.379 35.4908 22.3277L34.9419 22.8362ZM37.9378 22.1063C38.207 21.8569 38.2623 21.6515 38.1921 21.4917C38.1258 21.3409 37.9471 21.2253 37.7365 21.1279C37.5229 21.0292 37.2524 20.9389 36.9726 20.8489C36.6888 20.7577 36.3932 20.6661 36.1111 20.5612C35.5435 20.3502 35.0716 20.0992 34.9162 19.741C34.7663 19.3956 34.9052 18.939 35.6248 18.2723L34.9665 18.2148C34.0806 19.0355 33.8772 19.6433 34.0741 20.0971C34.2656 20.5383 34.8297 20.8216 35.4131 21.0385C35.7065 21.1476 36.0151 21.2432 36.2926 21.3324C36.574 21.4229 36.8217 21.5062 37.0116 21.594C37.2045 21.6832 37.3145 21.7671 37.3503 21.8486C37.3822 21.921 37.3531 21.9805 37.2796 22.0487L37.9378 22.1063ZM35.6248 18.2723C36.2349 17.7071 37.0508 17.2156 38.0104 16.8602C38.9752 16.5028 40.1234 16.2692 41.3871 16.2601L41.8512 15.7483C40.4685 15.7582 39.1343 16.0149 37.9385 16.4578C36.7376 16.9026 35.715 17.5214 34.9665 18.2148L35.6248 18.2723ZM41.9483 16.033L43.3068 14.7744L42.6485 14.7168L41.29 15.9754L41.9483 16.033ZM42.7032 14.9999L44.4805 15.1554L45.0294 14.6468L43.2521 14.4913L42.7032 14.9999ZM44.4258 14.8723L43.092 16.108L43.7502 16.1656L45.0841 14.9299L44.4258 14.8723ZM43.121 16.3879C44.109 16.547 44.9006 16.858 45.2955 17.2794L46.1025 16.8705C45.6537 16.3916 44.777 16.0557 43.7213 15.8857L43.121 16.3879ZM45.5002 16.9509L42.7813 18.5539L43.1789 18.802L45.8978 17.199L45.5002 16.9509ZM43.3776 18.4676C42.8089 17.9497 42.0162 17.6391 41.0482 17.5544L40.4993 18.0629C41.3381 18.1363 42.0558 18.4087 42.5825 18.8883L43.3776 18.4676ZM41.0482 17.5544C40.4055 17.4982 39.8252 17.5377 39.3038 17.6754C38.7511 17.8213 38.3015 18.0685 37.9929 18.3543L38.6512 18.4119C38.7749 18.2973 38.9364 18.2034 39.1941 18.1354C39.4832 18.059 39.9126 18.0116 40.4993 18.0629L41.0482 17.5544ZM37.9929 18.3543C37.7259 18.6017 37.6795 18.8033 37.7554 18.9576C37.827 19.1031 38.0091 19.2146 38.2215 19.3086C38.4372 19.4041 38.7091 19.4918 38.9899 19.5796C39.2745 19.6686 39.571 19.7586 39.8534 19.8619C40.4219 20.0698 40.894 20.3187 41.0509 20.6739C41.2021 21.0165 41.0658 21.4692 40.3529 22.1297L41.0111 22.1873C41.8914 21.3718 42.0915 20.7676 41.8925 20.3168C41.6991 19.8787 41.1343 19.5978 40.5494 19.3839C40.255 19.2763 39.9456 19.1824 39.6664 19.095C39.3835 19.0065 39.1338 18.9254 38.9412 18.8401C38.7454 18.7535 38.6326 18.6723 38.594 18.5939C38.5597 18.5243 38.5878 18.4706 38.6512 18.4119L37.9929 18.3543Z" fill="black" mask="url(#path-6-outside-1_6175_64941)"/>
<mask id="path-8-outside-2_6175_64941" maskUnits="userSpaceOnUse" x="23.4961" y="11.6453" width="26.4031" height="15.8351" fill="black">
<rect fill="white" x="23.4961" y="11.6453" width="26.4031" height="15.8351"/>
<path d="M39.8398 22.3582C38.3714 23.7185 35.8877 24.6899 33.0869 24.5555L31.5493 25.98L29.6399 25.6495L31.1221 24.2763C29.6279 23.9111 28.518 23.2772 28.1493 22.6042L31.206 20.9094C31.6245 21.6064 32.6369 22.2081 33.9257 22.4312C35.2305 22.657 36.0582 22.45 36.5292 22.0136C38.0668 20.5891 30.612 20.5325 34.2136 17.1957C35.7374 15.784 38.2826 14.808 41.1374 14.9975L42.6611 13.5858L44.5705 13.9163L43.0745 15.3023C44.1688 15.5831 45.0533 16.0408 45.4872 16.6186L42.4803 18.3372C41.9129 17.6906 41.1121 17.2778 40.1415 17.1098C38.8208 16.8813 37.9556 17.158 37.4708 17.6072C35.9886 18.9804 43.4137 19.047 39.8398 22.3582Z"/>
</mask>
<path d="M39.8398 22.3582C38.3714 23.7185 35.8877 24.6899 33.0869 24.5555L31.5493 25.98L29.6399 25.6495L31.1221 24.2763C29.6279 23.9111 28.518 23.2772 28.1493 22.6042L31.206 20.9094C31.6245 21.6064 32.6369 22.2081 33.9257 22.4312C35.2305 22.657 36.0582 22.45 36.5292 22.0136C38.0668 20.5891 30.612 20.5325 34.2136 17.1957C35.7374 15.784 38.2826 14.808 41.1374 14.9975L42.6611 13.5858L44.5705 13.9163L43.0745 15.3023C44.1688 15.5831 45.0533 16.0408 45.4872 16.6186L42.4803 18.3372C41.9129 17.6906 41.1121 17.2778 40.1415 17.1098C38.8208 16.8813 37.9556 17.158 37.4708 17.6072C35.9886 18.9804 43.4137 19.047 39.8398 22.3582Z" fill="#FFD429"/>
<path d="M34.0821 22.886L34.3076 22.6265L34.0038 22.6119L33.7668 22.8315L34.0821 22.886ZM32.7112 24.1561L32.4367 24.4104L32.752 24.4649L33.0264 24.2107L32.7112 24.1561ZM31.0088 23.8615L30.6936 23.8069L30.4191 24.0612L30.7344 24.1157L31.0088 23.8615ZM32.3303 22.6371L32.6456 22.6917L32.9015 22.4546L32.6261 22.3873L32.3303 22.6371ZM29.6798 21.1463L29.5034 20.993L29.1888 21.1675L29.2749 21.3247L29.6798 21.1463ZM32.4051 19.6354L32.8079 19.4534L32.6761 19.234L32.2287 19.4821L32.4051 19.6354ZM41.2596 14.3645L41.0258 14.6235L41.3322 14.6438L41.5748 14.419L41.2596 14.3645ZM42.6181 13.1058L42.8926 12.8516L42.5773 12.797L42.3029 13.0513L42.6181 13.1058ZM44.3205 13.4005L44.6357 13.4551L44.9102 13.2008L44.5949 13.1462L44.3205 13.4005ZM42.9866 14.6362L42.6714 14.5817L42.4183 14.8162L42.6876 14.8853L42.9866 14.6362ZM45.1378 15.8098L45.3237 15.9576L45.6493 15.7716L45.5343 15.6184L45.1378 15.8098ZM42.4569 17.342L42.0659 17.5402L42.2293 17.7263L42.6429 17.4899L42.4569 17.342ZM39.7874 20.8724C39.2017 21.4151 38.4209 21.875 37.5057 22.1891C36.5862 22.5045 35.4976 22.6837 34.3076 22.6265L33.8565 23.1455C35.1636 23.2083 36.4308 23.0144 37.5701 22.6235C38.7135 22.2312 39.6945 21.6518 40.4179 20.9815L39.7874 20.8724ZM33.7668 22.8315L32.3959 24.1015L33.0264 24.2107L34.3973 22.9406L33.7668 22.8315ZM32.9856 23.9018L31.2833 23.6072L30.7344 24.1157L32.4367 24.4104L32.9856 23.9018ZM31.3241 23.916L32.6456 22.6917L32.0151 22.5826L30.6936 23.8069L31.3241 23.916ZM32.6261 22.3873C31.3275 22.0699 30.3892 21.5237 30.0847 20.968L29.2749 21.3247C29.628 21.9692 30.6688 22.5531 32.0345 22.887L32.6261 22.3873ZM29.8562 21.2996L32.5814 19.7886L32.2287 19.4821L29.5034 20.993L29.8562 21.2996ZM32.0022 19.8174C32.3968 20.4744 33.3432 21.0365 34.5555 21.2464L35.1044 20.7378C34.0184 20.5499 33.1596 20.0391 32.8079 19.4534L32.0022 19.8174ZM34.5555 21.2464C35.1568 21.3504 35.6961 21.3646 36.1801 21.2765C36.7 21.1819 37.1486 20.9688 37.4664 20.6744L36.8359 20.5652C36.7337 20.6598 36.6034 20.7335 36.3585 20.7781C36.0777 20.8292 35.6663 20.8351 35.1044 20.7378L34.5555 21.2464ZM37.4664 20.6744C37.7355 20.425 37.7973 20.2076 37.7364 20.0305C37.6789 19.8633 37.5119 19.726 37.3135 19.6061C37.1122 19.4844 36.8559 19.3678 36.5906 19.2508C36.3215 19.1323 36.0411 19.0124 35.7743 18.8793C35.2373 18.6114 34.794 18.3072 34.6595 17.9103C34.5297 17.5274 34.6822 17.0456 35.4018 16.3789L34.7713 16.2697C33.8854 17.0905 33.6645 17.7306 33.835 18.2336C34.0007 18.7225 34.5314 19.0681 35.0833 19.3435C35.3609 19.482 35.6536 19.6071 35.9167 19.7231C36.1835 19.8406 36.4182 19.9481 36.5971 20.0563C36.7788 20.1661 36.8811 20.2644 36.9122 20.3547C36.9398 20.435 36.9094 20.4971 36.8359 20.5652L37.4664 20.6744ZM35.4018 16.3789C36.0119 15.8136 36.8168 15.3426 37.7543 15.0283C38.6968 14.7124 39.8105 14.5428 41.0258 14.6235L41.4933 14.1054C40.1635 14.0172 38.87 14.1982 37.7019 14.5898C36.5288 14.983 35.5198 15.5763 34.7713 16.2697L35.4018 16.3789ZM41.5748 14.419L42.9334 13.1604L42.3029 13.0513L40.9443 14.3099L41.5748 14.419ZM42.3437 13.3601L44.046 13.6548L44.5949 13.1462L42.8926 12.8516L42.3437 13.3601ZM44.0052 13.3459L42.6714 14.5817L43.3019 14.6908L44.6357 13.4551L44.0052 13.3459ZM42.6876 14.8853C43.631 15.1273 44.3791 15.519 44.7413 16.0011L45.5343 15.6184C45.1227 15.0704 44.2936 14.6459 43.2857 14.3872L42.6876 14.8853ZM44.9518 15.6619L42.2709 17.1941L42.6429 17.4899L45.3237 15.9576L44.9518 15.6619ZM42.8479 17.1438C42.3226 16.5453 41.5733 16.154 40.6461 15.9935L40.0972 16.502C40.9008 16.6411 41.5795 16.9858 42.0659 17.5402L42.8479 17.1438ZM40.6461 15.9935C40.0306 15.8869 39.471 15.888 38.964 15.999C38.4265 16.1167 37.9839 16.3507 37.6753 16.6366L38.3058 16.7457C38.4296 16.6311 38.5888 16.5415 38.8394 16.4867C39.1205 16.4251 39.5354 16.4048 40.0972 16.502L40.6461 15.9935ZM37.6753 16.6366C37.4083 16.884 37.3553 17.0978 37.4219 17.2695C37.4847 17.4314 37.6551 17.5645 37.8555 17.681C38.0589 17.7992 38.3166 17.9131 38.583 18.0278C38.8529 18.1441 39.1342 18.2623 39.4014 18.3937C39.9394 18.6583 40.383 18.9602 40.519 19.3541C40.6502 19.734 40.5004 20.2119 39.7874 20.8724L40.4179 20.9815C41.2982 20.166 41.5157 19.5295 41.3431 19.0297C41.1754 18.5439 40.644 18.2009 40.0905 17.9286C39.812 17.7916 39.5184 17.6683 39.2536 17.5542C38.9852 17.4386 38.7485 17.3334 38.5669 17.2278C38.3822 17.1204 38.2772 17.0249 38.2433 16.9377C38.2133 16.8602 38.2425 16.8044 38.3058 16.7457L37.6753 16.6366Z" fill="black" mask="url(#path-8-outside-2_6175_64941)"/>
<circle cx="7.05252" cy="7.05252" r="7.05252" transform="matrix(0.956305 0.292372 2.41543e-09 1 11.0645 40.0647)" fill="url(#paint1_linear_6175_64941)"/>
<circle cx="7.05252" cy="7.05252" r="6.98691" transform="matrix(0.956305 0.292372 2.41543e-09 1 10.0947 41.0344)" fill="#FDFBFE" stroke="black" stroke-width="0.13121"/>
<g filter="url(#filter2_i_6175_64941)">
<circle cx="5.4124" cy="5.4124" r="5.4124" transform="matrix(0.956305 0.292372 2.41543e-09 1 11.6621 43.1541)" fill="#F09242"/>
</g>
<circle cx="5.4124" cy="5.4124" r="5.34679" transform="matrix(0.956305 0.292372 2.41543e-09 1 11.6621 43.1541)" stroke="black" stroke-width="0.13121"/>
<g filter="url(#filter3_d_6175_64941)">
<path d="M18.4518 48.8264C18.3862 48.0909 17.796 47.6704 17.0494 47.369L17.0494 46.3837L16.4723 46.2072L16.4723 47.1742C16.3203 47.1278 16.1651 47.0803 16.011 47.0332L16.011 46.0662L15.4382 45.8911L15.4382 46.8832L14.2676 46.5253L14.2676 47.1711C14.2676 47.1711 14.6939 47.2935 14.6873 47.2995C14.7642 47.3141 14.8413 47.3604 14.9025 47.4286C14.9637 47.4967 15.0041 47.5815 15.0152 47.6649L15.0152 50.3807C15.0136 50.4084 15.0066 50.4338 14.9945 50.4555C14.9825 50.4771 14.9658 50.4946 14.9453 50.5067C14.9252 50.5194 14.9016 50.5265 14.8761 50.5277C14.8505 50.529 14.8235 50.5243 14.7966 50.5139C14.8043 50.5231 14.3769 50.3855 14.3769 50.3855L14.2676 51.0734L15.4273 51.4279L15.4273 52.4361L16.0045 52.6125L16.0045 51.6192L16.4657 51.7603L16.4657 52.749L17.044 52.9257L17.044 51.929C18.019 52.1654 18.6989 52.1218 18.7841 51.1935C18.853 50.4464 18.5076 49.9979 17.9556 49.6908C18.2911 49.6208 18.4988 49.3643 18.4518 48.8264ZM17.643 50.7257C17.643 51.4755 16.4144 51.0142 16.023 50.8945L16.023 49.5641C16.4144 49.6849 17.643 49.9427 17.643 50.7257ZM17.3752 48.7693C17.3752 49.4551 16.3499 49.0582 16.0241 48.9586L16.0241 47.7493C16.3499 47.8489 17.3752 48.0549 17.3752 48.7693Z" fill="white"/>
</g>
<circle cx="10.6125" cy="10.6125" r="10.6125" transform="matrix(0.866025 -0.5 0.866025 0.5 33.375 56.7017)" fill="url(#paint2_linear_6175_64941)"/>
<circle cx="10.6125" cy="10.6125" r="10.5138" transform="matrix(0.866025 -0.5 0.866025 0.5 33.4189 54.3889)" fill="#FDFBFE" stroke="black" stroke-width="0.197442"/>
<g filter="url(#filter4_i_6175_64941)">
<circle cx="8.14448" cy="8.14448" r="8.14448" transform="matrix(0.866025 -0.5 0.866025 0.5 37.6914 54.3889)" fill="#00A3FF"/>
</g>
<circle cx="8.14448" cy="8.14448" r="8.04576" transform="matrix(0.866025 -0.5 0.866025 0.5 37.6914 54.3889)" stroke="black" stroke-width="0.197442"/>
<g filter="url(#filter5_d_6175_64941)">
<path d="M45.8154 51.6758L50.0368 53.5124L48.1485 55.4005L45.8154 51.6758ZM45.8154 51.6758L50.0368 53.5124L53.8236 52.4502L45.8154 51.6758ZM56.0401 56.1242L53.1028 54.8462L48.5835 55.5897L56.0401 56.1242ZM56.0401 56.1242L53.1028 54.8462L54.2587 52.6395L56.0401 56.1242Z" fill="white"/>
<path d="M48.1485 55.4005L49.569 53.3088L52.4839 54.577L48.1485 55.4005ZM53.8236 52.4502L49.569 53.3088L52.4839 54.577L53.8236 52.4502Z" fill="white"/>
</g>
<defs>
<filter id="filter0_i_6175_64941" x="20.1367" y="41.5" width="34.7705" height="16.7107" filterUnits="userSpaceOnUse" color-interpolation-filters="sRGB">
<feFlood flood-opacity="0" result="BackgroundImageFix"/>
<feBlend mode="normal" in="SourceGraphic" in2="BackgroundImageFix" result="shape"/>
<feColorMatrix in="SourceAlpha" type="matrix" values="0 0 0 0 0 0 0 0 0 0 0 0 0 0 0 0 0 0 127 0" result="hardAlpha"/>
<feOffset dy="4.37285"/>
<feGaussianBlur stdDeviation="6.55928"/>
<feComposite in2="hardAlpha" operator="arithmetic" k2="-1" k3="1"/>
<feColorMatrix type="matrix" values="0 0 0 0 0 0 0 0 0 0 0 0 0 0 0 0 0 0 1 0"/>
<feBlend mode="normal" in2="shape" result="effect1_innerShadow_6175_64941"/>
</filter>
<filter id="filter1_i_6175_64941" x="23.6953" y="8.25757" width="26.1172" height="21.6648" filterUnits="userSpaceOnUse" color-interpolation-filters="sRGB">
<feFlood flood-opacity="0" result="BackgroundImageFix"/>
<feBlend mode="normal" in="SourceGraphic" in2="BackgroundImageFix" result="shape"/>
<feColorMatrix in="SourceAlpha" type="matrix" values="0 0 0 0 0 0 0 0 0 0 0 0 0 0 0 0 0 0 127 0" result="hardAlpha"/>
<feOffset dx="2.14908" dy="1.35126"/>
<feComposite in2="hardAlpha" operator="arithmetic" k2="-1" k3="1"/>
<feColorMatrix type="matrix" values="0 0 0 0 0 0 0 0 0 0 0 0 0 0 0 0 0 0 1 0"/>
<feBlend mode="normal" in2="shape" result="effect1_innerShadow_6175_64941"/>
</filter>
<filter id="filter2_i_6175_64941" x="11.6621" y="44.3616" width="9.22949" height="10.0576" filterUnits="userSpaceOnUse" color-interpolation-filters="sRGB">
<feFlood flood-opacity="0" result="BackgroundImageFix"/>
<feBlend mode="normal" in="SourceGraphic" in2="BackgroundImageFix" result="shape"/>
<feColorMatrix in="SourceAlpha" type="matrix" values="0 0 0 0 0 0 0 0 0 0 0 0 0 0 0 0 0 0 127 0" result="hardAlpha"/>
<feOffset dx="0.864554" dy="0.432277"/>
<feComposite in2="hardAlpha" operator="arithmetic" k2="-1" k3="1"/>
<feColorMatrix type="matrix" values="0 0 0 0 0 0 0 0 0 0 0 0 0 0 0 0 0 0 1 0"/>
<feBlend mode="normal" in2="shape" result="effect1_innerShadow_6175_64941"/>
</filter>
<filter id="filter3_d_6175_64941" x="14.2676" y="45.8911" width="4.95767" height="7.46694" filterUnits="userSpaceOnUse" color-interpolation-filters="sRGB">
<feFlood flood-opacity="0" result="BackgroundImageFix"/>
<feColorMatrix in="SourceAlpha" type="matrix" values="0 0 0 0 0 0 0 0 0 0 0 0 0 0 0 0 0 0 127 0" result="hardAlpha"/>
<feOffset dx="0.432277" dy="0.432277"/>
<feComposite in2="hardAlpha" operator="out"/>
<feColorMatrix type="matrix" values="0 0 0 0 0 0 0 0 0 0 0 0 0 0 0 0 0 0 1 0"/>
<feBlend mode="normal" in2="BackgroundImageFix" result="effect1_dropShadow_6175_64941"/>
<feBlend mode="normal" in="SourceGraphic" in2="effect1_dropShadow_6175_64941" result="shape"/>
</filter>
<filter id="filter4_i_6175_64941" x="41.375" y="49.2544" width="17.7871" height="10.269" filterUnits="userSpaceOnUse" color-interpolation-filters="sRGB">
<feFlood flood-opacity="0" result="BackgroundImageFix"/>
<feBlend mode="normal" in="SourceGraphic" in2="BackgroundImageFix" result="shape"/>
<feColorMatrix in="SourceAlpha" type="matrix" values="0 0 0 0 0 0 0 0 0 0 0 0 0 0 0 0 0 0 127 0" result="hardAlpha"/>
<feOffset dx="1.30097" dy="0.650483"/>
<feComposite in2="hardAlpha" operator="arithmetic" k2="-1" k3="1"/>
<feColorMatrix type="matrix" values="0 0 0 0 0 0 0 0 0 0 0 0 0 0 0 0 0 0 1 0"/>
<feBlend mode="normal" in2="shape" result="effect1_innerShadow_6175_64941"/>
</filter>
<filter id="filter5_d_6175_64941" x="45.8154" y="51.6758" width="11.5256" height="5.09897" filterUnits="userSpaceOnUse" color-interpolation-filters="sRGB">
<feFlood flood-opacity="0" result="BackgroundImageFix"/>
<feColorMatrix in="SourceAlpha" type="matrix" values="0 0 0 0 0 0 0 0 0 0 0 0 0 0 0 0 0 0 127 0" result="hardAlpha"/>
<feOffset dx="1.30097" dy="0.650483"/>
<feComposite in2="hardAlpha" operator="out"/>
<feColorMatrix type="matrix" values="0 0 0 0 0 0 0 0 0 0 0 0 0 0 0 0 0 0 1 0"/>
<feBlend mode="normal" in2="BackgroundImageFix" result="effect1_dropShadow_6175_64941"/>
<feBlend mode="normal" in="SourceGraphic" in2="effect1_dropShadow_6175_64941" result="shape"/>
</filter>
<linearGradient id="paint0_linear_6175_64941" x1="17.5309" y1="0" x2="17.5309" y2="35.0618" gradientUnits="userSpaceOnUse">
<stop stop-color="#595959"/>
<stop offset="1"/>
</linearGradient>
<linearGradient id="paint1_linear_6175_64941" x1="7.05252" y1="0" x2="7.05252" y2="14.105" gradientUnits="userSpaceOnUse">
<stop stop-color="#595959"/>
<stop offset="1"/>
</linearGradient>
<linearGradient id="paint2_linear_6175_64941" x1="10.6125" y1="0" x2="10.6125" y2="21.225" gradientUnits="userSpaceOnUse">
<stop stop-color="#595959"/>
<stop offset="1"/>
</linearGradient>
</defs>
</svg>
