<svg width="18" height="18" viewBox="0 0 18 18" fill="none" xmlns="http://www.w3.org/2000/svg">
<path d="M3.76351 10.883L3.00216 11.3629L3.76351 10.883L1.33792 7.03512L5.562 5.34784C5.76716 5.26589 5.94864 5.13404 6.08999 4.96423C6.08999 4.96423 6.08999 4.96423 6.08999 4.96423L9 1.4683L11.91 4.96423C12.0514 5.13404 12.2328 5.26589 12.438 5.34784L16.6621 7.03512L14.2365 10.883C14.1187 11.0699 14.0494 11.2833 14.0348 11.5037L13.7354 16.0424L9.32632 14.9246C9.11216 14.8703 8.88784 14.8703 8.67368 14.9246L4.26458 16.0424L3.96519 11.5037C3.95065 11.2832 3.88133 11.0699 3.76351 10.883ZM14.2852 16.1818L14.2846 16.1817L14.2852 16.1818ZM3.71476 16.1818C3.71495 16.1818 3.71513 16.1817 3.71532 16.1817L3.71476 16.1818Z" stroke="#111111" stroke-width="1.8"/>
</svg>
