<svg width="16" height="16" viewBox="0 0 16 16" fill="none" xmlns="http://www.w3.org/2000/svg">
<path d="M10.7354 4.30215C10.7354 2.07293 8.92146 0.259033 6.69224 0.259033C4.46302 0.259033 2.64913 2.07192 2.64913 4.30215C2.64913 5.73609 3.40096 6.99823 4.52972 7.71571C2.10142 8.60093 0.362305 10.9342 0.362305 13.6647C0.362305 13.9436 0.588663 14.1699 0.867568 14.1699C1.14647 14.1699 1.37283 13.9436 1.37283 13.6647C1.37283 10.7311 3.75969 8.34527 6.69224 8.34527C8.92146 8.34527 10.7354 6.53137 10.7354 4.30215ZM6.69224 7.33474C5.01982 7.33474 3.65965 5.97457 3.65965 4.30215C3.65965 2.62973 5.01982 1.26956 6.69224 1.26956C8.36466 1.26956 9.72483 2.62973 9.72483 4.30215C9.72483 5.97457 8.36466 7.33474 6.69224 7.33474ZM11.4175 7.98046C9.42167 7.98046 7.79675 9.60438 7.79675 11.6012C7.79675 13.597 9.42066 15.2219 11.4175 15.2219C13.4143 15.2219 15.0382 13.598 15.0382 11.6012C15.0372 9.60539 13.4133 7.98046 11.4175 7.98046ZM8.80727 11.6012C8.80727 10.1622 9.97847 8.99099 11.4175 8.99099C11.9682 8.99099 12.4795 9.16278 12.9009 9.45583L9.18824 12.9563C8.94672 12.5612 8.80727 12.0974 8.80727 11.6012ZM11.4175 14.2114C10.8384 14.2114 10.3039 14.0214 9.87035 13.7021L13.6053 10.1804C13.8812 10.6028 14.028 11.0966 14.0277 11.6012C14.0266 13.0402 12.8565 14.2114 11.4175 14.2114Z" fill="#111111" stroke="#111111" stroke-width="0.4"/>
</svg>
