<svg width="365" height="68" viewBox="0 0 365 68" fill="none" xmlns="http://www.w3.org/2000/svg">
<path fill-rule="evenodd" clip-rule="evenodd" d="M41.2252 67.2881C69.9892 67.2881 82.4505 56.2323 82.4505 33.4647V0.765625H65.5856V33.4647C65.5856 42.553 63.0559 53.1404 41.2252 53.1404C19.3946 53.1404 16.8649 42.6467 16.8649 33.4647V0.765625H0V33.4647C0 56.326 12.3676 67.2881 41.2252 67.2881ZM145.715 0.765625C160.612 0.765625 170.825 10.2287 170.825 24.8449C170.825 39.4611 160.612 48.8305 145.715 48.8305H111.048V66.3512H94.1836V0.765625H145.715ZM141.03 34.6827C146.09 34.6827 153.96 34.6827 153.96 24.8449C153.96 14.9134 146.09 14.9134 141.03 14.9134H111.048V34.6827H141.03ZM259.463 14.9134V0.765625H178.887V14.9134H210.743V66.3512H227.607V14.9134H259.463ZM304.49 33.5584L267.574 66.3512H290.81L315.92 43.8647L340.936 66.3512H364.266L327.351 33.5584L364.266 0.765625H340.936L315.92 23.2521L290.81 0.765625H267.574L304.49 33.5584Z" fill="#232222"/>
</svg>
