<svg width="343" height="90" viewBox="0 0 343 90" fill="none" xmlns="http://www.w3.org/2000/svg">
<rect x="0.5" y="0.5" width="342" height="89" rx="7.5" stroke="#EEEEEE"/>
<path opacity="0.6" d="M20.55 16.91H24.52C24.35 16.55 24.17 16.21 23.97 15.91L25.03 15.73C25.22 16.08 25.4 16.47 25.57 16.91H29.46V17.82H20.55V16.91ZM26.65 17.94C27.76 18.8 28.69 19.66 29.45 20.52L28.75 21.22C28.1 20.4 27.18 19.52 26 18.57L26.65 17.94ZM26.57 19.83L27.45 20.22C26.99 21.09 26.44 21.85 25.78 22.51C26.82 23.23 28.09 23.77 29.59 24.14L29 25.03C27.44 24.59 26.12 23.97 25.04 23.16C23.94 24.02 22.61 24.66 21.05 25.07L20.47 24.19C21.97 23.82 23.24 23.26 24.27 22.52C23.59 21.89 23.02 21.17 22.57 20.36L23.39 19.89C23.8 20.65 24.34 21.33 25.01 21.91C25.65 21.31 26.17 20.61 26.57 19.83ZM23.28 17.95L23.97 18.56C23.21 19.56 22.27 20.42 21.15 21.16L20.53 20.36C21.62 19.68 22.54 18.87 23.28 17.95ZM33.13 19.82H31.89V16.12H38.16V19.82H34.23C34.08 20.04 33.91 20.26 33.73 20.46H38.91C38.88 21.56 38.82 22.44 38.73 23.12C38.63 23.78 38.48 24.25 38.27 24.51C38.06 24.77 37.72 24.91 37.24 24.93H35.85L35.6 24.04C36.01 24.06 36.4 24.08 36.78 24.08C37.23 24.08 37.53 23.91 37.67 23.57C37.81 23.21 37.91 22.46 37.95 21.3H37.17C36.31 23.17 34.95 24.41 33.09 25.01L32.55 24.22C34.22 23.7 35.44 22.72 36.2 21.3H35.12C34.42 22.38 33.31 23.23 31.77 23.85L31.16 23.11C32.49 22.63 33.47 22.03 34.1 21.3H32.8C32.32 21.66 31.77 21.98 31.16 22.26L30.64 21.42C31.75 20.99 32.58 20.46 33.13 19.82ZM37.23 19.02V18.34H32.82V19.02H37.23ZM32.82 17.59H37.23V16.93H32.82V17.59ZM48.45 19.38V23.17H47.51V20.25H42.5V23.32H41.56V19.38H48.45ZM42.15 16.1H47.86V18.77H42.15V16.1ZM46.94 17.95V16.94H43.07V17.95H46.94ZM44.61 20.77L45.57 20.86C45.43 22.36 45.12 23.36 44.64 23.86C44.14 24.48 42.92 24.89 40.99 25.07L40.62 24.2C42.23 24.12 43.3 23.82 43.82 23.3C44.27 22.81 44.53 21.97 44.61 20.77ZM45.79 23.03C47.09 23.38 48.27 23.8 49.35 24.29L48.83 25.08C47.69 24.51 46.52 24.06 45.32 23.74L45.79 23.03ZM54.2 16.36H59.08V17.29H54.2V16.36ZM53.95 18.86H59.51V19.79H57.95V24.03C57.95 24.67 57.59 24.99 56.88 24.99H55.43L55.22 24.06C55.68 24.1 56.13 24.12 56.55 24.12C56.84 24.12 56.99 24.01 56.99 23.8V19.79H53.95V18.86ZM52.5 15.87L53.37 16.27C52.83 17.37 51.93 18.35 50.65 19.23L50.36 18.28C51.33 17.59 52.04 16.79 52.5 15.87ZM52.97 18.16L53.83 18.56C53.56 19.1 53.22 19.61 52.81 20.09V25.03H51.88V21.02C51.52 21.33 51.14 21.63 50.72 21.92L50.44 20.98C51.58 20.18 52.43 19.24 52.97 18.16ZM61.94 16.03C62.52 16.61 62.96 17.13 63.28 17.59L62.54 18.1C62.2 17.63 61.76 17.11 61.22 16.55L61.94 16.03ZM65.53 20.23C66.22 20.99 66.75 21.66 67.13 22.23L66.29 22.81C65.91 22.18 65.41 21.48 64.77 20.71L65.53 20.23ZM64 15.8H64.93V17.21C64.92 17.55 64.9 17.88 64.88 18.2H68.97C68.97 21.12 68.84 22.97 68.59 23.77C68.32 24.57 67.85 24.97 67.17 24.97C66.65 24.97 66.22 24.95 65.87 24.92L65.62 24C66.16 24.05 66.66 24.08 67.11 24.08C67.57 24.04 67.83 23.51 67.9 22.49C67.96 21.46 68 20.34 68 19.13H64.79C64.63 20.38 64.34 21.43 63.93 22.28C63.34 23.45 62.37 24.35 61.01 24.99L60.48 24.15C61.82 23.47 62.73 22.61 63.21 21.56C63.5 20.87 63.71 20.06 63.85 19.13H60.82V18.2H63.95C63.97 17.88 63.99 17.55 64 17.21V15.8ZM71.26 16.07C71.91 16.96 72.41 17.74 72.75 18.41L71.96 18.95C71.59 18.24 71.09 17.45 70.45 16.57L71.26 16.07ZM71.92 20.46L72.78 20.8C72.36 22.28 71.88 23.68 71.36 24.98L70.46 24.59C71.02 23.24 71.51 21.86 71.92 20.46ZM74.59 20.36V21.5H76.43V20.36H74.59ZM74.59 22.37V23.61H76.43V22.37H74.59ZM74.59 24.49V25.04H73.66V19.47C73.4 19.85 73.14 20.22 72.86 20.57L72.55 19.59C73.38 18.43 73.97 17.17 74.31 15.79L75.22 15.97C75.08 16.47 74.92 16.95 74.73 17.43H76.58C76.43 16.93 76.25 16.44 76.05 15.97L76.96 15.71C77.18 16.35 77.36 16.92 77.48 17.43H79.35V18.33H77.35V19.48H79.14V20.36H77.35V21.5H79.16V22.37H77.35V23.61H79.56V24.49H74.59ZM76.43 18.33H74.59V19.48H76.43V18.33ZM85.36 16.14V22.43H84.44V17.05H81.82V22.52H80.9V16.14H85.36ZM84.06 22.66C84.72 23.2 85.27 23.74 85.72 24.28L85 24.99C84.62 24.47 84.08 23.91 83.4 23.31L84.06 22.66ZM82.68 17.64H83.6V20.77C83.56 21.95 83.32 22.89 82.9 23.59C82.47 24.24 81.79 24.75 80.85 25.11L80.31 24.26C81.21 23.92 81.83 23.48 82.15 22.96C82.47 22.4 82.64 21.67 82.68 20.77V17.64ZM86.3 16.67H87.22V22.85H86.3V16.67ZM88.21 24.93H86.84L86.62 24.01C87.06 24.04 87.48 24.06 87.88 24.06C88.17 24.06 88.32 23.91 88.32 23.63V15.83H89.26V23.87C89.26 24.57 88.91 24.93 88.21 24.93Z" fill="#111111"/>
<path d="M20.756 39.018H26.23C26.006 38.542 25.754 38.094 25.474 37.674L27.112 37.394C27.364 37.884 27.616 38.43 27.854 39.018H33.258V40.404H20.756V39.018ZM29.352 40.488C30.892 41.678 32.208 42.868 33.272 44.058L32.194 45.15C31.298 44.002 30.01 42.77 28.358 41.44L29.352 40.488ZM29.142 43.134L30.486 43.736C29.856 44.94 29.086 45.99 28.19 46.886C29.618 47.852 31.382 48.594 33.454 49.112L32.544 50.484C30.388 49.882 28.554 49.014 27.056 47.894C25.516 49.098 23.682 49.966 21.526 50.526L20.616 49.182C22.688 48.678 24.438 47.908 25.866 46.9C24.942 46.032 24.158 45.038 23.542 43.932L24.802 43.218C25.362 44.254 26.09 45.164 27 45.962C27.868 45.136 28.582 44.198 29.142 43.134ZM24.55 40.502L25.614 41.426C24.55 42.826 23.22 44.03 21.652 45.066L20.714 43.834C22.226 42.882 23.514 41.776 24.55 40.502ZM38.256 43.204H36.604V37.926H45.466V43.204H39.964C39.768 43.484 39.558 43.764 39.334 44.016H46.53C46.488 45.556 46.404 46.802 46.278 47.754C46.138 48.692 45.914 49.35 45.62 49.728C45.326 50.092 44.85 50.288 44.178 50.316H42.176L41.812 48.944C42.386 48.986 42.946 49.014 43.478 49.014C44.08 49.014 44.472 48.776 44.668 48.328C44.864 47.852 44.99 46.844 45.046 45.304H44.052C42.848 47.88 40.944 49.602 38.368 50.442L37.542 49.21C39.81 48.51 41.476 47.208 42.54 45.304H41.182C40.202 46.788 38.648 47.964 36.52 48.818L35.596 47.684C37.388 47.054 38.718 46.256 39.586 45.304H37.906C37.234 45.78 36.492 46.214 35.666 46.606L34.868 45.318C36.366 44.758 37.5 44.044 38.256 43.204ZM44.024 41.972V41.132H38.046V41.972H44.024ZM38.046 39.984H44.024V39.158H38.046V39.984ZM59.872 42.49V47.824H58.416V43.82H51.598V48.048H50.142V42.49H59.872ZM50.968 37.884H59.046V41.706H50.968V37.884ZM57.632 40.446V39.172H52.382V40.446H57.632ZM54.384 44.478L55.868 44.618C55.672 46.746 55.238 48.146 54.566 48.832C53.866 49.7 52.158 50.274 49.414 50.526L48.84 49.196C51.08 49.084 52.564 48.678 53.292 47.978C53.922 47.306 54.286 46.13 54.384 44.478ZM56.148 47.614C57.954 48.09 59.606 48.65 61.118 49.322L60.334 50.54C58.738 49.756 57.1 49.14 55.42 48.692L56.148 47.614ZM64.268 41.524H68.272V40.866H69.728V41.524H73.676V42.784H69.728V43.736H75.272V44.996H72.738V45.99H74.67V47.264H72.738V49.07C72.738 49.994 72.22 50.456 71.198 50.456H69.252L68.93 49.084C69.56 49.14 70.148 49.182 70.708 49.182C71.086 49.182 71.282 49.028 71.282 48.72V47.264H63.54V45.99H71.282V44.996H62.714V43.736H68.272V42.784H64.268V41.524ZM66.158 47.404C66.858 48.104 67.39 48.734 67.782 49.266L66.634 50.064C66.228 49.476 65.682 48.846 64.982 48.146L66.158 47.404ZM65.038 39.62C64.73 40.236 64.366 40.81 63.974 41.314L62.7 40.516C63.512 39.536 64.072 38.486 64.408 37.394L65.794 37.702C65.71 37.954 65.64 38.178 65.556 38.402H68.804V39.62H66.718C66.998 39.998 67.236 40.362 67.432 40.698L66.116 41.188C65.85 40.642 65.542 40.124 65.192 39.62H65.038ZM70.708 39.578C70.484 40.012 70.246 40.418 69.994 40.782L68.776 40.04C69.378 39.2 69.798 38.318 70.036 37.38L71.408 37.674C71.338 37.912 71.268 38.136 71.198 38.36H74.922V39.578H72.794C73.074 39.97 73.312 40.334 73.494 40.684L72.22 41.174C71.94 40.614 71.632 40.082 71.268 39.578H70.708ZM80.872 47.236V48.44C82.104 46.424 82.734 43.568 82.762 39.844V39.312H81.544V37.94H87.942V38.85C87.732 39.984 87.522 40.964 87.312 41.804H89.02V42.616C88.712 44.506 88.11 46.088 87.214 47.376C87.914 48.062 88.698 48.678 89.594 49.224L88.67 50.47C87.774 49.868 86.99 49.196 86.318 48.468C85.492 49.308 84.512 49.98 83.392 50.498L82.58 49.168C83.672 48.636 84.596 47.992 85.338 47.236C84.708 46.326 84.204 45.332 83.826 44.254C83.378 46.886 82.51 48.944 81.236 50.428L80.13 49.462C80.34 49.21 80.536 48.944 80.732 48.664C79.528 49.126 78.184 49.504 76.686 49.784L76.49 48.356C78.156 48.076 79.612 47.712 80.872 47.236ZM86.192 46.214C86.836 45.29 87.298 44.24 87.564 43.078H85.632C85.87 42.21 86.136 40.95 86.444 39.312H84.19V39.844C84.19 40.46 84.162 41.062 84.134 41.622C84.498 43.358 85.184 44.898 86.192 46.214ZM78.926 37.45L80.326 38.01C79.654 39.578 78.968 40.88 78.268 41.902C78.744 41.846 79.22 41.79 79.71 41.72C79.962 41.272 80.242 40.782 80.522 40.264L81.796 40.754C80.62 42.784 79.64 44.282 78.842 45.248C79.682 45.08 80.536 44.87 81.404 44.604V45.92C79.864 46.382 78.422 46.69 77.05 46.844L76.672 45.528C76.924 45.43 77.148 45.29 77.33 45.108C77.75 44.716 78.282 44.016 78.912 43.036C78.268 43.12 77.582 43.218 76.882 43.302L76.532 41.972C76.756 41.888 76.952 41.706 77.134 41.44C77.82 40.236 78.422 38.906 78.926 37.45ZM92.03 43.512C91.68 43.974 91.316 44.422 90.924 44.87L90.476 43.414C91.82 41.706 92.828 39.718 93.472 37.422L94.788 38.038C94.452 39.158 94.004 40.222 93.472 41.244V50.47H92.03V43.512ZM94.396 39.69H97.854V37.478H99.296V39.69H102.95V41.09H100.374C100.99 43.218 102.04 45.122 103.51 46.802L102.558 48.006C101.018 46.018 99.926 43.792 99.296 41.342V46.34H101.228V47.74H99.296V50.47H97.854V47.74H95.978V46.34H97.854V41.356C97.154 44.114 96.006 46.382 94.438 48.174L93.682 46.914C95.082 45.388 96.104 43.442 96.762 41.09H94.396V39.69ZM110.524 50.414H108.928L108.592 48.986C109.082 49.042 109.558 49.084 110.02 49.084C110.286 49.084 110.426 48.93 110.426 48.636V45.668C109.11 45.752 107.696 45.836 106.156 45.906L105.75 44.632C106.212 44.59 106.632 44.506 107.01 44.366C107.976 43.946 109.054 43.316 110.23 42.462C109.138 42.546 107.976 42.616 106.772 42.686L106.478 41.412C106.828 41.37 107.15 41.286 107.458 41.146C107.948 40.908 108.55 40.39 109.278 39.578C108.186 39.606 107.066 39.634 105.89 39.634L105.47 38.374C109.474 38.374 112.876 38.108 115.676 37.59L116.39 38.808C114.892 39.116 113.128 39.34 111.084 39.48C110.412 40.264 109.698 40.936 108.956 41.468C109.88 41.412 110.818 41.342 111.742 41.272C112.316 40.796 112.904 40.278 113.52 39.718L114.864 40.376C112.694 42.238 110.804 43.638 109.208 44.562C111.028 44.436 112.638 44.296 114.01 44.128C113.716 43.736 113.408 43.344 113.1 42.952L114.178 42.28C115.34 43.638 116.236 44.828 116.852 45.85L115.69 46.648C115.438 46.2 115.144 45.752 114.836 45.29C113.94 45.388 112.96 45.472 111.896 45.556V49C111.896 49.938 111.434 50.414 110.524 50.414ZM113.772 46.144C115.144 47.152 116.306 48.146 117.244 49.14L116.208 50.176C115.41 49.224 114.276 48.188 112.806 47.082L113.772 46.144ZM108.074 46.242L109.096 47.152C108.158 48.286 106.996 49.28 105.596 50.12L104.686 48.93C106.03 48.16 107.15 47.264 108.074 46.242ZM130.964 38.304V49.868H129.536V48.86H126.666V50.036H125.252V38.304H130.964ZM126.666 47.488H129.536V39.662H126.666V47.488ZM118.938 41.202H121.234V39.648C120.618 39.746 119.988 39.816 119.372 39.858L118.896 38.556C121.08 38.374 122.83 38.038 124.118 37.548L124.804 38.752C124.09 39.004 123.362 39.228 122.634 39.396V41.202H124.874V42.56H122.634V43.064C123.418 43.722 124.202 44.478 125 45.318L124.146 46.592C123.558 45.724 123.054 45.024 122.634 44.492V50.302H121.234V44.856C120.674 45.976 119.988 46.998 119.162 47.936L118.532 46.326C119.75 45.234 120.646 44.002 121.234 42.63V42.56H118.938V41.202ZM139.448 44.002V45.402H141.492V44.002H139.448ZM139.448 46.76V48.356H141.492V46.76H139.448ZM139.448 49.756V50.386H138.006V42.784C137.726 43.148 137.446 43.512 137.166 43.862L136.942 43.162V44.618C136.564 44.786 136.186 44.954 135.808 45.108V48.818C135.808 49.77 135.304 50.26 134.324 50.26H133.064L132.742 48.846C133.12 48.902 133.484 48.944 133.82 48.944C134.156 48.944 134.338 48.776 134.338 48.44V45.654C133.834 45.822 133.316 45.99 132.798 46.13L132.434 44.646C133.078 44.52 133.708 44.366 134.338 44.17V41.342H132.7V39.928H134.338V37.506H135.808V39.928H137.054V41.342H135.808V43.638C136.2 43.47 136.564 43.302 136.928 43.12L136.676 42.336C137.768 40.88 138.524 39.27 138.972 37.52L140.4 37.8C140.204 38.472 139.98 39.116 139.714 39.746H141.674C141.464 39.102 141.226 38.458 140.946 37.842L142.36 37.464C142.654 38.29 142.892 39.046 143.06 39.746H145.146V41.146H142.934V42.63H144.866V44.002H142.934V45.402H144.866V46.76H142.934V48.356H145.3V49.756H139.448ZM141.492 41.146H139.448V42.63H141.492V41.146ZM146.854 38.346H149.892V37.506H151.376V38.346H154.624V37.506H156.108V38.346H159.146V39.676H156.108V40.544H154.624V39.676H151.376V40.376L152.79 40.642C152.706 40.866 152.622 41.09 152.538 41.3H159.076V42.63H151.88C151.46 43.33 150.984 44.002 150.424 44.618V50.484H149.01V45.99C148.52 46.396 148.002 46.788 147.47 47.152L146.56 45.948C148.072 44.968 149.276 43.862 150.172 42.63H147.092V41.3H150.97C151.096 41.034 151.208 40.782 151.32 40.53H149.892V39.676H146.854V38.346ZM154.792 45.514C155.1 45.304 155.548 45.024 156.136 44.674H152.104V43.358H158.25V44.394C157.676 44.828 157.018 45.318 156.262 45.878V46.102H159.132V47.474H156.262V49.154C156.262 50.022 155.828 50.456 154.974 50.456H153.252L152.832 49.042C153.49 49.098 154.008 49.14 154.4 49.14C154.652 49.14 154.792 49 154.792 48.748V47.474H151.138V46.102H154.792V45.514ZM162.31 40.614H167.77L166.748 39.956C167.434 39.158 167.924 38.304 168.204 37.408L169.604 37.716C169.534 37.912 169.464 38.094 169.394 38.276H173.076V39.508H171.102C171.256 39.732 171.396 39.956 171.508 40.152L170.332 40.6C170.136 40.222 169.912 39.858 169.66 39.508H168.806C168.568 39.9 168.316 40.278 168.036 40.614H171.858V46.382H170.248V47.04H173.258V48.3H170.248V50.484H168.806V48.3H165.18C165.04 48.636 164.858 48.944 164.648 49.196C164.158 49.756 163.36 50.19 162.268 50.498L161.526 49.336C162.492 49.07 163.15 48.748 163.486 48.37C163.5 48.342 163.514 48.328 163.528 48.3H160.742V47.04H164.004C164.018 46.942 164.032 46.858 164.032 46.774V46.382H162.31V40.614ZM165.488 46.382V46.774C165.488 46.858 165.474 46.956 165.474 47.04H168.806V46.382H165.488ZM170.43 45.29V44.73H163.738V45.29H170.43ZM163.738 43.736H170.43V43.232H163.738V43.736ZM163.738 42.238H170.43V41.72H163.738V42.238ZM163.024 39.578C162.702 40.096 162.352 40.572 161.96 41.02L160.756 40.25C161.596 39.354 162.184 38.402 162.534 37.38L163.92 37.688C163.836 37.912 163.738 38.136 163.654 38.346H166.818V39.578H165.376C165.516 39.774 165.642 39.956 165.754 40.138L164.564 40.586C164.382 40.236 164.172 39.9 163.934 39.578H163.024ZM181.924 37.534H183.408V39.606H186.852V41.02H183.408V43.19H187.216V44.618H182.68C181.924 46.41 181.238 47.74 180.65 48.608C182.106 48.44 183.562 48.202 185.004 47.908C184.654 47.18 184.304 46.522 183.94 45.906L185.354 45.43C186.166 46.83 186.88 48.314 187.496 49.91L186.11 50.526C185.928 50.05 185.746 49.602 185.578 49.182C183.492 49.602 181.238 49.924 178.802 50.162L178.48 48.888C178.62 48.846 178.718 48.804 178.788 48.762C179.376 48.23 180.16 46.858 181.112 44.618H178.088V43.19H181.924V41.02H178.76V39.606H181.924V37.534ZM175.96 37.618C176.856 38.318 177.612 39.004 178.242 39.69L177.206 40.74C176.674 40.082 175.904 39.382 174.91 38.626L175.96 37.618ZM175.61 40.894C176.436 41.594 177.136 42.294 177.724 42.994L176.674 44.03C176.184 43.386 175.484 42.672 174.574 41.902L175.61 40.894ZM176.87 44.856L178.2 45.402C177.598 47.152 176.926 48.804 176.198 50.344L174.728 49.7C175.554 48.132 176.268 46.508 176.87 44.856ZM190.604 41.972V43.47H193.376V41.972H190.604ZM193.376 40.67V39.256H190.604V40.67H193.376ZM189.064 50.078L188.56 48.678C188.966 48.538 189.176 48.286 189.176 47.936V37.94H194.748V44.828H190.604V48.202C191.584 47.922 192.466 47.614 193.278 47.306C193.068 46.942 192.858 46.592 192.634 46.242L193.74 45.542C194.594 46.858 195.252 48.006 195.714 48.986L194.58 49.784C194.384 49.364 194.188 48.944 193.964 48.524C192.522 49.112 190.884 49.63 189.064 50.078ZM199.438 48.552H198.374L197.982 47.138L198.948 47.194C199.34 47.194 199.55 46.998 199.55 46.62V39.34H197.576V50.428H196.12V37.968H201.006V46.956C201.006 48.02 200.474 48.552 199.438 48.552ZM207.32 44.128H212.486V42.882H213.942V44.128H215.482V45.542H213.942V48.958C213.942 49.924 213.424 50.414 212.388 50.414H210.526L210.204 49.014C210.792 49.07 211.352 49.112 211.884 49.112C212.276 49.112 212.486 48.93 212.486 48.594V45.542H207.32V44.128ZM205.318 37.492H206.802V50.456H205.318V46.256C204.52 47.012 203.764 47.642 203.064 48.118L202.42 46.704C203.232 46.2 204.198 45.458 205.318 44.478V37.492ZM209.364 45.794C210.092 46.606 210.666 47.306 211.072 47.894L209.924 48.692C209.518 48.034 208.972 47.292 208.3 46.466L209.364 45.794ZM210.232 39.732C209.616 40.404 208.86 40.978 207.95 41.454L207.012 40.306C208.468 39.606 209.434 38.654 209.938 37.478L211.45 37.758C211.352 37.982 211.254 38.206 211.156 38.402H215.062V39.648C214.362 41.664 212.15 43.064 208.398 43.862L207.67 42.56C208.65 42.364 209.504 42.14 210.246 41.888C209.91 41.58 209.574 41.314 209.238 41.076L210.26 40.292C210.708 40.628 211.114 40.978 211.506 41.342C212.388 40.88 213.032 40.348 213.438 39.732H210.232ZM203.722 39.088C204.296 40.068 204.786 41.104 205.206 42.196L203.918 42.728C203.47 41.538 202.98 40.488 202.448 39.592L203.722 39.088ZM221.586 37.506H223.098V41.664H228.278V43.078H223.098V48.552H229.314V49.98H216.728V48.552H221.586V37.506ZM235.558 47.39V48.762C234.186 49.28 232.632 49.7 230.882 50.022L230.7 48.594C232.548 48.286 234.172 47.894 235.558 47.39ZM232.772 37.408L234.172 37.968C233.528 39.606 232.884 40.95 232.226 41.986L233.57 41.818C233.794 41.342 234.046 40.852 234.298 40.32L235.6 40.824C234.508 42.938 233.57 44.492 232.814 45.5C233.668 45.318 234.536 45.08 235.418 44.772V46.074C233.892 46.592 232.45 46.942 231.092 47.11L230.714 45.794C230.966 45.682 231.19 45.542 231.372 45.374C231.764 44.954 232.268 44.198 232.87 43.134L230.882 43.4L230.532 42.07C230.756 41.972 230.952 41.79 231.134 41.538C231.764 40.278 232.31 38.906 232.772 37.408ZM242.376 39.83L242.586 41.174L239.128 41.65C239.142 42.168 239.17 42.658 239.226 43.12L242.754 42.574L242.978 43.946L239.394 44.506C239.394 44.604 239.408 44.702 239.436 44.8C239.548 45.43 239.688 45.99 239.856 46.494C240.458 45.906 241.004 45.234 241.494 44.506L242.656 45.29C241.97 46.284 241.242 47.138 240.472 47.852C240.85 48.412 241.186 48.706 241.494 48.706C241.802 48.706 242.054 48.076 242.25 46.816L243.496 47.628C243.076 49.42 242.474 50.316 241.662 50.316C240.934 50.302 240.262 49.868 239.632 49.028C239.548 48.916 239.464 48.818 239.408 48.72C238.428 49.42 237.378 49.938 236.272 50.274L235.418 49.098C236.65 48.706 237.756 48.16 238.736 47.446C238.484 46.872 238.288 46.242 238.134 45.57C238.064 45.29 238.008 45.01 237.966 44.73L235.614 45.094L235.404 43.722L237.77 43.344C237.714 42.868 237.686 42.364 237.658 41.86L235.852 42.112L235.642 40.768L237.63 40.488V37.492H239.1V40.292L242.376 39.83ZM240.668 37.436C241.326 38.066 241.844 38.612 242.208 39.06L241.06 39.858C240.696 39.34 240.192 38.766 239.562 38.136L240.668 37.436ZM246.716 46.886C247.094 46.886 247.416 47.04 247.668 47.348C247.906 47.656 248.032 48.062 248.032 48.552C248.032 49.294 247.808 49.938 247.388 50.498C246.954 51.044 246.366 51.422 245.638 51.632V50.708C246.016 50.568 246.338 50.344 246.604 50.036C246.842 49.7 246.968 49.378 246.968 49.042C246.884 49.07 246.772 49.098 246.618 49.098C246.31 49.098 246.058 48.986 245.848 48.776C245.638 48.566 245.54 48.3 245.54 47.992C245.54 47.656 245.652 47.39 245.876 47.194C246.086 46.984 246.366 46.886 246.716 46.886ZM26.384 59.248V67.62L27.238 67.354V68.74C25.39 69.356 23.262 69.916 20.868 70.448L20.462 69.048L21.428 68.852V59.248H26.384ZM22.87 68.544C23.598 68.376 24.298 68.194 24.97 68.026V66.458H22.87V68.544ZM22.87 65.156H24.97V63.462H22.87V65.156ZM22.87 62.146H24.97V60.578H22.87V62.146ZM28.568 58.562H30.024V61.222H33.048C33.048 65.842 32.978 68.698 32.838 69.79C32.67 70.826 31.956 71.344 30.668 71.344C30.444 71.344 30.052 71.316 29.506 71.274L29.156 70C29.646 70.028 30.066 70.056 30.43 70.056C31.018 70.056 31.368 69.748 31.466 69.132C31.55 68.502 31.592 66.332 31.62 62.622H30.024V62.734C29.982 66.766 29.016 69.706 27.126 71.568L26.02 70.588C27.686 68.964 28.54 66.346 28.568 62.734V62.622H27.028V61.222H28.568V58.562ZM42.134 66.402H41.042L40.72 65.058C41.056 65.114 41.364 65.156 41.658 65.156C41.868 65.156 41.98 64.974 41.98 64.61V61.474H43.436V64.96C43.436 65.912 43.002 66.402 42.134 66.402ZM36.184 62.86C35.89 63.168 35.596 63.448 35.316 63.714L34.392 62.594C35.54 61.642 36.534 60.27 37.402 58.492L38.83 58.814C38.452 59.612 38.046 60.354 37.612 61.026V66.36H36.184V62.86ZM40.566 58.478L41.952 58.8C41.812 59.094 41.672 59.374 41.532 59.654H46.978V60.55C46.796 61.25 46.572 61.936 46.292 62.622L45.004 62.258C45.2 61.88 45.382 61.446 45.522 60.97H40.734C40.216 61.726 39.656 62.37 39.054 62.93L38.158 61.838C39.082 61.04 39.88 59.92 40.566 58.478ZM35.918 66.948L37.332 67.228C36.996 68.628 36.52 69.832 35.904 70.868L34.672 70.07C35.26 69.09 35.666 68.04 35.918 66.948ZM43.03 71.26H39.502C38.494 71.26 38.004 70.714 38.004 69.636V66.836H39.488V69.328C39.488 69.692 39.642 69.874 39.95 69.874H42.764C42.988 69.874 43.156 69.79 43.282 69.636C43.422 69.468 43.506 68.992 43.548 68.18L44.934 68.628C44.822 69.916 44.612 70.672 44.304 70.91C44.024 71.134 43.604 71.26 43.03 71.26ZM45.578 66.43C46.46 67.662 47.132 68.726 47.608 69.65L46.39 70.504C45.886 69.496 45.228 68.39 44.388 67.172L45.578 66.43ZM40.188 62.65L41.35 63.224C40.846 64.288 40.258 65.198 39.558 65.982L38.452 65.198C39.124 64.484 39.712 63.63 40.188 62.65ZM45.228 62.636C45.9 63.462 46.488 64.372 47.006 65.38L45.76 66.024C45.228 64.96 44.654 64.008 44.024 63.182L45.228 62.636ZM41.406 66.472C42.05 67.228 42.554 67.9 42.89 68.488L41.756 69.272C41.392 68.642 40.902 67.942 40.286 67.172L41.406 66.472ZM48.784 59.43H51.892V58.422H53.376V59.43H56.624V58.422H58.108V59.43H61.216V60.76H58.108V61.642H56.624V60.76H53.376V61.642H51.892V60.76H48.784V59.43ZM52.466 61.824L53.698 62.58C53.264 63.154 52.816 63.644 52.368 64.064C53.04 65.24 53.376 66.668 53.376 68.362C53.376 69.608 53.166 70.476 52.76 70.966C52.48 71.246 52.046 71.4 51.486 71.4C50.926 71.4 50.492 71.386 50.156 71.358L49.75 70.028C50.184 70.084 50.646 70.126 51.136 70.126C51.444 70.126 51.654 70.014 51.78 69.818C51.906 69.608 51.976 69.09 51.99 68.264C51.99 67.956 51.976 67.676 51.948 67.424C51.262 68.068 50.478 68.6 49.582 69.048L48.784 67.844C50.002 67.312 50.968 66.668 51.682 65.94C51.57 65.562 51.444 65.226 51.276 64.918C50.744 65.268 50.114 65.646 49.358 66.038L48.602 64.792C49.274 64.54 49.904 64.204 50.492 63.784C50.114 63.392 49.694 63.056 49.218 62.79L50.282 61.88C50.758 62.188 51.178 62.524 51.528 62.916C51.864 62.58 52.172 62.216 52.466 61.824ZM53.782 64.148H56.498C56.526 63.196 56.54 62.468 56.54 61.964H57.996C57.996 62.58 57.982 63.308 57.968 64.148H61.02V65.52H58.094C58.682 67.578 59.774 69.174 61.384 70.308L60.39 71.414C58.948 70.266 57.968 68.866 57.436 67.214C56.806 68.922 55.812 70.35 54.454 71.47L53.488 70.392C55.14 68.964 56.106 67.34 56.4 65.52H53.782V64.148ZM59.424 61.656C60.04 62.286 60.502 62.846 60.838 63.322L59.746 64.078C59.41 63.546 58.934 62.958 58.346 62.314L59.424 61.656ZM64.268 65.996C63.848 66.36 63.414 66.696 62.952 67.032L62.518 65.646C63.904 64.61 64.926 63.406 65.598 62.034L66.858 62.622C66.55 63.294 66.158 63.924 65.682 64.512V71.484H64.268V65.996ZM65.556 58.464L66.774 59.052C66.018 60.564 64.73 61.95 62.896 63.182L62.448 61.768C63.848 60.83 64.884 59.724 65.556 58.464ZM67.488 58.926H74.376V63.658H67.488V58.926ZM72.976 62.51V61.824H68.874V62.51H72.976ZM68.874 60.746H72.976V60.074H68.874V60.746ZM66.942 64.386H75.132V65.646H73.578V66.416H75.454V67.69H73.578V70.014C73.578 70.91 73.102 71.372 72.15 71.372H70.624L70.316 70C70.792 70.056 71.226 70.098 71.646 70.098C71.968 70.098 72.136 69.944 72.136 69.664V67.69H66.438V66.416H72.136V65.646H66.942V64.386ZM68.692 67.816C69.448 68.572 70.022 69.258 70.414 69.846L69.308 70.602C68.902 69.986 68.342 69.314 67.642 68.572L68.692 67.816ZM76.91 58.94H89.104V60.312H83.728V61.166H87.97V67.018H83.518C83.378 67.76 83.154 68.39 82.86 68.894C84.764 69.622 86.99 70.014 89.566 70.098L89.188 71.512C86.402 71.386 83.98 70.868 81.922 69.972C80.914 70.756 79.318 71.26 77.162 71.498L76.518 70.154C78.254 70.07 79.57 69.762 80.466 69.244C79.752 68.852 79.094 68.404 78.492 67.9L79.612 67.13C80.172 67.564 80.802 67.956 81.488 68.306C81.726 67.942 81.908 67.508 82.02 67.018H78.058V61.166H82.272V60.312H76.91V58.94ZM86.528 65.744V64.68H83.728V64.946L83.686 65.744H86.528ZM82.23 65.744C82.258 65.478 82.272 65.212 82.272 64.946V64.68H79.514V65.744H82.23ZM79.514 63.49H82.272V62.426H79.514V63.49ZM83.728 62.426V63.49H86.528V62.426H83.728ZM96.748 58.422L98.05 59.108C97.896 59.276 97.742 59.444 97.588 59.598H101.214V60.732C99.702 63.42 96.902 64.946 92.8 65.296L92.198 63.966C93.318 63.91 94.326 63.756 95.236 63.532C94.858 63.07 94.466 62.664 94.074 62.3L95.334 61.684C95.782 62.118 96.202 62.58 96.608 63.07C97.84 62.552 98.82 61.824 99.534 60.886H95.908C94.83 61.516 93.556 61.992 92.086 62.314L91.232 60.984C93.696 60.536 95.544 59.682 96.748 58.422ZM96.65 67.172C97.126 67.648 97.574 68.166 98.022 68.726C99.324 68.152 100.374 67.368 101.172 66.374H97.462C96.258 66.934 94.844 67.368 93.206 67.704L92.352 66.402C95.404 66.122 97.63 65.226 99.058 63.728L100.304 64.4C100.08 64.624 99.842 64.848 99.59 65.058H103.062V66.192C101.046 69.454 97.322 71.162 91.862 71.302L91.26 69.902C93.318 69.902 95.11 69.678 96.636 69.23C96.216 68.698 95.796 68.222 95.362 67.802L96.65 67.172ZM109.74 58.842H116.6V62.762H115.354V63.308H117.076V64.344H115.354V64.988H117.3V66.08H115.564C116.04 66.57 116.712 67.018 117.594 67.41L116.698 68.516C116.306 68.264 115.956 67.998 115.662 67.746C115.326 68.04 114.948 68.306 114.542 68.558L113.898 67.718V70.238C113.898 71.008 113.492 71.4 112.694 71.4H111.63L111.322 70.112C111.63 70.154 111.938 70.182 112.232 70.182C112.4 70.182 112.498 70.084 112.498 69.916V66.444H113.898V67.662C114.262 67.438 114.584 67.214 114.864 66.962C114.612 66.668 114.402 66.374 114.234 66.08H112.162C111.91 66.444 111.63 66.78 111.308 67.088C111.616 67.312 111.882 67.55 112.134 67.774L111.364 68.544C111.112 68.306 110.79 68.054 110.398 67.774C110.104 67.942 109.796 68.11 109.488 68.278L108.788 67.13C109.614 66.85 110.258 66.5 110.734 66.08H108.97V64.988H111.07V64.344H109.362V63.308H111.07V62.762H109.74V58.842ZM112.386 64.988H114.052V64.344H112.386V64.988ZM112.386 63.308H114.052V62.762H112.386V63.308ZM115.354 61.782V61.25H111V61.782H115.354ZM111 60.368H115.354V59.836H111V60.368ZM111.966 68.516L112.26 69.496C111.518 70 110.594 70.462 109.488 70.868L108.942 69.594C110.118 69.3 111.126 68.936 111.966 68.516ZM114.584 68.74C115.564 69.104 116.446 69.524 117.258 70.014L116.544 71.148C115.704 70.504 114.85 70 113.982 69.636L114.584 68.74ZM106.296 64.932V67.858H107.346V64.932H106.296ZM107.346 63.616V60.634H106.296V63.616H107.346ZM108.662 59.332V69.174H106.296V70.112H104.952V59.332H108.662ZM124.258 58.548H125.742V63.518H131.174V64.946H127.352V69.146C127.352 69.538 127.506 69.748 127.828 69.748H129.354C129.55 69.748 129.704 69.636 129.802 69.44C129.914 69.216 129.984 68.572 130.04 67.48L131.468 67.928C131.342 69.468 131.146 70.392 130.866 70.686C130.586 70.966 130.18 71.106 129.62 71.106H127.394C126.386 71.106 125.882 70.546 125.882 69.454V64.946H123.908V64.96C123.838 66.71 123.446 68.124 122.718 69.188C122.018 70.168 120.884 70.924 119.316 71.456L118.49 70.154C120.002 69.622 121.024 68.978 121.556 68.208C122.088 67.382 122.368 66.304 122.424 64.96V64.946H118.84V63.518H124.258V58.548ZM128.878 59.164L130.25 59.822C129.788 60.97 129.186 62.062 128.444 63.126L127.1 62.426C127.842 61.334 128.43 60.242 128.878 59.164ZM121.178 59.304C121.822 60.256 122.438 61.292 123.026 62.426L121.64 63.126C121.066 61.95 120.45 60.886 119.792 59.962L121.178 59.304ZM133.988 64.386H144.04V68.054H139.714V68.6H144.306V69.538H139.714V70.126H145.314V71.218H132.686V70.126H138.258V69.538H133.722V68.6H138.258V68.054H133.988V64.386ZM142.654 67.214V66.612H139.714V67.214H142.654ZM138.258 67.214V66.612H135.374V67.214H138.258ZM135.374 65.828H138.258V65.24H135.374V65.828ZM139.714 65.24V65.828H142.654V65.24H139.714ZM134.296 58.702H143.746V62.3H134.296V58.702ZM142.346 61.488V60.914H135.696V61.488H142.346ZM135.696 60.102H142.346V59.528H135.696V60.102ZM132.686 62.832H145.314V63.868H132.686V62.832ZM158.964 59.304V70.868H157.536V69.86H154.666V71.036H153.252V59.304H158.964ZM154.666 68.488H157.536V60.662H154.666V68.488ZM146.938 62.202H149.234V60.648C148.618 60.746 147.988 60.816 147.372 60.858L146.896 59.556C149.08 59.374 150.83 59.038 152.118 58.548L152.804 59.752C152.09 60.004 151.362 60.228 150.634 60.396V62.202H152.874V63.56H150.634V64.064C151.418 64.722 152.202 65.478 153 66.318L152.146 67.592C151.558 66.724 151.054 66.024 150.634 65.492V71.302H149.234V65.856C148.674 66.976 147.988 67.998 147.162 68.936L146.532 67.326C147.75 66.234 148.646 65.002 149.234 63.63V63.56H146.938V62.202ZM167.84 62.762V63.966H171.102V62.762H167.84ZM171.102 61.502V60.27H167.84V61.502H171.102ZM172.39 65.66L173.3 66.57C172.754 67.27 172.152 67.816 171.48 68.194C172.026 68.922 172.726 69.538 173.594 70.07L172.782 71.358C170.626 69.86 169.324 67.83 168.89 65.268H167.84V69.454C168.512 69.23 169.184 68.964 169.842 68.656L170.206 70.014C169.17 70.434 167.868 70.826 166.314 71.218L165.992 69.986C166.272 69.874 166.412 69.706 166.412 69.482V58.954H172.53V65.268H170.178C170.318 65.94 170.528 66.556 170.822 67.144C171.368 66.78 171.886 66.29 172.39 65.66ZM161.036 58.954H165.642V63.714H164.396V65.548H165.698V66.892H164.396V68.894C164.886 68.754 165.362 68.6 165.81 68.46V69.874C164.382 70.35 162.744 70.812 160.896 71.232L160.476 69.832L161.05 69.72V64.904H162.338V69.426C162.576 69.37 162.814 69.314 163.038 69.258V63.714H161.036V58.954ZM164.256 62.37V60.298H162.436V62.37H164.256ZM175.974 60.578H178.774C178.382 60.004 177.976 59.486 177.556 59.024L178.774 58.436C179.25 58.954 179.698 59.528 180.118 60.158L179.292 60.578H182.008C182.442 59.878 182.82 59.15 183.142 58.366L184.556 58.87C184.248 59.5 183.898 60.074 183.534 60.578H186.026V66.668H181.728V67.704H187.272V69.076H181.728V71.526H180.272V69.076H174.728V67.704H180.272V66.668H175.974V60.578ZM184.612 65.38V64.218H181.728V65.38H184.612ZM180.272 65.38V64.218H177.388V65.38H180.272ZM177.388 62.986H180.272V61.852H177.388V62.986ZM181.728 61.852V62.986H184.612V61.852H181.728ZM191.234 63.672V65.688H194.314V63.672H191.234ZM191.164 67.032C190.982 68.768 190.464 70.224 189.61 71.372L188.49 70.364C189.316 69.188 189.736 67.69 189.764 65.87V58.94H200.614V69.51C200.614 70.588 200.054 71.134 198.948 71.134H197.338L196.946 69.706C197.506 69.762 198.01 69.79 198.486 69.79C198.906 69.79 199.13 69.51 199.13 68.978V67.032H195.798V70.98H194.314V67.032H191.164ZM199.13 65.688V63.672H195.798V65.688H199.13ZM199.13 62.328V60.368H195.798V62.328H199.13ZM194.314 60.368H191.234V62.328H194.314V60.368ZM212.878 61.502H205.402V63.728H212.878V61.502ZM205.388 65.156C205.304 67.62 204.674 69.748 203.47 71.54L202.378 70.546C203.414 69.048 203.946 67.102 203.96 64.722V60.074H208.426C208.202 59.556 207.964 59.08 207.698 58.632L209.266 58.38C209.49 58.884 209.7 59.444 209.924 60.074H214.362V65.156H205.388ZM218.562 60.004H220.452L220.102 67.13H218.912L218.562 60.004ZM219.5 67.886C219.808 67.886 220.074 67.984 220.284 68.18C220.48 68.376 220.592 68.628 220.592 68.936C220.592 69.244 220.48 69.51 220.284 69.706C220.06 69.902 219.808 70 219.5 70C219.192 70 218.94 69.888 218.744 69.692C218.52 69.496 218.422 69.244 218.422 68.936C218.422 68.628 218.52 68.376 218.744 68.18C218.94 67.984 219.192 67.886 219.5 67.886Z" fill="#111111"/>
<rect x="21" y="81" width="10" height="1" fill="#D9D9D9"/>
<rect x="33" y="81" width="10" height="1" fill="#464646"/>
<rect x="45" y="81" width="10" height="1" fill="#464646"/>
<g filter="url(#filter0_i_4074_20089)">
<ellipse cx="297.385" cy="67.9418" rx="21.1736" ry="7.05799" fill="#333333"/>
</g>
<g filter="url(#filter1_d_4074_20089)">
<g filter="url(#filter2_i_4074_20089)">
<circle cx="16.5852" cy="16.5852" r="16.5852" transform="matrix(0.996195 0.0871557 -0.258819 0.965926 287.441 19.7588)" fill="#919191"/>
</g>
<circle cx="16.5852" cy="16.5852" r="16.0386" transform="matrix(0.996195 0.0871557 -0.258819 0.965926 287.441 19.7588)" stroke="black" stroke-width="1.09321"/>
<circle cx="16.5852" cy="16.5852" r="16.0386" transform="matrix(0.996195 0.0871557 -0.258819 0.965926 283.059 17.1777)" fill="white" stroke="#111111" stroke-width="1.09321"/>
<g clip-path="url(#clip0_4074_20089)">
<path d="M297.808 25.3768C296.254 25.2409 294.604 25.709 293.219 26.6782C291.835 27.6475 290.831 29.0384 290.427 30.545C290.023 32.0516 290.253 33.5506 291.067 34.712C291.88 35.8735 293.21 36.6024 294.764 36.7383C296.318 36.8743 297.968 36.4061 299.352 35.4369C300.736 34.4677 301.741 33.0768 302.145 31.5702C302.548 30.0635 302.318 28.5646 301.505 27.4031C300.692 26.2417 299.362 25.5128 297.808 25.3768Z" fill="#FFCE1F" stroke="#111111" stroke-width="1.09321"/>
<path d="M293.898 31.5752C293.747 32.1402 293.833 32.7023 294.138 33.1378C294.443 33.5734 294.942 33.8467 295.525 33.8977C296.107 33.9487 296.726 33.7731 297.245 33.4097C297.764 33.0462 298.141 32.5246 298.293 31.9596" stroke="#111111" stroke-width="1.74914" stroke-linecap="round"/>
<path d="M281.87 47.7821C283.236 42.6813 288.609 38.9194 293.87 39.3797C299.13 39.8399 302.287 44.348 300.92 49.4488L300.859 49.6763C300.266 50.3147 296.701 53.8082 290.157 53.2357C283.613 52.6632 282.041 48.7202 281.809 48.0096L281.87 47.7821Z" stroke="#111111" stroke-width="1.09321"/>
</g>
<path d="M311.738 30.4961L315.955 34.3223" stroke="black" stroke-width="0.655928"/>
<path d="M310.098 38.6943L313.924 41.974" stroke="black" stroke-width="0.655928"/>
<path d="M306.82 44.1611L310.334 47.2846" stroke="black" stroke-width="0.655928"/>
<path d="M300.262 48.5342L303.776 51.6576" stroke="black" stroke-width="0.655928"/>
<path d="M293.058 24.9571L302.706 25.8012L302.731 27.671L292.066 26.7379L293.058 24.9571Z" fill="white"/>
<path d="M294.203 19.9635L296.246 22.5193L299.844 18.0801L300.952 22.931L304.24 20.8417L302.593 25.7911L293.183 24.9678L294.203 19.9635Z" fill="white"/>
<path d="M293.058 24.9571L302.706 25.8012L302.731 27.671L292.066 26.7379L293.058 24.9571Z" stroke="black" stroke-width="0.659702"/>
<path d="M294.203 19.9635L296.246 22.5193L299.844 18.0801L300.952 22.931L304.24 20.8417L302.593 25.7911L293.183 24.9678L294.203 19.9635Z" stroke="black" stroke-width="0.659702"/>
</g>
<defs>
<filter id="filter0_i_4074_20089" x="276.211" y="60.8838" width="42.3477" height="18.4891" filterUnits="userSpaceOnUse" color-interpolation-filters="sRGB">
<feFlood flood-opacity="0" result="BackgroundImageFix"/>
<feBlend mode="normal" in="SourceGraphic" in2="BackgroundImageFix" result="shape"/>
<feColorMatrix in="SourceAlpha" type="matrix" values="0 0 0 0 0 0 0 0 0 0 0 0 0 0 0 0 0 0 127 0" result="hardAlpha"/>
<feOffset dy="4.37285"/>
<feGaussianBlur stdDeviation="6.55928"/>
<feComposite in2="hardAlpha" operator="arithmetic" k2="-1" k3="1"/>
<feColorMatrix type="matrix" values="0 0 0 0 0 0 0 0 0 0 0 0 0 0 0 0 0 0 1 0"/>
<feBlend mode="normal" in2="shape" result="effect1_innerShadow_4074_20089"/>
</filter>
<filter id="filter1_d_4074_20089" x="260.905" y="6.9916" width="72.6004" height="64.4998" filterUnits="userSpaceOnUse" color-interpolation-filters="sRGB">
<feFlood flood-opacity="0" result="BackgroundImageFix"/>
<feColorMatrix in="SourceAlpha" type="matrix" values="0 0 0 0 0 0 0 0 0 0 0 0 0 0 0 0 0 0 127 0" result="hardAlpha"/>
<feOffset dy="4.37285"/>
<feGaussianBlur stdDeviation="6.55928"/>
<feComposite in2="hardAlpha" operator="out"/>
<feColorMatrix type="matrix" values="0 0 0 0 0 0 0 0 0 0 0 0 0 0 0 0 0 0 0.1 0"/>
<feBlend mode="normal" in2="BackgroundImageFix" result="effect1_dropShadow_4074_20089"/>
<feBlend mode="normal" in="SourceGraphic" in2="effect1_dropShadow_4074_20089" result="shape"/>
</filter>
<filter id="filter2_i_4074_20089" x="282.598" y="21.1387" width="34.1484" height="35.8989" filterUnits="userSpaceOnUse" color-interpolation-filters="sRGB">
<feFlood flood-opacity="0" result="BackgroundImageFix"/>
<feBlend mode="normal" in="SourceGraphic" in2="BackgroundImageFix" result="shape"/>
<feColorMatrix in="SourceAlpha" type="matrix" values="0 0 0 0 0 0 0 0 0 0 0 0 0 0 0 0 0 0 127 0" result="hardAlpha"/>
<feOffset dy="3.72702"/>
<feGaussianBlur stdDeviation="4.47242"/>
<feComposite in2="hardAlpha" operator="arithmetic" k2="-1" k3="1"/>
<feColorMatrix type="matrix" values="0 0 0 0 0 0 0 0 0 0 0 0 0 0 0 0 0 0 0.2 0"/>
<feBlend mode="normal" in2="shape" result="effect1_innerShadow_4074_20089"/>
</filter>
<clipPath id="clip0_4074_20089">
<rect width="32.3463" height="32.3463" rx="16.1731" transform="matrix(0.996195 0.0871557 -0.258819 0.965926 283.41 17.5762)" fill="white"/>
</clipPath>
</defs>
</svg>
