<svg width="36" height="36" viewBox="0 0 36 36" fill="none" xmlns="http://www.w3.org/2000/svg">
<circle cx="18" cy="18" r="17.5" stroke="#EEEEEE"/>
<g clip-path="url(#clip0_5956_52057)">
<path d="M18.7854 10.459L18.864 10.5376L25.1497 14.7019C25.5426 14.9376 25.7783 15.409 25.8569 15.8805V20.5162C25.8569 20.9876 25.5426 21.3019 25.0712 21.3019C24.6783 21.3019 24.364 20.9876 24.2854 20.5948V16.0376L17.9997 11.8733L11.714 16.0376V24.2876H14.4997C14.8926 24.2876 15.2069 24.6019 15.2854 24.9948V25.0733C15.2854 25.4662 14.9711 25.7805 14.5783 25.859H10.9283C10.5354 25.859 10.2211 25.5448 10.1426 25.1519V16.0376C10.1426 15.5662 10.3783 15.0947 10.7711 14.7805L10.8497 14.7019L17.1354 10.5376C17.6069 10.2233 18.2354 10.2233 18.7854 10.459Z" fill="#111111"/>
<path d="M20.6876 22.085C21.0018 21.8493 21.3947 21.8493 21.6304 22.085L21.709 22.1636L21.7876 22.2421C22.0233 22.5564 22.0233 22.9493 21.7876 23.185L21.709 23.2636L20.6876 24.285H25.1661C25.559 24.3636 25.8733 24.6778 25.8733 25.0707C25.8733 25.4636 25.559 25.7778 25.1661 25.8564H18.7233C18.0947 25.7778 17.7804 25.0707 18.1733 24.5993L18.2518 24.5207L20.6876 22.085Z" fill="#111111"/>
</g>
<defs>
<clipPath id="clip0_5956_52057">
<rect width="16" height="16" fill="white" transform="translate(10 10)"/>
</clipPath>
</defs>
</svg>
