<svg width="44" height="24" viewBox="0 0 44 24" fill="none" xmlns="http://www.w3.org/2000/svg">
<rect width="44" height="24" rx="6" fill="#F5F5F5"/>
<path d="M7.984 16V7.624H11.86C13.24 7.624 14.08 8.476 14.08 9.772C14.08 11.044 13.348 11.524 12.58 11.572V11.644C13.312 11.656 14.392 12.172 14.392 13.6C14.392 14.944 13.468 16 12.232 16H7.984ZM9.568 8.968V11.116H11.524C12.1 11.116 12.436 10.78 12.436 10.228V9.856C12.436 9.292 12.1 8.968 11.524 8.968H9.568ZM9.568 12.412V14.656H11.776C12.376 14.656 12.736 14.332 12.736 13.744V13.336C12.736 12.748 12.376 12.412 11.776 12.412H9.568ZM17.393 16.144C16.121 16.144 15.401 15.412 15.401 14.296C15.401 13.012 16.373 12.376 18.077 12.376H19.145V11.92C19.145 11.224 18.797 10.816 17.981 10.816C17.261 10.816 16.853 11.176 16.553 11.608L15.641 10.792C16.097 10.072 16.829 9.592 18.089 9.592C19.781 9.592 20.681 10.396 20.681 11.824V14.776H21.305V16H20.453C19.793 16 19.385 15.568 19.289 14.92H19.217C19.013 15.724 18.329 16.144 17.393 16.144ZM17.909 15.028C18.593 15.028 19.145 14.716 19.145 14.128V13.3H18.161C17.357 13.3 16.961 13.576 16.961 14.068V14.272C16.961 14.776 17.309 15.028 17.909 15.028ZM24.0842 16H22.5482V9.736H24.0842V10.78H24.1442C24.3962 10.108 24.9242 9.592 25.8962 9.592C27.1802 9.592 27.9002 10.48 27.9002 12.04V16H26.3642V12.196C26.3642 11.308 26.0642 10.852 25.3322 10.852C24.6962 10.852 24.0842 11.188 24.0842 11.86V16ZM29.6028 16V7.12H31.1388V12.472H31.1988L32.0268 11.344L33.4308 9.736H35.1708L33.0108 12.16L35.3988 16H33.5748L31.9668 13.192L31.1388 14.092V16H29.6028Z" fill="black"/>
</svg>
