<svg width="42" height="24" viewBox="0 0 42 24" fill="none" xmlns="http://www.w3.org/2000/svg">
<rect width="42" height="24" rx="6" fill="#F5F5F5"/>
<g clip-path="url(#clip0_19797_82379)">
<path d="M10.167 6.78519C9.77166 7.25444 9.13873 7.62379 8.50663 7.57091C8.42772 6.93797 8.73831 6.26306 9.10263 5.85258C9.498 5.37242 10.1889 5.02993 10.753 5.00391C10.8159 5.65783 10.5582 6.30588 10.1679 6.78603L10.167 6.78519ZM10.7421 7.69179C9.82455 7.6389 9.03883 8.21392 8.60652 8.21392C8.16414 8.21392 7.4993 7.71865 6.77151 7.73376C5.82798 7.74971 4.95244 8.28191 4.47313 9.13059C3.48175 10.8338 4.21458 13.3488 5.17406 14.7347C5.6433 15.4197 6.20237 16.1743 6.94024 16.1475C7.64117 16.1214 7.91566 15.6942 8.7593 15.6942C9.60797 15.6942 9.85561 16.1475 10.5943 16.1365C11.359 16.1206 11.8384 15.4516 12.3076 14.7657C12.8398 13.9851 13.0614 13.2312 13.0723 13.1893C13.0564 13.1733 11.5958 12.6143 11.5807 10.9278C11.5647 9.51505 12.7349 8.84518 12.7878 8.80321C12.1288 7.82274 11.1005 7.71697 10.7421 7.69095V7.69179ZM16.0347 5.7829V16.0585H17.6322V12.5471H19.8416C21.8604 12.5471 23.274 11.1603 23.274 9.15745C23.274 7.15455 21.8822 5.7829 19.8945 5.7829H16.0356H16.0347ZM17.6322 7.12769H19.4722C20.859 7.12769 21.6497 7.86555 21.6497 9.16248C21.6497 10.4594 20.859 11.2082 19.4672 11.2082H17.6322V7.12769ZM26.1835 16.1382C27.185 16.1382 28.1134 15.632 28.5348 14.8253H28.5667V16.0593H30.0433V10.9455C30.0433 9.46384 28.8571 8.50437 27.033 8.50437C25.3407 8.50437 24.0858 9.47476 24.0388 10.8027H25.4784C25.6001 10.1698 26.1852 9.75345 26.986 9.75345C27.9615 9.75345 28.5096 10.2067 28.5096 11.0453V11.6145L26.5168 11.7362C24.6658 11.847 23.6644 12.6059 23.6644 13.9238C23.6694 15.2526 24.7028 16.1382 26.1844 16.1382H26.1835ZM26.6167 14.9202C25.768 14.9202 25.2249 14.5089 25.2249 13.8868C25.2249 13.238 25.747 12.8644 26.7434 12.8056L28.5146 12.6948V13.2749C28.5146 14.2344 27.6979 14.9202 26.6167 14.9202ZM32.0201 18.853C33.5756 18.853 34.3085 18.257 34.9464 16.4597L37.746 8.60426H36.1225L34.2455 14.6726H34.2136L32.3366 8.60426H30.6703L33.37 16.0853L33.2222 16.5386C32.9796 17.3084 32.5842 17.6089 31.8774 17.6089C31.7507 17.6089 31.5081 17.593 31.4082 17.5829V18.8169C31.503 18.8379 31.8984 18.8538 32.0201 18.8538V18.853Z" fill="black"/>
</g>
<defs>
<clipPath id="clip0_19797_82379">
<rect width="33.9036" height="14" fill="white" transform="translate(4 5)"/>
</clipPath>
</defs>
</svg>
