<svg width="18" height="18" viewBox="0 0 18 18" fill="none" xmlns="http://www.w3.org/2000/svg">
<path d="M13.6125 5.49999C14.8207 5.49999 15.8 4.52061 15.8 3.3125C15.8 2.10438 14.8207 1.125 13.6125 1.125C12.4044 1.125 11.425 2.10438 11.425 3.3125C11.425 4.52061 12.4044 5.49999 13.6125 5.49999Z" stroke="#111111" stroke-width="1.8" stroke-linejoin="round"/>
<path d="M3.9873 11.1865C5.19541 11.1865 6.1748 10.2071 6.1748 8.99902C6.1748 7.79091 5.19541 6.81152 3.9873 6.81152C2.77919 6.81152 1.7998 7.79091 1.7998 8.99902C1.7998 10.2071 2.77919 11.1865 3.9873 11.1865Z" stroke="#111111" stroke-width="1.8" stroke-linejoin="round"/>
<path d="M11.425 4.43848L5.88574 7.79449" stroke="#111111" stroke-width="1.8" stroke-linecap="round" stroke-linejoin="round"/>
<path d="M5.88538 10.1215L11.7218 13.5703" stroke="#111111" stroke-width="1.8" stroke-linecap="round" stroke-linejoin="round"/>
<path d="M13.6125 12.4998C14.8207 12.4998 15.8 13.4791 15.8 14.6873C15.8 15.8954 14.8207 16.8748 13.6125 16.8748C12.4044 16.8748 11.425 15.8954 11.425 14.6873C11.425 13.4791 12.4044 12.4998 13.6125 12.4998Z" stroke="#111111" stroke-width="1.8" stroke-linejoin="round"/>
</svg>
