<svg width="24" height="24" viewBox="0 0 24 24" fill="none" xmlns="http://www.w3.org/2000/svg">
<path d="M12.5966 5.37029C12.4837 5.14291 12.2515 4.99935 11.9977 5C11.7438 5.00065 11.5124 5.14541 11.4007 5.37336L9.51784 9.21659L5.23752 9.83727C4.98652 9.87366 4.77792 10.0493 4.69933 10.2905C4.62075 10.5316 4.68579 10.7964 4.86714 10.9737L7.96867 14.0059L7.22806 18.2179C7.18391 18.469 7.28684 18.7233 7.49322 18.873C7.69961 19.0227 7.97329 19.0416 8.19828 18.9216L11.9994 16.8952L15.8014 18.9217C16.0263 19.0415 16.2998 19.0227 16.5061 18.8732C16.7124 18.7237 16.8155 18.4697 16.7717 18.2187L16.0364 14.0059L19.133 10.9733C19.314 10.796 19.3789 10.5314 19.3004 10.2904C19.2218 10.0495 19.0135 9.87391 18.7627 9.83734L14.5055 9.21658L12.5966 5.37029Z" fill="#FFD429" stroke="#FFD429" stroke-width="2" stroke-linejoin="round"/>
</svg>
