<svg width="24" height="24" viewBox="0 0 24 24" fill="none" xmlns="http://www.w3.org/2000/svg">
<g id="Frame 633944">
<path id="Union" fill-rule="evenodd" clip-rule="evenodd" d="M14.9582 4.80953C14.5769 4.41003 13.9439 4.39531 13.5444 4.77665C13.1449 5.15799 13.1302 5.79098 13.5115 6.19048L16.5342 9.35714H4.2998C3.74752 9.35714 3.2998 9.80486 3.2998 10.3571C3.2998 10.9094 3.74752 11.3571 4.2998 11.3571H18.3037C19.3971 11.3571 19.9577 10.047 19.2027 9.25612L14.9582 4.80953ZM8.5573 19.2235C8.98288 19.5755 9.61323 19.5159 9.96522 19.0903C10.3172 18.6647 10.2575 18.0343 9.83196 17.6824L7.07882 15.4053H19.6816C20.2339 15.4053 20.6816 14.9576 20.6816 14.4053C20.6816 13.853 20.2339 13.4053 19.6816 13.4053H4.97538C3.81065 13.4053 3.28574 14.8636 4.18327 15.6059L8.5573 19.2235Z" fill="#111111"/>
</g>
</svg>
