<svg width="20" height="21" viewBox="0 0 20 21" fill="none" xmlns="http://www.w3.org/2000/svg">
<path d="M17.4974 2.16797H2.4974C2.03716 2.16797 1.66406 2.54106 1.66406 3.0013V18.0013C1.66406 18.4616 2.03716 18.8346 2.4974 18.8346H17.4974C17.9576 18.8346 18.3307 18.4616 18.3307 18.0013V3.0013C18.3307 2.54106 17.9576 2.16797 17.4974 2.16797Z" stroke="#DDDDDD" stroke-width="1.25" stroke-linejoin="round"/>
<path d="M1.66406 10.5H7.08073" stroke="#DDDDDD" stroke-width="1.25" stroke-linecap="round" stroke-linejoin="round"/>
<path d="M12.9141 10.5H18.3307" stroke="#DDDDDD" stroke-width="1.25" stroke-linecap="round" stroke-linejoin="round"/>
<path d="M9.9987 13.4193C11.6095 13.4193 12.9154 12.1134 12.9154 10.5026C12.9154 8.89177 11.6095 7.58594 9.9987 7.58594C8.38786 7.58594 7.08203 8.89177 7.08203 10.5026C7.08203 12.1134 8.38786 13.4193 9.9987 13.4193Z" stroke="#DDDDDD" stroke-width="1.25" stroke-linejoin="round"/>
</svg>
