<svg width="96" height="96" viewBox="0 0 96 96" fill="none" xmlns="http://www.w3.org/2000/svg">
<rect width="96" height="96" fill="white"/>
<rect x="12.8701" y="14.0508" width="81.9334" height="55.4193" transform="rotate(6.17978 12.8701 14.0508)" fill="#EAEAEA"/>
<rect x="4.40234" y="25.9121" width="81.9334" height="55.4193" fill="white"/>
<path d="M34.4152 25.9121H86.3357V81.3314H4.40234V50.6247" stroke="black"/>
<path d="M34.3976 55.252H13.2163" stroke="black"/>
<path d="M43.0024 66.0625H13.2163" stroke="black"/>
<rect x="50.6157" y="35.0078" width="28.7668" height="37.2275" fill="#EAEAEA"/>
<circle cx="65.3499" cy="48.7532" r="6.58328" fill="#989898"/>
<path d="M52.9316 68.6512V72.2361H77.0661V68.6512C77.0661 61.9867 71.6634 56.584 64.9989 56.584C58.3343 56.584 52.9316 61.9867 52.9316 68.6512Z" fill="#989898"/>
<circle cx="15.5901" cy="33.1038" r="14.8968" fill="#FFCE1F"/>
<path fill-rule="evenodd" clip-rule="evenodd" d="M9.13086 37.7546L10.9356 39.5594L15.5861 34.9089L20.2377 39.5605L22.0425 37.7557L17.3909 33.1041L22.0418 28.4532L20.237 26.6484L15.5861 31.2994L10.9363 26.6495L9.13151 28.4543L13.7813 33.1041L9.13086 37.7546Z" fill="black"/>
<path d="M0.69278 33.6562C0.692779 41.8835 7.36229 48.553 15.5896 48.553C23.8168 48.553 30.4863 41.8835 30.4863 33.6562" stroke="black"/>
</svg>
