<svg width="14" height="30" viewBox="0 0 14 30" fill="none" xmlns="http://www.w3.org/2000/svg">
<path d="M1.16759 11.3152C1.14593 11.3902 1.12426 11.4452 1.12426 11.4985C1.07092 12.2819 1.18926 13.0452 1.43426 13.7752C1.54093 14.0902 1.66926 14.3835 1.82926 14.6785C2.02259 15.0369 2.31093 15.3085 2.71593 15.3952C2.76196 15.4077 2.80282 15.4346 2.83259 15.4719C2.89926 15.6469 2.99426 15.8219 2.99426 15.9952C3.02759 16.9735 3.11093 17.9319 3.33593 18.8902C3.34759 18.9235 3.34759 18.9552 3.31426 18.9985C3.29426 18.9435 3.26093 18.8902 3.25093 18.8252C3.12259 18.2035 2.93093 17.6052 2.54593 17.0835C2.07593 16.4519 1.50926 15.9502 0.750925 15.6902C0.729258 15.6785 0.707592 15.6785 0.685925 15.6685C0.675925 15.6685 0.665925 15.6685 0.622592 15.6785C0.622592 15.7885 0.612592 15.9085 0.644259 16.0169C0.867592 16.9735 1.26426 17.8335 1.93593 18.5419C2.24593 18.8685 2.61926 19.0752 3.10259 19.0319C3.14426 19.0319 3.21926 19.0535 3.24093 19.0852C3.33593 19.2485 3.45426 19.4119 3.51759 19.5969C3.82759 20.5769 4.20093 21.5235 4.69259 22.4169C4.72593 22.4702 4.74593 22.5352 4.77926 22.5902L4.72593 22.6235C4.67259 22.5469 4.60759 22.4819 4.57593 22.4052C4.32926 21.9152 4.04259 21.4685 3.62593 21.1102C3.02593 20.5869 2.34259 20.3052 1.54259 20.3152C1.32759 20.3152 1.31759 20.3369 1.38093 20.5552C1.49759 20.9252 1.70093 21.2519 1.93593 21.5552C2.26926 21.9802 2.63093 22.3835 3.12259 22.6335C3.57259 22.8619 4.04093 22.9602 4.53259 22.7202C4.56593 22.7102 4.60759 22.6985 4.62926 22.7102C4.76759 22.8185 4.94926 22.8935 5.03426 23.0369C5.52593 23.8202 6.08259 24.5485 6.73426 25.2135C6.75426 25.2352 6.77593 25.2569 6.79759 25.2902C6.80926 25.3002 6.79759 25.3119 6.80926 25.3869C6.71259 25.3119 6.63759 25.2669 6.58426 25.2035C6.22093 24.8002 5.80426 24.4619 5.28093 24.2985C4.48926 24.0602 3.72093 24.1469 2.96259 24.4735C2.94093 24.4835 2.92926 24.4952 2.87759 24.5385C2.98426 24.6685 3.06926 24.8102 3.18593 24.9185C3.92426 25.5719 4.75759 25.9852 5.75093 25.9635C6.04005 25.9543 6.31649 25.8427 6.53093 25.6485C6.72259 25.4735 6.95759 25.4635 7.17259 25.6485C7.73926 26.1602 8.35759 26.5852 9.03093 26.9435L9.48093 27.1719C9.46926 27.1935 9.46926 27.2052 9.45759 27.2269C9.38259 27.2052 9.30759 27.1935 9.25426 27.1602C8.89093 26.9552 8.51759 26.7802 8.10093 26.7269C7.24593 26.6169 6.49926 26.8885 5.80426 27.3785C5.68759 27.4669 5.56926 27.5635 5.42093 27.6835C5.57926 27.7919 5.69759 27.9002 5.84759 27.9669C6.64759 28.3252 7.48093 28.4569 8.34759 28.2169C8.76426 28.0969 9.11592 27.8802 9.33092 27.4885C9.40426 27.3469 9.71426 27.2585 9.88593 27.3252C10.4526 27.5535 11.0493 27.7052 11.6476 27.8035C11.7043 27.8127 11.7618 27.8161 11.8193 27.8135C11.8409 27.6519 11.7759 27.5635 11.6259 27.5419C11.0256 27.4416 10.4386 27.2739 9.87593 27.0419C9.58593 26.9219 9.46926 26.7485 9.51093 26.4319C9.58028 25.8125 9.4728 25.1861 9.20093 24.6252C8.91931 24.024 8.46119 23.5228 7.88759 23.1885C7.84426 23.1669 7.79093 23.1452 7.71593 23.1019C7.72759 23.2219 7.73759 23.3085 7.74926 23.3952C7.86593 24.0819 7.93093 24.7669 8.15426 25.4302C8.32593 25.9302 8.62426 26.3135 9.08426 26.5635C9.14736 26.5997 9.2161 26.6251 9.28759 26.6385C9.43759 26.6385 9.45759 26.7152 9.45759 26.8669C9.40426 26.8452 9.36259 26.8335 9.31926 26.8135C8.45817 26.4007 7.67097 25.8489 6.98926 25.1802C6.80926 24.9969 6.83926 24.7335 6.91593 24.5385C7.24592 23.6352 7.19259 22.7319 6.89426 21.8385C6.74061 21.384 6.50129 20.9631 6.18926 20.5985C6.15593 20.5652 6.12426 20.5435 6.07259 20.4902C6.03926 20.7402 6.00593 20.9685 5.98593 21.1869C5.94259 21.6202 5.88926 22.0569 5.86926 22.4919C5.83593 23.0919 5.87926 23.6902 6.24259 24.1902C6.35205 24.3509 6.48918 24.4908 6.64759 24.6035C6.77593 24.7019 6.79759 24.7885 6.75426 24.9635C6.59426 24.7785 6.44593 24.6252 6.30593 24.4635C5.78878 23.8738 5.34087 23.2268 4.97093 22.5352C4.86426 22.3285 4.92759 22.0785 5.04593 21.9052C5.90093 20.5985 5.87926 19.2385 5.32259 17.8335C5.31259 17.8002 5.29093 17.7802 5.28093 17.7469C5.28093 17.7352 5.25926 17.7352 5.23759 17.7252C4.91759 18.5952 4.48926 19.4235 4.40426 20.3585C4.35093 20.9252 4.43759 21.4585 4.81093 21.9152C4.86426 21.9819 4.84426 22.1002 4.85259 22.1869C4.83259 22.1985 4.81093 22.1985 4.79926 22.2085L4.60759 21.8502C4.17655 20.9405 3.84033 19.9888 3.60426 19.0102C3.59259 18.9652 3.58259 18.9102 3.59259 18.8785C3.69926 18.6619 3.76426 18.4219 3.99926 18.2702C4.43593 17.9652 4.68259 17.4969 4.89593 17.0069C5.23759 16.2119 5.27926 15.3969 5.16259 14.5569C5.16259 14.5369 5.15259 14.5152 5.14259 14.4935C5.12093 14.5035 5.09926 14.5035 5.09926 14.5152C4.71593 15.0585 4.29926 15.5819 3.93426 16.1485C3.58259 16.6819 3.37926 17.2685 3.47593 17.9219C3.49212 18.0544 3.53162 18.1831 3.59259 18.3019C3.69926 18.4535 3.62593 18.5519 3.51759 18.7152C3.45426 18.3669 3.37926 18.0619 3.34759 17.7585C3.27259 16.9852 3.23093 16.2235 3.17593 15.4502C3.16593 15.2985 3.38926 14.9385 3.51759 14.8952C4.18093 14.6885 4.60759 14.1985 4.95093 13.6219C5.31259 13.0119 5.48426 12.3485 5.51593 11.6519V11.5319C5.51593 11.5219 5.50426 11.5102 5.49426 11.4785C5.40926 11.5535 5.31259 11.6202 5.22759 11.6952C4.84426 12.0219 4.44759 12.3385 4.08426 12.6869C3.64593 13.1102 3.36759 13.6335 3.32593 14.2635C3.31426 14.4269 3.32593 14.5902 3.34759 14.7435C3.37926 14.8952 3.30426 14.9602 3.17593 15.0702C3.17593 14.8952 3.16593 14.7652 3.17593 14.6335C3.24093 13.6669 3.34759 12.7085 3.57093 11.7602C3.59729 11.6318 3.66699 11.5164 3.76833 11.4332C3.86967 11.3501 3.99651 11.3043 4.12759 11.3035C4.72593 11.2935 5.18426 10.9869 5.59093 10.5969C6.08259 10.1285 6.37093 9.54021 6.57426 8.89854C6.57426 8.88854 6.58426 8.86521 6.58426 8.84354C6.58426 8.83354 6.57426 8.82188 6.57426 8.81021C6.56259 8.81021 6.55259 8.80021 6.54093 8.80021C5.98593 9.04021 5.40759 9.25854 4.86426 9.53021C4.38259 9.78021 4.03093 10.1719 3.91426 10.7269C3.88688 10.8482 3.87567 10.9726 3.88093 11.0969C3.89259 11.2385 3.81759 11.2935 3.68926 11.3469C3.68926 11.3035 3.67759 11.2602 3.68926 11.2269C3.94442 10.262 4.28752 9.32247 4.71426 8.42021C4.76759 8.31021 5.08759 8.15854 5.20593 8.20354C6.01759 8.46354 6.68093 8.15854 7.28926 7.64687C7.58926 7.39687 7.83426 7.08021 8.03759 6.71021C7.92093 6.71021 7.81259 6.70021 7.71593 6.71021C7.18259 6.75521 6.64926 6.73354 6.13593 6.91854C5.61259 7.10188 5.23759 7.42854 5.10926 7.99521C5.07759 8.13688 4.98093 8.13688 4.85259 8.17021C4.88593 8.09354 4.89593 8.05021 4.91759 8.00688C5.28093 7.28854 5.69759 6.60188 6.17759 5.96021C6.27426 5.84021 6.56259 5.76354 6.69093 5.83021C7.55759 6.28688 8.34759 6.09021 9.08426 5.51354C9.27593 5.37188 9.42593 5.17688 9.59759 5.00188L9.56426 4.94854C9.48093 4.93688 9.38259 4.91521 9.29759 4.90354C8.83759 4.82854 8.37926 4.70854 7.90926 4.76354C7.35259 4.82854 6.88259 5.03521 6.63759 5.60021C6.58426 5.72021 6.57426 5.72021 6.37092 5.68854C6.57426 5.44854 6.74426 5.22021 6.94759 5.01354C7.24759 4.70854 7.54593 4.41354 7.85593 4.11021C7.90747 4.06299 7.96987 4.02921 8.03759 4.01188C8.84926 3.95688 9.45759 3.54521 9.91759 2.89021C10.1509 2.56354 10.3226 2.19354 10.4309 1.80187C10.4409 1.76854 10.4409 1.72687 10.4509 1.67188C10.2176 1.75854 10.0026 1.83521 9.78926 1.91187C9.27593 2.09521 8.77426 2.30354 8.37926 2.71687C8.06926 3.04354 7.86593 3.40188 7.90926 3.87021C7.90926 3.90354 7.88759 3.95688 7.85593 3.97854C7.16093 4.60021 6.55259 5.29521 5.99593 6.03688C5.98593 6.05854 5.95426 6.07021 5.94259 6.09021C5.93259 6.08021 5.91092 6.08021 5.90093 6.06854C5.94259 5.97021 5.96426 5.85188 6.02926 5.78521C6.66926 5.07854 6.97926 4.23021 7.04426 3.28188C7.07593 2.86854 7.04426 2.45521 7.03259 2.04187C7.03259 1.97521 6.99926 1.92187 6.96926 1.80187C6.75426 2.04188 6.56259 2.22688 6.40259 2.44521C5.95259 3.05354 5.62259 3.72854 5.53593 4.50188C5.48426 4.96854 5.50426 5.41521 5.81426 5.80688C5.83593 5.84021 5.85759 5.89521 5.84759 5.92688C5.84102 6.14733 5.77415 6.36176 5.65426 6.54688C5.14957 7.26066 4.7169 8.02272 4.36259 8.82188L4.29759 8.95354C4.28759 8.95354 4.26426 8.94187 4.25426 8.94187C4.27593 8.86521 4.27593 8.76854 4.30926 8.70188C4.75759 7.90854 4.90593 7.04854 4.86426 6.14521C4.83688 5.597 4.69853 5.06006 4.45759 4.56688C4.44759 4.53354 4.42593 4.51188 4.39426 4.45854C4.34093 4.54521 4.27759 4.61021 4.24426 4.68688C3.77426 5.66688 3.53926 6.70021 3.63593 7.80021C3.66759 8.17021 3.81759 8.49521 4.08426 8.75688C4.11759 8.79021 4.15926 8.84354 4.14759 8.87688C4.14759 9.09354 4.15926 9.30188 4.07426 9.51854C3.74405 10.3299 3.49668 11.1725 3.33593 12.0335C3.33593 12.0435 3.32593 12.0669 3.27259 12.0769C3.27259 11.9902 3.25093 11.8919 3.26093 11.8052C3.32593 11.3152 3.44426 10.8252 3.46426 10.3352C3.50759 9.32354 3.17593 8.44188 2.52426 7.66854C2.51426 7.65854 2.49093 7.65854 2.44926 7.62521C2.40593 7.77688 2.34259 7.91854 2.31093 8.07188C2.10582 9.00444 2.10923 9.97079 2.32092 10.9019C2.41759 11.3352 2.64259 11.6952 3.04759 11.9135C3.08093 11.9235 3.11259 11.9569 3.11259 11.9802C3.14426 12.1852 3.22926 12.4035 3.19593 12.5985C3.05926 13.5235 3.00593 14.4485 2.98426 15.3735C2.98426 15.3969 2.97259 15.4285 2.97259 15.4502C2.96259 15.4502 2.94093 15.4502 2.93093 15.4619C2.91926 15.3852 2.88759 15.2985 2.88759 15.2219C2.89759 14.6785 2.90926 14.1335 2.75926 13.6119C2.49259 12.7085 2.02259 11.9569 1.26426 11.3902C1.25259 11.3685 1.23093 11.3469 1.16759 11.3152Z" fill="url(#paint0_linear_25675_21062)"/>
<defs>
<linearGradient id="paint0_linear_25675_21062" x1="6.22221" y1="1.67187" x2="6.22221" y2="28.3385" gradientUnits="userSpaceOnUse">
<stop stop-color="#EEEEEE"/>
<stop offset="1" stop-color="#666666"/>
</linearGradient>
</defs>
</svg>
