<svg width="36" height="36" viewBox="0 0 36 36" fill="none" xmlns="http://www.w3.org/2000/svg">
<circle cx="18" cy="18" r="17.5" stroke="#EEEEEE"/>
<g clip-path="url(#clip0_5956_52064)">
<path d="M18.7854 10.459L18.864 10.5376L25.1497 14.7019C25.5426 14.9376 25.7783 15.409 25.8569 15.8805V20.5162C25.8569 20.9876 25.5426 21.3019 25.0712 21.3019C24.6783 21.3019 24.364 20.9876 24.2854 20.5948V16.0376L17.9997 11.8733L11.714 16.0376V24.2876H14.4997C14.8926 24.2876 15.2069 24.6019 15.2854 24.9948V25.0733C15.2854 25.4662 14.9711 25.7805 14.5783 25.859H10.9283C10.5354 25.859 10.2211 25.5448 10.1426 25.1519V16.0376C10.1426 15.5662 10.3783 15.0947 10.7711 14.7805L10.8497 14.7019L17.1354 10.5376C17.6069 10.2233 18.2354 10.2233 18.7854 10.459Z" fill="#111111"/>
<path d="M23.1855 22.085C22.8712 21.8493 22.4783 21.8493 22.2426 22.085L22.1641 22.1636L22.0855 22.2421C21.8498 22.5564 21.8498 22.9493 22.0855 23.185L22.1641 23.2636L23.1855 24.285H18.7069C18.3141 24.3636 17.9998 24.6778 17.9998 25.0707C17.9998 25.4636 18.3141 25.7778 18.7069 25.8564H25.1498C25.7783 25.7778 26.0926 25.0707 25.6998 24.5993L25.6212 24.5207L23.1855 22.085Z" fill="#111111"/>
</g>
<defs>
<clipPath id="clip0_5956_52064">
<rect width="16" height="16" fill="white" transform="translate(10 10)"/>
</clipPath>
</defs>
</svg>
