<svg width="16" height="16" viewBox="0 0 16 16" fill="none" xmlns="http://www.w3.org/2000/svg">
<path d="M7.8569 2.64655C7.93538 2.56618 8.06462 2.56618 8.1431 2.64655L9.53978 4.0769C9.57799 4.11604 9.63057 4.13781 9.68526 4.13716L11.6843 4.11335C11.7966 4.11201 11.888 4.20341 11.8866 4.31572L11.8628 6.31474C11.8622 6.36943 11.884 6.42201 11.9231 6.46022L13.3535 7.8569C13.4338 7.93538 13.4338 8.06462 13.3535 8.1431L11.9231 9.53978C11.884 9.57799 11.8622 9.63057 11.8628 9.68526L11.8866 11.6843C11.888 11.7966 11.7966 11.888 11.6843 11.8866L9.68526 11.8628C9.63057 11.8622 9.57799 11.884 9.53978 11.9231L8.1431 13.3535C8.06462 13.4338 7.93538 13.4338 7.8569 13.3535L6.46022 11.9231C6.42201 11.884 6.36943 11.8622 6.31474 11.8628L4.31572 11.8866C4.20341 11.888 4.11201 11.7966 4.11335 11.6843L4.13716 9.68526C4.13781 9.63057 4.11604 9.57799 4.0769 9.53978L2.64655 8.1431C2.56618 8.06462 2.56618 7.93538 2.64655 7.8569L4.0769 6.46022C4.11604 6.42201 4.13781 6.36943 4.13716 6.31474L4.11335 4.31572C4.11201 4.20341 4.20341 4.11201 4.31572 4.11335L6.31474 4.13716C6.36943 4.13781 6.42201 4.11604 6.46022 4.0769L7.8569 2.64655Z" fill="#FFD429"/>
<mask id="mask0_576_5557" style="mask-type:alpha" maskUnits="userSpaceOnUse" x="2" y="2" width="12" height="12">
<path d="M7.8569 2.64655C7.93538 2.56618 8.06462 2.56618 8.1431 2.64655L9.53978 4.0769C9.57799 4.11604 9.63057 4.13781 9.68526 4.13716L11.6843 4.11335C11.7966 4.11201 11.888 4.20341 11.8866 4.31572L11.8628 6.31474C11.8622 6.36943 11.884 6.42201 11.9231 6.46022L13.3535 7.8569C13.4338 7.93538 13.4338 8.06462 13.3535 8.1431L11.9231 9.53978C11.884 9.57799 11.8622 9.63057 11.8628 9.68526L11.8866 11.6843C11.888 11.7966 11.7966 11.888 11.6843 11.8866L9.68526 11.8628C9.63057 11.8622 9.57799 11.884 9.53978 11.9231L8.1431 13.3535C8.06462 13.4338 7.93538 13.4338 7.8569 13.3535L6.46022 11.9231C6.42201 11.884 6.36943 11.8622 6.31474 11.8628L4.31572 11.8866C4.20341 11.888 4.11201 11.7966 4.11335 11.6843L4.13716 9.68526C4.13781 9.63057 4.11604 9.57799 4.0769 9.53978L2.64655 8.1431C2.56618 8.06462 2.56618 7.93538 2.64655 7.8569L4.0769 6.46022C4.11604 6.42201 4.13781 6.36943 4.13716 6.31474L4.11335 4.31572C4.11201 4.20341 4.20341 4.11201 4.31572 4.11335L6.31474 4.13716C6.36943 4.13781 6.42201 4.11604 6.46022 4.0769L7.8569 2.64655Z" fill="#FFD429"/>
</mask>
<g mask="url(#mask0_576_5557)">
<path d="M12.4275 14.6227L5.79785 8.11338L7.75184 9.04746L10.5021 7.10938L17.8406 14.6227H12.4275Z" fill="url(#paint0_linear_576_5557)" fill-opacity="0.1"/>
</g>
<path d="M6.16699 7.75L7.66699 9.25L10.167 6.75" stroke="#111111"/>
<defs>
<linearGradient id="paint0_linear_576_5557" x1="8.25248" y1="8.79094" x2="11.4366" y2="11.4627" gradientUnits="userSpaceOnUse">
<stop stop-color="#151515"/>
<stop offset="1" stop-color="#FFD429"/>
</linearGradient>
</defs>
</svg>
