<svg width="20" height="20" viewBox="0 0 20 20" fill="none" xmlns="http://www.w3.org/2000/svg">
<path fill-rule="evenodd" clip-rule="evenodd" d="M10.0007 0.832031C9.08019 0.832031 8.33398 1.57822 8.33398 2.4987H11.6673C11.6673 1.57822 10.9211 0.832031 10.0007 0.832031Z" fill="#333333"/>
<path d="M17.5 15.8346V16.5846C17.8158 16.5846 18.0977 16.3869 18.2052 16.09C18.3127 15.793 18.2227 15.4606 17.9801 15.2585L17.5 15.8346ZM7.15196 3.80785L7.53263 4.45406C7.54868 4.4446 7.56438 4.43455 7.57968 4.42393L7.15196 3.80785ZM12.5 15.8346L12.5 15.0846L12.5 15.0846L12.5 15.8346ZM2.5 15.8346L2.01986 15.2585C1.77728 15.4606 1.6873 15.793 1.7948 16.09C1.90229 16.3869 2.18423 16.5846 2.5 16.5846V15.8346ZM4.99021 8.54297L5.73983 8.56671C5.74003 8.56048 5.74015 8.55424 5.74019 8.548L4.99021 8.54297ZM7.5 15.8346L7.5 15.0846L6.75 15.0846V15.8346H7.5ZM17.5 15.8346C17.9801 15.2585 17.9805 15.2588 17.9809 15.2591C17.981 15.2592 17.9814 15.2595 17.9816 15.2597C17.982 15.26 17.9824 15.2604 17.9828 15.2607C17.9835 15.2613 17.9841 15.2618 17.9845 15.2622C17.9854 15.2629 17.9857 15.2632 17.9854 15.2629C17.9848 15.2624 17.982 15.2599 17.977 15.2554C17.9671 15.2464 17.9487 15.2292 17.9229 15.2034C17.8714 15.1519 17.7906 15.0661 17.6898 14.943C17.4886 14.6971 17.207 14.3008 16.9208 13.7284C16.3502 12.5871 15.75 10.7234 15.75 7.91797H14.25C14.25 10.9459 14.8998 13.0405 15.5792 14.3992C15.918 15.0768 16.2614 15.566 16.5289 15.8929C16.6626 16.0563 16.777 16.1789 16.8622 16.2641C16.9048 16.3066 16.9401 16.3399 16.9668 16.3642C16.9801 16.3764 16.9913 16.3863 17.0002 16.394C17.0047 16.3979 17.0086 16.4012 17.0118 16.404C17.0135 16.4054 17.015 16.4067 17.0163 16.4078C17.017 16.4084 17.0176 16.4089 17.0182 16.4094C17.0185 16.4097 17.0189 16.41 17.0191 16.4101C17.0195 16.4105 17.0199 16.4108 17.5 15.8346ZM15.75 7.91797C15.75 4.74234 13.1756 2.16797 10 2.16797V3.66797C12.3472 3.66797 14.25 5.57077 14.25 7.91797H15.75ZM10 2.16797C8.78392 2.16797 7.65391 2.54633 6.72424 3.19177L7.57968 4.42393C8.26626 3.94726 9.09941 3.66797 10 3.66797V2.16797ZM12.5 15.0846H2.5V16.5846H12.5V15.0846ZM2.5 15.8346C2.98014 16.4108 2.98052 16.4105 2.98091 16.4102C2.98105 16.41 2.98145 16.4097 2.98174 16.4095C2.98231 16.409 2.98291 16.4085 2.98355 16.4079C2.98483 16.4069 2.98625 16.4057 2.9878 16.4043C2.99092 16.4017 2.99459 16.3985 2.99879 16.3949C3.0072 16.3876 3.01775 16.3782 3.0303 16.3668C3.05541 16.344 3.08852 16.313 3.12852 16.2732C3.20853 16.1938 3.31606 16.0797 3.44208 15.9281C3.69427 15.6246 4.01979 15.1713 4.34648 14.5448C5.00155 13.2886 5.65152 11.3548 5.73983 8.56671L4.24058 8.51922C4.15919 11.0891 3.56405 12.8011 3.01645 13.8512C2.7418 14.3779 2.47659 14.7429 2.28838 14.9695C2.1942 15.0828 2.11912 15.1617 2.07156 15.2089C2.04778 15.2325 2.03087 15.2482 2.0219 15.2564C2.01742 15.2604 2.01492 15.2626 2.01453 15.263C2.01434 15.2631 2.01468 15.2628 2.01556 15.2621C2.016 15.2617 2.01658 15.2612 2.0173 15.2606C2.01765 15.2603 2.01805 15.26 2.01847 15.2596C2.01869 15.2594 2.01903 15.2592 2.01914 15.2591C2.0195 15.2588 2.01986 15.2585 2.5 15.8346ZM7.15196 3.80785C6.77128 3.16164 6.7711 3.16175 6.77091 3.16186C6.77084 3.1619 6.77065 3.16201 6.77051 3.1621C6.77023 3.16226 6.76993 3.16244 6.76961 3.16263C6.76897 3.16301 6.76825 3.16343 6.76744 3.16391C6.76584 3.16487 6.76391 3.16602 6.76167 3.16737C6.75719 3.17006 6.75145 3.17354 6.74452 3.1778C6.73066 3.18631 6.71202 3.19794 6.68916 3.21262C6.6435 3.24196 6.5807 3.28364 6.50534 3.33713C6.35523 3.44367 6.15191 3.59937 5.93336 3.8C5.50652 4.19185 4.97044 4.80162 4.70515 5.59746L6.12818 6.07181C6.27956 5.61765 6.61113 5.21402 6.94776 4.90498C7.11095 4.75517 7.26334 4.63855 7.37348 4.56037C7.42825 4.5215 7.47173 4.49274 7.49981 4.47471C7.51382 4.46571 7.52392 4.45943 7.52958 4.45595C7.53241 4.45422 7.53412 4.45318 7.53466 4.45286C7.53492 4.4527 7.53489 4.45272 7.53456 4.45292C7.53439 4.45302 7.53415 4.45316 7.53383 4.45335C7.53367 4.45345 7.53349 4.45355 7.53329 4.45367C7.53319 4.45373 7.53302 4.45383 7.53298 4.45386C7.53281 4.45395 7.53263 4.45406 7.15196 3.80785ZM4.70515 5.59746C4.47261 6.2951 4.35856 7.0322 4.30126 7.57945C4.27227 7.8564 4.25707 8.09215 4.24909 8.25996C4.2451 8.34399 4.2429 8.41134 4.24169 8.4587C4.24108 8.48239 4.24072 8.50111 4.24051 8.51445C4.24041 8.52111 4.24034 8.52644 4.2403 8.53037C4.24027 8.53234 4.24026 8.53395 4.24025 8.53522C4.24024 8.53585 4.24024 8.53639 4.24023 8.53684C4.24023 8.53707 4.24023 8.53727 4.24023 8.53745C4.24023 8.53755 4.24023 8.53767 4.24023 8.53771C4.24023 8.53782 4.24022 8.53793 4.99021 8.54297C5.74019 8.548 5.74019 8.5481 5.74019 8.54819C5.74019 8.54822 5.74019 8.5483 5.74019 8.54835C5.74019 8.54844 5.74019 8.54851 5.74019 8.54856C5.74019 8.54866 5.74019 8.54867 5.74019 8.5486C5.74019 8.54845 5.74019 8.54795 5.7402 8.54712C5.74022 8.54546 5.74026 8.54244 5.74033 8.53812C5.74046 8.52949 5.74072 8.51565 5.7412 8.49703C5.74215 8.45975 5.74397 8.40341 5.7474 8.33119C5.75428 8.18649 5.76757 7.97954 5.79311 7.73565C5.84487 7.24124 5.94406 6.62417 6.12818 6.07181L4.70515 5.59746ZM12.5 16.5846H17.5V15.0846H12.5V16.5846ZM7.5 16.5846L12.5 16.5846L12.5 15.0846L7.5 15.0846L7.5 16.5846ZM11.75 15.8346C11.75 16.8011 10.9665 17.5846 10 17.5846V19.0846C11.7949 19.0846 13.25 17.6296 13.25 15.8346H11.75ZM10 17.5846C9.03351 17.5846 8.25 16.8011 8.25 15.8346H6.75C6.75 17.6296 8.20508 19.0846 10 19.0846V17.5846Z" fill="#333333"/>
</svg>
