<svg width="12" height="12" viewBox="0 0 12 12" fill="none" xmlns="http://www.w3.org/2000/svg">
<g clip-path="url(#clip0_22792_88702)">
<path d="M4.50165 10.5H7.50165M2.62665 4.875C2.62665 3.97989 2.98223 3.12145 3.61517 2.48851C4.2481 1.85558 5.10655 1.5 6.00165 1.5C6.89676 1.5 7.7552 1.85558 8.38814 2.48851C9.02107 3.12145 9.37665 3.97989 9.37665 4.875C9.37665 6.55406 9.76571 7.90313 10.0751 8.4375C10.1079 8.49441 10.1253 8.55896 10.1253 8.62467C10.1254 8.69038 10.1082 8.75496 10.0754 8.81193C10.0427 8.8689 9.99551 8.91626 9.93869 8.94927C9.88186 8.98227 9.81737 8.99977 9.75165 9H2.25165C2.18602 8.99961 2.12163 8.98199 2.06494 8.94892C2.00825 8.91584 1.96123 8.86847 1.92858 8.81153C1.89594 8.75458 1.87881 8.69007 1.87891 8.62444C1.87901 8.5588 1.89633 8.49434 1.92915 8.4375C2.23806 7.90313 2.62665 6.55359 2.62665 4.875Z" stroke="#666666" stroke-width="1.2" stroke-linecap="round" stroke-linejoin="round"/>
</g>
<defs>
<clipPath id="clip0_22792_88702">
<rect width="12" height="12" fill="white"/>
</clipPath>
</defs>
</svg>
