<svg width="12" height="12" viewBox="0 0 12 12" fill="none" xmlns="http://www.w3.org/2000/svg">
<path d="M0.601563 0.597345C0.601563 0.438919 0.664497 0.286982 0.776521 0.174958C0.888545 0.0629343 1.04048 0 1.19891 0H10.7564C10.9149 0 11.0668 0.0629343 11.1788 0.174958C11.2908 0.286982 11.3538 0.438919 11.3538 0.597345V2.68805C11.3537 2.78226 11.3314 2.87512 11.2887 2.95905C11.2459 3.04299 11.1839 3.11561 11.1077 3.17101L8.06838 5.38148V9.55752C8.06838 9.66068 8.04167 9.76207 7.99084 9.85184C7.94002 9.9416 7.86682 10.0167 7.77837 10.0697L4.79164 11.8618C4.701 11.9162 4.59754 11.9455 4.49184 11.9469C4.38614 11.9482 4.28198 11.9215 4.18999 11.8694C4.09801 11.8173 4.02149 11.7417 3.96825 11.6504C3.91501 11.5591 3.88696 11.4553 3.88696 11.3496V5.38148L0.847669 3.17131C0.77143 3.11588 0.709388 3.04321 0.666614 2.95922C0.623841 2.87523 0.601549 2.78231 0.601563 2.68805V0.597345ZM1.79625 1.19469V2.384L4.83555 4.59418C4.91178 4.6496 4.97383 4.72228 5.0166 4.80627C5.05937 4.89026 5.08166 4.98318 5.08165 5.07743V10.2946L6.87369 9.21943V5.07743C6.87372 4.98323 6.89603 4.89037 6.93881 4.80643C6.98158 4.7225 7.0436 4.64987 7.11979 4.59448L10.1591 2.384V1.19469H1.79625Z" fill="#111111"/>
</svg>
