<svg width="30" height="30" viewBox="0 0 30 30" fill="none" xmlns="http://www.w3.org/2000/svg">
<rect width="30" height="30" rx="6.44699" fill="white"/>
<path d="M12.8919 8.33605C12.8919 8.09868 12.6995 7.90625 12.4621 7.90625H8.33605C8.09868 7.90625 7.90625 8.09868 7.90625 8.33605V12.4621C7.90625 12.6995 8.09868 12.8919 8.33605 12.8919H12.1318C12.4587 12.8919 12.6659 13.2424 12.5084 13.5288L7.9588 21.8035C7.87588 21.9543 8.04146 22.1199 8.19228 22.037L16.4671 17.4873C16.7535 17.3298 17.104 17.537 17.104 17.8639V21.5739C17.104 21.8112 17.2964 22.0037 17.5338 22.0037H21.6598C21.8972 22.0037 22.0896 21.8112 22.0896 21.5739V17.4478C22.0896 17.2104 21.8972 17.018 21.6598 17.018H17.9113C17.5844 17.018 17.3772 16.6676 17.5346 16.3811L22.0371 8.1922C22.12 8.04138 21.9545 7.87579 21.8036 7.95872L13.5288 12.5084C13.2424 12.6659 12.8919 12.4587 12.8919 12.1318V8.33605Z" fill="#0C0D0F"/>
</svg>
