<svg width="20" height="21" viewBox="0 0 20 21" fill="none" xmlns="http://www.w3.org/2000/svg">
<rect y="0.5" width="20" height="20" fill="white"/>
<rect x="2.5" y="3" width="15" height="15" rx="7.5" fill="#4D4D4D"/>
<path d="M13.1886 8.07665C13.186 8.07253 13.1818 8.0693 13.1767 8.06754C12.5823 7.83978 11.9551 7.67738 11.3108 7.58438C11.2988 7.58252 11.2867 7.5873 11.2808 7.59623C11.1954 7.7257 11.1179 7.85868 11.0485 7.99467C10.354 7.90661 9.64745 7.90661 8.95288 7.99467C8.88307 7.85833 8.8043 7.72532 8.71693 7.59623C8.7108 7.58751 8.6989 7.58281 8.68694 7.58438C8.04252 7.67718 7.41529 7.8396 6.82105 8.06755C6.81596 8.06935 6.81167 8.07243 6.80876 8.07635C5.62038 9.55862 5.29484 11.0044 5.45454 12.4324C5.45544 12.4394 5.45975 12.4459 5.46646 12.4503C6.15845 12.8782 6.93244 13.2049 7.75541 13.4163C7.76728 13.4192 7.78011 13.4157 7.78757 13.4075C7.96433 13.2066 8.12095 12.9939 8.25584 12.7715C8.25959 12.7653 8.25999 12.7581 8.25696 12.7517C8.25392 12.7452 8.24773 12.7402 8.23995 12.7378C7.99297 12.6589 7.75387 12.5637 7.52489 12.4533C7.51644 12.4491 7.51102 12.4417 7.51044 12.4336C7.50986 12.4254 7.5142 12.4175 7.522 12.4126C7.57019 12.3825 7.61753 12.3515 7.66401 12.3196C7.67232 12.3139 7.6838 12.3126 7.69363 12.3163C9.1938 12.8881 10.8179 12.8881 12.3004 12.3163C12.3102 12.3124 12.3219 12.3136 12.3304 12.3193C12.3769 12.3514 12.4244 12.3825 12.4727 12.4126C12.4806 12.4175 12.485 12.4253 12.4845 12.4335C12.484 12.4416 12.4786 12.4491 12.4702 12.4533C12.2417 12.5647 12.0024 12.6597 11.7548 12.7375C11.747 12.74 11.7409 12.7451 11.7379 12.7516C11.7349 12.7581 11.7354 12.7653 11.7392 12.7715C11.8763 12.9926 12.0327 13.2051 12.2071 13.4071C12.2144 13.4156 12.2273 13.4193 12.2393 13.4162C13.0637 13.2055 13.8391 12.8789 14.5319 12.4503C14.5387 12.4461 14.5431 12.4397 14.5438 12.4327C14.735 10.7818 14.2237 9.34786 13.1886 8.07665ZM8.47987 11.5629C8.02821 11.5629 7.65606 11.2167 7.65606 10.7916C7.65606 10.3664 8.02099 10.0202 8.47987 10.0202C8.94234 10.0202 9.3109 10.3694 9.30368 10.7915C9.30368 11.2167 8.93872 11.5629 8.47987 11.5629ZM11.5258 11.5629C11.0741 11.5629 10.702 11.2167 10.702 10.7916C10.702 10.3664 11.0669 10.0202 11.5258 10.0202C11.9883 10.0202 12.3568 10.3694 12.3496 10.7915C12.3496 11.2167 11.9883 11.5629 11.5258 11.5629Z" fill="white"/>
</svg>
