<svg width="20" height="20" viewBox="0 0 20 20" fill="none" xmlns="http://www.w3.org/2000/svg">
<path d="M9.62973e-09 0.995575C9.62973e-09 0.731532 0.104891 0.478304 0.291597 0.291597C0.478304 0.104891 0.731532 0 0.995575 0H16.9248C17.1888 0 17.4421 0.104891 17.6288 0.291597C17.8155 0.478304 17.9204 0.731532 17.9204 0.995575V4.48009C17.9203 4.6371 17.8831 4.79186 17.8118 4.93175C17.7405 5.07164 17.6372 5.19269 17.5102 5.28501L12.4447 8.96914V15.9292C12.4447 16.1011 12.4002 16.2701 12.3155 16.4197C12.2308 16.5693 12.1088 16.6945 11.9613 16.7829L6.98346 19.7696C6.83239 19.8603 6.65997 19.9092 6.4838 19.9114C6.30763 19.9137 6.13403 19.8691 5.98072 19.7823C5.82741 19.6955 5.69987 19.5695 5.61114 19.4173C5.52241 19.2651 5.47566 19.0921 5.47566 18.9159V8.96914L0.410177 5.28551C0.283113 5.19314 0.179709 5.07201 0.10842 4.93203C0.0371303 4.79205 -2.18372e-05 4.63718 9.62973e-09 4.48009V0.995575ZM1.99115 1.99115V3.97334L7.05664 7.65697C7.1837 7.74934 7.28711 7.87047 7.35839 8.01045C7.42968 8.15043 7.46684 8.3053 7.46681 8.46239V17.1577L10.4535 15.3657V8.46239C10.4536 8.30538 10.4908 8.15061 10.5621 8.01072C10.6334 7.87083 10.7367 7.74979 10.8637 7.65747L15.9292 3.97334V1.99115H1.99115Z" fill="#111111"/>
<path d="M18.7499 13.7905C18.7499 14.3403 18.3041 14.7861 17.7543 14.7861H15.7632C15.2133 14.7861 14.7676 14.3403 14.7676 13.7905C14.7676 13.2407 15.2133 12.7949 15.7632 12.7949H17.7543C18.3041 12.7949 18.7499 13.2407 18.7499 13.7905ZM18.7499 17.7728C18.7499 18.3226 18.3041 18.7684 17.7543 18.7684H15.7632C15.2133 18.7684 14.7676 18.3226 14.7676 17.7728C14.7676 17.223 15.2133 16.7772 15.7632 16.7772H17.7543C18.3041 16.7772 18.7499 17.223 18.7499 17.7728Z" fill="#111111"/>
</svg>
