<svg width="28" height="28" viewBox="0 0 28 28" fill="none" xmlns="http://www.w3.org/2000/svg">
<mask id="mask0_20802_90182" style="mask-type:luminance" maskUnits="userSpaceOnUse" x="1" y="3" width="26" height="22">
<path d="M26.0716 3.80469H1.92859V24.1922H26.0716V3.80469Z" fill="white"/>
</mask>
<g mask="url(#mask0_20802_90182)">
<path d="M26.0716 10.8379L21.0333 3.80469H14.0001H6.96859L1.92859 10.8379L14.0001 24.1922L26.0716 10.8379Z" fill="#F3C600"/>
<path d="M21.0333 3.80469H14.0001H6.96859L1.92859 10.8379H14.0001H26.0716L21.0333 3.80469Z" fill="#FFDF3E"/>
<path d="M6.96863 3.80469L9.88938 10.8379L14.0001 3.80469H6.96863Z" fill="#FFEE82"/>
<path d="M21.0334 3.80469L18.1126 10.8379L14.0001 3.80469H21.0334Z" fill="#FFEE82"/>
<path d="M9.8894 10.8359H18.1127L14.0002 24.1902L9.8894 10.8359Z" fill="#FFDE48"/>
<path d="M19.6246 9.85156H17.4126L14.6073 14.6833L11.5501 9.85156H8.38781H7.97656V10.8928H9.05281L14.2066 18.9673L19.6246 9.85156Z" fill="#944806"/>
</g>
</svg>
