<svg width="15" height="14" viewBox="0 0 15 14" fill="none" xmlns="http://www.w3.org/2000/svg">
<path fill-rule="evenodd" clip-rule="evenodd" d="M5.43953 1.12354C5.63422 1.4091 5.59476 1.82579 5.3514 2.05424L4.59221 2.76691H10.642C12.2893 2.76691 13.6248 4.33391 13.6248 6.2669V7.21284C13.6248 7.57854 13.3721 7.875 13.0604 7.875C12.7488 7.875 12.4961 7.57854 12.4961 7.21284V6.2669C12.4961 5.06531 11.666 4.09123 10.642 4.09123H1.37476L4.64635 1.02012C4.88972 0.791673 5.24483 0.837972 5.43953 1.12354Z" fill="#0C0D0F" stroke="#0C0D0F" stroke-width="0.28" stroke-linecap="round"/>
<path fill-rule="evenodd" clip-rule="evenodd" d="M9.55999 12.8765C9.36529 12.5909 9.40475 12.1742 9.64812 11.9458L10.4073 11.2331H4.35754C2.71019 11.2331 1.37476 9.66609 1.37476 7.7331V6.78716C1.37476 6.42146 1.62741 6.125 1.93907 6.125C2.25073 6.125 2.50338 6.42146 2.50338 6.78716V7.7331C2.50338 8.93469 3.33351 9.90877 4.35754 9.90877H13.6248L10.3532 12.9799C10.1098 13.2083 9.75468 13.162 9.55999 12.8765Z" fill="#0C0D0F" stroke="#0C0D0F" stroke-width="0.28" stroke-linecap="round"/>
</svg>
