<svg width="33" height="31" viewBox="0 0 33 31" fill="none" xmlns="http://www.w3.org/2000/svg">
<rect width="33" height="31" rx="6" fill="#F5F5F5"/>
<path d="M22 20H22.1662L22.3087 20.0855L24.4 21.3403V12.8C24.4 12.1373 23.8627 11.6 23.2 11.6H14.8C14.1373 11.6 13.6 12.1373 13.6 12.8V18.8C13.6 19.4627 14.1373 20 14.8 20H19H22ZM24.5817 21.4493C24.5817 21.4493 24.5816 21.4493 24.5816 21.4492L24.5817 21.4493Z" stroke="#0C0D0F" stroke-width="1.2"/>
<path d="M11 17H10.8338L10.6913 17.0855L8.6 18.3403V9.8C8.6 9.13726 9.13726 8.6 9.8 8.6H18.2C18.8627 8.6 19.4 9.13726 19.4 9.8V15.8C19.4 16.4627 18.8627 17 18.2 17H14H11Z" fill="white" stroke="#0C0D0F" stroke-width="1.2"/>
</svg>
