<svg width="14" height="15" viewBox="0 0 14 15" fill="none" xmlns="http://www.w3.org/2000/svg">
<path d="M6.81788 0.686513C6.91775 0.584231 7.08225 0.584231 7.18212 0.686513L8.95972 2.50697C9.00835 2.55678 9.07526 2.58449 9.14487 2.58366L11.6891 2.55336C11.832 2.55165 11.9483 2.66797 11.9466 2.81092L11.9163 5.35513C11.9155 5.42473 11.9432 5.49165 11.993 5.54028L13.8135 7.31788C13.9158 7.41775 13.9158 7.58225 13.8135 7.68212L11.993 9.45972C11.9432 9.50835 11.9155 9.57526 11.9163 9.64487L11.9466 12.1891C11.9483 12.332 11.832 12.4483 11.6891 12.4466L9.14487 12.4163C9.07526 12.4155 9.00835 12.4432 8.95972 12.493L7.18212 14.3135C7.08225 14.4158 6.91775 14.4158 6.81788 14.3135L5.04028 12.493C4.99165 12.4432 4.92473 12.4155 4.85513 12.4163L2.31092 12.4466C2.16797 12.4483 2.05165 12.332 2.05336 12.1891L2.08366 9.64487C2.08449 9.57526 2.05678 9.50835 2.00697 9.45972L0.186513 7.68212C0.0842312 7.58225 0.0842312 7.41775 0.186513 7.31788L2.00697 5.54028C2.05678 5.49165 2.08449 5.42473 2.08366 5.35513L2.05336 2.81092C2.05165 2.66797 2.16797 2.55165 2.31092 2.55336L4.85513 2.58366C4.92473 2.58449 4.99165 2.55678 5.04028 2.50697L6.81788 0.686513Z" fill="#FFD429"/>
<mask id="mask0_16055_7855" style="mask-type:alpha" maskUnits="userSpaceOnUse" x="0" y="0" width="14" height="15">
<path d="M6.81788 0.686513C6.91775 0.584231 7.08225 0.584231 7.18212 0.686513L8.95972 2.50697C9.00835 2.55678 9.07526 2.58449 9.14487 2.58366L11.6891 2.55336C11.832 2.55165 11.9483 2.66797 11.9466 2.81092L11.9163 5.35513C11.9155 5.42473 11.9432 5.49165 11.993 5.54028L13.8135 7.31788C13.9158 7.41775 13.9158 7.58225 13.8135 7.68212L11.993 9.45972C11.9432 9.50835 11.9155 9.57526 11.9163 9.64487L11.9466 12.1891C11.9483 12.332 11.832 12.4483 11.6891 12.4466L9.14487 12.4163C9.07526 12.4155 9.00835 12.4432 8.95972 12.493L7.18212 14.3135C7.08225 14.4158 6.91775 14.4158 6.81788 14.3135L5.04028 12.493C4.99165 12.4432 4.92473 12.4155 4.85513 12.4163L2.31092 12.4466C2.16797 12.4483 2.05165 12.332 2.05336 12.1891L2.08366 9.64487C2.08449 9.57526 2.05678 9.50835 2.00697 9.45972L0.186513 7.68212C0.0842312 7.58225 0.0842312 7.41775 0.186513 7.31788L2.00697 5.54028C2.05678 5.49165 2.08449 5.42473 2.08366 5.35513L2.05336 2.81092C2.05165 2.66797 2.16797 2.55165 2.31092 2.55336L4.85513 2.58366C4.92473 2.58449 4.99165 2.55678 5.04028 2.50697L6.81788 0.686513Z" fill="#FFD429"/>
</mask>
<g mask="url(#mask0_16055_7855)">
<path d="M12.635 15.9297L4.19727 7.64502L6.68416 8.83384L10.1845 6.36719L19.5244 15.9297H12.635Z" fill="url(#paint0_linear_16055_7855)" fill-opacity="0.1"/>
</g>
<path d="M4.66663 7.18288L6.57572 9.09197L9.75754 5.91016" stroke="#111111" stroke-width="1.27273"/>
<defs>
<linearGradient id="paint0_linear_16055_7855" x1="7.32134" y1="8.50737" x2="11.3739" y2="11.9078" gradientUnits="userSpaceOnUse">
<stop stop-color="#151515"/>
<stop offset="1" stop-color="#FFD429"/>
</linearGradient>
</defs>
</svg>
