<svg width="12" height="12" viewBox="0 0 12 12" fill="none" xmlns="http://www.w3.org/2000/svg">
<path d="M9.72187 9.96656H9.86253L9.98854 10.0291L11.4 10.7294V4.64688C11.4 4.23266 11.0642 3.89688 10.65 3.89688H4.35C3.93579 3.89688 3.6 4.23266 3.6 4.64688V9.21656C3.6 9.63078 3.93579 9.96656 4.35 9.96656H7.48124H9.72187ZM11.7467 10.9014C11.7466 10.9013 11.7465 10.9013 11.7464 10.9013L11.7467 10.9014Z" fill="white" stroke="#0C0D0F" stroke-width="1.2"/>
<path d="M2.27813 6.96656H2.13747L2.01146 7.02908L0.6 7.72939V1.64688C0.6 1.23266 0.935787 0.896875 1.35 0.896875H7.65C8.06421 0.896875 8.4 1.23266 8.4 1.64688V6.21656C8.4 6.63078 8.06421 6.96656 7.65 6.96656H4.51876H2.27813ZM0.25333 7.90139C0.253421 7.90135 0.253513 7.9013 0.253605 7.90126L0.25333 7.90139Z" fill="white" stroke="#0C0D0F" stroke-width="1.2"/>
</svg>
