<svg width="24" height="24" viewBox="0 0 24 24" fill="none" xmlns="http://www.w3.org/2000/svg">
<path d="M1.20005 11.9992C1.20005 14.9815 2.40889 17.6815 4.36331 19.636C6.31773 21.5904 9.01774 22.7992 12 22.7992C14.9824 22.7992 17.6824 21.5904 19.6368 19.636C21.5912 17.6815 22.8 14.9815 22.8 11.9992C22.8 9.01691 21.5912 6.31691 19.6368 4.36246C17.6824 2.40805 14.9824 1.19922 12 1.19922C9.01774 1.19922 6.31774 2.40805 4.36331 4.36246C2.40889 6.31691 1.20005 9.01691 1.20005 11.9992Z" stroke="#111111" stroke-width="2.4" stroke-linejoin="round"/>
<path d="M14.545 7.75863C15.0136 7.29 15.7734 7.29 16.242 7.75863C16.7107 8.22726 16.7107 8.98706 16.242 9.45569L9.4538 16.2439C8.98517 16.7125 8.22537 16.7125 7.75675 16.2439C7.28812 15.7753 7.28812 15.0155 7.75675 14.5469L14.545 7.75863Z" fill="#0C0D0F"/>
<path d="M16.2421 14.5459C16.7108 15.0146 16.7108 15.7744 16.2421 16.243C15.7735 16.7116 15.0137 16.7116 14.5451 16.243L7.75686 9.45478C7.28823 8.98615 7.28823 8.22635 7.75686 7.75772C8.22549 7.28909 8.98528 7.28909 9.45391 7.75772L16.2421 14.5459Z" fill="#0C0D0F"/>
</svg>
