    <svg width="11" height="10" viewBox="0 0 11 10" fill="none" xmlns="http://www.w3.org/2000/svg">
<path fill-rule="evenodd" clip-rule="evenodd" d="M6.14645 0.396447C6.34171 0.201184 6.6583 0.201184 6.85356 0.396447L9.85356 3.39645C9.99656 3.53945 10.0393 3.7545 9.96194 3.94134C9.88455 4.12818 9.70224 4.25 9.5 4.25H0.5C0.223858 4.25 0 4.02614 0 3.75C0 3.47386 0.223858 3.25 0.5 3.25H8.2929L6.14645 1.10355C5.95119 0.908291 5.95119 0.591709 6.14645 0.396447ZM0.237808 6.05866C0.315198 5.87182 0.497516 5.75 0.699748 5.75H9.69975C9.9759 5.75 10.1998 5.97386 10.1998 6.25C10.1998 6.52614 9.9759 6.75 9.69975 6.75H1.90686L4.05331 8.89645C4.24857 9.09171 4.24857 9.40829 4.05331 9.60355C3.85805 9.79882 3.54146 9.79882 3.3462 9.60355L0.346195 6.60355C0.203195 6.46056 0.160417 6.2455 0.237808 6.05866Z" fill="#2EBD87"/>
</svg>
