<svg width="20" height="21" viewBox="0 0 20 21" fill="none" xmlns="http://www.w3.org/2000/svg">
<path d="M9.73983 0.766447C9.8825 0.62033 10.1175 0.62033 10.2602 0.766447L12.7996 3.3671C12.8691 3.43825 12.9647 3.47784 13.0641 3.47666L16.6987 3.43337C16.9029 3.43093 17.0691 3.5971 17.0666 3.80131L17.0233 7.43589C17.0222 7.53533 17.0617 7.63092 17.1329 7.7004L19.7336 10.2398C19.8797 10.3825 19.8797 10.6175 19.7336 10.7602L17.1329 13.2996C17.0617 13.3691 17.0222 13.4647 17.0233 13.5641L17.0666 17.1987C17.0691 17.4029 16.9029 17.5691 16.6987 17.5666L13.0641 17.5233C12.9647 17.5222 12.8691 17.5617 12.7996 17.6329L10.2602 20.2336C10.1175 20.3797 9.8825 20.3797 9.73983 20.2336L7.2004 17.6329C7.13092 17.5617 7.03533 17.5222 6.93589 17.5233L3.30131 17.5666C3.0971 17.5691 2.93093 17.4029 2.93337 17.1987L2.97666 13.5641C2.97784 13.4647 2.93825 13.3691 2.8671 13.2996L0.266447 10.7602C0.12033 10.6175 0.12033 10.3825 0.266447 10.2398L2.8671 7.7004C2.93825 7.63092 2.97784 7.53533 2.97666 7.43589L2.93337 3.80131C2.93093 3.5971 3.0971 3.43093 3.30131 3.43337L6.93589 3.47666C7.03533 3.47784 7.13092 3.43825 7.2004 3.3671L9.73983 0.766447Z" fill="#FFD429"/>
<mask id="mask0_14261_117290" style="mask-type:alpha" maskUnits="userSpaceOnUse" x="0" y="0" width="20" height="21">
<path d="M9.73983 0.766447C9.8825 0.62033 10.1175 0.62033 10.2602 0.766447L12.7996 3.3671C12.8691 3.43825 12.9647 3.47784 13.0641 3.47666L16.6987 3.43337C16.9029 3.43093 17.0691 3.5971 17.0666 3.80131L17.0233 7.43589C17.0222 7.53533 17.0617 7.63092 17.1329 7.7004L19.7336 10.2398C19.8797 10.3825 19.8797 10.6175 19.7336 10.7602L17.1329 13.2996C17.0617 13.3691 17.0222 13.4647 17.0233 13.5641L17.0666 17.1987C17.0691 17.4029 16.9029 17.5691 16.6987 17.5666L13.0641 17.5233C12.9647 17.5222 12.8691 17.5617 12.7996 17.6329L10.2602 20.2336C10.1175 20.3797 9.8825 20.3797 9.73983 20.2336L7.2004 17.6329C7.13092 17.5617 7.03533 17.5222 6.93589 17.5233L3.30131 17.5666C3.0971 17.5691 2.93093 17.4029 2.93337 17.1987L2.97666 13.5641C2.97784 13.4647 2.93825 13.3691 2.8671 13.2996L0.266447 10.7602C0.12033 10.6175 0.12033 10.3825 0.266447 10.2398L2.8671 7.7004C2.93825 7.63092 2.97784 7.53533 2.97666 7.43589L2.93337 3.80131C2.93093 3.5971 3.0971 3.43093 3.30131 3.43337L6.93589 3.47666C7.03533 3.47784 7.13092 3.43825 7.2004 3.3671L9.73983 0.766447Z" fill="#FFD429"/>
</mask>
<g mask="url(#mask0_14261_117290)">
<path d="M18.05 22.5357L5.99609 10.7005L9.54879 12.3988L14.5493 8.875L27.892 22.5357H18.05Z" fill="url(#paint0_linear_14261_117290)" fill-opacity="0.1"/>
</g>
<path d="M6.66748 10.0447L9.39475 12.772L13.9402 8.22656" stroke="#111111" stroke-width="1.81818"/>
<defs>
<linearGradient id="paint0_linear_14261_117290" x1="10.4591" y1="11.9324" x2="16.2484" y2="16.7901" gradientUnits="userSpaceOnUse">
<stop stop-color="#151515"/>
<stop offset="1" stop-color="#FFD429"/>
</linearGradient>
</defs>
</svg>
