<svg width="20" height="20" viewBox="0 0 20 20" fill="none" xmlns="http://www.w3.org/2000/svg">
<rect x="1" y="2" width="18" height="16" rx="2.22222" stroke="#111111" stroke-width="2"/>
<path d="M4.44434 8.66753C4.44434 7.44024 5.43926 6.44531 6.66656 6.44531V6.44531C7.89386 6.44531 8.88878 7.44024 8.88878 8.66753V8.66753C8.88878 9.89483 7.89386 10.8898 6.66656 10.8898V10.8898C5.43926 10.8898 4.44434 9.89483 4.44434 8.66753V8.66753Z" stroke="#111111" stroke-width="2"/>
<path d="M11.1113 7C11.1113 6.44772 11.559 6 12.1113 6H15.1113C15.6636 6 16.1113 6.44772 16.1113 7C16.1113 7.55228 15.6636 8 15.1113 8H12.1113C11.559 8 11.1113 7.55228 11.1113 7Z" fill="#111111"/>
<path d="M4 14C4 13.4477 4.44772 13 5 13H15C15.5523 13 16 13.4477 16 14C16 14.5523 15.5523 15 15 15H5C4.44772 15 4 14.5523 4 14Z" fill="#111111"/>
<path d="M11.1113 10C11.1113 9.44772 11.559 9 12.1113 9H13.4447C13.9969 9 14.4447 9.44772 14.4447 10C14.4447 10.5523 13.9969 11 13.4447 11H12.1113C11.559 11 11.1113 10.5523 11.1113 10Z" fill="#111111"/>
</svg>
