<svg width="20" height="21" viewBox="0 0 20 21" fill="none" xmlns="http://www.w3.org/2000/svg">
<rect y="0.5" width="20" height="20" fill="white"/>
<rect x="2.5" y="3" width="15" height="15" rx="7.5" fill="#4D4D4D"/>
<path fill-rule="evenodd" clip-rule="evenodd" d="M13.3184 9.22798C13.3184 11.1743 11.5993 13.4173 8.45407 13.4173C7.52469 13.4186 6.61465 13.1888 5.83334 12.7556C5.96628 12.7696 6.10283 12.775 6.24119 12.775C7.04242 12.775 7.77945 12.5407 8.36454 12.1452C8.00798 12.1391 7.66249 12.0375 7.37622 11.8544C7.08995 11.6713 6.87716 11.4159 6.76751 11.1237C7.02357 11.1656 7.28736 11.1569 7.5389 11.098C7.15189 11.0307 6.80386 10.8501 6.55382 10.587C6.30379 10.324 6.16714 9.99454 6.16704 9.65462V9.63671C6.39764 9.74649 6.6617 9.81344 6.94204 9.82123C6.57923 9.6133 6.32239 9.2939 6.22405 8.92834C6.12571 8.56279 6.19331 8.1787 6.41301 7.85463C6.84253 8.3093 7.37816 8.68124 7.98524 8.94639C8.59232 9.21153 9.25731 9.36396 9.93716 9.39381C9.85073 9.07796 9.88793 8.74637 10.043 8.45061C10.198 8.15484 10.4622 7.91145 10.7945 7.75829C11.1268 7.60514 11.5086 7.55078 11.8805 7.60368C12.2523 7.65658 12.5935 7.81378 12.8509 8.05082C13.2336 7.98564 13.6005 7.86479 13.9361 7.69347C13.8085 8.03458 13.5415 8.32423 13.1846 8.5086C13.5236 8.47345 13.8546 8.395 14.1667 8.27582C13.9374 8.57158 13.6486 8.8297 13.3139 9.03801C13.3175 9.10185 13.3184 9.16569 13.3184 9.22798Z" fill="white"/>
</svg>
