<svg width="24" height="24" viewBox="0 0 24 24" fill="none" xmlns="http://www.w3.org/2000/svg">
<g clip-path="url(#clip0_25665_20583)">
<circle cx="12" cy="12" r="12" fill="white"/>
<circle cx="11.9986" cy="12.0006" r="10.2857" fill="white"/>
<path d="M11.9986 1.71484C6.31786 1.71484 1.71289 6.32007 1.71289 12.0006C1.71289 17.681 6.31786 22.2863 11.9986 22.2863C17.6794 22.2863 22.2843 17.681 22.2843 12.0006C22.2843 6.32007 17.6794 1.71484 11.9986 1.71484ZM15.3797 12.9503C14.8222 13.7235 14.0558 14.6523 13.3868 15.201C12.9019 15.5983 12.0057 16.214 11.2995 16.1013C9.48045 15.811 9.86767 11.5669 8.64248 10.6096C8.08224 10.4549 7.81206 11.2731 7.50417 10.7894C7.02002 10.4057 7.9705 9.73522 8.45287 9.34901C9.04902 8.87188 9.75216 8.19187 10.5401 8.48745C12.0749 9.06325 10.9748 12.5515 12.4381 13.3104C13.1942 12.7326 14.0417 11.7773 13.8614 10.6096C13.718 10.2199 13.0252 10.3437 12.6279 10.4296C12.6073 8.64841 16.3075 7.28309 16.6132 9.70962C16.7791 11.1947 15.3797 12.9503 15.3797 12.9503Z" fill="#2A72FF"/>
</g>
<defs>
<clipPath id="clip0_25665_20583">
<rect width="24" height="24" fill="white"/>
</clipPath>
</defs>
</svg>
