<svg width="22" height="20" viewBox="0 0 22 20" fill="none" xmlns="http://www.w3.org/2000/svg">
<path d="M19.3741 3.4319C17.0852 0.618525 12.9379 0.184591 10.1104 2.46326L7.94136 4.21134L9.02485 5.5433L11.1939 3.79523C11.6903 3.39512 12.2611 3.09624 12.8736 2.91567C13.4862 2.7351 14.1284 2.67636 14.7637 2.74282C15.3991 2.80928 16.015 2.99963 16.5764 3.30299C17.1378 3.60636 17.6337 4.01681 18.0357 4.51091C18.4378 5.00501 18.7381 5.57307 18.9195 6.18267C19.1009 6.79227 19.16 7.43147 19.0932 8.06377C19.0264 8.69607 18.8351 9.30909 18.5303 9.86782C18.2255 10.4266 17.8131 10.9201 17.3166 11.3202L14.9926 13.193L16.0761 14.525L18.4001 12.6521C19.0724 12.1104 19.631 11.4422 20.0438 10.6857C20.4566 9.9291 20.7156 9.09901 20.8061 8.24281C20.8965 7.3866 20.8166 6.52106 20.5709 5.69559C20.3252 4.87013 19.9185 4.10092 19.3741 3.4319ZM10.8901 16.5C10.3937 16.9001 9.82288 17.199 9.21036 17.3795C8.59784 17.5601 7.95559 17.6188 7.32026 17.5524C6.68494 17.4859 6.06898 17.2956 5.50757 16.9922C4.94616 16.6888 4.45029 16.2784 4.04826 15.7843C3.64624 15.2902 3.34594 14.7221 3.1645 14.1125C2.98306 13.5029 2.92405 12.8637 2.99082 12.2314C3.0576 11.5991 3.24886 10.9861 3.55368 10.4274C3.8585 9.86864 4.27091 9.37513 4.76737 8.97502L7.15613 7.05008L6.07265 5.71811L3.68389 7.64305C0.857051 9.92104 0.421041 14.0492 2.70993 16.8626C4.99881 19.676 9.14677 20.1099 11.9736 17.8319L14.2363 16.0085L13.1528 14.6765L10.8901 16.5Z" fill="#111111" stroke="black" stroke-width="0.202048"/>
<rect x="6.75439" y="12.293" width="9.5163" height="2" rx="1" transform="rotate(-40 6.75439 12.293)" fill="#111111"/>
</svg>
