<svg width="28" height="28" viewBox="0 0 28 28" fill="none" xmlns="http://www.w3.org/2000/svg">
<mask id="mask0_20802_90261" style="mask-type:luminance" maskUnits="userSpaceOnUse" x="2" y="3" width="25" height="22">
<path d="M26.6042 3.80469H2.46118V24.1922H26.6042V3.80469Z" fill="white"/>
</mask>
<g mask="url(#mask0_20802_90261)">
<path d="M26.6042 10.8379L21.5659 3.80469H14.5327H7.50118L2.46118 10.8379L14.5327 24.1922L26.6042 10.8379Z" fill="#111111"/>
<path d="M21.5659 3.80469H14.5327H7.50118L2.46118 10.8379H14.5327H26.6042L21.5659 3.80469Z" fill="#363636"/>
<path d="M7.50122 3.80469L10.422 10.8379L14.5327 3.80469H7.50122Z" fill="#444444"/>
<path d="M21.566 3.80469L18.6452 10.8379L14.5327 3.80469H21.566Z" fill="#444444"/>
<path d="M10.422 10.8359H18.6452L14.5327 24.1902L10.422 10.8359Z" fill="#363636"/>
<path d="M20.1572 9.85156H17.9452L15.1399 14.6833L12.0827 9.85156H8.92041H8.50916V10.8928H9.5854L14.7392 18.9673L20.1572 9.85156Z" fill="#FFBE2E"/>
</g>
</svg>
