<svg width="14" height="14" viewBox="0 0 14 14" fill="none" xmlns="http://www.w3.org/2000/svg">
<path d="M6.99995 13.2992C8.73963 13.2992 10.3146 12.5941 11.4547 11.454C12.5948 10.3139 13.3 8.7389 13.3 6.99922C13.3 5.25954 12.5948 3.68454 11.4547 2.54444C10.3146 1.40437 8.73963 0.699219 6.99995 0.699219C5.26027 0.699219 3.68527 1.40437 2.54518 2.54444C1.4051 3.68454 0.699951 5.25954 0.699951 6.99922C0.699951 8.7389 1.4051 10.3139 2.54518 11.454C3.68527 12.5941 5.26027 13.2992 6.99995 13.2992Z" stroke="#666666" stroke-width="1.4" stroke-linejoin="round"/>
<path d="M7.10596 8.45573V7.28906C8.07245 7.28906 8.85596 6.50556 8.85596 5.53906C8.85596 4.57257 8.07245 3.78906 7.10596 3.78906C6.13946 3.78906 5.35596 4.57257 5.35596 5.53906" stroke="#666666" stroke-width="1.4" stroke-linecap="round" stroke-linejoin="round"/>
<path fill-rule="evenodd" clip-rule="evenodd" d="M7.10636 11.0794C7.50907 11.0794 7.83553 10.753 7.83553 10.3503C7.83553 9.94756 7.50907 9.62109 7.10636 9.62109C6.70366 9.62109 6.3772 9.94756 6.3772 10.3503C6.3772 10.753 6.70366 11.0794 7.10636 11.0794Z" fill="#666666"/>
</svg>
