<svg width="127" height="98" viewBox="0 0 127 98" fill="none" xmlns="http://www.w3.org/2000/svg">
<path d="M35.1609 62.0662C35.0912 62.0651 35.0231 62.045 34.9639 62.0083C34.9261 61.9827 34.8937 61.9499 34.8686 61.9117C34.8435 61.8736 34.8261 61.8309 34.8175 61.7861C34.8089 61.7412 34.8092 61.6951 34.8184 61.6504C34.8276 61.6057 34.8455 61.5632 34.8712 61.5254L37.6833 57.3844C38.2637 56.5236 38.5472 55.4969 38.4907 54.4603L37.9228 44.8031C37.7729 42.2818 37.9994 39.7522 38.5949 37.2976L40.959 27.5245C41.2512 26.313 41.6991 25.1444 42.2917 24.048C42.8534 23.0143 43.2336 21.892 43.4159 20.7298L43.891 17.7245C43.9886 17.0991 44.3249 16.5359 44.8292 16.1533C45.3334 15.7708 45.9664 15.5987 46.595 15.6733C49.044 15.9437 50.0059 19.795 49.8591 21.8732L49.9093 25.3961C49.9275 26.5842 49.7164 27.7646 49.2874 28.8727L49.0749 29.4328C48.8319 30.0612 48.7075 30.7291 48.708 31.4029V37.9697C49.7509 38.5723 54.5602 41.7901 54.5602 49.6974V59.2888C54.5602 59.3811 54.5235 59.4695 54.4583 59.5347C54.3931 59.5999 54.3047 59.6365 54.2125 59.6365C54.1203 59.6365 54.0319 59.5999 53.9667 59.5347C53.9015 59.4695 53.8648 59.3811 53.8648 59.2888V49.7205C53.8648 41.3304 48.2676 38.5375 48.2096 38.5182C48.1507 38.4899 48.1009 38.4455 48.0661 38.3902C48.0312 38.3348 48.0127 38.2708 48.0126 38.2053V31.4453C48.0118 30.6858 48.152 29.9326 48.426 29.2242L48.6384 28.6679C49.0351 27.6396 49.2306 26.5446 49.214 25.4425L49.1637 21.8925C49.3144 19.7718 48.3564 16.6042 46.5176 16.4034C46.0682 16.35 45.6157 16.4733 45.2554 16.7471C44.8951 17.0209 44.6552 17.424 44.5862 17.8713L44.115 20.8766C43.9199 22.1173 43.5136 23.3154 42.9137 24.4188C42.3499 25.456 41.9239 26.5624 41.6466 27.71L39.2825 37.483C38.703 39.8719 38.483 42.3339 38.6297 44.7877L39.1937 54.4255C39.2612 55.6153 38.9369 56.7944 38.2705 57.7823L35.4583 61.9233C35.4242 61.9697 35.3793 62.0069 35.3274 62.0318C35.2756 62.0568 35.2184 62.0686 35.1609 62.0662Z" fill="white"/>
<path d="M50.798 72.838C50.7537 72.8387 50.7097 72.8305 50.6685 72.8139C50.6274 72.7973 50.59 72.7727 50.5586 72.7414C50.4937 72.6763 50.4573 72.5881 50.4573 72.4961C50.4573 72.4042 50.4937 72.316 50.5586 72.2508L54.9081 67.7158C54.9357 67.6884 54.9669 67.665 55.0009 67.6463C55.0858 67.6038 63.7116 63.0572 67.5126 58.1514C67.5403 58.115 67.5749 58.0845 67.6145 58.0617C67.654 58.0388 67.6977 58.0241 67.743 58.0184C67.7883 58.0126 67.8343 58.0159 67.8783 58.0282C67.9224 58.0404 67.9635 58.0613 67.9993 58.0896C68.0719 58.146 68.1191 58.2289 68.1307 58.3202C68.1423 58.4114 68.1173 58.5035 68.0611 58.5763C64.2794 63.4589 56.1636 67.8201 55.3717 68.2334L51.0607 72.7298C51.0268 72.7651 50.986 72.793 50.9408 72.8116C50.8956 72.8302 50.8469 72.8392 50.798 72.838Z" fill="white"/>
<path d="M74.7786 58.4308H54.1972C54.1053 58.4298 54.0175 58.3928 53.9525 58.3279C53.8875 58.2629 53.8506 58.175 53.8496 58.0831C53.8496 57.9909 53.8862 57.9025 53.9514 57.8373C54.0166 57.7721 54.105 57.7355 54.1972 57.7355H74.7786C75.0395 57.7345 75.2894 57.6304 75.4739 57.4459C75.6584 57.2614 75.7626 57.0114 75.7636 56.7505V50.1836C75.7636 50.0914 75.8002 50.003 75.8654 49.9378C75.9306 49.8726 76.019 49.8359 76.1112 49.8359C76.2034 49.8359 76.2919 49.8726 76.3571 49.9378C76.4223 50.003 76.4589 50.0914 76.4589 50.1836V56.7505C76.4578 57.1958 76.2805 57.6226 75.9656 57.9375C75.6507 58.2524 75.2239 58.4298 74.7786 58.4308Z" fill="white"/>
<path d="M76.1113 45.2046C76.0191 45.2046 75.9306 45.168 75.8654 45.1028C75.8002 45.0376 75.7637 44.9492 75.7637 44.857V43.2539C75.7637 43.1617 75.8002 43.0733 75.8654 43.0081C75.9306 42.9429 76.0191 42.9062 76.1113 42.9062C76.2035 42.9062 76.292 42.9429 76.3572 43.0081C76.4224 43.0733 76.4589 43.1617 76.4589 43.2539V44.857C76.4589 44.9492 76.4224 45.0376 76.3572 45.1028C76.292 45.168 76.2035 45.2046 76.1113 45.2046Z" fill="white"/>
<path d="M76.1113 38.1662C76.0191 38.1662 75.9306 38.1296 75.8654 38.0644C75.8002 37.9992 75.7637 37.9107 75.7637 37.8185V34.8789C75.7637 34.7867 75.8002 34.6983 75.8654 34.6331C75.9306 34.5679 76.0191 34.5312 76.1113 34.5312C76.2035 34.5312 76.292 34.5679 76.3572 34.6331C76.4224 34.6983 76.4589 34.7867 76.4589 34.8789V37.8185C76.4589 37.9107 76.4224 37.9992 76.3572 38.0644C76.292 38.1296 76.2035 38.1662 76.1113 38.1662Z" fill="white"/>
<path d="M76.1111 28.782C76.0189 28.782 75.9305 28.7454 75.8653 28.6802C75.8001 28.615 75.7635 28.5266 75.7635 28.4344V4.09837C75.7625 3.83743 75.6583 3.58747 75.4738 3.40296C75.2893 3.21845 75.0394 3.11435 74.7785 3.11333H49.4961C49.2348 3.11333 48.9842 3.21711 48.7995 3.40184C48.6148 3.58657 48.511 3.83712 48.511 4.09837V17.0274C48.511 17.073 48.502 17.1182 48.4845 17.1604C48.467 17.2026 48.4414 17.2409 48.4092 17.2732C48.3769 17.3055 48.3385 17.3311 48.2964 17.3486C48.2542 17.366 48.2089 17.375 48.1633 17.375C48.0711 17.375 47.9827 17.3384 47.9175 17.2732C47.8523 17.208 47.8157 17.1196 47.8157 17.0274V4.10222C47.8157 3.65657 47.9927 3.22917 48.3079 2.91405C48.623 2.59892 49.0504 2.42187 49.4961 2.42188H74.7785C75.2241 2.42188 75.6515 2.59892 75.9667 2.91405C76.2818 3.22917 76.4587 3.65657 76.4587 4.10222V28.4382C76.4577 28.5298 76.4207 28.6172 76.3556 28.6816C76.2905 28.746 76.2027 28.7821 76.1111 28.782Z" fill="white"/>
<path d="M67.0682 6.46094H57.2487C57.1565 6.46094 57.0682 6.4243 57.003 6.35911C56.9378 6.29391 56.9011 6.20548 56.9011 6.11328C56.9011 6.02108 56.9378 5.93264 57.003 5.86744C57.0682 5.80224 57.1565 5.76562 57.2487 5.76562H67.0682C67.1604 5.76563 67.2488 5.80224 67.314 5.86744C67.3792 5.93264 67.4158 6.02108 67.4158 6.11328C67.4158 6.20548 67.3792 6.29391 67.314 6.35911C67.2488 6.4243 67.1604 6.46094 67.0682 6.46094Z" fill="white"/>
<path d="M62.8463 75.743H62.8078C58.1472 75.2302 53.5956 73.9907 49.3186 72.0694C41.1139 68.4306 34.408 62.7367 30.4331 56.0308C26.4582 49.3249 25.6702 42.3331 28.2853 36.4422C30.576 31.2699 35.366 27.3838 41.7629 25.4988C41.8068 25.4857 41.8528 25.4815 41.8983 25.4863C41.9438 25.4911 41.9879 25.5048 42.0281 25.5267C42.0683 25.5486 42.1038 25.5782 42.1325 25.6139C42.1612 25.6495 42.1826 25.6905 42.1955 25.7344C42.2085 25.7783 42.2127 25.8243 42.2079 25.8698C42.2031 25.9153 42.1895 25.9595 42.1676 25.9997C42.1457 26.0399 42.1161 26.0753 42.0804 26.1041C42.0448 26.1328 42.0038 26.1542 41.9599 26.167C35.76 27.9942 31.1439 31.7411 28.9189 36.7242C26.4003 42.4026 27.1497 49.1356 31.0319 55.6754C34.914 62.2153 41.5273 67.855 49.6007 71.4359C53.8123 73.3258 58.293 74.5469 62.8811 75.0554C62.9271 75.0597 62.9718 75.0732 63.0124 75.0951C63.053 75.117 63.0888 75.1469 63.1177 75.1829C63.1465 75.219 63.1678 75.2605 63.1803 75.3049C63.1927 75.3494 63.1961 75.3959 63.1902 75.4417C63.179 75.525 63.1379 75.6014 63.0747 75.6568C63.0115 75.7122 62.9304 75.7428 62.8463 75.743Z" fill="white"/>
<path d="M83.7403 39.8727C83.6167 39.726 83.4892 39.583 83.354 39.4362L83.8755 38.9766C84.0069 39.1234 84.1343 39.2701 84.2618 39.4208L83.7403 39.8727Z" fill="#FFCE1F"/>
<path d="M67.0062 75.9667H66.0637L66.0831 75.2714H67.0062H67.2419V75.9667H67.0062ZM68.4317 75.9397L68.4046 75.2443C68.7909 75.2443 69.1772 75.2096 69.5635 75.1826L69.6098 75.8779C69.2197 75.9049 68.8257 75.9242 68.4317 75.9397ZM70.7919 75.7736L70.7185 75.0782C71.1048 75.0396 71.4911 74.9933 71.8773 74.9392L71.9739 75.6268C71.576 75.6808 71.1859 75.7311 70.7919 75.7736ZM73.1366 75.4414L73.013 74.7576C73.3993 74.6881 73.7856 74.6147 74.1487 74.5297L74.2955 75.2096C73.9118 75.2946 73.5255 75.3718 73.1366 75.4414ZM75.4544 74.9353L75.2805 74.2632C75.654 74.1679 76.0247 74.0636 76.393 73.9503L76.5939 74.6147C76.2153 74.7306 75.8368 74.8349 75.4505 74.9353H75.4544ZM77.7218 74.2477L77.494 73.5911C77.8571 73.4636 78.2201 73.3245 78.5755 73.1816L78.8344 73.8267C78.4674 73.9735 78.0926 74.1164 77.7179 74.2555L77.7218 74.2477ZM79.9275 73.3593L79.634 72.7258C79.9894 72.5635 80.337 72.3936 80.6731 72.2197L80.9936 72.8378C80.6498 73.0155 80.2868 73.1932 79.9237 73.3593H79.9275ZM82.0328 72.2622L81.6812 71.6635C82.0134 71.4665 82.3418 71.2772 82.6624 71.0532L83.0487 71.6326C82.7126 71.8489 82.3727 72.0614 82.029 72.2622H82.0328ZM84.0183 70.945L83.6011 70.3887C83.9101 70.1608 84.2114 69.9213 84.505 69.6741L84.9531 70.2072C84.6479 70.4583 84.3312 70.7093 84.0144 70.945H84.0183ZM85.8377 69.3998L85.3587 68.8938C85.6368 68.6273 85.9072 68.353 86.1622 68.0749L86.676 68.5461C86.4056 68.8475 86.1235 69.1333 85.8338 69.4114L85.8377 69.3998ZM87.4563 67.6422L86.9116 67.2057C87.1549 66.9083 87.3867 66.5993 87.603 66.2902L88.1709 66.6765C87.943 67.0242 87.6996 67.3448 87.4524 67.6538L87.4563 67.6422ZM88.8275 65.6876L88.2326 65.3284C88.4296 65.0039 88.619 64.6678 88.7928 64.3279L89.4108 64.6447C89.2254 65.0116 89.0284 65.3709 88.8237 65.6992L88.8275 65.6876ZM89.9208 63.5669L89.2796 63.2888C89.4341 62.9411 89.5731 62.5819 89.7005 62.2226L90.3572 62.4506C90.2181 62.8407 90.0714 63.2115 89.9208 63.5785V63.5669ZM90.7127 61.311L90.0444 61.1256C90.1448 60.7393 90.2375 60.3839 90.3109 60.0092L90.9946 60.1521C90.9097 60.55 90.8169 60.944 90.6933 61.3226L90.7127 61.311ZM91.1955 58.9933L90.5079 58.8967C90.5581 58.5104 90.5968 58.1241 90.6238 57.7379L91.3192 57.7842C91.2844 58.1937 91.2457 58.5954 91.1916 58.9856L91.1955 58.9933ZM91.3655 56.6138H90.6701V56.4708C90.6701 56.1386 90.6702 55.8026 90.6432 55.4665L91.3384 55.4279C91.3577 55.7755 91.3655 56.127 91.3655 56.4708V56.6138ZM90.5466 54.296C90.5041 53.9098 90.4499 53.5235 90.3881 53.1565L91.0719 53.0406C91.1414 53.4269 91.1955 53.8132 91.238 54.2188L90.5466 54.296ZM90.1603 52.0247C90.0792 51.6384 89.9825 51.2792 89.8782 50.9045L90.5504 50.719C90.6547 51.1053 90.7551 51.4916 90.8401 51.8779L90.1603 52.0247ZM89.5422 49.7997C89.4225 49.4404 89.2911 49.0735 89.1559 48.7142L89.8048 48.4631C89.9478 48.8494 90.083 49.2125 90.1911 49.5834L89.5422 49.7997ZM88.7117 47.6442C88.5611 47.2927 88.3988 46.9412 88.2289 46.5935L88.8546 46.2883C89.0284 46.6476 89.1945 47.0068 89.3491 47.3661L88.7117 47.6442ZM87.6996 45.5621C87.5193 45.2248 87.3301 44.8887 87.1318 44.5539L87.7305 44.2024C87.9314 44.5475 88.1246 44.8913 88.31 45.2338L87.6996 45.5621ZM86.5214 43.5689C86.3167 43.2444 86.1004 42.9238 85.8802 42.6032L86.4519 42.2169C86.676 42.5414 86.8961 42.8697 87.1086 43.2019L86.5214 43.5689ZM85.2003 41.6645C84.9724 41.3555 84.7368 41.0503 84.4934 40.7451L85.0343 40.3125C85.2815 40.6215 85.5248 40.9344 85.7566 41.2473L85.2003 41.6645Z" fill="#FFCE1F"/>
<path d="M64.8663 75.902L64.283 75.8633L64.3332 75.1719L64.9049 75.2066L64.8663 75.902Z" fill="#FFCE1F"/>
<path d="M108.204 38.2454C108.15 38.2454 108.097 38.2329 108.049 38.2087C108 38.1846 107.958 38.1495 107.926 38.1064C101.359 29.4265 92.1268 21.8399 81.2336 16.1653C81.1524 16.1226 81.0913 16.0494 81.0638 15.9619C81.0363 15.8743 81.0446 15.7794 81.0867 15.6979C81.1072 15.657 81.1356 15.6206 81.1703 15.5908C81.205 15.561 81.2453 15.5384 81.2888 15.5244C81.3324 15.5104 81.3782 15.5052 81.4238 15.5091C81.4694 15.513 81.5137 15.526 81.5542 15.5473C92.2003 21.0943 101.255 28.4569 107.86 36.8818C107.86 35.3367 107.86 34.1237 107.86 33.1464C107.86 32.2812 107.86 31.6013 107.86 31.0528C107.862 30.9616 107.9 30.8747 107.965 30.8105C108.029 30.7464 108.117 30.71 108.208 30.709C108.254 30.709 108.299 30.718 108.341 30.7354C108.383 30.7529 108.421 30.7785 108.454 30.8108C108.486 30.8431 108.512 30.8814 108.529 30.9236C108.547 30.9658 108.556 31.011 108.556 31.0566C108.556 31.6052 108.556 32.2812 108.556 33.1464C108.556 34.3323 108.556 35.8698 108.556 37.9016C108.554 37.9743 108.53 38.0447 108.487 38.1034C108.445 38.1621 108.385 38.2063 108.316 38.23C108.28 38.2412 108.242 38.2464 108.204 38.2454Z" fill="white"/>
<path d="M30.85 7.16582C30.7684 7.16547 30.6895 7.13675 30.6268 7.0846C30.564 7.03245 30.5214 6.9601 30.5061 6.87996C30.4904 6.78886 30.5111 6.6952 30.5639 6.61928C30.6166 6.54336 30.6972 6.4913 30.7881 6.47437C36.5238 5.45906 42.3678 5.19933 48.171 5.7018C48.2174 5.70563 48.2627 5.71876 48.304 5.74041C48.3452 5.76207 48.3817 5.79179 48.4112 5.82783C48.4408 5.86386 48.4628 5.90547 48.476 5.95018C48.4891 5.99489 48.4931 6.04179 48.4878 6.08808C48.4845 6.13472 48.4717 6.18021 48.4502 6.22174C48.4288 6.26327 48.399 6.29998 48.3628 6.32963C48.3267 6.35928 48.2849 6.38124 48.2399 6.39417C48.195 6.4071 48.1479 6.41074 48.1015 6.40484C42.3521 5.91038 36.5628 6.17011 30.8808 7.17741L30.85 7.16582Z" fill="white"/>
<path d="M2.78645 26.616C2.73728 26.6149 2.68882 26.6044 2.64358 26.5851C2.5596 26.5471 2.49385 26.4776 2.46062 26.3916C2.42738 26.3057 2.42933 26.2101 2.4659 26.1255C4.15905 22.3395 6.62936 18.9519 9.7165 16.1824C9.78511 16.1215 9.87484 16.0898 9.96651 16.0941C10.0582 16.0985 10.1444 16.1385 10.207 16.2056C10.2679 16.2742 10.2997 16.364 10.2954 16.4556C10.291 16.5473 10.251 16.6336 10.1839 16.6962C7.16841 19.4006 4.75588 22.7094 3.10323 26.4074C3.0763 26.4691 3.03205 26.5217 2.97582 26.5587C2.91959 26.5958 2.85378 26.6157 2.78645 26.616Z" fill="white"/>
<path d="M15.9394 71.5438C15.8933 71.5439 15.8477 71.5347 15.8052 71.5167C15.7627 71.4988 15.7244 71.4726 15.6922 71.4395C9.45758 65.0426 4.83752 57.9388 2.28417 50.8234C1.65066 52.7819 1.04422 54.6399 0.673387 55.6365C0.641167 55.7224 0.576718 55.7922 0.49373 55.8312C0.410742 55.8701 0.315821 55.8751 0.229196 55.8451C0.14245 55.8129 0.0718971 55.7478 0.0328465 55.6639C-0.00620407 55.58 -0.0106181 55.4841 0.0205865 55.397C0.449364 54.2382 1.23739 51.8123 1.95202 49.6027C1.97576 49.533 2.02038 49.4723 2.0798 49.4287C2.13923 49.3852 2.21053 49.361 2.28417 49.3594C2.35725 49.3592 2.42855 49.3823 2.48759 49.4254C2.54663 49.4685 2.59038 49.5292 2.61255 49.5989C5.05388 56.9383 9.75109 64.3164 16.2021 70.9334C16.2672 70.9993 16.3037 71.0881 16.3037 71.1807C16.3037 71.2732 16.2672 71.3621 16.2021 71.4279C16.1694 71.4652 16.129 71.4949 16.0836 71.5149C16.0382 71.5349 15.989 71.5448 15.9394 71.5438Z" fill="white"/>
<path d="M76.3545 97.2083C65.3106 97.2083 53.4284 94.5931 42.2957 89.6564C38.8886 88.1452 35.576 86.4296 32.3759 84.5188C32.3365 84.4957 32.3022 84.465 32.2749 84.4286C32.2475 84.3921 32.2276 84.3505 32.2165 84.3063C32.2054 84.2621 32.2031 84.2161 32.2099 84.171C32.2167 84.1259 32.2324 84.0826 32.2561 84.0437C32.278 84.0007 32.3088 83.9628 32.3464 83.9325C32.3839 83.9022 32.4274 83.8801 32.4741 83.8677C32.5207 83.8553 32.5694 83.8529 32.617 83.8606C32.6647 83.8683 32.7102 83.8859 32.7506 83.9123C35.9275 85.8067 39.2156 87.5081 42.597 89.0074C69.1889 100.801 97.9596 98.4058 111.012 83.3058C111.073 83.237 111.159 83.1949 111.25 83.1884C111.342 83.1819 111.433 83.2116 111.503 83.2711C111.572 83.3321 111.614 83.4176 111.62 83.5093C111.627 83.601 111.597 83.6916 111.537 83.7617C105.16 91.1397 94.7688 95.8177 82.2802 96.934C80.3333 97.1169 78.358 97.2083 76.3545 97.2083Z" fill="white"/>
<path d="M118.271 64.2543C118.179 64.2533 118.092 64.2169 118.027 64.1527C117.962 64.0886 117.925 64.0017 117.923 63.9105C117.823 60.0393 117.114 56.208 115.822 52.5576C115.806 52.5144 115.8 52.4687 115.802 52.4231C115.804 52.3774 115.816 52.3326 115.836 52.2913C115.855 52.2501 115.883 52.2131 115.917 52.1826C115.951 52.152 115.991 52.1285 116.034 52.1133C116.077 52.0981 116.123 52.0917 116.169 52.0943C116.215 52.097 116.26 52.1087 116.301 52.1288C116.342 52.149 116.379 52.1771 116.41 52.2115C116.44 52.246 116.463 52.2861 116.478 52.3296C117.793 56.0501 118.515 59.9542 118.618 63.8989C118.619 63.9447 118.611 63.9903 118.594 64.0329C118.577 64.0755 118.552 64.1143 118.52 64.147C118.488 64.1798 118.45 64.2058 118.408 64.2235C118.366 64.2413 118.32 64.2505 118.274 64.2504L118.271 64.2543Z" fill="white"/>
<path d="M76.1111 22.4229C76.0585 22.4229 76.0066 22.4112 75.9591 22.3884C75.9116 22.3657 75.8699 22.3326 75.8369 22.2916C75.8084 22.2559 75.7872 22.215 75.7747 22.1711C75.7621 22.1273 75.7585 22.0814 75.7639 22.0361C75.7693 21.9908 75.7837 21.947 75.8061 21.9073C75.8286 21.8676 75.8587 21.8328 75.8948 21.8048C79.1164 19.236 81.6466 15.6243 81.7818 13.4456C81.8164 13.1676 81.79 12.8854 81.7047 12.6186C81.6193 12.3518 81.4769 12.1067 81.2873 11.9005C79.7113 10.2974 76.3892 12.7657 76.3545 12.7928C76.3179 12.8202 76.2765 12.8401 76.2322 12.8514C76.188 12.8628 76.1419 12.8653 76.0967 12.8588C76.0515 12.8524 76.008 12.8371 75.9687 12.8138C75.9295 12.7905 75.8952 12.7598 75.8678 12.7233C75.8404 12.6867 75.8205 12.6452 75.8092 12.6009C75.7978 12.5567 75.7953 12.5107 75.8017 12.4655C75.8082 12.4203 75.8235 12.3768 75.8468 12.3375C75.8701 12.2982 75.9008 12.2639 75.9373 12.2365C76.0918 12.1206 79.8001 9.37801 81.7818 11.4137C82.041 11.6884 82.2372 12.0163 82.3566 12.3746C82.476 12.7328 82.5158 13.1129 82.4733 13.4881C82.311 16.2191 79.2555 20.0125 76.3275 22.3456C76.2665 22.3957 76.19 22.423 76.1111 22.4229Z" fill="white"/>
<path d="M77.2548 35.4387C76.4017 35.4432 75.5768 35.1339 74.937 34.5696C74.5889 34.2661 74.3048 33.8963 74.1012 33.4818C73.8976 33.0673 73.7785 32.6163 73.7511 32.1553C73.7181 31.6953 73.7769 31.2334 73.9242 30.7963C74.0714 30.3593 74.3041 29.9559 74.6088 29.6097L76.602 27.3345C77.1581 26.7003 77.9431 26.3127 78.7847 26.257C79.6263 26.2012 80.4556 26.4818 81.0906 27.037L81.558 27.4465C82.2017 28.0114 82.595 28.8087 82.6514 29.6633C82.7079 30.5178 82.423 31.3599 81.8593 32.0047L79.9009 34.2451C79.5965 34.5922 79.2265 34.8757 78.8122 35.0793C78.3978 35.2828 77.9473 35.4023 77.4866 35.431L77.2548 35.4387ZM79.0046 26.9404C78.6501 26.9396 78.2995 27.0146 77.9763 27.1605C77.6532 27.3064 77.3649 27.5199 77.1311 27.7864L75.1418 30.0616C74.8967 30.3401 74.7093 30.6645 74.5906 31.0159C74.4719 31.3674 74.4242 31.7389 74.4503 32.109C74.4742 32.4779 74.5708 32.8385 74.7346 33.1699C74.8983 33.5014 75.1259 33.7972 75.4044 34.0404C75.682 34.2854 76.0058 34.4725 76.3568 34.5906C76.7077 34.7086 77.0787 34.7554 77.4479 34.728C77.8168 34.7056 78.1776 34.6101 78.5092 34.447C78.8407 34.2838 79.1365 34.0563 79.3793 33.7777L81.3378 31.5411C81.7801 31.0352 82.0037 30.3745 81.9595 29.7039C81.9153 29.0333 81.607 28.4076 81.1022 27.9641L80.6309 27.5508C80.1792 27.1599 79.602 26.9447 79.0046 26.9443V26.9404Z" fill="white"/>
<path d="M77.0887 43.7724C76.9441 43.7729 76.7995 43.7639 76.6561 43.7454C76.2457 43.6903 75.8502 43.5548 75.4923 43.3467C75.1344 43.1386 74.821 42.8619 74.5702 42.5324C74.3177 42.2025 74.1333 41.8256 74.0279 41.4237C73.9224 41.0218 73.898 40.603 73.9559 40.1915C74.0091 39.779 74.1438 39.3812 74.352 39.0211C74.5602 38.661 74.8379 38.3459 75.1689 38.094L77.8729 36.0274C78.4269 35.6065 79.1252 35.4226 79.8146 35.516C80.5041 35.6094 81.1284 35.9725 81.5504 36.5257L82.1761 37.3446C82.6034 37.9074 82.79 38.6167 82.6952 39.3169C82.6003 40.0171 82.2316 40.6512 81.67 41.08L78.966 43.1312C78.4268 43.5437 77.7677 43.7688 77.0887 43.7724ZM79.4682 36.1858C79.0503 36.1858 78.6437 36.3213 78.3094 36.572L75.6054 38.6387C75.3474 38.8357 75.1309 39.0819 74.9685 39.363C74.8061 39.6441 74.7009 39.9546 74.659 40.2765C74.6139 40.5976 74.6331 40.9245 74.7153 41.2381C74.7975 41.5518 74.9412 41.846 75.138 42.1037C75.5338 42.6213 76.1186 42.961 76.7643 43.0486C77.4101 43.1362 78.0642 42.9645 78.5836 42.5711L81.2876 40.5199C81.4946 40.3641 81.6688 40.169 81.8002 39.9457C81.9316 39.7225 82.0177 39.4756 82.0536 39.219C82.0895 38.9625 82.0744 38.7014 82.0093 38.4507C81.9441 38.2 81.8302 37.9646 81.6739 37.7579L81.052 36.939C80.8662 36.6974 80.6258 36.5032 80.3506 36.3723C80.0753 36.2413 79.7729 36.1774 79.4682 36.1858Z" fill="white"/>
<path d="M77.5172 50.4843C77.0733 50.4836 76.6301 50.4461 76.1923 50.3722C75.864 50.3722 73.9866 50.4302 72.9166 49.4336C72.6724 49.2074 72.4797 48.9313 72.3517 48.624C72.2237 48.3167 72.1635 47.9855 72.175 47.6528C72.175 45.308 74.8133 44.6089 76.2039 44.5625H76.2464C76.3701 44.5625 76.54 44.5625 76.737 44.5625C78.0195 44.5625 81.0248 44.5857 81.0248 47.6953C81.0441 48.078 80.9751 48.4599 80.823 48.8116C80.671 49.1633 80.4399 49.4753 80.1479 49.7233C79.4139 50.3413 78.3593 50.4843 77.5172 50.4843ZM76.2155 49.6731H76.285C76.3082 49.6731 78.5796 50.1173 79.7075 49.1902C79.9201 49.0081 80.0871 48.7787 80.1951 48.5205C80.3031 48.2622 80.3491 47.9822 80.3294 47.703C80.3294 45.4741 78.4715 45.2733 76.7332 45.2655C76.5246 45.2655 76.3468 45.2655 76.2078 45.2655C75.9103 45.2655 72.8703 45.4703 72.8703 47.6605C72.8598 47.8972 72.9005 48.1333 72.9899 48.3526C73.0792 48.572 73.215 48.7694 73.3879 48.9314C74.315 49.8005 76.173 49.6808 76.1923 49.6808L76.2155 49.6731Z" fill="white"/>
<path d="M115.551 84.8066C112.933 84.8096 110.404 83.8594 108.436 82.1334C106.282 80.2435 104.966 77.5761 104.777 74.7167C104.588 71.8574 105.541 69.0399 107.428 66.8829C108.36 65.8127 109.496 64.938 110.769 64.3094C112.042 63.6809 113.427 63.3109 114.844 63.2209C116.261 63.1229 117.684 63.307 119.029 63.7625C120.374 64.2181 121.616 64.936 122.682 65.8747C123.753 66.807 124.628 67.9427 125.257 69.2159C125.885 70.489 126.255 71.8743 126.344 73.2914C126.441 74.7077 126.256 76.1292 125.801 77.4738C125.345 78.8185 124.628 80.0595 123.69 81.1252C122.675 82.2845 121.424 83.2128 120.02 83.8478C118.616 84.4828 117.092 84.8097 115.551 84.8066ZM115.574 63.8892C115.348 63.8892 115.12 63.8969 114.891 63.9123C113.562 63.9943 112.264 64.3395 111.07 64.9277C109.876 65.5159 108.812 66.3354 107.937 67.3387C106.173 69.358 105.282 71.9945 105.458 74.6702C105.635 77.3458 106.865 79.8422 108.88 81.612C110.899 83.376 113.535 84.2675 116.21 84.0908C118.885 83.9141 121.38 82.6837 123.149 80.6694C124.029 79.6715 124.701 78.5088 125.128 77.2489C125.554 75.9889 125.726 74.6569 125.633 73.33C125.551 72.0018 125.206 70.7032 124.618 69.5095C124.03 68.3159 123.21 67.251 122.207 66.3768C120.372 64.7696 118.014 63.8853 115.574 63.8892Z" fill="white"/>
<path d="M117.413 69.8692C116.64 68.9267 115.659 69.201 115.095 69.3516C114.68 69.4924 114.282 69.6804 113.909 69.9117L112.793 68.3125L111.885 68.946L112.986 70.5336L112.264 71.0358L111.159 69.4482L110.247 70.0817L111.352 71.6693L109.421 72.9982L110.073 73.9446L111.136 73.2183C111.244 73.1449 111.275 73.2183 111.306 73.2183C111.337 73.2183 114.647 78.0314 114.705 78.1048C114.763 78.1782 114.778 78.2053 114.705 78.2671L113.701 78.9663L114.427 80.0131L116.281 78.7229L117.336 80.241L118.325 79.5611L117.27 78.0392L117.88 77.6181L118.931 79.1401L119.877 78.4873L118.823 76.9692L119.534 76.4747C120.005 76.1502 121.415 74.5742 120.306 72.9982C120.028 72.5581 119.611 72.2243 119.12 72.0505C118.63 71.8768 118.095 71.8731 117.602 72.0402C117.602 72.0402 118.189 70.8156 117.413 69.8692ZM118.344 74.0527C118.51 74.3167 118.575 74.632 118.527 74.9402C118.479 75.2485 118.32 75.5287 118.081 75.7292L116.397 76.919L114.995 74.8987L116.741 73.6896C116.869 73.6055 117.014 73.5478 117.165 73.52C117.316 73.4921 117.471 73.4946 117.622 73.5274C117.771 73.5628 117.911 73.6275 118.035 73.7177C118.159 73.8078 118.264 73.9217 118.344 74.0527ZM115.86 71.3989C115.947 71.5314 116.007 71.6798 116.036 71.8357C116.066 71.9916 116.063 72.1517 116.03 72.3067C115.999 72.4638 115.937 72.6131 115.848 72.7458C115.758 72.8785 115.643 72.9919 115.509 73.0793L114.28 73.9368L112.944 72.0054L114.068 71.2328C114.257 71.0822 115.296 70.5916 115.86 71.3989Z" fill="white"/>
<path d="M20.5052 23.7102C17.362 23.7072 14.3484 22.4572 12.1258 20.2346C9.90318 18.012 8.65321 14.9984 8.65015 11.8551C8.65423 8.7122 9.90453 5.69918 12.1269 3.4768C14.3493 1.25442 17.3623 0.00408835 20.5052 0C23.6488 0.00306625 26.6628 1.25295 28.886 3.47544C31.1092 5.69793 32.3601 8.71153 32.3642 11.8551C32.3611 14.999 31.1106 18.0132 28.8872 20.2359C26.6637 22.4586 23.6491 23.7082 20.5052 23.7102ZM20.5052 0.69531C17.5464 0.698378 14.7096 1.87513 12.6174 3.96733C10.5252 6.05954 9.34845 8.8963 9.34539 11.8551C9.34845 14.8139 10.5252 17.6507 12.6174 19.7429C14.7096 21.8351 17.5464 23.0119 20.5052 23.0149C23.4641 23.0119 26.3008 21.8351 28.393 19.7429C30.4852 17.6507 31.6619 14.8139 31.665 11.8551C31.6619 8.8963 30.4852 6.05954 28.393 3.96733C26.3008 1.87513 23.4641 0.698378 20.5052 0.69531Z" fill="white"/>
<path d="M22.4408 91.3127C19.4464 91.3086 16.5759 90.1173 14.4585 88C12.3412 85.8826 11.1498 83.0121 11.1458 80.0177C11.1498 77.0237 12.3413 74.1535 14.4587 72.0368C16.5762 69.9201 19.4467 68.7296 22.4408 68.7266C25.4348 68.7296 28.3053 69.9201 30.4227 72.0368C32.5402 74.1535 33.7317 77.0237 33.7358 80.0177C33.7317 83.0121 32.5403 85.8826 30.423 88C28.3057 90.1173 25.4351 91.3086 22.4408 91.3127ZM22.4408 69.4219C19.6308 69.4239 16.9365 70.5408 14.9492 72.5273C12.9619 74.5139 11.8442 77.2078 11.8411 80.0177C11.8442 82.828 12.9618 85.5223 14.949 87.5094C16.9362 89.4966 19.6305 90.6143 22.4408 90.6174C25.251 90.6143 27.9453 89.4966 29.9325 87.5094C31.9197 85.5223 33.0374 82.828 33.0404 80.0177C33.0374 77.2078 31.9195 74.5139 29.9322 72.5273C27.9449 70.5408 25.2507 69.4239 22.4408 69.4219Z" fill="white"/>
<path d="M26.5121 12.0611C26.5121 11.3117 24.5149 10.6821 21.838 10.516V9.35713H25.2064V7.07031H15.8041V9.35713H19.1726V10.516C16.4957 10.6744 14.4985 11.2886 14.4985 12.0611C14.4985 12.8337 16.4957 13.4402 19.1726 13.6063V18.3383H21.838V13.6063C24.5149 13.4324 26.5121 12.8067 26.5121 12.0611ZM20.5053 12.9303C17.4459 12.9303 15.3831 12.544 14.9659 12.0611C15.3059 11.5821 16.8472 11.0568 19.1726 10.9023V12.5556H21.838V10.9023C24.1557 11.0529 25.7008 11.5783 26.0446 12.0611C25.6274 12.5324 23.5647 12.9226 20.5053 12.9226V12.9303Z" fill="white"/>
<path d="M23.3717 85.3226V87.03H21.8266V85.3844C20.3625 85.3381 19.2191 84.9749 18.2302 83.9513L19.6016 82.58C20.2624 83.1832 21.129 83.5108 22.0236 83.4955V80.7374L21.5369 80.6756C20.7549 80.6095 20.0164 80.2877 19.4355 79.7601C19.1692 79.4785 18.9634 79.1455 18.8305 78.7815C18.6976 78.4174 18.6406 78.0301 18.6629 77.6432C18.6629 75.8741 19.8218 74.607 21.8343 74.3791V73.0078H23.3794V74.3637C24.501 74.3918 25.5716 74.8382 26.3809 75.6152L25.025 76.9556C24.4998 76.5071 23.838 76.2497 23.1476 76.2256V78.8755L23.7271 78.9682C24.4877 79.0413 25.2097 79.3384 25.8015 79.8219C26.3964 80.3704 26.6397 81.1314 26.6397 82.1087C26.6474 83.9667 25.2761 85.0676 23.3717 85.3226ZM22.0274 76.2256C21.1313 76.3453 20.7025 76.8938 20.7025 77.566C20.7 77.7099 20.7271 77.8528 20.7823 77.9857C20.8375 78.1186 20.9194 78.2387 21.0231 78.3386C21.3022 78.5871 21.6549 78.7376 22.0274 78.7673V76.2256ZM24.2409 81.2473C23.9317 81.0021 23.55 80.8662 23.1554 80.861V83.4839C24.0709 83.3757 24.5731 82.9199 24.5731 82.1744C24.59 82.0047 24.5702 81.8333 24.5148 81.672C24.4595 81.5106 24.37 81.3632 24.2525 81.2396L24.2409 81.2473Z" fill="white"/>
<path d="M65.4961 25.2495H58.8249C58.7903 25.2492 58.7563 25.2397 58.7265 25.2221C58.6966 25.2044 58.672 25.1793 58.655 25.149C58.6381 25.119 58.6292 25.085 58.6292 25.0505C58.6292 25.016 58.6381 24.9821 58.655 24.952L61.9886 19.7101C62.0071 19.6838 62.0318 19.6624 62.0604 19.6475C62.0889 19.6327 62.1206 19.625 62.1528 19.625C62.185 19.625 62.2166 19.6327 62.2452 19.6475C62.2738 19.6624 62.2984 19.6838 62.317 19.7101L65.6506 24.952C65.6675 24.9821 65.6764 25.016 65.6764 25.0505C65.6764 25.085 65.6675 25.119 65.6506 25.149C65.635 25.1771 65.6127 25.2009 65.5858 25.2184C65.5589 25.2359 65.5281 25.2466 65.4961 25.2495ZM59.1764 24.8632H65.1446L62.1585 20.1737L59.1764 24.8632Z" fill="white"/>
<path d="M62.1585 33.9358C62.1185 33.9351 62.0797 33.924 62.0473 33.9039C62.0149 33.8839 61.9903 33.8559 61.977 33.8237L58.6317 25.0815C58.6218 25.0567 58.6191 25.0303 58.6238 25.0045C58.6285 24.9786 58.6406 24.9542 58.6588 24.9332C58.6764 24.9123 58.6996 24.8954 58.7265 24.8839C58.7534 24.8724 58.7832 24.8667 58.8133 24.8672H65.4845C65.5146 24.8667 65.5443 24.8724 65.5712 24.8839C65.5981 24.8954 65.6214 24.9123 65.6389 24.9332C65.6572 24.9542 65.6692 24.9786 65.6739 25.0045C65.6786 25.0303 65.6759 25.0567 65.666 25.0815L62.3324 33.8237C62.3196 33.8549 62.2962 33.8822 62.2653 33.9021C62.2343 33.9221 62.1972 33.9338 62.1585 33.9358ZM59.0914 25.1969L62.1585 33.2402L65.2295 25.1969H59.0914Z" fill="white"/>
<path d="M62.1624 33.936L70.2241 25.0312H65.496L62.1624 33.936Z" fill="#FFCE1F"/>
<path d="M62.1584 34.1043C62.1273 34.1045 62.0966 34.0975 62.0696 34.0842C62.0289 34.0667 61.9971 34.0369 61.98 34.0004C61.9629 33.9639 61.9618 33.9232 61.9769 33.8861L65.3106 24.9813C65.3241 24.948 65.3492 24.9191 65.3824 24.8987C65.4156 24.8783 65.4553 24.8672 65.496 24.8672H70.2202C70.2563 24.8675 70.2916 24.8765 70.3223 24.893C70.3529 24.9096 70.3778 24.9332 70.3941 24.9612C70.4095 24.9898 70.4155 25.0216 70.4114 25.053C70.4073 25.0844 70.3932 25.1142 70.3709 25.1392L62.3091 34.0405C62.2906 34.0598 62.2676 34.0754 62.2416 34.0864C62.2156 34.0974 62.1873 34.1035 62.1584 34.1043ZM65.635 25.203L62.6799 33.0903L69.8262 25.203H65.635Z" fill="white"/>
<path d="M62.1623 33.936L58.8248 25.0312H54.0967L62.1623 33.936Z" fill="#FFCE1F"/>
<path d="M62.1587 34.0987C62.1297 34.0983 62.1013 34.0924 62.0752 34.0814C62.0492 34.0704 62.0263 34.0545 62.0081 34.0349L53.9463 25.147C53.924 25.1221 53.9099 25.0922 53.9058 25.0608C53.9017 25.0294 53.9077 24.9976 53.9231 24.969C53.9394 24.941 53.9643 24.9174 53.9949 24.9008C54.0256 24.8843 54.0608 24.8753 54.0969 24.875H58.8251C58.8658 24.8751 58.9054 24.8861 58.9386 24.9065C58.9718 24.9269 58.9969 24.9558 59.0105 24.9892L62.3442 33.8939C62.3576 33.9311 62.3557 33.9713 62.3388 34.0074C62.3219 34.0436 62.291 34.0735 62.2515 34.092C62.2216 34.1004 62.1898 34.1027 62.1587 34.0987ZM54.4948 25.1973L61.6411 33.0847L58.686 25.1973H54.4948Z" fill="white"/>
<path d="M58.8249 25.0505L62.1624 19.8125H56.9475L58.8249 25.0505Z" fill="#FFCE1F"/>
<path d="M58.825 25.2493H58.8056C58.7696 25.2464 58.7352 25.2332 58.7064 25.2112C58.6777 25.1893 58.6558 25.1597 58.6434 25.1257L56.766 19.8838C56.7556 19.8545 56.7523 19.8231 56.7563 19.7922C56.7603 19.7613 56.7716 19.7318 56.7892 19.7061C56.8074 19.6811 56.8312 19.6607 56.8587 19.6467C56.8862 19.6326 56.9167 19.6251 56.9476 19.625H62.1586C62.1933 19.6249 62.2275 19.6342 62.2574 19.6519C62.2873 19.6695 62.3119 19.695 62.3286 19.7254C62.3455 19.7555 62.3543 19.7894 62.3543 19.8239C62.3543 19.8584 62.3455 19.8924 62.3286 19.9224L58.991 25.1643C58.9728 25.1914 58.948 25.2134 58.919 25.2282C58.8899 25.2431 58.8576 25.2503 58.825 25.2493ZM57.2219 20.0074L58.8751 24.6197L61.8071 20.0074H57.2219Z" fill="white"/>
<path d="M65.496 25.0505L62.1624 19.8125H67.3734L65.496 25.0505Z" fill="#FFCE1F"/>
<path d="M65.4962 25.2532C65.4634 25.2525 65.4314 25.244 65.4025 25.2286C65.3737 25.2132 65.3489 25.1912 65.3301 25.1644L61.9964 19.9225C61.9783 19.8928 61.9688 19.8587 61.9688 19.8239C61.9688 19.7892 61.9783 19.7551 61.9964 19.7254C62.0121 19.695 62.0359 19.6695 62.0652 19.6518C62.0945 19.634 62.1282 19.6248 62.1625 19.625H67.3773C67.4082 19.6255 67.4386 19.633 67.4661 19.6471C67.4935 19.6611 67.5174 19.6814 67.5358 19.7061C67.5526 19.7322 67.5633 19.7616 67.5674 19.7924C67.5714 19.8231 67.5685 19.8543 67.559 19.8838L65.6816 25.1257C65.6688 25.1594 65.6468 25.1888 65.6181 25.2107C65.5894 25.2325 65.5552 25.2459 65.5194 25.2493L65.4962 25.2532ZM62.5102 20.0113L65.4459 24.6235L67.0992 20.0113H62.5102Z" fill="white"/>
<path d="M70.2204 25.2535H65.4923C65.4612 25.254 65.4306 25.2469 65.403 25.2327C65.3753 25.2186 65.3517 25.1979 65.3339 25.1724C65.3154 25.1471 65.3035 25.1176 65.2994 25.0865C65.2954 25.0555 65.2993 25.0239 65.3107 24.9947L67.188 19.7528C67.2005 19.7178 67.2229 19.6872 67.2523 19.6646C67.2818 19.642 67.3172 19.6283 67.3542 19.6253C67.3914 19.6232 67.4284 19.6315 67.4611 19.6492C67.4939 19.667 67.521 19.6935 67.5396 19.7258L70.3903 24.9677C70.4066 24.9966 70.4152 25.0291 70.4152 25.0623C70.4152 25.0954 70.4066 25.128 70.3903 25.1569C70.3726 25.1862 70.3477 25.2104 70.3179 25.2273C70.2882 25.2442 70.2546 25.2532 70.2204 25.2535ZM65.7665 24.8672H69.8959L67.4044 20.2897L65.7665 24.8672Z" fill="white"/>
<path d="M58.825 25.2537H54.0969C54.0633 25.2527 54.0306 25.2434 54.0015 25.2265C53.9725 25.2096 53.9482 25.1858 53.9308 25.1571C53.9146 25.1282 53.906 25.0956 53.906 25.0624C53.906 25.0293 53.9146 24.9967 53.9308 24.9678L56.7816 19.7259C56.7998 19.6933 56.8269 19.6666 56.8597 19.6488C56.8926 19.631 56.9297 19.6229 56.967 19.6255C57.0036 19.6298 57.0384 19.6439 57.0676 19.6664C57.0968 19.6888 57.1195 19.7187 57.1331 19.7529L59.0104 24.9948C59.0209 25.0242 59.0243 25.0556 59.0202 25.0865C59.0162 25.1174 59.0049 25.1469 58.9872 25.1725C58.9687 25.1981 58.9443 25.2188 58.916 25.2329C58.8878 25.247 58.8566 25.2541 58.825 25.2537ZM54.4214 24.8674H58.5508L56.9091 20.2899L54.4214 24.8674Z" fill="white"/>
</svg>
