<svg width="18" height="18" viewBox="0 0 18 18" fill="none" xmlns="http://www.w3.org/2000/svg">
<path d="M8.57226 0.449219C8.68564 0.449219 8.79438 0.494259 8.87455 0.574431C8.95472 0.654602 8.99976 0.763339 8.99976 0.876719V8.12172C8.99976 8.2351 8.95472 8.34384 8.87455 8.42401C8.79438 8.50418 8.68564 8.54922 8.57226 8.54922H1.32726C1.21388 8.54922 1.10515 8.50418 1.02498 8.42401C0.944805 8.34384 0.899765 8.2351 0.899765 8.12172V0.876719C0.899765 0.763339 0.944805 0.654602 1.02498 0.574431C1.10515 0.494259 1.21388 0.449219 1.32726 0.449219H8.57226ZM7.37976 2.06922H2.51976V6.92922H7.37976V2.06922ZM16.6723 9.44922C16.7856 9.44922 16.8944 9.49426 16.9746 9.57443C17.0547 9.6546 17.0998 9.76334 17.0998 9.87672V17.1217C17.0998 17.2351 17.0547 17.3438 16.9746 17.424C16.8944 17.5042 16.7856 17.5492 16.6723 17.5492H9.42726C9.31388 17.5492 9.20515 17.5042 9.12498 17.424C9.0448 17.3438 8.99976 17.2351 8.99976 17.1217V9.87672C8.99976 9.76334 9.0448 9.6546 9.12498 9.57443C9.20515 9.49426 9.31388 9.44922 9.42726 9.44922H16.6723ZM15.4798 11.0692H10.6198V15.9292H15.4798V11.0692ZM1.35156 17.0965L1.35381 13.9447H0.233765L2.10486 11.6983H2.97426V15.9373H6.15576V17.5492H4.47142C3.58193 17.5427 2.69241 17.5417 1.80291 17.5461C1.68364 17.5463 1.56916 17.4992 1.48461 17.4151C1.40006 17.3309 1.35237 17.2167 1.35201 17.0974V17.097L1.35156 17.0965ZM16.666 0.901019L16.6633 4.05237H17.7847L15.9136 6.29922H15.0437V2.06022H11.8622V0.449219H13.547C14.5127 0.455519 15.4024 0.456419 16.2155 0.451919C16.3348 0.45168 16.4493 0.4988 16.5338 0.582925C16.6184 0.66705 16.6661 0.781299 16.6664 0.900569V0.901019H16.666Z" fill="#0C0D0F"/>
</svg>
