<svg width="18" height="18" viewBox="0 0 18 18" fill="none" xmlns="http://www.w3.org/2000/svg">
<mask id="path-1-inside-1_14609_49537" fill="white">
<path fill-rule="evenodd" clip-rule="evenodd" d="M13.0483 1.8H5.50607C4.66989 1.8 4.15102 1.8014 3.76107 1.83326C3.39462 1.8632 3.30101 1.91096 3.28801 1.91758L3.28776 1.91771C3.08455 2.02126 2.91933 2.18648 2.81578 2.38969L2.81566 2.38994C2.80903 2.40294 2.76127 2.49655 2.73133 2.863C2.69947 3.25294 2.69807 3.77182 2.69807 4.608V13.392C2.69807 14.2282 2.69947 14.7471 2.73133 15.137C2.76127 15.5035 2.80903 15.5971 2.81566 15.6101L2.81578 15.6103C2.91933 15.8135 3.08455 15.9787 3.28776 16.0823L3.28802 16.0824C3.30101 16.089 3.39463 16.1368 3.76107 16.1667C4.15101 16.1986 4.66989 16.2 5.50607 16.2H12.4901C13.3262 16.2 13.8451 16.1986 14.2351 16.1667C14.6015 16.1368 14.6951 16.089 14.7081 16.0824L14.7084 16.0823C14.9116 15.9787 15.0768 15.8135 15.1804 15.6103L15.1805 15.6101C15.1871 15.5971 15.2349 15.5034 15.2648 15.137C15.2967 14.7471 15.2981 14.2282 15.2981 13.392V4.07509C15.2981 3.99007 15.2981 3.92486 15.2976 3.86863C15.2585 3.82827 15.2127 3.78183 15.153 3.72128L13.4072 1.95019C13.3463 1.88841 13.2996 1.84103 13.259 1.80048C13.2016 1.80001 13.135 1.8 13.0483 1.8ZM1.21197 1.57251C0.898071 2.18857 0.898071 2.99505 0.898071 4.608V13.392C0.898071 15.005 0.898071 15.8114 1.21197 16.4275C1.48809 16.9694 1.92867 17.41 2.47058 17.6861C3.08664 18 3.89312 18 5.50607 18H12.4901C14.103 18 14.9095 18 15.5256 17.6861C16.0675 17.41 16.5081 16.9694 16.7842 16.4275C17.0981 15.8114 17.0981 15.005 17.0981 13.392V4.07509C17.0981 3.72635 17.0981 3.55198 17.059 3.3877C17.0244 3.24205 16.9672 3.10268 16.8896 2.97464C16.8021 2.83022 16.6797 2.70604 16.4349 2.45768L14.6891 0.686588L14.6891 0.686576C14.4394 0.433269 14.3146 0.306614 14.1684 0.216003C14.0388 0.135669 13.8972 0.0764358 13.749 0.0405161C13.5818 0 13.404 0 13.0483 0H5.50607C3.89312 0 3.08664 0 2.47058 0.313901C1.92867 0.590017 1.48809 1.0306 1.21197 1.57251Z"/>
</mask>
<path fill-rule="evenodd" clip-rule="evenodd" d="M13.0483 1.8H5.50607C4.66989 1.8 4.15102 1.8014 3.76107 1.83326C3.39462 1.8632 3.30101 1.91096 3.28801 1.91758L3.28776 1.91771C3.08455 2.02126 2.91933 2.18648 2.81578 2.38969L2.81566 2.38994C2.80903 2.40294 2.76127 2.49655 2.73133 2.863C2.69947 3.25294 2.69807 3.77182 2.69807 4.608V13.392C2.69807 14.2282 2.69947 14.7471 2.73133 15.137C2.76127 15.5035 2.80903 15.5971 2.81566 15.6101L2.81578 15.6103C2.91933 15.8135 3.08455 15.9787 3.28776 16.0823L3.28802 16.0824C3.30101 16.089 3.39463 16.1368 3.76107 16.1667C4.15101 16.1986 4.66989 16.2 5.50607 16.2H12.4901C13.3262 16.2 13.8451 16.1986 14.2351 16.1667C14.6015 16.1368 14.6951 16.089 14.7081 16.0824L14.7084 16.0823C14.9116 15.9787 15.0768 15.8135 15.1804 15.6103L15.1805 15.6101C15.1871 15.5971 15.2349 15.5034 15.2648 15.137C15.2967 14.7471 15.2981 14.2282 15.2981 13.392V4.07509C15.2981 3.99007 15.2981 3.92486 15.2976 3.86863C15.2585 3.82827 15.2127 3.78183 15.153 3.72128L13.4072 1.95019C13.3463 1.88841 13.2996 1.84103 13.259 1.80048C13.2016 1.80001 13.135 1.8 13.0483 1.8ZM1.21197 1.57251C0.898071 2.18857 0.898071 2.99505 0.898071 4.608V13.392C0.898071 15.005 0.898071 15.8114 1.21197 16.4275C1.48809 16.9694 1.92867 17.41 2.47058 17.6861C3.08664 18 3.89312 18 5.50607 18H12.4901C14.103 18 14.9095 18 15.5256 17.6861C16.0675 17.41 16.5081 16.9694 16.7842 16.4275C17.0981 15.8114 17.0981 15.005 17.0981 13.392V4.07509C17.0981 3.72635 17.0981 3.55198 17.059 3.3877C17.0244 3.24205 16.9672 3.10268 16.8896 2.97464C16.8021 2.83022 16.6797 2.70604 16.4349 2.45768L14.6891 0.686588L14.6891 0.686576C14.4394 0.433269 14.3146 0.306614 14.1684 0.216003C14.0388 0.135669 13.8972 0.0764358 13.749 0.0405161C13.5818 0 13.404 0 13.0483 0H5.50607C3.89312 0 3.08664 0 2.47058 0.313901C1.92867 0.590017 1.48809 1.0306 1.21197 1.57251Z" fill="#ABABAB"/>
<path d="M3.76107 1.83326L3.85896 3.03135H3.85896L3.76107 1.83326ZM3.28801 1.91758L2.74177 0.846778L2.74156 0.846882L3.28801 1.91758ZM3.28776 1.91771L3.8335 2.98878L3.83421 2.98842L3.28776 1.91771ZM2.81578 2.38969L1.74472 1.84395L1.74467 1.84405L2.81578 2.38969ZM2.81566 2.38994L3.88645 2.93621L3.88677 2.93558L2.81566 2.38994ZM2.73133 2.863L1.53324 2.76511L1.53324 2.76511L2.73133 2.863ZM2.73133 15.137L1.53324 15.2349H1.53324L2.73133 15.137ZM2.81566 15.6101L1.74484 16.1563L1.74516 16.1569L2.81566 15.6101ZM2.81578 15.6103L3.88685 15.0646L3.88628 15.0634L2.81578 15.6103ZM3.28776 16.0823L3.84053 15.0148L3.8335 15.0112L3.28776 16.0823ZM3.28802 16.0824L2.73525 17.1499L2.74194 17.1533L3.28802 16.0824ZM3.76107 16.1667L3.66318 17.3648H3.66319L3.76107 16.1667ZM14.2351 16.1667L14.333 17.3648H14.333L14.2351 16.1667ZM14.7081 16.0824L15.2542 17.1533L15.2601 17.1503L14.7081 16.0824ZM14.7084 16.0823L14.1626 15.0112L14.1564 15.0144L14.7084 16.0823ZM15.1804 15.6103L16.2514 16.156L16.2531 16.1527L15.1804 15.6103ZM15.1805 15.6101L14.1097 15.0637L14.1077 15.0676L15.1805 15.6101ZM15.2648 15.137L16.4629 15.2349V15.2349L15.2648 15.137ZM15.2976 3.86863L16.4997 3.85903L16.4958 3.37737L16.1604 3.03164L15.2976 3.86863ZM15.153 3.72128L16.0091 2.87741L16.0091 2.87741L15.153 3.72128ZM13.4072 1.95019L14.2633 1.10632L14.2633 1.10632L13.4072 1.95019ZM13.259 1.80048L14.1082 0.949671L13.7603 0.602436L13.2688 0.598434L13.259 1.80048ZM1.21197 1.57251L0.140905 1.02677L0.140905 1.02677L1.21197 1.57251ZM1.21197 16.4275L0.140905 16.9732H0.140905L1.21197 16.4275ZM2.47058 17.6861L3.01632 16.615L3.01631 16.615L2.47058 17.6861ZM15.5256 17.6861L14.9798 16.615H14.9798L15.5256 17.6861ZM16.7842 16.4275L15.7131 15.8818V15.8818L16.7842 16.4275ZM17.059 3.3877L15.8895 3.66579L15.8895 3.66581L17.059 3.3877ZM16.8896 2.97464L15.8615 3.59755L15.8615 3.59756L16.8896 2.97464ZM16.4349 2.45768L15.5788 3.30154L15.5788 3.30154L16.4349 2.45768ZM14.6891 0.686588L13.7889 1.48315L13.8103 1.5074L13.833 1.53046L14.6891 0.686588ZM14.6891 0.686576L15.5894 -0.109985L15.5679 -0.134234L15.5452 -0.157293L14.6891 0.686576ZM14.1684 0.216003L13.5351 1.23777L14.1684 0.216003ZM13.749 0.0405161L13.4658 1.20878L13.4658 1.20878L13.749 0.0405161ZM2.47058 0.313901L1.92484 -0.757166L1.92484 -0.757166L2.47058 0.313901ZM5.50607 3.00209H13.0483V0.597913H5.50607V3.00209ZM3.85896 3.03135C4.18835 3.00444 4.649 3.00209 5.50607 3.00209V0.597913C4.69079 0.597913 4.11368 0.598358 3.66318 0.635165L3.85896 3.03135ZM3.83426 2.98839C3.83468 2.98818 3.83195 2.98957 3.82854 2.99128C3.82491 2.99311 3.8205 2.99529 3.81548 2.99772C3.80527 3.00267 3.7945 3.00768 3.78327 3.01265C3.76079 3.02259 3.74049 3.03057 3.72296 3.03688C3.68871 3.04921 3.66748 3.05426 3.66487 3.05487C3.66224 3.05548 3.67483 3.05244 3.70721 3.04773C3.73942 3.04305 3.78871 3.03709 3.85896 3.03135L3.66318 0.635165C3.22727 0.67078 2.95541 0.73779 2.74177 0.846778L3.83426 2.98839ZM3.83421 2.98842L3.83447 2.98829L2.74156 0.846882L2.74131 0.847011L3.83421 2.98842ZM3.88685 2.93543C3.87515 2.9584 3.85647 2.97708 3.8335 2.98878L2.74203 0.846646C2.31262 1.06544 1.96351 1.41455 1.74472 1.84395L3.88685 2.93543ZM3.88677 2.93558L3.8869 2.93533L1.74467 1.84405L1.74454 1.84431L3.88677 2.93558ZM3.92943 2.96089C3.93516 2.89064 3.94112 2.84135 3.9458 2.80914C3.95051 2.77676 3.95355 2.76417 3.95294 2.7668C3.95233 2.76941 3.94728 2.79064 3.93495 2.82489C3.92864 2.84242 3.92066 2.86272 3.91072 2.8852C3.90575 2.89643 3.90074 2.9072 3.89579 2.91741C3.89336 2.92243 3.89117 2.92684 3.88935 2.93048C3.88764 2.93389 3.88624 2.93662 3.88645 2.93621L1.74486 1.84368C1.63586 2.05734 1.56885 2.32922 1.53324 2.76511L3.92943 2.96089ZM3.90016 4.608C3.90016 3.75093 3.90251 3.29028 3.92943 2.96089L1.53324 2.76511C1.49643 3.21561 1.49598 3.79272 1.49598 4.608H3.90016ZM3.90016 13.392V4.608H1.49598V13.392H3.90016ZM3.92943 15.0391C3.90251 14.7097 3.90016 14.2491 3.90016 13.392H1.49598C1.49598 14.2073 1.49643 14.7844 1.53324 15.2349L3.92943 15.0391ZM3.88647 15.0638C3.88625 15.0634 3.88765 15.0661 3.88936 15.0695C3.89118 15.0732 3.89336 15.0776 3.8958 15.0826C3.90074 15.0928 3.90575 15.1036 3.91072 15.1148C3.92066 15.1373 3.92864 15.1576 3.93495 15.1751C3.94728 15.2094 3.95233 15.2306 3.95294 15.2332C3.95355 15.2358 3.95051 15.2232 3.9458 15.1909C3.94112 15.1587 3.93517 15.1094 3.92943 15.0391L1.53324 15.2349C1.56885 15.6708 1.63586 15.9427 1.74485 16.1563L3.88647 15.0638ZM3.88628 15.0634L3.88615 15.0632L1.74516 16.1569L1.74529 16.1572L3.88628 15.0634ZM3.8335 15.0112C3.85647 15.0229 3.87515 15.0416 3.88685 15.0646L1.74472 16.156C1.96351 16.5854 2.31262 16.9346 2.74203 17.1534L3.8335 15.0112ZM3.84077 15.015L3.84052 15.0148L2.735 17.1497L2.73526 17.1499L3.84077 15.015ZM3.85896 14.9686C3.78871 14.9629 3.73942 14.9569 3.70721 14.9523C3.67484 14.9476 3.66224 14.9445 3.66486 14.9451C3.66747 14.9457 3.6887 14.9508 3.72293 14.9631C3.74046 14.9694 3.76074 14.9774 3.78321 14.9873C3.79443 14.9923 3.80519 14.9973 3.81538 15.0022C3.8204 15.0047 3.8248 15.0068 3.82841 15.0087C3.83181 15.0104 3.83453 15.0118 3.83409 15.0115L2.74194 17.1533C2.95547 17.2622 3.2272 17.3292 3.66318 17.3648L3.85896 14.9686ZM5.50607 14.9979C4.649 14.9979 4.18835 14.9956 3.85895 14.9686L3.66319 17.3648C4.11368 17.4016 4.69078 17.4021 5.50607 17.4021V14.9979ZM12.4901 14.9979H5.50607V17.4021H12.4901V14.9979ZM14.1372 14.9686C13.8078 14.9956 13.3471 14.9979 12.4901 14.9979V17.4021C13.3054 17.4021 13.8825 17.4016 14.333 17.3648L14.1372 14.9686ZM14.1621 15.0115C14.1616 15.0117 14.1643 15.0104 14.1677 15.0087C14.1713 15.0068 14.1757 15.0047 14.1808 15.0022C14.1909 14.9973 14.2017 14.9923 14.2129 14.9873C14.2354 14.9774 14.2557 14.9694 14.2732 14.9631C14.3074 14.9508 14.3287 14.9457 14.3313 14.9451C14.3339 14.9445 14.3213 14.9476 14.2889 14.9523C14.2567 14.9569 14.2074 14.9629 14.1372 14.9686L14.333 17.3648C14.769 17.3292 15.0407 17.2622 15.2542 17.1533L14.1621 15.0115ZM14.1564 15.0144L14.1562 15.0145L15.2601 17.1503L15.2603 17.1502L14.1564 15.0144ZM14.1093 15.0646C14.121 15.0416 14.1397 15.0229 14.1626 15.0112L15.2541 17.1534C15.6835 16.9346 16.0326 16.5854 16.2514 16.156L14.1093 15.0646ZM14.1077 15.0676L14.1076 15.0679L16.2531 16.1527L16.2532 16.1525L14.1077 15.0676ZM14.0667 15.0391C14.061 15.1094 14.055 15.1586 14.0503 15.1909C14.0456 15.2232 14.0426 15.2358 14.0432 15.2332C14.0438 15.2306 14.0489 15.2094 14.0612 15.1751C14.0675 15.1576 14.0755 15.1373 14.0854 15.1148C14.0904 15.1036 14.0954 15.0928 14.1004 15.0826C14.1028 15.0775 14.105 15.0731 14.1068 15.0695C14.1085 15.0661 14.1099 15.0633 14.1097 15.0637L16.2513 16.1564C16.3603 15.9427 16.4273 15.6708 16.4629 15.2349L14.0667 15.0391ZM14.096 13.392C14.096 14.2491 14.0936 14.7097 14.0667 15.0391L16.4629 15.2349C16.4997 14.7844 16.5002 14.2073 16.5002 13.392H14.096ZM14.096 4.07509V13.392H16.5002V4.07509H14.096ZM14.0956 3.87824C14.096 3.92869 14.096 3.9887 14.096 4.07509H16.5002C16.5002 3.99144 16.5001 3.92104 16.4997 3.85903L14.0956 3.87824ZM14.2969 4.56514C14.3576 4.62669 14.3997 4.66942 14.4348 4.70563L16.1604 3.03164C16.1172 2.98712 16.0678 2.93696 16.0091 2.87741L14.2969 4.56514ZM12.5511 2.79406L14.2969 4.56515L16.0091 2.87741L14.2633 1.10632L12.5511 2.79406ZM12.4098 2.65129C12.4462 2.68767 12.4892 2.73127 12.5511 2.79406L14.2633 1.10632C14.2034 1.04555 14.153 0.994379 14.1082 0.949671L12.4098 2.65129ZM13.0483 3.00209C13.1365 3.00209 13.1977 3.00211 13.2492 3.00253L13.2688 0.598434C13.2055 0.597919 13.1336 0.597913 13.0483 0.597913V3.00209ZM2.10016 4.608C2.10016 3.78169 2.10109 3.23425 2.1354 2.81431C2.16857 2.4084 2.22682 2.22857 2.28304 2.11824L0.140905 1.02677C-0.116781 1.53251 -0.215474 2.06395 -0.260786 2.61853C-0.30495 3.15908 -0.304016 3.82136 -0.304016 4.608H2.10016ZM2.10016 13.392V4.608H-0.304016V13.392H2.10016ZM2.28304 15.8818C2.22682 15.7714 2.16857 15.5916 2.1354 15.1857C2.10109 14.7657 2.10016 14.2183 2.10016 13.392H-0.304016C-0.304016 14.1786 -0.30495 14.8409 -0.260786 15.3815C-0.215474 15.9361 -0.116781 16.4675 0.140905 16.9732L2.28304 15.8818ZM3.01631 16.615C2.7006 16.4542 2.44391 16.1975 2.28304 15.8818L0.140905 16.9732C0.532269 17.7413 1.15675 18.3658 1.92484 18.7572L3.01631 16.615ZM5.50607 16.7979C4.67976 16.7979 4.13232 16.797 3.71238 16.7627C3.30647 16.7295 3.12664 16.6712 3.01632 16.615L1.92484 18.7572C2.43058 19.0149 2.96202 19.1135 3.5166 19.1589C4.05715 19.203 4.71943 19.2021 5.50607 19.2021V16.7979ZM12.4901 16.7979H5.50607V19.2021H12.4901V16.7979ZM14.9798 16.615C14.8695 16.6712 14.6897 16.7295 14.2838 16.7627C13.8638 16.797 13.3164 16.7979 12.4901 16.7979V19.2021C13.2767 19.2021 13.939 19.203 14.4795 19.1589C15.0341 19.1135 15.5656 19.0149 16.0713 18.7572L14.9798 16.615ZM15.7131 15.8818C15.5522 16.1975 15.2955 16.4542 14.9798 16.615L16.0713 18.7572C16.8394 18.3658 17.4639 17.7413 17.8552 16.9732L15.7131 15.8818ZM15.896 13.392C15.896 14.2183 15.895 14.7657 15.8607 15.1857C15.8276 15.5916 15.7693 15.7714 15.7131 15.8818L17.8552 16.9732C18.1129 16.4675 18.2116 15.9361 18.2569 15.3815C18.3011 14.8409 18.3002 14.1786 18.3002 13.392H15.896ZM15.896 4.07509V13.392H18.3002V4.07509H15.896ZM15.8895 3.66581C15.8857 3.64951 15.8895 3.65332 15.8923 3.71666C15.8957 3.79096 15.896 3.89035 15.896 4.07509H18.3002C18.3002 3.78296 18.3077 3.4429 18.2285 3.1096L15.8895 3.66581ZM15.8615 3.59756C15.8744 3.61871 15.8838 3.64174 15.8895 3.66579L18.2285 3.10961C18.1649 2.84236 18.0601 2.58665 17.9177 2.35172L15.8615 3.59756ZM15.5788 3.30154C15.7085 3.43311 15.7781 3.50409 15.8278 3.55937C15.8703 3.6065 15.8702 3.61188 15.8615 3.59755L17.9177 2.35172C17.7402 2.05871 17.4961 1.82185 17.291 1.61381L15.5788 3.30154ZM13.833 1.53046L15.5788 3.30154L17.291 1.61381L15.5452 -0.157278L13.833 1.53046ZM13.7888 1.48314L13.7889 1.48315L15.5894 -0.109972L15.5894 -0.109985L13.7888 1.48314ZM13.5351 1.23777C13.5206 1.22875 13.5261 1.22871 13.5736 1.27269C13.6294 1.32423 13.7008 1.39627 13.833 1.53044L15.5452 -0.157293C15.3361 -0.369421 15.0983 -0.621914 14.8016 -0.805769L13.5351 1.23777ZM13.4658 1.20878C13.4903 1.21472 13.5137 1.2245 13.5351 1.23777L14.8016 -0.805769C14.5638 -0.953163 14.3041 -1.06184 14.0321 -1.12775L13.4658 1.20878ZM13.0483 1.20209C13.2367 1.20209 13.3381 1.20238 13.414 1.20588C13.4787 1.20886 13.4825 1.21282 13.4658 1.20878L14.0321 -1.12775C13.6929 -1.20996 13.3462 -1.20209 13.0483 -1.20209V1.20209ZM5.50607 1.20209H13.0483V-1.20209H5.50607V1.20209ZM3.01631 1.38497C3.12664 1.32875 3.30647 1.2705 3.71238 1.23733C4.13232 1.20302 4.67976 1.20209 5.50607 1.20209V-1.20209C4.71943 -1.20209 4.05716 -1.20302 3.5166 -1.15886C2.96202 -1.11355 2.43058 -1.01485 1.92484 -0.757166L3.01631 1.38497ZM2.28304 2.11824C2.44391 1.80252 2.7006 1.54584 3.01631 1.38497L1.92484 -0.757166C1.15675 -0.365803 0.532269 0.258677 0.140905 1.02677L2.28304 2.11824Z" fill="#ABABAB" mask="url(#path-1-inside-1_14609_49537)"/>
<path d="M12.3597 0V2.22171C12.3597 3.02819 12.3597 3.43143 12.5167 3.73946C12.6547 4.01041 12.875 4.23071 13.146 4.36876C13.454 4.52571 13.8573 4.52571 14.6637 4.52571H16.8855" stroke="#ABABAB" stroke-width="1.8"/>
<rect x="4.81702" y="11.5898" width="8.22857" height="1.8" rx="0.9" fill="#ABABAB"/>
<rect x="4.81531" y="7.67969" width="4.93714" height="1.8" rx="0.9" fill="#ABABAB"/>
</svg>
