<svg width="48" height="48" viewBox="0 0 48 48" fill="none" xmlns="http://www.w3.org/2000/svg">
<rect width="48" height="48" rx="8" fill="white"/>
<rect x="10" y="10" width="28" height="28" rx="5.6044" fill="#999999"/>
<path fill-rule="evenodd" clip-rule="evenodd" d="M30.4827 17.0332C30.4827 15.8527 29.5888 15.0352 28.4845 15.0352C27.3831 15.0352 26.4872 15.8527 26.4875 17.0323C26.4875 18.2129 27.3802 19.1723 28.4845 19.1723C29.5888 19.1723 30.4827 18.2129 30.4827 17.0332ZM27.5621 25.913C27.1379 26.2713 26.512 26.2072 26.1644 25.7698L22.8536 21.6083C22.8035 21.5453 22.7464 21.4888 22.6836 21.4395C22.2459 21.099 21.6231 21.1887 21.2926 21.6401L15.3141 29.7972C15.1839 29.9752 15.1133 30.1921 15.1133 30.415C15.1133 30.9804 15.5582 31.4386 16.1066 31.4386H32.0437C32.2459 31.4388 32.4432 31.3754 32.6094 31.2568C33.0604 30.935 33.1731 30.297 32.861 29.832L29.7496 25.1829C29.6856 25.0872 29.6061 25.0034 29.5147 24.9351C29.0704 24.6035 28.4496 24.7057 28.1278 25.1636L27.7376 25.7207C27.6874 25.7924 27.6284 25.8571 27.5621 25.913Z" fill="white"/>
</svg>
