<svg width="12" height="12" viewBox="0 0 12 12" fill="none" xmlns="http://www.w3.org/2000/svg">
<path fill-rule="evenodd" clip-rule="evenodd" d="M2.11091 2.11091C3.10568 1.11616 4.48137 0.5 6 0.5C7.51863 0.5 8.89432 1.11616 9.88908 2.11091C10.8838 3.10568 11.5 4.48136 11.5 6C11.5 7.51864 10.8838 8.89432 9.88908 9.88908C8.89432 10.8838 7.51864 11.5 6 11.5C4.48136 11.5 3.10568 10.8838 2.11091 9.88908C1.11616 8.89432 0.5 7.51863 0.5 6C0.5 4.48137 1.11616 3.10568 2.11091 2.11091ZM6.625 3.375C6.625 3.02982 6.34517 2.75 6 2.75C5.65483 2.75 5.375 3.02982 5.375 3.375C5.375 3.72018 5.65483 4 6 4C6.34517 4 6.625 3.72018 6.625 3.375ZM5.625 4.5C5.34886 4.5 5.125 4.72386 5.125 5C5.125 5.27614 5.34886 5.5 5.625 5.5V8H5.25C4.97386 8 4.75 8.22386 4.75 8.5C4.75 8.77614 4.97386 9 5.25 9H7C7.27614 9 7.5 8.77614 7.5 8.5C7.5 8.22386 7.27614 8 7 8H6.625V5C6.625 4.72386 6.40114 4.5 6.125 4.5H5.625Z" fill="#999999"/>
</svg>
