<svg width="16" height="16" viewBox="0 0 16 16" fill="none" xmlns="http://www.w3.org/2000/svg">
<g clip-path="url(#clip0_29790_78043)">
<path d="M7.9987 10.6654C11.6806 10.6654 14.6654 9.47146 14.6654 7.9987C14.6654 6.52593 11.6806 5.33203 7.9987 5.33203C4.3168 5.33203 1.33203 6.52593 1.33203 7.9987C1.33203 9.47146 4.3168 10.6654 7.9987 10.6654Z" stroke="#111111" stroke-width="1.2" stroke-linecap="round" stroke-linejoin="round"/>
<path d="M10.6654 7.9987C10.6654 11.6806 9.47146 14.6654 7.9987 14.6654C6.52593 14.6654 5.33203 11.6806 5.33203 7.9987C5.33203 4.3168 6.52593 1.33203 7.9987 1.33203C9.47146 1.33203 10.6654 4.3168 10.6654 7.9987Z" stroke="#111111" stroke-width="1.2" stroke-linecap="round" stroke-linejoin="round"/>
<path d="M7.9987 14.6654C11.6806 14.6654 14.6654 11.6806 14.6654 7.9987C14.6654 4.3168 11.6806 1.33203 7.9987 1.33203C4.3168 1.33203 1.33203 4.3168 1.33203 7.9987C1.33203 11.6806 4.3168 14.6654 7.9987 14.6654Z" stroke="#333333" stroke-width="1.2" stroke-linejoin="round"/>
</g>
<defs>
<clipPath id="clip0_29790_78043">
<rect width="16" height="16" fill="white"/>
</clipPath>
</defs>
</svg>
