<svg width="14" height="13" viewBox="0 0 14 13" fill="none" xmlns="http://www.w3.org/2000/svg">
<path fill-rule="evenodd" clip-rule="evenodd" d="M0.394326 0.72125C0.503151 0.484802 0.739638 0.333313 0.999928 0.333313H12.9999C13.2602 0.333313 13.4967 0.484802 13.6055 0.72125C13.7144 0.957699 13.6756 1.23586 13.5063 1.43358L8.8666 6.85232V12C8.8666 12.2304 8.74756 12.4446 8.55182 12.5662C8.35607 12.6879 8.11138 12.6998 7.90474 12.5977L5.50474 11.4125C5.27726 11.3002 5.13326 11.0685 5.13326 10.8148V6.85232L0.49353 1.43358C0.324239 1.23586 0.2855 0.957699 0.394326 0.72125ZM2.44841 1.66665L6.30633 6.17231C6.40975 6.2931 6.46659 6.44688 6.46659 6.60591V10.4005L7.53326 10.9272V6.60591C7.53326 6.44688 7.5901 6.2931 7.69353 6.17231L11.5514 1.66665H2.44841Z" fill="black" fill-opacity="0.85"/>
</svg>
