<svg width="20" height="20" viewBox="0 0 20 20" fill="none" xmlns="http://www.w3.org/2000/svg">
<path d="M14.921 18.3224C13.936 19.2772 12.8605 19.1265 11.8251 18.6742C10.7295 18.2118 9.72438 18.1917 8.56844 18.6742C7.12102 19.2974 6.35709 19.1165 5.49264 18.3224C0.587446 13.2664 1.31117 5.56683 6.87978 5.28538C8.23675 5.35574 9.1816 6.0292 9.97571 6.08952C11.1618 5.84828 12.2976 5.15472 13.5641 5.24517C15.0819 5.36579 16.2278 5.9689 16.9817 7.05447C13.8455 8.93413 14.5894 13.0653 17.4642 14.2213C16.8912 15.729 16.1474 17.2267 14.911 18.3325L14.921 18.3224ZM9.87514 5.22507C9.72438 2.98355 11.5437 1.13406 13.6345 0.953125C13.926 3.54645 11.2824 5.47636 9.87514 5.22507Z" fill="#0C0D0F"/>
</svg>
