<svg width="21" height="20" viewBox="0 0 21 20" fill="none" xmlns="http://www.w3.org/2000/svg">
<path d="M18.6726 8.36531H18.0013V8.33073H10.5013V11.6641H15.2109C14.5238 13.6045 12.6776 14.9974 10.5013 14.9974C7.74005 14.9974 5.5013 12.7586 5.5013 9.9974C5.5013 7.23615 7.74005 4.9974 10.5013 4.9974C11.7759 4.9974 12.9355 5.47823 13.8184 6.26365L16.1755 3.90656C14.6871 2.51948 12.6963 1.66406 10.5013 1.66406C5.89922 1.66406 2.16797 5.39531 2.16797 9.9974C2.16797 14.5995 5.89922 18.3307 10.5013 18.3307C15.1034 18.3307 18.8346 14.5995 18.8346 9.9974C18.8346 9.43865 18.7771 8.89323 18.6726 8.36531Z" fill="#FFC107"/>
<path d="M3.12891 6.11865L5.86682 8.12656C6.60766 6.2924 8.40182 4.9974 10.5014 4.9974C11.776 4.9974 12.9356 5.47823 13.8185 6.26365L16.1756 3.90656C14.6872 2.51948 12.6964 1.66406 10.5014 1.66406C7.30057 1.66406 4.52474 3.47115 3.12891 6.11865Z" fill="#FF3D00"/>
<path d="M10.5008 18.3317C12.6533 18.3317 14.6091 17.5079 16.0879 16.1683L13.5087 13.9858C12.672 14.6196 11.632 14.9983 10.5008 14.9983C8.33328 14.9983 6.49286 13.6163 5.79953 11.6875L3.08203 13.7812C4.4612 16.48 7.26203 18.3317 10.5008 18.3317Z" fill="#4CAF50"/>
<path d="M18.6712 8.37052H18V8.33594H10.5V11.6693H15.2096C14.8796 12.6014 14.28 13.4051 13.5067 13.9905L13.5079 13.9897L16.0871 16.1722C15.9046 16.338 18.8333 14.1693 18.8333 10.0026C18.8333 9.44385 18.7758 8.89844 18.6712 8.37052Z" fill="#1976D2"/>
</svg>
