<svg width="36" height="36" viewBox="0 0 36 36" fill="none" xmlns="http://www.w3.org/2000/svg">
<circle cx="18" cy="18" r="17.5" stroke="#EEEEEE"/>
<path d="M17.961 21.554C17.349 21.554 16.842 21.47 16.44 21.302C16.038 21.128 15.735 20.885 15.531 20.573C15.333 20.255 15.234 19.88 15.234 19.448H16.728C16.728 19.61 16.773 19.754 16.863 19.88C16.953 20.006 17.088 20.105 17.268 20.177C17.454 20.243 17.685 20.276 17.961 20.276C18.321 20.276 18.603 20.219 18.807 20.105C19.017 19.985 19.122 19.814 19.122 19.592C19.122 19.406 19.035 19.256 18.861 19.142C18.693 19.022 18.411 18.944 18.015 18.908L17.601 18.872C16.941 18.812 16.416 18.614 16.026 18.278C15.636 17.936 15.441 17.456 15.441 16.838C15.441 16.412 15.534 16.058 15.72 15.776C15.906 15.494 16.176 15.284 16.53 15.146C16.884 15.002 17.31 14.93 17.808 14.93C18.348 14.93 18.798 15.014 19.158 15.182C19.524 15.344 19.8 15.578 19.986 15.884C20.172 16.19 20.265 16.562 20.265 17H18.771C18.771 16.844 18.732 16.709 18.654 16.595C18.576 16.475 18.465 16.382 18.321 16.316C18.183 16.244 18.012 16.208 17.808 16.208C17.622 16.208 17.463 16.235 17.331 16.289C17.205 16.337 17.106 16.409 17.034 16.505C16.968 16.595 16.935 16.706 16.935 16.838C16.935 17 16.995 17.15 17.115 17.288C17.241 17.42 17.451 17.501 17.745 17.531L18.159 17.567C18.903 17.627 19.497 17.825 19.941 18.161C20.391 18.491 20.616 18.968 20.616 19.592C20.616 20.018 20.514 20.378 20.31 20.672C20.106 20.96 19.806 21.179 19.41 21.329C19.014 21.479 18.531 21.554 17.961 21.554ZM17.241 22.661V21.347H18.555V22.661H17.241ZM17.205 15.371V14.057H18.519V15.371H17.205Z" fill="#111111"/>
<path fill-rule="evenodd" clip-rule="evenodd" d="M9.2002 13.9992C9.2002 11.3483 11.3492 9.19922 14.0002 9.19922H22.0002C24.6512 9.19922 26.8002 11.3483 26.8002 13.9992V21.9992C26.8002 24.6502 24.6512 26.7992 22.0002 26.7992H14.0002C11.3495 26.7992 9.20062 24.6506 9.2002 22H10.8002C10.8006 23.767 12.2331 25.1992 14.0002 25.1992H22.0002C23.7675 25.1992 25.2002 23.7665 25.2002 21.9992V13.9992C25.2002 12.2319 23.7675 10.7992 22.0002 10.7992H14.0002C12.2329 10.7992 10.8002 12.2319 10.8002 13.9992V14H9.2002V13.9992ZM10.8002 20V16H9.2002V20H10.8002Z" fill="#111111"/>
</svg>
