<svg width="14" height="15" viewBox="0 0 14 15" fill="none" xmlns="http://www.w3.org/2000/svg">
<rect x="0.637365" y="0.636388" width="10.9016" height="12.119" rx="1.18977" stroke="#999999" stroke-width="1.27278"/>
<path d="M6.27734 10.5625C6.27734 9.53973 6.27734 9.02836 6.47638 8.63772C6.65146 8.29411 6.93083 8.01474 7.27444 7.83966C7.66508 7.64062 8.17645 7.64062 9.19919 7.64062H9.71937C10.7421 7.64062 11.2535 7.64062 11.6441 7.83966C11.9877 8.01474 12.2671 8.29411 12.4422 8.63772C12.6412 9.02836 12.6412 9.53973 12.6412 10.5625V11.0827C12.6412 12.1054 12.6412 12.6168 12.4422 13.0074C12.2671 13.351 11.9877 13.6304 11.6441 13.8055C11.2535 14.0045 10.7421 14.0045 9.71937 14.0045H9.1992C8.17645 14.0045 7.66508 14.0045 7.27444 13.8055C6.93083 13.6304 6.65146 13.351 6.47638 13.0074C6.27734 12.6168 6.27734 12.1054 6.27734 11.0827V10.5625Z" fill="white"/>
<path d="M7.27444 13.8055L7.56336 13.2384L7.27444 13.8055ZM6.47638 13.0074L7.04341 12.7185L6.47638 13.0074ZM12.4422 13.0074L11.8752 12.7185L12.4422 13.0074ZM11.6441 13.8055L11.3552 13.2384L11.6441 13.8055ZM11.6441 7.83966L11.3552 8.40669L11.6441 7.83966ZM12.4422 8.63772L11.8752 8.92664L12.4422 8.63772ZM9.19919 8.27701H9.71937V7.00424H9.19919V8.27701ZM12.0048 10.5625V11.0827H13.2776V10.5625H12.0048ZM9.71937 13.3681H9.1992V14.6409H9.71937V13.3681ZM6.91373 11.0827V10.5625H5.64096V11.0827H6.91373ZM9.1992 13.3681C8.67732 13.3681 8.32419 13.3676 8.0516 13.3454C7.78644 13.3237 7.65401 13.2846 7.56336 13.2384L6.98553 14.3725C7.28551 14.5253 7.60409 14.5858 7.94796 14.6139C8.2844 14.6414 8.69832 14.6409 9.1992 14.6409V13.3681ZM5.64096 11.0827C5.64096 11.5835 5.64046 11.9975 5.66795 12.3339C5.69604 12.6778 5.75651 12.9963 5.90936 13.2963L7.04341 12.7185C6.99722 12.6278 6.95816 12.4954 6.9365 12.2302C6.91423 11.9577 6.91373 11.6045 6.91373 11.0827H5.64096ZM7.56336 13.2384C7.33949 13.1244 7.15748 12.9424 7.04341 12.7185L5.90936 13.2963C6.14545 13.7597 6.52217 14.1364 6.98553 14.3725L7.56336 13.2384ZM12.0048 11.0827C12.0048 11.6045 12.0043 11.9577 11.9821 12.2302C11.9604 12.4954 11.9213 12.6278 11.8752 12.7185L13.0092 13.2963C13.1621 12.9963 13.2225 12.6778 13.2506 12.3339C13.2781 11.9975 13.2776 11.5835 13.2776 11.0827H12.0048ZM9.71937 14.6409C10.2202 14.6409 10.6342 14.6414 10.9706 14.6139C11.3145 14.5858 11.6331 14.5253 11.933 14.3725L11.3552 13.2384C11.2646 13.2846 11.1321 13.3237 10.867 13.3454C10.5944 13.3676 10.2412 13.3681 9.71937 13.3681V14.6409ZM11.8752 12.7185C11.7611 12.9424 11.5791 13.1244 11.3552 13.2384L11.933 14.3725C12.3964 14.1364 12.7731 13.7597 13.0092 13.2963L11.8752 12.7185ZM9.71937 8.27701C10.2412 8.27701 10.5944 8.27751 10.867 8.29978C11.1321 8.32144 11.2646 8.3605 11.3552 8.40669L11.933 7.27264C11.6331 7.11979 11.3145 7.05933 10.9706 7.03123C10.6342 7.00374 10.2202 7.00424 9.71937 7.00424V8.27701ZM13.2776 10.5625C13.2776 10.0616 13.2781 9.64768 13.2506 9.31124C13.2225 8.96737 13.1621 8.64879 13.0092 8.34881L11.8752 8.92664C11.9213 9.01729 11.9604 9.14972 11.9821 9.41488C12.0043 9.68747 12.0048 10.0406 12.0048 10.5625H13.2776ZM11.3552 8.40669C11.5791 8.52076 11.7611 8.70277 11.8752 8.92664L13.0092 8.34881C12.7731 7.88545 12.3964 7.50873 11.933 7.27264L11.3552 8.40669ZM9.19919 7.00424C8.69832 7.00424 8.2844 7.00374 7.94796 7.03123C7.60409 7.05933 7.28551 7.11979 6.98553 7.27264L7.56336 8.40669C7.65401 8.3605 7.78644 8.32144 8.0516 8.29978C8.32419 8.27751 8.67732 8.27701 9.19919 8.27701V7.00424ZM6.91373 10.5625C6.91373 10.0406 6.91423 9.68747 6.9365 9.41488C6.95816 9.14972 6.99722 9.01729 7.04341 8.92664L5.90936 8.34881C5.75651 8.64879 5.69604 8.96737 5.66795 9.31124C5.64046 9.64768 5.64096 10.0616 5.64096 10.5625H6.91373ZM6.98553 7.27264C6.52217 7.50873 6.14545 7.88545 5.90936 8.34881L7.04341 8.92664C7.15748 8.70277 7.33949 8.52076 7.56336 8.40669L6.98553 7.27264Z" fill="#999999"/>
<path d="M8.8252 10.1159C8.8252 9.84693 9.04322 9.62891 9.31217 9.62891C9.58112 9.62891 9.79915 9.84693 9.79915 10.1159V10.9681C9.79915 11.237 9.58112 11.4551 9.31217 11.4551C9.04322 11.4551 8.8252 11.237 8.8252 10.9681V10.1159Z" fill="#999999"/>
<path d="M10.1644 10.4797C10.4334 10.4797 10.6514 10.6977 10.6514 10.9666C10.6514 11.2356 10.4334 11.4536 10.1644 11.4536H9.31221C9.04326 11.4536 8.82524 11.2356 8.82524 10.9666C8.82524 10.6977 9.04326 10.4797 9.31221 10.4797H10.1644Z" fill="#999999"/>
<rect x="2.43457" y="2.43359" width="3.65231" height="1.27278" rx="0.636388" fill="#999999"/>
<rect x="2.43457" y="4.86719" width="6.08719" height="1.27278" rx="0.636388" fill="#999999"/>
</svg>
