<svg width="24" height="24" viewBox="0 0 24 24" fill="none" xmlns="http://www.w3.org/2000/svg">
<path d="M11.4295 0.601563C11.5807 0.601562 11.7257 0.661616 11.8326 0.768512C11.9395 0.875407 11.9995 1.02039 11.9995 1.17156V10.8316C11.9995 10.9827 11.9395 11.1277 11.8326 11.2346C11.7257 11.3415 11.5807 11.4016 11.4295 11.4016H1.76952C1.61835 11.4016 1.47337 11.3415 1.36647 11.2346C1.25958 11.1277 1.19952 10.9827 1.19952 10.8316V1.17156C1.19952 1.02039 1.25958 0.875407 1.36647 0.768512C1.47337 0.661616 1.61835 0.601563 1.76952 0.601563H11.4295ZM9.83952 2.76156H3.35952V9.24156H9.83952V2.76156ZM22.2295 12.6016C22.3807 12.6016 22.5257 12.6616 22.6326 12.7685C22.7395 12.8754 22.7995 13.0204 22.7995 13.1716V22.8316C22.7995 22.9827 22.7395 23.1277 22.6326 23.2346C22.5257 23.3415 22.3807 23.4016 22.2295 23.4016H12.5695C12.4184 23.4016 12.2734 23.3415 12.1665 23.2346C12.0596 23.1277 11.9995 22.9827 11.9995 22.8316V13.1716C11.9995 13.0204 12.0596 12.8754 12.1665 12.7685C12.2734 12.6616 12.4184 12.6016 12.5695 12.6016H22.2295ZM20.6395 14.7616H14.1595V21.2416H20.6395V14.7616ZM1.80192 22.798L1.80492 18.5956H0.311523L2.80632 15.6004H3.96552V21.2524H8.20752V23.4016H5.96172C4.77574 23.3929 3.58972 23.3915 2.40372 23.3974C2.2447 23.3977 2.09205 23.3349 1.97932 23.2227C1.86659 23.1105 1.803 22.9582 1.80252 22.7992V22.7986L1.80192 22.798ZM22.2211 1.20396L22.2175 5.40576H23.7127L21.2179 8.40156H20.0581V2.74956H15.8161V0.601563H18.0625C19.3501 0.609963 20.5363 0.611162 21.6205 0.605162C21.7795 0.604844 21.9322 0.66767 22.0449 0.779837C22.1577 0.892005 22.2212 1.04434 22.2217 1.20336V1.20396H22.2211Z" fill="#111111"/>
</svg>
