<svg width="24" height="25" viewBox="0 0 24 25" fill="none" xmlns="http://www.w3.org/2000/svg">
<path d="M22.0119 19.6907H18.3428C18.2365 19.6888 18.1316 19.666 18.0342 19.6235C17.9367 19.581 17.8486 19.5198 17.7748 19.4432C17.7011 19.3666 17.6432 19.2762 17.6044 19.1772C17.5656 19.0782 17.5468 18.9725 17.5489 18.8662L17.5409 9.16874C17.491 5.77767 14.8328 3.18695 11.5559 3.17088C8.27889 3.18695 5.62068 5.77606 5.56925 9.16874L5.56282 17.5821C5.56282 17.5821 6.58818 21.2512 9.02943 20.8253C9.21425 20.1825 9.86997 19.9414 10.2926 19.9414H12.8641C13.7416 19.9414 14.4519 20.6775 14.4519 21.5871V22.103C14.4519 23.0127 13.7416 23.7503 12.8641 23.7503H10.4984C10.1743 23.7462 9.85916 23.6434 9.595 23.4556C9.33084 23.2678 9.13019 23.004 9.01979 22.6993C8.98122 22.6768 8.66622 22.7057 8.35443 22.635C5.94693 21.743 4.89104 19.6778 4.89104 19.6778C4.84991 19.6875 4.80791 19.6929 4.76568 19.6939H1.1014C0.994818 19.6922 0.889623 19.6695 0.791865 19.627C0.694106 19.5846 0.605714 19.5232 0.531776 19.4464C0.457838 19.3696 0.399813 19.279 0.361041 19.1797C0.322269 19.0804 0.303516 18.9744 0.30586 18.8678V10.4271C0.30586 9.97231 0.661038 9.60267 1.09979 9.60267H3.72104C3.72104 8.90677 3.71943 9.16552 3.71943 9.16552C3.81264 1.27767 11.4257 1.25195 11.4257 1.25195H11.686C11.686 1.25195 19.2991 1.28088 19.3923 9.16552L19.3907 9.60267H22.0103C22.4507 9.60267 22.8059 9.97231 22.8059 10.4271V18.8662C22.808 18.9725 22.7891 19.0782 22.7504 19.1772C22.7116 19.2762 22.6537 19.3666 22.5799 19.4432C22.5062 19.5198 22.4181 19.581 22.3206 19.6235C22.2231 19.666 22.1182 19.6888 22.0119 19.6907ZM3.88497 12.0166C3.88497 11.737 3.74032 11.5087 3.56354 11.5087H2.20872C2.03193 11.5087 1.88729 11.737 1.88729 12.0166V17.2141C1.88729 17.4953 2.03193 17.7203 2.20872 17.7203H3.56354C3.74032 17.7203 3.88497 17.4937 3.88497 17.2141V12.0166ZM21.226 12.0166C21.226 11.737 21.0814 11.5087 20.9046 11.5087H19.5514C19.3746 11.5087 19.2268 11.737 19.2268 12.0166V17.2141C19.2268 17.4953 19.373 17.7203 19.5514 17.7203H20.903C21.0798 17.7203 21.2244 17.4937 21.2244 17.2141V12.0166H21.226Z" fill="white"/>
</svg>
