<svg width="24" height="25" viewBox="0 0 24 25" fill="none" xmlns="http://www.w3.org/2000/svg">
<g clip-path="url(#clip0_4572_45893)">
<path d="M11.25 2H12.75V11H11.25V2ZM0.75 11.75H10.5V13.25H0.75V11.75Z" fill="white"/>
<path d="M2.25 6.5H21.75V8.00001H2.25V6.5ZM2.25 17H10.5V18.5H2.25V17Z" fill="white"/>
<path d="M17.25 21.0614L15.2197 19.0312L16.2802 17.9707L17.25 18.9405L19.7197 16.4707L20.7802 17.5312L17.25 21.0614Z" fill="white"/>
<path d="M18 24.5C14.6917 24.5 12 21.8083 12 18.5C12 15.1918 14.6917 12.5 18 12.5C21.3082 12.5 24 15.1918 24 18.5C24 21.8083 21.3082 24.5 18 24.5ZM18 14C15.5182 14 13.5 16.0183 13.5 18.5C13.5 20.9817 15.5183 23 18 23C20.4817 23 22.5 20.9818 22.5 18.5C22.5 16.0182 20.4818 14 18 14Z" fill="white"/>
<path d="M22.395 11.099C21.7028 5.91201 17.2335 2.00001 12 2.00001V0.5C17.982 0.5 23.0903 4.97149 23.8822 10.901L22.395 11.099Z" fill="white"/>
<path d="M16.4498 11.0465C16.1332 5.97351 14.1787 2.00001 12 2.00001V0.5C15.0675 0.5 17.5687 4.89651 17.9468 10.9535L16.4498 11.0465ZM10.401 24.3822C4.47149 23.5902 0 18.482 0 12.5C0 5.88351 5.38351 0.5 12 0.5V2.00001C6.21001 2.00001 1.49999 6.71001 1.49999 12.5C1.49999 17.7335 5.41199 22.2028 10.599 22.895L10.401 24.3822Z" fill="white"/>
<path d="M10.0965 23.9098C7.64626 22.346 6 17.7612 6 12.5C6 5.771 8.63551 0.5 12 0.5V2.00001C9.87151 2.00001 7.50001 6.31251 7.50001 12.5C7.50001 17.195 8.8995 21.3665 10.9035 22.646L10.0965 23.9098Z" fill="white"/>
</g>
<defs>
<clipPath id="clip0_4572_45893">
<rect width="24" height="24" fill="white" transform="translate(0 0.5)"/>
</clipPath>
</defs>
</svg>
