<svg width="313" height="321" viewBox="0 0 313 321" fill="none" xmlns="http://www.w3.org/2000/svg">
<rect x="36.3418" y="106.24" width="12.3544" height="12.3544" fill="#FFD429"/>
<rect x="36.3418" y="118.596" width="12.3544" height="12.3544" fill="#FFD429"/>
<rect x="25.5312" y="155.658" width="12.3544" height="12.3544" fill="#FFD429"/>
<rect x="25.5312" y="180.367" width="12.3544" height="12.3544" fill="#FFD429"/>
<rect x="164.519" y="195.811" width="12.3544" height="12.3544" fill="#FFD429"/>
<rect x="164.519" y="222.836" width="12.3544" height="12.3544" fill="#FFD429"/>
<rect x="164.519" y="118.596" width="12.3544" height="12.3544" fill="#FFD429"/>
<rect x="48.6958" y="106.24" width="38.6076" height="12.3544" fill="#FFD429"/>
<rect x="61.0503" y="195.811" width="38.6076" height="12.3544" fill="#FFD429"/>
<rect x="125.911" y="180.367" width="24.7089" height="12.3544" fill="#FFD429"/>
<rect x="74.9492" y="208.164" width="24.7089" height="12.3544" fill="#FFD429"/>
<rect x="48.6958" y="208.164" width="12.3544" height="12.3544" fill="#FFD429"/>
<rect x="101.202" y="106.24" width="49.4177" height="12.3544" fill="#FFD429"/>
<rect x="61.0503" y="118.596" width="89.5696" height="12.3544" fill="#FFD429"/>
<rect x="87.3037" y="130.949" width="89.5696" height="12.3544" fill="#FFD429"/>
<rect x="48.6958" y="143.305" width="128.177" height="12.3544" fill="#FFD429"/>
<rect x="61.0503" y="155.658" width="89.5696" height="12.3544" fill="#FFD429"/>
<rect x="37.8857" y="168.012" width="126.633" height="12.3544" fill="#FFD429"/>
<rect x="48.6958" y="93.8867" width="38.6076" height="12.3544" fill="#FFD429"/>
<rect x="101.202" y="93.8867" width="49.4177" height="12.3544" fill="#FFD429"/>
<rect x="48.6958" y="81.5312" width="12.3544" height="12.3544" fill="#FFD429"/>
<rect x="74.9492" y="81.5312" width="12.3544" height="12.3544" fill="#FFD429"/>
<rect width="12.3544" height="6.17722" transform="matrix(1 0 -0.642788 0.766044 152.274 235.43)" fill="#8F791F"/>
<rect x="148.304" y="240.062" width="12.3544" height="12.3544" fill="#FFD429"/>
<rect width="6.27091" height="12.3544" transform="matrix(0.62932 -0.777146 0 1 160.658 240.062)" fill="#C69E00"/>
<rect width="12.3544" height="6.17722" transform="matrix(1 0 -0.642788 0.766044 164.63 235.43)" fill="#8F791F"/>
<rect x="160.659" y="240.062" width="12.3544" height="12.3544" fill="#FFD429"/>
<rect width="6.27091" height="12.3544" transform="matrix(0.62932 -0.777146 0 1 173.014 240.062)" fill="#C69E00"/>
<circle cx="12.6331" cy="12.6331" r="12.6331" transform="matrix(-0.996195 -0.0871557 -0.258819 0.965926 176.777 215.789)" fill="#111111"/>
<circle cx="12.6331" cy="12.6331" r="12.5053" transform="matrix(-0.996195 -0.0871557 -0.258819 0.965926 176.777 215.789)" stroke="white" stroke-opacity="0.5" stroke-width="0.25553"/>
<circle cx="12.6331" cy="12.6331" r="12.5053" transform="matrix(-0.996195 -0.0871557 -0.258819 0.965926 175.318 213.908)" fill="#111111" stroke="white" stroke-width="0.25553"/>
<path d="M159.079 223.318L159.726 221.772L155.926 221.239L156.935 218.826L167.258 220.273L166.249 222.686L162.45 222.154L161.803 223.7C164.913 224.283 167.044 225.231 166.737 225.966C166.429 226.702 163.785 226.98 160.559 226.674L158.413 231.806L155.689 231.424L157.835 226.293C154.724 225.71 152.593 224.762 152.901 224.026C153.209 223.291 155.853 223.012 159.079 223.318ZM159.408 226.07C162.833 226.55 165.829 226.415 166.099 225.768C166.334 225.206 164.443 224.445 161.704 223.939L160.922 225.808L158.197 225.426L158.978 223.56C156.176 223.294 153.93 223.472 153.697 224.029C153.427 224.675 155.983 225.59 159.408 226.07Z" fill="white"/>
<circle cx="10.0454" cy="10.0454" r="10.0454" transform="matrix(-1 0 -0.258819 0.965926 118.958 64.7129)" fill="#111111"/>
<circle cx="10.0454" cy="10.0454" r="9.94384" transform="matrix(-1 0 -0.258819 0.965926 118.958 64.7129)" stroke="white" stroke-opacity="0.5" stroke-width="0.203189"/>
<circle cx="10.0454" cy="10.0454" r="9.94384" transform="matrix(-1 0 -0.258819 0.965926 117.792 63.3496)" fill="#111111" stroke="white" stroke-width="0.203189"/>
<path d="M108.041 75.1082C107.992 75.044 107.912 75.0079 107.819 75.0079H99.1694C99.0116 75.0079 98.8832 75.1925 98.9669 75.2988L100.234 76.9497C100.283 77.0139 100.363 77.05 100.456 77.05H109.105C109.263 77.05 109.392 76.8654 109.308 76.7591L108.041 75.1082Z" fill="white"/>
<path d="M109.692 68.946C109.643 68.8818 109.563 68.8457 109.47 68.8457H100.821C100.663 68.8457 100.534 69.0302 100.618 69.1366L101.885 70.7854C101.935 70.8496 102.014 70.8857 102.108 70.8857H110.757C110.915 70.8857 111.043 70.7012 110.96 70.5949L109.692 68.946Z" fill="white"/>
<path d="M101.558 72.0071C101.642 71.9429 101.741 71.9068 101.834 71.9068H110.484C110.641 71.9068 110.671 72.0913 110.53 72.1976L108.379 73.8465C108.296 73.9107 108.197 73.9468 108.103 73.9468H99.4537C99.2959 73.9468 99.2664 73.7622 99.4071 73.6559L101.558 72.0071Z" fill="white"/>
<rect x="104.292" y="172.646" width="41.6962" height="71.8101" fill="url(#paint0_linear_5022_62208)"/>
<path d="M145.369 191.321C145.457 191.887 145.242 192.501 144.719 193.137C144.197 193.774 143.382 194.411 142.327 195.009C140.217 196.204 137.187 197.217 133.739 197.754C130.29 198.291 127.096 198.248 124.723 197.752C123.535 197.503 122.566 197.144 121.874 196.696C121.182 196.249 120.791 195.73 120.703 195.164C120.615 194.598 120.83 193.984 121.353 193.348C121.875 192.711 122.69 192.074 123.745 191.476C125.855 190.281 128.885 189.268 132.333 188.731C135.782 188.194 138.976 188.237 141.349 188.733C142.537 188.982 143.506 189.341 144.198 189.788C144.89 190.236 145.281 190.755 145.369 191.321Z" stroke="url(#paint1_linear_5022_62208)" stroke-width="0.463291"/>
<path d="M145.369 199.043C145.408 199.296 145.336 199.58 145.12 199.902C144.903 200.225 144.551 200.569 144.065 200.929C143.094 201.647 141.628 202.393 139.766 203.121C136.045 204.574 130.793 205.935 124.893 206.854C118.993 207.774 113.576 208.075 109.59 207.822C107.594 207.695 105.971 207.431 104.827 207.042C104.255 206.847 103.815 206.626 103.51 206.384C103.207 206.144 103.051 205.895 103.011 205.642C102.972 205.39 103.045 205.105 103.261 204.784C103.478 204.461 103.829 204.116 104.315 203.757C105.286 203.039 106.753 202.292 108.615 201.565C112.335 200.111 117.587 198.75 123.487 197.831C129.387 196.912 134.805 196.611 138.791 196.864C140.786 196.99 142.41 197.255 143.554 197.644C144.126 197.838 144.566 198.06 144.87 198.302C145.174 198.542 145.33 198.791 145.369 199.043Z" stroke="url(#paint2_linear_5022_62208)" stroke-opacity="0.8" stroke-width="0.463291"/>
<path d="M145.998 169.078C144.145 157.033 129.01 145.143 114.726 139.352C100.441 133.561 55.3471 124.372 49.4787 130.858C42.1433 138.966 54.1116 142.827 56.8141 143.599C59.5167 144.371 63.3774 142.441 70.3268 145.143C75.8863 147.305 78.5631 155.824 79.2065 159.814C80.4935 161.616 80.9825 165.991 72.6433 169.08C62.2192 172.941 44.4597 167.149 42.1433 162.516C40.2901 158.81 37.7679 156.854 36.7385 156.339C33.2638 150.162 18.979 153.251 23.2258 162.516C26.6233 169.929 33.6499 176.158 36.7385 178.346C38.6688 183.751 43.3018 184.909 51.0233 191.472C57.2005 196.723 64.1499 197.006 66.8524 196.491C71.1764 200.815 77.4051 201.124 79.979 200.738C79.979 200.738 94.5212 199.065 100.055 197.263C100.055 197.263 104.456 204.057 118.972 201.895C137.118 199.192 148.314 184.135 145.998 169.078Z" fill="url(#paint3_linear_5022_62208)"/>
<path d="M146.386 172.537C146.28 187.835 133.337 199.446 118.589 201.897C109.401 203.423 98.9773 201.107 95.5026 189.911C92.0279 178.714 91.1756 176.416 93.8777 174.1C96.5798 171.783 103.914 175.258 105.073 181.821C106.232 188.384 111.637 186.454 114.339 191.859" stroke="white" stroke-width="0.463291"/>
<path d="M146.382 172.586C146.382 172.586 146.382 158.118 127.08 145.56C107.777 133.002 58.7443 126.23 50.6367 130.867C42.5291 135.504 48.7064 144.372 60.6747 143.214C76.3503 141.697 80.443 161.012 79.6708 163.715C78.8987 166.417 74.5712 169.501 64.9193 169.887C55.2675 170.273 45.0468 167.956 40.9836 160.621C36.9204 153.285 27.5506 150.974 23.6898 155.993C19.8291 161.012 28.2443 172.199 36.3519 178.377" stroke="white" stroke-width="0.463291"/>
<path d="M100.054 197.65C100.054 197.65 91.1744 199.874 86.1555 200.352C81.1365 200.83 71.099 202.669 65.7721 195.721C59.3216 187.308 53.7252 182.593 58.4367 178.734C62.588 175.333 68.3959 178.345 71.8706 182.206C75.3453 186.066 77.7411 188.771 81.9879 187.612C85.3854 186.686 91.1256 185.554 93.5708 184.525" stroke="white" stroke-width="0.463291"/>
<path d="M58.0672 179.118C56.5229 178.346 52.6598 177.192 49.8767 172.942C47.0935 168.691 36.4476 166.376 36.0615 173.712C35.6754 181.047 39.8504 183.363 49.8767 190.698C59.9029 198.034 66.5608 196.877 66.5608 196.877" stroke="white" stroke-width="0.463291"/>
<g filter="url(#filter0_d_5022_62208)">
<circle cx="33.3768" cy="33.3768" r="33.3768" transform="matrix(0.961262 -0.275637 0.390731 0.920505 63.0815 111.707)" fill="#1A1A1A"/>
<circle cx="33.3768" cy="33.3768" r="33.1452" transform="matrix(0.961262 -0.275637 0.390731 0.920505 63.0815 111.707)" stroke="url(#paint4_linear_5022_62208)" stroke-opacity="0.5" stroke-width="0.463291"/>
<circle cx="33.3768" cy="33.3768" r="33.0663" transform="matrix(0.961262 -0.275637 0.390731 0.920505 63.811 107.594)" fill="#FDFBFE" stroke="black" stroke-width="0.620964"/>
<g filter="url(#filter1_i_5022_62208)">
<circle cx="25.6148" cy="25.6148" r="25.6148" transform="matrix(0.961262 -0.275637 0.390731 0.920505 74.3032 112.594)" fill="#FF5C00"/>
</g>
<circle cx="25.6148" cy="25.6148" r="25.3043" transform="matrix(0.961262 -0.275637 0.390731 0.920505 74.3032 112.594)" stroke="black" stroke-width="0.620964"/>
<g filter="url(#filter2_d_5022_62208)">
<path d="M116.126 119.378C114.292 115.982 110.644 115.713 106.509 116.498L104.466 111.683L101.386 112.566L103.392 117.291C102.581 117.524 101.753 117.761 100.931 117.997L98.925 113.272L95.8689 114.148L97.9267 118.996L91.6803 120.787L93.0198 123.943C93.0198 123.943 95.2777 123.251 95.2593 123.301C95.6511 123.14 96.1098 123.133 96.5388 123.281C96.9678 123.429 97.3336 123.721 97.559 124.095L103.192 137.364C103.242 137.505 103.261 137.65 103.25 137.793C103.238 137.935 103.195 138.071 103.124 138.192C103.056 138.315 102.96 138.421 102.843 138.504C102.725 138.587 102.588 138.646 102.44 138.676C102.495 138.698 100.201 139.319 100.201 139.319L101.113 143.01L107.301 141.235L109.392 146.161L112.472 145.278L110.412 140.425L112.873 139.719L114.923 144.55L118.009 143.666L115.941 138.796C121.016 137.002 124.122 134.733 122.597 129.939C121.372 126.081 118.817 124.934 115.585 125.103C117.018 123.746 117.462 121.864 116.126 119.378ZM116.262 131.105C117.817 134.768 111.084 136.229 108.996 136.828L106.236 130.327C108.327 129.734 114.638 127.279 116.262 131.105ZM110.945 122.355C112.367 125.706 106.724 126.867 104.986 127.365L102.478 121.456C104.216 120.958 109.463 118.864 110.945 122.355Z" fill="white"/>
</g>
</g>
<circle cx="15.2697" cy="15.2697" r="15.2697" transform="matrix(0.996195 -0.0871557 0.258819 0.965926 7.92334 90.1055)" fill="#111111"/>
<circle cx="15.2697" cy="15.2697" r="15.1153" transform="matrix(0.996195 -0.0871557 0.258819 0.965926 7.92334 90.1055)" stroke="white" stroke-opacity="0.5" stroke-width="0.308861"/>
<circle cx="15.2697" cy="15.2697" r="15.1153" transform="matrix(0.996195 -0.0871557 0.258819 0.965926 9.68604 87.8281)" fill="#111111" stroke="white" stroke-width="0.308861"/>
<g filter="url(#filter3_d_5022_62208)">
<path d="M26.3536 91.8464L28.3338 99.2368L23.2732 101.38L26.3536 91.8464ZM26.3536 91.8464L28.3338 99.2368L34.2851 100.417L26.3536 91.8464ZM31.1499 109.747L29.7721 104.604L23.4772 102.142L31.1499 109.747ZM31.1499 109.747L29.7721 104.604L34.4891 101.178L31.1499 109.747Z" fill="white"/>
<path d="M23.2732 101.38L28.1144 98.4176L29.4817 103.521L23.2732 101.38ZM34.2851 100.417L28.1144 98.4176L29.4817 103.521L34.2851 100.417Z" fill="white"/>
</g>
<path d="M92.0166 41.1055L97.8134 35.9561L92.0166 30.8066H95.6653L99.6083 34.3377L103.537 30.8066H107.2L101.403 35.9561L107.2 41.1055H103.537L99.6083 37.5744L95.6653 41.1055H92.0166Z" fill="white"/>
<path d="M90.7442 30.8066V33.0282H85.7419V41.1055H83.0936V33.0282H78.0913V30.8066H90.7442Z" fill="white"/>
<path d="M72.879 30.8066C75.2184 30.8066 76.822 32.2926 76.822 34.5878C76.822 36.883 75.2184 38.3542 72.879 38.3542H67.4354V41.1055H64.7871V30.8066H72.879ZM72.1434 36.1326C72.9379 36.1326 74.1738 36.1326 74.1738 34.5878C74.1738 33.0282 72.9379 33.0282 72.1434 33.0282H67.4354V36.1326H72.1434Z" fill="white"/>
<path d="M62.9471 35.9413C62.9471 39.5165 60.9903 41.2526 56.4736 41.2526C51.9421 41.2526 50 39.5312 50 35.9413V30.8066H52.6483V35.9413C52.6483 37.3832 53.0455 39.031 56.4736 39.031C59.9016 39.031 60.2988 37.3685 60.2988 35.9413V30.8066H62.9471V35.9413Z" fill="white"/>
<rect x="20.2" y="24.2" width="23.6" height="23.6" rx="5.8" stroke="white" stroke-width="0.4"/>
<path d="M30.1909 30.2775C30.1909 30.0735 30.0255 29.9082 29.8216 29.9082H26.2765C26.0726 29.9082 25.9072 30.0735 25.9072 30.2775V33.8226C25.9072 34.0265 26.0726 34.1918 26.2765 34.1918H29.5378C29.8186 34.1918 29.9967 34.4929 29.8614 34.739L25.9524 41.8485C25.8811 41.9781 26.0234 42.1204 26.153 42.0491L33.2626 38.1401C33.5087 38.0048 33.8098 38.1829 33.8098 38.4637V41.6513C33.8098 41.8552 33.9751 42.0205 34.1791 42.0205H37.7241C37.9281 42.0205 38.0934 41.8552 38.0934 41.6513V38.1062C38.0934 37.9022 37.9281 37.7369 37.7241 37.7369H34.5034C34.2226 37.7369 34.0445 37.4358 34.1798 37.1897L38.0483 30.1539C38.1195 30.0243 37.9773 29.882 37.8477 29.9533L30.7381 33.8623C30.4919 33.9977 30.1909 33.8196 30.1909 33.5387V30.2775Z" fill="white"/>
<defs>
<filter id="filter0_d_5022_62208" x="44.0641" y="72.2667" width="134.496" height="121.479" filterUnits="userSpaceOnUse" color-interpolation-filters="sRGB">
<feFlood flood-opacity="0" result="BackgroundImageFix"/>
<feColorMatrix in="SourceAlpha" type="matrix" values="0 0 0 0 0 0 0 0 0 0 0 0 0 0 0 0 0 0 127 0" result="hardAlpha"/>
<feOffset dy="6.17722"/>
<feGaussianBlur stdDeviation="9.26582"/>
<feComposite in2="hardAlpha" operator="out"/>
<feColorMatrix type="matrix" values="0 0 0 0 0 0 0 0 0 0 0 0 0 0 0 0 0 0 0.25 0"/>
<feBlend mode="normal" in2="BackgroundImageFix" result="effect1_dropShadow_5022_62208"/>
<feBlend mode="normal" in="SourceGraphic" in2="effect1_dropShadow_5022_62208" result="shape"/>
</filter>
<filter id="filter1_i_5022_62208" x="82.3481" y="104.492" width="53.1719" height="49.2383" filterUnits="userSpaceOnUse" color-interpolation-filters="sRGB">
<feFlood flood-opacity="0" result="BackgroundImageFix"/>
<feBlend mode="normal" in="SourceGraphic" in2="BackgroundImageFix" result="shape"/>
<feColorMatrix in="SourceAlpha" type="matrix" values="0 0 0 0 0 0 0 0 0 0 0 0 0 0 0 0 0 0 127 0" result="hardAlpha"/>
<feOffset dx="4.0916" dy="2.0458"/>
<feComposite in2="hardAlpha" operator="arithmetic" k2="-1" k3="1"/>
<feColorMatrix type="matrix" values="0 0 0 0 0 0 0 0 0 0 0 0 0 0 0 0 0 0 1 0"/>
<feBlend mode="normal" in2="shape" result="effect1_innerShadow_5022_62208"/>
</filter>
<filter id="filter2_d_5022_62208" x="91.6802" y="111.684" width="33.3524" height="36.5243" filterUnits="userSpaceOnUse" color-interpolation-filters="sRGB">
<feFlood flood-opacity="0" result="BackgroundImageFix"/>
<feColorMatrix in="SourceAlpha" type="matrix" values="0 0 0 0 0 0 0 0 0 0 0 0 0 0 0 0 0 0 127 0" result="hardAlpha"/>
<feOffset dx="2.0458" dy="2.0458"/>
<feComposite in2="hardAlpha" operator="out"/>
<feColorMatrix type="matrix" values="0 0 0 0 0 0 0 0 0 0 0 0 0 0 0 0 0 0 1 0"/>
<feBlend mode="normal" in2="BackgroundImageFix" result="effect1_dropShadow_5022_62208"/>
<feBlend mode="normal" in="SourceGraphic" in2="effect1_dropShadow_5022_62208" result="shape"/>
</filter>
<filter id="filter3_d_5022_62208" x="23.2729" y="91.8457" width="12.3935" height="19.0776" filterUnits="userSpaceOnUse" color-interpolation-filters="sRGB">
<feFlood flood-opacity="0" result="BackgroundImageFix"/>
<feColorMatrix in="SourceAlpha" type="matrix" values="0 0 0 0 0 0 0 0 0 0 0 0 0 0 0 0 0 0 127 0" result="hardAlpha"/>
<feOffset dx="1.1772" dy="1.1772"/>
<feComposite in2="hardAlpha" operator="out"/>
<feColorMatrix type="matrix" values="0 0 0 0 0 0 0 0 0 0 0 0 0 0 0 0 0 0 1 0"/>
<feBlend mode="normal" in2="BackgroundImageFix" result="effect1_dropShadow_5022_62208"/>
<feBlend mode="normal" in="SourceGraphic" in2="effect1_dropShadow_5022_62208" result="shape"/>
</filter>
<linearGradient id="paint0_linear_5022_62208" x1="136.526" y1="223.063" x2="108.867" y2="218.34" gradientUnits="userSpaceOnUse">
<stop/>
<stop offset="1" stop-color="#202020"/>
</linearGradient>
<linearGradient id="paint1_linear_5022_62208" x1="134.881" y1="198.115" x2="134.538" y2="188.561" gradientUnits="userSpaceOnUse">
<stop stop-color="white"/>
<stop offset="1" stop-color="#111111" stop-opacity="0"/>
</linearGradient>
<linearGradient id="paint2_linear_5022_62208" x1="126.781" y1="207.099" x2="125.969" y2="197.529" gradientUnits="userSpaceOnUse">
<stop stop-color="white"/>
<stop offset="1" stop-color="#111111" stop-opacity="0"/>
</linearGradient>
<linearGradient id="paint3_linear_5022_62208" x1="118.191" y1="180.367" x2="50.2418" y2="146.778" gradientUnits="userSpaceOnUse">
<stop/>
<stop offset="1" stop-color="#202020"/>
</linearGradient>
<linearGradient id="paint4_linear_5022_62208" x1="36.1925" y1="68.845" x2="55.437" y2="7.94685" gradientUnits="userSpaceOnUse">
<stop stop-color="white"/>
<stop offset="1" stop-color="#111111" stop-opacity="0"/>
</linearGradient>
</defs>
</svg>
