<svg width="28" height="28" viewBox="0 0 28 28" fill="none" xmlns="http://www.w3.org/2000/svg">
<mask id="path-1-inside-1_1266_9832" fill="white">
<path fill-rule="evenodd" clip-rule="evenodd" d="M19.484 4.1H9.4C8.24524 4.1 7.50547 4.10163 6.94381 4.14752C6.40667 4.19141 6.21986 4.26508 6.13742 4.30709C5.77991 4.48925 5.48925 4.77991 5.30709 5.13742C5.26508 5.21986 5.19141 5.40667 5.14752 5.94382C5.10163 6.50548 5.1 7.24525 5.1 8.40001V19.6952C5.1 20.85 5.10163 21.5898 5.14752 22.1514C5.19141 22.6886 5.26508 22.8754 5.30709 22.9578C5.48925 23.3153 5.77991 23.606 6.13742 23.7881C6.21986 23.8302 6.40667 23.9038 6.94381 23.9477C7.50547 23.9936 8.24524 23.9952 9.4 23.9952H18.6C19.7548 23.9952 20.4945 23.9936 21.0562 23.9477C21.5933 23.9038 21.7801 23.8302 21.8626 23.7881C22.2201 23.606 22.5108 23.3153 22.6929 22.9578C22.7349 22.8754 22.8086 22.6886 22.8525 22.1514C22.8984 21.5898 22.9 20.85 22.9 19.6952V7.51596C22.9 7.39095 22.9 7.29423 22.8992 7.21036C22.8986 7.14572 22.8977 7.09813 22.8964 7.0618C22.8716 7.03523 22.8386 7.0009 22.7934 6.95478C22.7346 6.89494 22.6662 6.82654 22.5778 6.73814L20.2619 4.42218C20.1735 4.33379 20.1051 4.26541 20.0452 4.20664C19.9991 4.16135 19.9648 4.12839 19.9382 4.10357C19.9019 4.10233 19.8543 4.10136 19.7896 4.10078C19.7058 4.10002 19.6091 4.1 19.484 4.1ZM3.43597 4.18404C3 5.03969 3 6.15979 3 8.40001V19.6952C3 21.9354 3 23.0556 3.43597 23.9112C3.81947 24.6638 4.43139 25.2758 5.18404 25.6593C6.03969 26.0952 7.15979 26.0952 9.4 26.0952H18.6C20.8402 26.0952 21.9603 26.0952 22.816 25.6593C23.5686 25.2758 24.1805 24.6638 24.564 23.9112C25 23.0556 25 21.9354 25 19.6952V7.51596C25 7.02678 25 6.78219 24.9447 6.55201C24.8957 6.34794 24.8149 6.15285 24.7053 5.97391C24.5816 5.77207 24.4086 5.59912 24.0627 5.25322L21.7468 2.93725C21.4009 2.59135 21.2279 2.4184 21.0261 2.29472C20.8472 2.18506 20.6521 2.10425 20.448 2.05526C20.2178 2 19.9732 2 19.484 2H9.4C7.15979 2 6.03969 2 5.18404 2.43597C4.43139 2.81947 3.81947 3.43139 3.43597 4.18404Z"/>
</mask>
<path fill-rule="evenodd" clip-rule="evenodd" d="M19.484 4.1H9.4C8.24524 4.1 7.50547 4.10163 6.94381 4.14752C6.40667 4.19141 6.21986 4.26508 6.13742 4.30709C5.77991 4.48925 5.48925 4.77991 5.30709 5.13742C5.26508 5.21986 5.19141 5.40667 5.14752 5.94382C5.10163 6.50548 5.1 7.24525 5.1 8.40001V19.6952C5.1 20.85 5.10163 21.5898 5.14752 22.1514C5.19141 22.6886 5.26508 22.8754 5.30709 22.9578C5.48925 23.3153 5.77991 23.606 6.13742 23.7881C6.21986 23.8302 6.40667 23.9038 6.94381 23.9477C7.50547 23.9936 8.24524 23.9952 9.4 23.9952H18.6C19.7548 23.9952 20.4945 23.9936 21.0562 23.9477C21.5933 23.9038 21.7801 23.8302 21.8626 23.7881C22.2201 23.606 22.5108 23.3153 22.6929 22.9578C22.7349 22.8754 22.8086 22.6886 22.8525 22.1514C22.8984 21.5898 22.9 20.85 22.9 19.6952V7.51596C22.9 7.39095 22.9 7.29423 22.8992 7.21036C22.8986 7.14572 22.8977 7.09813 22.8964 7.0618C22.8716 7.03523 22.8386 7.0009 22.7934 6.95478C22.7346 6.89494 22.6662 6.82654 22.5778 6.73814L20.2619 4.42218C20.1735 4.33379 20.1051 4.26541 20.0452 4.20664C19.9991 4.16135 19.9648 4.12839 19.9382 4.10357C19.9019 4.10233 19.8543 4.10136 19.7896 4.10078C19.7058 4.10002 19.6091 4.1 19.484 4.1ZM3.43597 4.18404C3 5.03969 3 6.15979 3 8.40001V19.6952C3 21.9354 3 23.0556 3.43597 23.9112C3.81947 24.6638 4.43139 25.2758 5.18404 25.6593C6.03969 26.0952 7.15979 26.0952 9.4 26.0952H18.6C20.8402 26.0952 21.9603 26.0952 22.816 25.6593C23.5686 25.2758 24.1805 24.6638 24.564 23.9112C25 23.0556 25 21.9354 25 19.6952V7.51596C25 7.02678 25 6.78219 24.9447 6.55201C24.8957 6.34794 24.8149 6.15285 24.7053 5.97391C24.5816 5.77207 24.4086 5.59912 24.0627 5.25322L21.7468 2.93725C21.4009 2.59135 21.2279 2.4184 21.0261 2.29472C20.8472 2.18506 20.6521 2.10425 20.448 2.05526C20.2178 2 19.9732 2 19.484 2H9.4C7.15979 2 6.03969 2 5.18404 2.43597C4.43139 2.81947 3.81947 3.43139 3.43597 4.18404Z" fill="#111111"/>
<path d="M6.94381 4.14752L7.07977 5.81154L7.07977 5.81154L6.94381 4.14752ZM6.13742 4.30709L5.37945 2.81949L5.37945 2.81949L6.13742 4.30709ZM5.30709 5.13742L6.79468 5.89539L6.79468 5.89539L5.30709 5.13742ZM5.14752 5.94382L6.81154 6.07977V6.07977L5.14752 5.94382ZM5.14752 22.1514L6.81154 22.0155H6.81154L5.14752 22.1514ZM5.30709 22.9578L3.81949 23.7158L3.81949 23.7158L5.30709 22.9578ZM6.13742 23.7881L5.37945 25.2757L5.37945 25.2757L6.13742 23.7881ZM6.94381 23.9477L6.80786 25.6117H6.80786L6.94381 23.9477ZM21.0562 23.9477L21.1921 25.6117H21.1921L21.0562 23.9477ZM21.8626 23.7881L22.6205 25.2757L22.6206 25.2757L21.8626 23.7881ZM22.6929 22.9578L24.1805 23.7158L24.1805 23.7158L22.6929 22.9578ZM22.8525 22.1514L24.5165 22.2874L22.8525 22.1514ZM22.8992 7.21036L24.5687 7.19525V7.19524L22.8992 7.21036ZM22.8964 7.0618L24.565 7.00495L24.5437 6.37947L24.1165 5.92212L22.8964 7.0618ZM22.7934 6.95478L23.9846 5.78497L23.9846 5.78496L22.7934 6.95478ZM22.5778 6.73814L23.7584 5.55759L23.7584 5.55758L22.5778 6.73814ZM20.2619 4.42218L19.0813 5.60274L19.0813 5.60274L20.2619 4.42218ZM20.0452 4.20664L21.215 3.01543L21.215 3.01543L20.0452 4.20664ZM19.9382 4.10357L21.0779 2.8835L20.6205 2.45627L19.995 2.43497L19.9382 4.10357ZM19.7896 4.10078L19.7745 5.77027L19.7896 4.10078ZM3.43597 4.18404L1.94838 3.42607V3.42607L3.43597 4.18404ZM3.43597 23.9112L1.94838 24.6692L1.94838 24.6692L3.43597 23.9112ZM5.18404 25.6593L4.42607 27.1469L4.42607 27.1469L5.18404 25.6593ZM22.816 25.6593L23.5739 27.1469L23.5739 27.1469L22.816 25.6593ZM24.564 23.9112L26.0516 24.6692H26.0516L24.564 23.9112ZM24.9447 6.55201L23.3213 6.94175L23.3213 6.94177L24.9447 6.55201ZM24.7053 5.97391L23.2817 6.84625V6.84625L24.7053 5.97391ZM24.0627 5.25322L25.2433 4.07266V4.07266L24.0627 5.25322ZM21.7468 2.93725L22.9273 1.75669L22.9273 1.75668L21.7468 2.93725ZM21.0261 2.29472L20.1537 3.71826L20.1538 3.71826L21.0261 2.29472ZM20.448 2.05526L20.0582 3.6787L20.0582 3.6787L20.448 2.05526ZM5.18404 2.43597L4.42607 0.94838H4.42607L5.18404 2.43597ZM9.4 5.76957H19.484V2.43044H9.4V5.76957ZM7.07977 5.81154C7.55739 5.77252 8.21648 5.76957 9.4 5.76957V2.43044C8.27401 2.43044 7.45356 2.43075 6.80786 2.4835L7.07977 5.81154ZM6.89538 5.79468C6.85872 5.81336 6.82165 5.82943 6.78816 5.84148C6.75817 5.85228 6.74392 5.85521 6.75179 5.85336C6.77202 5.84861 6.86637 5.82898 7.07977 5.81154L6.80786 2.4835C6.16922 2.53568 5.73746 2.63708 5.37945 2.81949L6.89538 5.79468ZM6.79468 5.89539C6.81677 5.85203 6.85203 5.81677 6.89539 5.79468L5.37945 2.81949C4.70779 3.16172 4.16172 3.70779 3.81949 4.37945L6.79468 5.89539ZM6.81154 6.07977C6.82898 5.86637 6.84861 5.77202 6.85336 5.75179C6.85521 5.74392 6.85228 5.75817 6.84148 5.78816C6.82943 5.82165 6.81336 5.85872 6.79468 5.89539L3.81949 4.37945C3.63708 4.73746 3.53568 5.16922 3.4835 5.80786L6.81154 6.07977ZM6.76957 8.40001C6.76957 7.21648 6.77252 6.55739 6.81154 6.07977L3.4835 5.80786C3.43075 6.45356 3.43044 7.27401 3.43044 8.40001H6.76957ZM6.76957 19.6952V8.40001H3.43044V19.6952H6.76957ZM6.81154 22.0155C6.77252 21.5378 6.76957 20.8788 6.76957 19.6952H3.43044C3.43044 20.8212 3.43075 21.6417 3.4835 22.2874L6.81154 22.0155ZM6.79468 22.1999C6.81336 22.2365 6.82943 22.2736 6.84148 22.3071C6.85228 22.3371 6.85521 22.3513 6.85336 22.3434C6.84861 22.3232 6.82898 22.2289 6.81154 22.0155L3.4835 22.2874C3.53568 22.926 3.63708 23.3578 3.81949 23.7158L6.79468 22.1999ZM6.89539 22.3006C6.85203 22.2785 6.81677 22.2432 6.79468 22.1999L3.81949 23.7158C4.16172 24.3874 4.7078 24.9335 5.37945 25.2757L6.89539 22.3006ZM7.07977 22.2837C6.86637 22.2663 6.77202 22.2466 6.75179 22.2419C6.74392 22.24 6.75817 22.243 6.78816 22.2538C6.82165 22.2658 6.85872 22.2819 6.89538 22.3006L5.37945 25.2757C5.73746 25.4582 6.16922 25.5596 6.80786 25.6117L7.07977 22.2837ZM9.4 22.3257C8.21648 22.3257 7.55739 22.3227 7.07977 22.2837L6.80786 25.6117C7.45356 25.6645 8.27401 25.6648 9.4 25.6648V22.3257ZM18.6 22.3257H9.4V25.6648H18.6V22.3257ZM20.9202 22.2837C20.4426 22.3227 19.7835 22.3257 18.6 22.3257V25.6648C19.726 25.6648 20.5464 25.6645 21.1921 25.6117L20.9202 22.2837ZM21.1046 22.3006C21.1413 22.2819 21.1784 22.2658 21.2118 22.2538C21.2418 22.243 21.2561 22.24 21.2482 22.2419C21.228 22.2466 21.1336 22.2663 20.9202 22.2837L21.1921 25.6117C21.8308 25.5596 22.2625 25.4582 22.6205 25.2757L21.1046 22.3006ZM21.2053 22.1999C21.1832 22.2432 21.148 22.2785 21.1046 22.3006L22.6206 25.2757C23.2922 24.9335 23.8383 24.3874 24.1805 23.7158L21.2053 22.1999ZM21.1885 22.0155C21.171 22.2289 21.1514 22.3232 21.1466 22.3434C21.1448 22.3513 21.1477 22.3371 21.1585 22.3071C21.1706 22.2736 21.1866 22.2365 21.2053 22.1999L24.1805 23.7158C24.3629 23.3578 24.4643 22.926 24.5165 22.2874L21.1885 22.0155ZM21.2304 19.6952C21.2304 20.8788 21.2275 21.5379 21.1885 22.0155L24.5165 22.2874C24.5693 21.6417 24.5696 20.8212 24.5696 19.6952H21.2304ZM21.2304 7.51596V19.6952H24.5696V7.51596H21.2304ZM21.2297 7.22547C21.2304 7.30024 21.2304 7.38873 21.2304 7.51596H24.5696C24.5696 7.39316 24.5696 7.28823 24.5687 7.19525L21.2297 7.22547ZM21.2278 7.11865C21.2284 7.13635 21.2292 7.16905 21.2297 7.22548L24.5687 7.19524C24.5681 7.1224 24.5669 7.05992 24.565 7.00495L21.2278 7.11865ZM21.6021 8.12459C21.6418 8.16495 21.6643 8.1886 21.6764 8.20148L24.1165 5.92212C24.0789 5.88187 24.0355 5.83685 23.9846 5.78497L21.6021 8.12459ZM21.3973 7.9187C21.4872 8.00869 21.5498 8.07127 21.6022 8.12461L23.9846 5.78496C23.9194 5.71861 23.8452 5.64439 23.7584 5.55759L21.3973 7.9187ZM19.0813 5.60274L21.3973 7.9187L23.7584 5.55758L21.4424 3.24162L19.0813 5.60274ZM18.8754 5.39785C18.9287 5.45022 18.9913 5.51276 19.0813 5.60274L21.4424 3.24163C21.3556 3.15482 21.2814 3.0806 21.215 3.01543L18.8754 5.39785ZM18.7985 5.32363C18.8114 5.33572 18.8351 5.35829 18.8754 5.39786L21.215 3.01543C21.1631 2.96441 21.1181 2.92105 21.0779 2.8835L18.7985 5.32363ZM19.7745 5.77027C19.8311 5.77079 19.8637 5.77157 19.8814 5.77217L19.995 2.43497C19.94 2.4331 19.8775 2.43194 19.8048 2.43128L19.7745 5.77027ZM19.484 5.76957C19.6113 5.76957 19.6998 5.7696 19.7745 5.77027L19.8048 2.43128C19.7118 2.43044 19.6068 2.43044 19.484 2.43044V5.76957ZM4.66957 8.40001C4.66957 7.25235 4.67086 6.49202 4.71852 5.90877C4.76458 5.345 4.84549 5.09524 4.92357 4.942L1.94838 3.42607C1.59048 4.12848 1.45341 4.8666 1.39048 5.63685C1.32914 6.38762 1.33043 7.30745 1.33043 8.40001H4.66957ZM4.66957 19.6952V8.40001H1.33043V19.6952H4.66957ZM4.92357 23.1532C4.84549 23 4.76458 22.7502 4.71852 22.1865C4.67086 21.6032 4.66957 20.8429 4.66957 19.6952H1.33043C1.33043 20.7878 1.32914 21.7076 1.39048 22.4584C1.45341 23.2286 1.59048 23.9668 1.94838 24.6692L4.92357 23.1532ZM5.942 24.1717C5.50351 23.9482 5.14699 23.5917 4.92357 23.1532L1.94838 24.6692C2.49194 25.736 3.35927 26.6033 4.42607 27.1469L5.942 24.1717ZM9.4 24.4257C8.25235 24.4257 7.49201 24.4244 6.90876 24.3767C6.345 24.3307 6.09524 24.2497 5.942 24.1717L4.42607 27.1469C5.12849 27.5048 5.8666 27.6418 6.63685 27.7048C7.38762 27.7661 8.30744 27.7648 9.4 27.7648V24.4257ZM18.6 24.4257H9.4V27.7648H18.6V24.4257ZM22.058 24.1717C21.9048 24.2497 21.655 24.3307 21.0912 24.3767C20.508 24.4244 19.7477 24.4257 18.6 24.4257V27.7648C19.6926 27.7648 20.6124 27.7661 21.3631 27.7048C22.1334 27.6418 22.8715 27.5048 23.5739 27.1469L22.058 24.1717ZM23.0764 23.1532C22.853 23.5917 22.4965 23.9482 22.058 24.1717L23.5739 27.1469C24.6407 26.6033 25.5081 25.736 26.0516 24.6692L23.0764 23.1532ZM23.3304 19.6952C23.3304 20.8429 23.3291 21.6032 23.2815 22.1865C23.2354 22.7502 23.1545 23 23.0764 23.1532L26.0516 24.6692C26.4095 23.9668 26.5466 23.2286 26.6095 22.4584C26.6709 21.7076 26.6696 20.7878 26.6696 19.6952H23.3304ZM23.3304 7.51596V19.6952H26.6696V7.51596H23.3304ZM23.3213 6.94177C23.3158 6.91889 23.3212 6.92421 23.3253 7.01312C23.33 7.11737 23.3304 7.25684 23.3304 7.51596H26.6696C26.6696 7.10625 26.6803 6.62927 26.5682 6.16225L23.3213 6.94177ZM23.2817 6.84625C23.2999 6.87582 23.3132 6.90805 23.3213 6.94175L26.5682 6.16227C26.4783 5.78783 26.33 5.42989 26.1288 5.10156L23.2817 6.84625ZM22.8822 6.43378C23.0654 6.61701 23.1637 6.71591 23.2341 6.793C23.2941 6.85874 23.294 6.86632 23.2817 6.84625L26.1288 5.10156C25.8779 4.69205 25.533 4.36237 25.2433 4.07266L22.8822 6.43378ZM20.5662 4.11781L22.8822 6.43378L25.2433 4.07266L22.9273 1.75669L20.5662 4.11781ZM20.1538 3.71826C20.1337 3.70596 20.1413 3.70591 20.207 3.76591C20.2841 3.83625 20.383 3.93458 20.5662 4.11781L22.9273 1.75668C22.6376 1.46698 22.3079 1.12213 21.8984 0.871179L20.1538 3.71826ZM20.0582 3.6787C20.092 3.68679 20.1242 3.70014 20.1537 3.71826L21.8984 0.871183C21.5701 0.669984 21.2122 0.521717 20.8377 0.431825L20.0582 3.6787ZM19.484 3.66957C19.7432 3.66957 19.8826 3.66996 19.9869 3.67473C20.0758 3.6788 20.0811 3.68419 20.0582 3.6787L20.8377 0.431825C20.3707 0.319705 19.8938 0.330435 19.484 0.330435V3.66957ZM9.4 3.66957H19.484V0.330435H9.4V3.66957ZM5.942 3.92357C6.09524 3.84549 6.345 3.76458 6.90876 3.71852C7.49202 3.67086 8.25235 3.66957 9.4 3.66957V0.330435C8.30744 0.330435 7.38762 0.329136 6.63685 0.390476C5.8666 0.453409 5.12848 0.590483 4.42607 0.94838L5.942 3.92357ZM4.92357 4.942C5.14699 4.50351 5.50351 4.14699 5.942 3.92357L4.42607 0.94838C3.35927 1.49194 2.49194 2.35927 1.94838 3.42607L4.92357 4.942Z" fill="#111111" mask="url(#path-1-inside-1_1266_9832)"/>
<path d="M18.6667 2V5.08572C18.6667 6.20582 18.6667 6.76587 18.8847 7.1937C19.0765 7.57002 19.3824 7.87598 19.7588 8.06773C20.1866 8.28571 20.7466 8.28571 21.8667 8.28571H24.9525" stroke="#111111" stroke-width="2"/>
<rect x="8.19043" y="18.0947" width="11.4286" height="2.28571" rx="1.14286" fill="#111111"/>
<rect x="8.19043" y="12.666" width="6.85714" height="2.28571" rx="1.14286" fill="#111111"/>
</svg>
