<svg width="17" height="16" viewBox="0 0 17 16" fill="none" xmlns="http://www.w3.org/2000/svg">
<path fill-rule="evenodd" clip-rule="evenodd" d="M3.24743 6.00257C3.24743 2.88053 5.77835 0.349609 8.90039 0.349609C12.0224 0.349609 14.5533 2.88053 14.5533 6.00257V9.35602C14.5533 12.4781 12.0224 15.009 8.90039 15.009H7.64285C7.29889 15.009 7.02006 14.7301 7.02006 14.3862C7.02006 14.0422 7.29889 13.7634 7.64285 13.7634H8.90039C11.3345 13.7634 13.3078 11.7902 13.3078 9.35602V6.00257C13.3078 3.56843 11.3345 1.59518 8.90039 1.59518C6.46626 1.59518 4.493 3.56843 4.493 6.00257V10.5537C4.493 10.8976 4.21417 11.1765 3.87022 11.1765C3.52626 11.1765 3.24743 10.8976 3.24743 10.5537V6.00257Z" fill="#111111"/>
<path fill-rule="evenodd" clip-rule="evenodd" d="M2.05015 6.91279V10.3621H3.10409V6.91279H2.05015ZM1.85852 5.76304C1.32936 5.76304 0.900391 6.19201 0.900391 6.72116V10.5537C0.900391 11.0828 1.32936 11.5118 1.85852 11.5118H3.29571C3.82487 11.5118 4.25384 11.0828 4.25384 10.5537V6.72116C4.25384 6.19201 3.82487 5.76304 3.29571 5.76304H1.85852Z" fill="#111111"/>
<path fill-rule="evenodd" clip-rule="evenodd" d="M14.6967 6.91279V10.3621H15.7506V6.91279H14.6967ZM14.5051 5.76304C13.9759 5.76304 13.5469 6.19201 13.5469 6.72116V10.5537C13.5469 11.0828 13.9759 11.5118 14.5051 11.5118H15.9423C16.4714 11.5118 16.9004 11.0828 16.9004 10.5537V6.72116C16.9004 6.19201 16.4714 5.76304 15.9423 5.76304H14.5051Z" fill="#111111"/>
<path d="M6.7446 14.2425C6.7446 13.5281 7.32371 12.949 8.03807 12.949H9.57108C10.2854 12.949 10.8646 13.5281 10.8646 14.2425C10.8646 14.9568 10.2854 15.5359 9.57108 15.5359H8.03807C7.32371 15.5359 6.7446 14.9568 6.7446 14.2425Z" fill="#111111"/>
</svg>
