<svg width="16" height="16" viewBox="0 0 16 16" fill="none" xmlns="http://www.w3.org/2000/svg">
<path fill-rule="evenodd" clip-rule="evenodd" d="M10.6863 6.86926L7.54461 9.86131L5.6875 7.83537L6.71952 6.88936L7.6124 7.86342L9.72075 5.85547L10.6863 6.86926Z" fill="#111111"/>
<path d="M7.57477 0.228571C7.57477 0.228571 6.48131 0.857143 4.84112 1.42857C3.20093 1.94286 2.28972 2 2.28972 2L1.5 2.05714V9.94286C1.5 12.8571 7.27103 16 8 16C8.66822 16 14.5 12.8571 14.5 9.94286V2.05714L13.771 2C13.771 2 12.7991 2 11.2196 1.42857C9.51869 0.857143 8.48598 0.228571 8.48598 0.228571L8 0L7.57477 0.228571ZM8.02582 1.57699C8.16669 1.65393 8.36084 1.75589 8.6035 1.8737C9.11654 2.12278 9.85016 2.44456 10.7586 2.75058C11.6282 3.06407 12.3455 3.22651 12.8635 3.31051C12.9477 3.32417 13.0266 3.33575 13.1 3.34557V9.94286C13.1 10.2157 12.9518 10.654 12.4803 11.2503C12.0256 11.8251 11.3789 12.4084 10.6634 12.9422C9.95461 13.471 9.22408 13.9173 8.641 14.2269C8.37686 14.3671 8.15574 14.4725 7.99073 14.5427C7.82376 14.4732 7.59945 14.3675 7.3311 14.2257C6.74774 13.9173 6.02065 13.4721 5.31644 12.9441C4.60584 12.4114 3.96493 11.8289 3.51478 11.2548C3.04848 10.6602 2.9 10.2202 2.9 9.94286V3.33508C2.98933 3.32137 3.08956 3.30475 3.20041 3.28463C3.68897 3.19594 4.38325 3.03935 5.25999 2.76444L5.28096 2.75787L5.30172 2.75063C6.17974 2.44474 6.9114 2.12365 7.42657 1.8775C7.68013 1.75635 7.88262 1.6527 8.02582 1.57699ZM7.78231 14.6226C7.76186 14.6287 7.76375 14.6269 7.78341 14.6223C7.78303 14.6224 7.78267 14.6225 7.78231 14.6226ZM8.19508 14.6189C8.2037 14.6208 8.2083 14.6221 8.2084 14.6223C8.2085 14.6225 8.20421 14.6215 8.19508 14.6189Z" fill="#111111"/>
</svg>
