<svg width="16" height="16" viewBox="0 0 16 16" fill="none" xmlns="http://www.w3.org/2000/svg">
<path d="M7.99943 1.28906C9.05051 1.28905 10.0663 1.66857 10.8598 2.35782C11.6533 3.04706 12.1713 3.99967 12.3185 5.04041C13.4519 5.29749 14.4509 5.96336 15.1243 6.91068C15.7977 7.85801 16.0982 9.02031 15.9685 10.1753C15.8388 11.3303 15.2879 12.397 14.4211 13.1713C13.5544 13.9457 12.4326 14.3734 11.2703 14.3726H5.45541C5.3958 14.3726 5.33547 14.3712 5.2766 14.369C4.02085 14.416 2.79212 13.9967 1.8271 13.1918C0.86209 12.3869 0.229069 11.2534 0.0499908 10.0096C-0.129088 8.76578 0.158445 7.49971 0.857198 6.45527C1.55595 5.41083 2.61649 4.66191 3.8345 4.35279C4.11144 3.46483 4.66493 2.68861 5.4142 2.13745C6.16347 1.58629 7.06928 1.28903 7.99943 1.28906ZM7.99943 2.74279C7.64999 2.7433 7.30343 2.80606 6.97601 2.92814C6.79859 2.99483 6.62816 3.07882 6.4672 3.17891L6.39815 3.22325C6.23604 3.33023 6.08506 3.4532 5.94749 3.59031L5.91479 3.62375C5.89585 3.64335 5.87719 3.66322 5.85882 3.68335L5.81084 3.73641C5.68274 3.88304 5.56952 4.04204 5.47285 4.21105C5.24664 4.60651 5.11713 5.04984 5.09488 5.50487L5.09198 5.65024C4.12809 5.65024 3.20369 6.03314 2.52212 6.71471C1.84056 7.39628 1.45766 8.32068 1.45766 9.28456C1.45766 10.2484 1.84056 11.1728 2.52212 11.8544C3.20369 12.536 4.12809 12.9189 5.09198 12.9189H8.65215V12.9203L11.2703 12.9189H11.6337V12.8985C12.1306 12.8432 12.6081 12.6746 13.0297 12.4059C13.4512 12.1372 13.8056 11.7754 14.0655 11.3484C14.3254 10.9213 14.484 10.4404 14.529 9.94251C14.574 9.44463 14.5044 8.94304 14.3253 8.47629L14.3217 8.46684C14.2056 8.16698 14.0456 7.88601 13.847 7.63313L13.818 7.59679C13.4927 7.19349 13.0768 6.87271 12.6041 6.66058L12.5678 6.64459C12.5234 6.62542 12.4785 6.60725 12.4333 6.59008L12.349 6.55955L12.2799 6.53556L12.2705 6.53266L12.1636 6.50067C11.7222 6.3755 11.2593 6.34454 10.8051 6.40982C10.9206 5.98259 10.9375 5.53472 10.8546 5.10001L10.8153 4.92338C10.796 4.84837 10.7737 4.77417 10.7484 4.70096L10.7361 4.6668L10.7303 4.65081L10.6917 4.5505L10.6866 4.53814C10.5867 4.29654 10.4544 4.06962 10.2934 3.86361L10.2716 3.83599C10.2533 3.81318 10.2346 3.79065 10.2156 3.76839L10.1662 3.7117C10.1392 3.68157 10.1116 3.652 10.0833 3.62302L10.0267 3.56633L9.98013 3.52199L9.93289 3.47838C9.8103 3.36939 9.67876 3.27091 9.53965 3.184L9.48005 3.14765C9.46703 3.14004 9.45394 3.13253 9.4408 3.12512L9.35358 3.07715L9.32305 3.06116C9.25599 3.02676 9.18761 2.995 9.11807 2.96594L9.05193 2.93904L8.9836 2.9136C8.93796 2.89718 8.89191 2.88191 8.8455 2.86781L8.83896 2.86563L8.72629 2.83437C8.48888 2.7731 8.24462 2.74233 7.99943 2.74279Z" fill="#111111"/>
</svg>
