<svg width="16" height="16" viewBox="0 0 16 16" fill="none" xmlns="http://www.w3.org/2000/svg">
<path fill-rule="evenodd" clip-rule="evenodd" d="M8.12955 1.4C5.52123 1.4 3.40677 3.54903 3.40677 6.2V10.4H2.0293V6.2C2.0293 2.77583 4.76047 0 8.12955 0C11.4986 0 14.2298 2.77583 14.2298 6.2V10.4H12.8523V6.2C12.8523 3.54903 10.7379 1.4 8.12955 1.4Z" fill="#111111"/>
<path fill-rule="evenodd" clip-rule="evenodd" d="M14.2301 12V12.7C14.2301 14.1912 13.0212 15.4 11.5301 15.4H7.83008V14H11.5301C12.248 14 12.8301 13.418 12.8301 12.7V12H14.2301Z" fill="#111111"/>
<path d="M0.222656 5H3.27278V10.4H0.222656V5ZM1.47859 6.4V9H2.01685V6.4H1.47859Z" fill="#111111"/>
<path d="M12.9492 5H15.9993V10.4H12.9492V5ZM14.2052 6.4V9H14.7434V6.4H14.2052Z" fill="#111111"/>
</svg>
