<svg width="16" height="16" viewBox="0 0 16 16" fill="none" xmlns="http://www.w3.org/2000/svg">
<path d="M4.13936 3.32384C4.53855 2.65228 4.58983 2.59888 4.6226 2.57022C4.6876 2.51337 4.76418 2.47043 4.84736 2.44418C4.8893 2.43095 4.96255 2.41451 5.76092 2.41451L10.2391 2.41451C11.0375 2.41451 11.1107 2.43095 11.1526 2.44418C11.2358 2.47043 11.3124 2.51337 11.3774 2.57022C11.4102 2.59888 11.4614 2.65228 11.8606 3.32384L14.0997 7.09067C14.4989 7.76223 14.5209 7.83207 14.53 7.87396C14.5482 7.95706 14.5482 8.04294 14.53 8.12604C14.5209 8.16793 14.4989 8.23777 14.0997 8.90933L11.8606 12.6762C11.4614 13.3477 11.4102 13.4011 11.3774 13.4298C11.3124 13.4866 11.2358 13.5296 11.1526 13.5558C11.1107 13.5691 11.0375 13.5855 10.2391 13.5855L5.76092 13.5855C4.96255 13.5855 4.8893 13.5691 4.84736 13.5558C4.76418 13.5296 4.6876 13.4866 4.6226 13.4298C4.58983 13.4011 4.53855 13.3477 4.13936 12.6762L1.90029 8.90933C1.5011 8.23777 1.47913 8.16793 1.46996 8.12604C1.45178 8.04294 1.45178 7.95706 1.46996 7.87396C1.47913 7.83207 1.5011 7.76223 1.90029 7.09067L4.13936 3.32384ZM0.0454628 8.42013C0.113972 8.73319 0.289007 9.02765 0.639076 9.61658L2.87815 13.3834C3.22822 13.9723 3.40325 14.2668 3.64813 14.481C3.8648 14.6705 4.12005 14.8136 4.39733 14.9011C4.71072 15 5.06079 15 5.76092 15L10.2391 15C10.9392 15 11.2893 15 11.6027 14.9011C11.88 14.8136 12.1352 14.6705 12.3519 14.481C12.5967 14.2668 12.7718 13.9723 13.1218 13.3834L15.3609 9.61658C15.711 9.02765 15.886 8.73319 15.9545 8.42013C16.0152 8.14314 16.0152 7.85686 15.9545 7.57987C15.886 7.26681 15.711 6.97235 15.3609 6.38342L13.1218 2.61658L13.1218 2.61656C12.7718 2.02765 12.5967 1.73319 12.3519 1.51903C12.1352 1.32955 11.88 1.18641 11.6027 1.0989C11.2893 1 10.9392 1 10.2391 1L5.76092 1C5.06079 1 4.71072 1 4.39733 1.0989C4.12005 1.18641 3.8648 1.32955 3.64813 1.51903C3.40326 1.73319 3.22822 2.02765 2.87815 2.61658L0.639075 6.38342C0.289007 6.97235 0.113972 7.26681 0.0454628 7.57987C-0.0151547 7.85686 -0.0151547 8.14314 0.0454628 8.42013Z" fill="#111111"/>
<path d="M8 8.79805C7.55817 8.79805 7.2 8.43987 7.2 7.99805C7.2 7.55622 7.55817 7.19805 8 7.19805C8.44183 7.19805 8.8 7.55622 8.8 7.99805C8.8 8.43987 8.44183 8.79805 8 8.79805ZM8 9.99805C9.10457 9.99805 10 9.10262 10 7.99805C10 6.89348 9.10457 5.99805 8 5.99805C6.89543 5.99805 6 6.89348 6 7.99805C6 9.10262 6.89543 9.99805 8 9.99805Z" fill="#111111"/>
</svg>
