<svg width="16" height="17" viewBox="0 0 16 17" fill="none" xmlns="http://www.w3.org/2000/svg">
<path d="M12.6306 10.1163C12.563 10.1836 12.5093 10.2636 12.4726 10.3518C12.4359 10.44 12.4169 10.5346 12.4167 10.6302V12.914H10.1319C9.93771 12.914 9.75266 12.9911 9.61706 13.1272L8.00008 14.7429L6.3831 13.1272C6.24579 12.9911 6.06096 12.9146 5.86823 12.914H3.58147V10.6302C3.58147 10.4369 3.50483 10.2524 3.36792 10.1163L1.75061 8.50058L3.36956 6.88482C3.50679 6.74877 3.58343 6.56233 3.58343 6.37094V4.08516H5.86823C6.06049 4.08516 6.24751 4.00807 6.3831 3.87203L7.99844 2.25462L9.61543 3.87038C9.75266 4.00643 9.93771 4.08351 10.13 4.08351H12.4187V6.36732C12.4187 6.56068 12.4953 6.74515 12.6326 6.8812L14.2496 8.49696L12.6306 10.1163ZM15.7863 7.98835L13.8703 6.06986V3.35782C13.87 3.26192 13.851 3.16701 13.8142 3.07854C13.7774 2.99006 13.7236 2.90976 13.6559 2.84222C13.5882 2.77469 13.5079 2.72125 13.4197 2.68497C13.3314 2.64869 13.2369 2.63028 13.1415 2.63081H10.4293L8.51135 0.712315C8.37451 0.576287 8.18986 0.5 7.99746 0.5C7.80506 0.5 7.62042 0.576287 7.48358 0.712315L5.56921 2.62883H2.85666C2.45413 2.62883 2.12825 2.95495 2.12825 3.35617V6.06986L0.21027 7.98637C0.0746753 8.12275 0.00720551 8.29832 0 8.4739V8.52759C0.00720551 8.70482 0.0746753 8.88006 0.21027 9.01446L2.12628 10.9313V13.643C2.12628 14.0462 2.45249 14.3704 2.85502 14.3704H5.56724L7.48358 16.2869C7.62089 16.4229 7.80572 16.4994 7.99844 16.5C8.1907 16.5 8.37772 16.4232 8.51135 16.2869L10.4293 14.3704H13.1415C13.5444 14.3704 13.8703 14.0442 13.8703 13.643V10.9313L15.7863 9.01644C16.0712 8.73315 16.0712 8.27296 15.7863 7.98835Z" fill="#111111"/>
<path d="M7.97406 9.77352C7.19134 9.77352 6.55262 9.14024 6.55262 8.36072C6.55262 7.58312 7.18942 6.9476 7.97438 6.9476C8.75902 6.9476 9.39582 7.5812 9.39582 8.36072C9.39582 9.13832 8.7587 9.77352 7.97406 9.77352ZM7.97438 5.5332C6.40638 5.5332 5.13086 6.79976 5.13086 8.36072C5.13086 9.92136 6.40638 11.1882 7.97438 11.1882C9.54206 11.1882 10.8176 9.92136 10.8176 8.36072C10.8176 6.79976 9.54206 5.5332 7.97438 5.5332Z" fill="#111111"/>
</svg>
