<svg width="16" height="16" viewBox="0 0 16 16" fill="none" xmlns="http://www.w3.org/2000/svg">
<path fill-rule="evenodd" clip-rule="evenodd" d="M9.32185 0.627537C9.66898 0.280404 10.2318 0.280404 10.5789 0.627537L14.2442 4.29277C14.5913 4.6399 14.5913 5.20271 14.2442 5.54985L7.15141 12.6426C6.80428 12.9897 6.24146 12.9897 5.89433 12.6426L2.2291 8.97736C1.88197 8.63023 1.88197 8.06742 2.2291 7.72028L9.32185 0.627537ZM8.70605 3.25466L9.95039 2.01032L12.8614 4.92131L11.617 6.16564L8.70605 3.25466ZM7.70039 4.26032L3.61189 8.34882L6.52287 11.2598L10.6114 7.17131L7.70039 4.26032Z" fill="#2EBD87"/>
<path d="M1.77783 14.2227L14.2223 14.2227" stroke="#2EBD87" stroke-width="1.42222" stroke-linecap="round"/>
</svg>
