<svg width="20" height="20" viewBox="0 0 20 20" fill="none" xmlns="http://www.w3.org/2000/svg">
<path d="M18.3307 5.83594C18.3307 4.45523 17.2114 3.33594 15.8307 3.33594H4.16406C2.78335 3.33594 1.66406 4.45523 1.66406 5.83594V13.3359C1.66406 14.7166 2.78335 15.8359 4.16406 15.8359H7.91406L9.9974 17.9193L12.0807 15.8359H15.8307C17.2114 15.8359 18.3307 14.7166 18.3307 13.3359V5.83594Z" fill="#FF891C" stroke="#FF891C" stroke-width="1.25" stroke-linecap="round" stroke-linejoin="round"/>
<path d="M11.224 14H10.132C10.092 14 10.056 13.988 10.024 13.964C10 13.932 9.988 13.896 9.988 13.856V7.172L8.476 8.552C8.444 8.584 8.412 8.6 8.38 8.6C8.324 8.6 8.296 8.556 8.296 8.468V7.148C8.296 7.076 8.324 7.016 8.38 6.968L9.856 5.696C9.896 5.648 9.952 5.624 10.024 5.624H11.224C11.264 5.624 11.296 5.64 11.32 5.672C11.352 5.696 11.368 5.728 11.368 5.768V13.856C11.368 13.896 11.352 13.932 11.32 13.964C11.296 13.988 11.264 14 11.224 14Z" fill="white"/>
</svg>
