<svg width="22" height="22" viewBox="0 0 22 22" fill="none" xmlns="http://www.w3.org/2000/svg">
<path fill-rule="evenodd" clip-rule="evenodd" d="M10.3214 3.12986C9.13348 2.12467 7.68767 1.57606 5.35298 1.80206C3.00059 2.03113 0.324106 4.09278 0 8.0729V9.37445C0.261376 12.8313 2.68956 15.6505 9.57942 20.5469C9.99352 20.8416 10.4897 21 10.9987 21C11.5076 21 12.0039 20.8416 12.418 20.5469C19.3131 15.6401 21.7308 12.8209 22 9.36403V8.06249C21.6785 4.09278 19.002 2.03113 16.6496 1.80206C16.2994 1.76822 15.9622 1.75 15.6486 1.75C13.892 1.75 12.711 2.26769 11.7065 3.11035C11.463 3.31465 11.2298 3.53805 11.0013 3.77781C10.7815 3.54559 10.5565 3.32878 10.3214 3.12986ZM16.4558 3.79265C16.1581 3.76392 15.8866 3.75 15.6486 3.75C14.8143 3.75 14.2449 3.89979 13.805 4.10913C13.3541 4.32366 12.9308 4.65218 12.4491 5.15762C12.0708 5.55454 11.5462 5.77875 10.9978 5.7778C10.4495 5.77685 9.92565 5.55083 9.54874 5.1526C9.01137 4.58483 8.53367 4.23413 7.99572 4.0228C7.45761 3.8114 6.70765 3.68041 5.54682 3.79265M16.4563 3.79269C17.7997 3.92375 19.7279 5.1639 20 8.1481V9.28086C19.7855 11.6743 18.1585 14.007 11.2583 18.9174C11.1834 18.9707 11.0926 19 10.9987 19C10.9048 19 10.814 18.9707 10.739 18.9174L10.738 18.9167C3.8378 14.0129 2.20811 11.6824 2 9.29364V8.15896C2.27458 5.16205 4.20491 3.92358 5.54632 3.79269" fill="#111111"/>
</svg>
