<svg width="36" height="36" viewBox="0 0 36 36" fill="none" xmlns="http://www.w3.org/2000/svg">
<g clip-path="url(#clip0_13188_87626)">
<rect x="12.3159" y="9" width="11.3684" height="1.8" rx="0.9" fill="#0C0D0F"/>
<path d="M18.9001 15.1602L18.9001 26.1023C18.9001 26.5993 18.4972 27.0023 18.0001 27.0023C17.5031 27.0023 17.1001 26.5993 17.1001 26.1023L17.1001 15.1602L18.9001 15.1602Z" fill="#0C0D0F"/>
<path d="M17.9997 12.7891L24.0622 18.8516C24.4137 19.203 24.4137 19.7729 24.0622 20.1244C23.7107 20.4758 23.1409 20.4758 22.7894 20.1244L16.7269 14.0619L17.9997 12.7891Z" fill="#0C0D0F"/>
<path d="M11.9374 20.1214C12.2889 20.4729 12.8587 20.4729 13.2102 20.1214L19.2727 14.0589L17.9999 12.7861L11.9374 18.8486C11.5859 19.2001 11.5859 19.7699 11.9374 20.1214Z" fill="#0C0D0F"/>
<rect x="10.6985" y="25.6406" width="17.0526" height="2.74737" rx="1.37368" transform="rotate(-45 10.6985 25.6406)" fill="#0C0D0F" stroke="white" stroke-width="0.947369"/>
</g>
<defs>
<clipPath id="clip0_13188_87626">
<rect width="15.1579" height="18" fill="white" transform="matrix(-1 0 0 1 25.5788 9)"/>
</clipPath>
</defs>
</svg>
