<svg width="19" height="19" viewBox="0 0 19 19" fill="none" xmlns="http://www.w3.org/2000/svg">
<path d="M12.6065 13.8578L14.1652 6.51021C14.3029 5.86354 13.9318 5.60906 13.5076 5.76785L4.34694 9.29846C3.72127 9.54208 3.73215 9.89221 4.24106 10.051L6.58419 10.7825L12.0236 7.35775C12.2781 7.1881 12.5115 7.28379 12.3208 7.45344L7.92096 11.4292L7.75131 13.8469C7.99494 13.8469 8.10146 13.7411 8.22835 13.6135L9.37311 12.5108L11.7481 14.2602C12.1831 14.5038 12.4905 14.3769 12.6072 13.8571L12.6065 13.8578ZM19 9.5C19 14.7481 14.7481 19 9.5 19C4.25194 19 0 14.7481 0 9.5C0 4.25194 4.25194 0 9.5 0C14.7481 0 19 4.25194 19 9.5Z" fill="#1296DB"/>
</svg>
