<svg width="12" height="12" viewBox="0 0 12 12" fill="none" xmlns="http://www.w3.org/2000/svg">
<g clip-path="url(#clip0_16729_90325)">
<path d="M5.79756 0.00383952C5.92871 -0.0429465 6.072 -0.0429465 6.20315 0.00383952L11.0316 1.72578C11.1489 1.76763 11.2504 1.84473 11.3221 1.94652C11.3939 2.04831 11.4324 2.1698 11.4324 2.29433V5.38273C11.4324 8.30937 9.65881 10.5069 6.23092 11.9229C6.08309 11.984 5.91702 11.984 5.7692 11.9229C2.34161 10.5018 0.568359 8.30514 0.568359 5.38273V2.29433C0.568342 2.1698 0.606848 2.04831 0.678597 1.94652C0.750347 1.84473 0.851826 1.76763 0.96912 1.72578L5.79756 0.00383952ZM6.00036 1.21276L1.77547 2.71954V5.38303C1.77547 7.69434 3.13226 9.44767 5.95389 10.6892L6.00036 10.7094L6.04744 10.6895C8.82319 9.47151 10.1812 7.7547 10.224 5.49469L10.2252 5.38303V2.71954L6.00036 1.21276Z" fill="#999999"/>
<path d="M4 5.2L5.8 7L8.8 4" stroke="#999999" stroke-width="1.2"/>
</g>
<defs>
<clipPath id="clip0_16729_90325">
<rect width="12" height="12" fill="white"/>
</clipPath>
</defs>
</svg>
