<svg width="22" height="22" viewBox="0 0 22 22" fill="none" xmlns="http://www.w3.org/2000/svg">
<circle cx="11" cy="11" r="11" fill="#F1F1F1"/>
<path d="M16.4487 15.25V15.538L13.1047 14.864C12.9306 15.2667 12.6359 15.6056 12.2613 15.8339C11.8866 16.0622 11.4504 16.1688 11.0127 16.139C10.5715 16.1692 10.1321 16.0599 9.75648 15.8266C9.38087 15.5933 9.08813 15.2478 8.91968 14.839L5.59968 15.489V15.2C5.5571 14.4964 5.66834 13.792 5.92566 13.1357C6.18298 12.4794 6.5802 11.8871 7.08968 11.4C6.72868 6.733 8.82168 3.775 10.8897 2.571L11.0117 2.5L11.1317 2.571C13.2017 3.771 15.2687 6.733 14.9317 11.401C15.4543 11.8898 15.8616 12.4888 16.1239 13.1545C16.3863 13.8203 16.4973 14.5361 16.4487 15.25ZM12.0697 9.429C12.3717 9.1509 12.5517 8.76474 12.5704 8.35458C12.5892 7.94443 12.4451 7.54347 12.1697 7.239C11.8919 6.93677 11.5059 6.75665 11.0958 6.73792C10.6857 6.71918 10.2849 6.86336 9.98068 7.139C9.67863 7.4171 9.49865 7.80326 9.47992 8.21342C9.46119 8.62357 9.60523 9.02453 9.88068 9.329C10.1583 9.63146 10.5444 9.81175 10.9546 9.83049C11.3647 9.84923 11.7656 9.70489 12.0697 9.429ZM11.7947 17.729C11.6764 18.3736 11.4127 18.9826 11.0237 19.51C10.6499 18.9741 10.388 18.3684 10.2537 17.729C10.2279 17.6136 10.2284 17.4939 10.2551 17.3787C10.2818 17.2636 10.334 17.1558 10.4079 17.0636C10.4818 16.9713 10.5756 16.8968 10.6821 16.8456C10.7887 16.7945 10.9054 16.7679 11.0237 16.7679C11.1419 16.7679 11.2586 16.7945 11.3652 16.8456C11.4718 16.8968 11.5655 16.9713 11.6394 17.0636C11.7134 17.1558 11.7656 17.2636 11.7923 17.3787C11.819 17.4939 11.8195 17.6136 11.7937 17.729H11.7947Z" fill="#111111"/>
</svg>
