<svg width="18" height="15" viewBox="0 0 18 15" fill="none" xmlns="http://www.w3.org/2000/svg">
<path d="M13.3342 1.94579L12.9453 7.39082L14.112 9.33453C14.2416 8.42712 14.112 6.84564 14.112 6.22342C14.112 5.44564 15.2786 5.44602 15.6675 5.83491C15.8875 6.0549 16.8342 6.22342 17.612 6.22342L18.0009 2.33491C17.612 2.46466 16.2898 2.95749 15.6675 2.33526C15.0453 1.71304 13.7231 1.81616 13.3342 1.94579Z" fill="#FFD429"/>
<path d="M11.4671 3.11285C11.4671 4.22969 10.5617 5.13507 9.44488 5.13507C8.32804 5.13507 7.42266 4.22969 7.42266 3.11285C7.42266 1.996 8.32804 1.09063 9.44488 1.09063C10.5617 1.09063 11.4671 1.996 11.4671 3.11285Z" stroke="#333333" stroke-width="1.4"/>
<path d="M5.24358 4.6671C5.24358 5.35439 4.68642 5.91155 3.99913 5.91155C3.31184 5.91155 2.75469 5.35439 2.75469 4.6671C2.75469 3.97981 3.31184 3.42266 3.99913 3.42266C4.68642 3.42266 5.24358 3.97981 5.24358 4.6671Z" stroke="#333333" stroke-width="1.4"/>
<path d="M1.45467 9.45901C1.86907 8.62099 2.72301 8.09063 3.65789 8.09063H5.11989C6.05477 8.09063 6.90871 8.62099 7.32311 9.45901C7.49063 9.79777 7.57778 10.1706 7.57778 10.5485V12.9128H1.2V10.5485C1.2 10.1706 1.28715 9.79777 1.45467 9.45901Z" stroke="#333333" stroke-width="1.4"/>
<path d="M5.45495 9.09901C6.01885 8.00253 7.14839 7.31328 8.38137 7.31328H10.511C11.744 7.31328 12.8735 8.00253 13.4374 9.09901C13.6768 9.56456 13.8017 10.0805 13.8017 10.604V13.6911H5.09063V10.604C5.09063 10.0805 5.21552 9.56456 5.45495 9.09901Z" fill="white" stroke="#333333" stroke-width="1.4"/>
<path d="M9.44535 7.39102L9.44585 10.5025" stroke="#333333" stroke-width="1.55556" stroke-linecap="round"/>
</svg>
