<svg width="12" height="12" viewBox="0 0 12 12" fill="none" xmlns="http://www.w3.org/2000/svg">
<path fill-rule="evenodd" clip-rule="evenodd" d="M7.92368 1C8.05636 0.999975 8.18361 1.05269 8.27741 1.14652L10.1036 2.97355C10.2988 3.16879 10.2988 3.48526 10.1036 3.6805L4.93293 8.85348C4.83916 8.94729 4.71195 9 4.5793 9H2.75C2.47386 9 2.25 8.77614 2.25 8.5V6.67998C2.25 6.54747 2.3026 6.42038 2.39623 6.32663L7.57001 1.14666C7.66377 1.05278 7.791 1.00003 7.92368 1ZM7.92391 2.2074L3.25 6.88691V8H4.37213L9.04305 3.32703L7.92391 2.2074ZM1.25 10.5C1.25 10.2239 1.47386 10 1.75 10H10.75C11.0261 10 11.25 10.2239 11.25 10.5C11.25 10.7761 11.0261 11 10.75 11H1.75C1.47386 11 1.25 10.7761 1.25 10.5Z" fill="black" fill-opacity="0.85"/>
</svg>
