<svg width="20" height="20" viewBox="0 0 20 20" fill="none" xmlns="http://www.w3.org/2000/svg">
<path d="M6.25 10C6.25 9.30964 5.69036 8.75 5 8.75C4.30964 8.75 3.75 9.30964 3.75 10C3.75 10.6904 4.30964 11.25 5 11.25C5.69036 11.25 6.25 10.6904 6.25 10Z" fill="#333333"/>
<path d="M11.25 10C11.25 9.30964 10.6904 8.75 10 8.75C9.30964 8.75 8.75 9.30964 8.75 10C8.75 10.6904 9.30964 11.25 10 11.25C10.6904 11.25 11.25 10.6904 11.25 10Z" fill="#333333"/>
<path d="M15.8333 10C15.8333 9.30964 15.2737 8.75 14.5833 8.75C13.893 8.75 13.3333 9.30964 13.3333 10C13.3333 10.6904 13.893 11.25 14.5833 11.25C15.2737 11.25 15.8333 10.6904 15.8333 10Z" fill="#333333"/>
</svg>
