<svg width="112" height="30" viewBox="0 0 112 30" fill="none" xmlns="http://www.w3.org/2000/svg">
<path d="M90.0205 21.3833L97.2665 14.9465L90.0205 8.50976H94.5814L99.5101 12.9235L104.42 8.50976H109L101.754 14.9465L109 21.3833H104.42L99.5101 16.9695L94.5814 21.3833H90.0205Z" fill="white"/>
<path d="M88.4303 8.50976V11.2868H82.1775V21.3833H78.8671V11.2868H72.6143V8.50976H88.4303Z" fill="white"/>
<path d="M66.0993 8.50976C69.0234 8.50976 71.028 10.3672 71.028 13.2362C71.028 16.1051 69.0234 17.9442 66.0993 17.9442H59.2947V21.3833H55.9844V8.50976H66.0993ZM65.1798 15.1672C66.1729 15.1672 67.7177 15.1672 67.7177 13.2362C67.7177 11.2868 66.1729 11.2868 65.1798 11.2868H59.2947V15.1672H65.1798Z" fill="white"/>
<path d="M53.6839 14.9281C53.6839 19.3971 51.2379 21.5672 45.5919 21.5672C39.9276 21.5672 37.5 19.4155 37.5 14.9281V8.50976H40.8103V14.9281C40.8103 16.7304 41.3069 18.7902 45.5919 18.7902C49.877 18.7902 50.3735 16.712 50.3735 14.9281V8.50976H53.6839V14.9281Z" fill="white"/>
<rect x="0.25" y="0.25" width="29.5" height="29.5" rx="7.25" stroke="white" stroke-width="0.5"/>
<path d="M12.7383 7.84646C12.7383 7.59153 12.5317 7.38486 12.2767 7.38486H7.84539C7.59045 7.38486 7.38379 7.59153 7.38379 7.84646V12.2778C7.38379 12.5327 7.59045 12.7394 7.84539 12.7394H11.922C12.273 12.7394 12.4956 13.1158 12.3265 13.4234L7.44023 22.3103C7.35117 22.4723 7.529 22.6501 7.69098 22.561L16.578 17.6748C16.8856 17.5056 17.262 17.7282 17.262 18.0792V22.0637C17.262 22.3186 17.4687 22.5253 17.7236 22.5253H22.1549C22.4099 22.5253 22.6165 22.3186 22.6165 22.0637V17.6323C22.6165 17.3774 22.4099 17.1707 22.1549 17.1707H18.129C17.778 17.1707 17.5554 16.7944 17.7245 16.4867L22.5601 7.69197C22.6492 7.52999 22.4714 7.35215 22.3094 7.44121L13.4223 12.3275C13.1147 12.4967 12.7383 12.2741 12.7383 11.923V7.84646Z" fill="white"/>
</svg>
