<svg width="24" height="24" viewBox="0 0 24 24" fill="none" xmlns="http://www.w3.org/2000/svg">
<g id="Frame 1912056313">
<path id="Union" fill-rule="evenodd" clip-rule="evenodd" d="M4.5 4.75H3.5V5.75V16.75V17.75H4.5H9.5C10.3284 17.75 11 18.4216 11 19.25H13C13 18.4216 13.6716 17.75 14.5 17.75H19.5H20.5V16.75V5.75V4.75H19.5H15C13.8053 4.75 12.7329 5.27376 12 6.10418C11.2671 5.27376 10.1947 4.75 9 4.75H4.5ZM11 8.75C11 7.64543 10.1046 6.75 9 6.75H5.5V15.75H9.5C10.0368 15.75 10.5454 15.8708 11 16.0868V8.75ZM13 16.0868C13.4546 15.8708 13.9632 15.75 14.5 15.75H18.5V6.75H15C13.8954 6.75 13 7.64543 13 8.75V16.0868Z" fill="#111111"/>
</g>
</svg>
