<svg width="24" height="24" viewBox="0 0 24 24" fill="none" xmlns="http://www.w3.org/2000/svg">
<path d="M2.91667 2.91667H16.4C17.3952 2.91667 18.0865 2.91738 18.6241 2.96131C19.1511 3.00436 19.4492 3.08431 19.6728 3.19823C20.1589 3.44591 20.5541 3.84111 20.8018 4.32719L21.6185 3.91103L20.8018 4.32719C20.9157 4.55077 20.9956 4.84891 21.0387 5.37585C21.0826 5.9135 21.0833 6.60478 21.0833 7.6V21.0833H7.6C6.60478 21.0833 5.9135 21.0826 5.37585 21.0387C4.84891 20.9956 4.55077 20.9157 4.32719 20.8018L3.91103 21.6185L4.32719 20.8018C3.84111 20.5541 3.44591 20.1589 3.19823 19.6728C3.08431 19.4492 3.00436 19.1511 2.96131 18.6241C2.91738 18.0865 2.91667 17.3952 2.91667 16.4V2.91667Z" fill="#4D4D4D" stroke="#4D4D4D" stroke-width="1.83333"/>
<g clip-path="url(#clip0_26571_14893)">
<path d="M8.10373 13.6996C9.04337 13.6996 9.80512 12.9379 9.80512 11.9983C9.80512 11.0586 9.04337 10.2969 8.10373 10.2969C7.16409 10.2969 6.40234 11.0586 6.40234 11.9983C6.40234 12.9379 7.16409 13.6996 8.10373 13.6996Z" stroke="white" stroke-width="1.4" stroke-linejoin="round"/>
<path d="M13.8864 8.45312L9.57812 11.0634" stroke="white" stroke-width="1.4" stroke-linecap="round" stroke-linejoin="round"/>
<path d="M9.57812 12.8711L14.1176 15.5535" stroke="white" stroke-width="1.4" stroke-linecap="round" stroke-linejoin="round"/>
<path d="M15.592 14.7227C16.5317 14.7227 17.2934 15.4844 17.2934 16.424C17.2934 17.3637 16.5317 18.1254 15.592 18.1254C14.6524 18.1254 13.8906 17.3637 13.8906 16.424C13.8906 15.4844 14.6524 14.7227 15.592 14.7227Z" stroke="white" stroke-width="1.4" stroke-linejoin="round"/>
<path d="M15.592 9.27777C16.5317 9.27777 17.2934 8.51603 17.2934 7.57639C17.2934 6.63674 16.5317 5.875 15.592 5.875C14.6524 5.875 13.8906 6.63674 13.8906 7.57639C13.8906 8.51603 14.6524 9.27777 15.592 9.27777Z" stroke="#EFAF00" stroke-width="1.4" stroke-linejoin="round"/>
</g>
<defs>
<clipPath id="clip0_26571_14893">
<rect width="14" height="14" fill="white" transform="translate(5 5)"/>
</clipPath>
</defs>
</svg>
