<svg width="24" height="24" viewBox="0 0 24 24" fill="none" xmlns="http://www.w3.org/2000/svg">
<path d="M4.99989 6L14.3033 2.40263C14.8823 2.17876 15.5341 2.45799 15.7715 3.03157L16.9999 6" fill="#EFAF00"/>
<path fill-rule="evenodd" clip-rule="evenodd" d="M18.5714 6.85547H2V10.9983C3.5 10.9983 5 11.9983 5 13.9983C5 15.9983 3.50008 16.9983 2 16.9983V17.7126C2 19.6062 3.53502 21.1412 5.42857 21.1412H22V16.9983C20.5 16.9983 19 15.4983 19 13.7483C19 11.9983 20.5 10.9983 22 10.9983V10.284C22 8.39049 20.465 6.85547 18.5714 6.85547ZM12.0127 10.5117L13.026 12.2669H15.0527L14.0393 14.022L15.0527 15.7772H13.026L12.0127 17.5323L10.9993 15.7772H8.97266L9.98599 14.022L8.97266 12.2669H10.9993L12.0127 10.5117Z" fill="#4D4D4D"/>
</svg>
