<svg width="24" height="24" viewBox="0 0 24 24" fill="none" xmlns="http://www.w3.org/2000/svg">
<path d="M22 9L21.9976 5.19575V4.77311C21.9976 3.24537 20.7546 2.00994 19.2269 2H15V4.1H17.9C19.0046 4.1 19.9 4.99543 19.9 6.1V6.27778H18.5086L22 9Z" fill="#EFAF00"/>
<path d="M2 15L2.0024 18.8043V19.2269C2.0024 20.7546 3.24539 21.9901 4.7731 22H9L8.99991 19.9H6.09999C4.99539 19.9 4.09995 19.0045 4.09999 17.8999L4.1 17.7222H5.49139L2 15Z" fill="#EFAF00"/>
<path fill-rule="evenodd" clip-rule="evenodd" d="M6.88398 2C5.60959 2 4.5765 3.03309 4.5765 4.30748C4.5765 5.58186 5.60959 6.61496 6.88398 6.61496H7.00143C8.34068 6.61496 9.42636 5.52928 9.42636 4.19003V2H6.88398ZM4 7.7704C2.89543 7.7704 2 8.66583 2 9.7704V11.9996H12V9.7704C12 8.66583 11.1046 7.7704 10 7.7704H4Z" fill="#4D4D4D"/>
<path fill-rule="evenodd" clip-rule="evenodd" d="M16.884 12C15.6096 12 14.5765 13.0331 14.5765 14.3075C14.5765 15.5819 15.6096 16.615 16.884 16.615H17.0014C18.3407 16.615 19.4264 15.5293 19.4264 14.19V12H16.884ZM14 17.7704C12.8954 17.7704 12 18.6658 12 19.7704V21.9996H22V19.7704C22 18.6658 21.1046 17.7704 20 17.7704H14Z" fill="#4D4D4D"/>
</svg>
