<svg width="24" height="24" viewBox="0 0 24 24" fill="none" xmlns="http://www.w3.org/2000/svg">
<path d="M3.91667 6.8C3.91667 5.9448 3.91738 5.35852 3.95449 4.90425C3.99074 4.46068 4.05706 4.22429 4.14374 4.05419C4.34347 3.66218 4.66218 3.34347 5.05419 3.14374C5.22429 3.05706 5.46068 2.99074 5.90425 2.95449C6.35852 2.91738 6.9448 2.91667 7.8 2.91667H14.0118C14.7892 2.91667 15.0285 2.92256 15.2437 2.97423L15.4577 2.08289L15.2437 2.97423C15.4563 3.02526 15.6595 3.10944 15.8459 3.22367C16.0346 3.33932 16.208 3.50436 16.7577 4.05407L18.9459 6.2423C19.4956 6.792 19.6607 6.96538 19.7763 7.1541C19.8906 7.3405 19.9747 7.54372 20.0258 7.7563C20.0774 7.97152 20.0833 8.21082 20.0833 8.98822V17.2C20.0833 18.0552 20.0826 18.6415 20.0455 19.0957C20.0093 19.5393 19.9429 19.7757 19.8563 19.9458C19.6565 20.3378 19.3378 20.6565 18.9458 20.8563C18.7757 20.9429 18.5393 21.0093 18.0957 21.0455C17.6415 21.0826 17.0552 21.0833 16.2 21.0833H7.8C6.9448 21.0833 6.35852 21.0826 5.90425 21.0455C5.46068 21.0093 5.22429 20.9429 5.05419 20.8563C4.66218 20.6565 4.34347 20.3378 4.14374 19.9458L3.33287 20.359L4.14374 19.9458C4.05706 19.7757 3.99074 19.5393 3.95449 19.0957C3.91738 18.6415 3.91667 18.0552 3.91667 17.2V6.8Z" fill="#4D4D4D" stroke="#4D4D4D" stroke-width="1.83333"/>
<rect x="6" y="16.6016" width="7.30435" height="1.6" fill="white"/>
<rect x="6" y="13" width="3.65217" height="1.6" fill="white"/>
<path d="M15.2695 6.60298L19.8725 2L21.0039 2V3.13137L16.4009 7.73436L15.2695 6.60298Z" fill="#EFAF00"/>
</svg>
