<svg width="24" height="24" viewBox="0 0 24 24" fill="none" xmlns="http://www.w3.org/2000/svg">
<path d="M16.2984 2H3.89844V7V7.81625C3.89844 8.4403 3.89844 8.75233 3.95969 9.05079C4.01403 9.31557 4.10391 9.5718 4.22689 9.81251C4.3655 10.0838 4.56042 10.3275 4.95027 10.8148L5.89844 12L4.95027 13.1852C4.56042 13.6725 4.3655 13.9162 4.22689 14.1875C4.10391 14.4282 4.01403 14.6844 3.95969 14.9492C3.89844 15.2477 3.89844 15.5597 3.89844 16.1837V17C3.89844 18.3965 3.89844 19.0947 4.09485 19.656C4.44664 20.6613 5.2371 21.4518 6.24246 21.8036C6.80376 22 7.50199 22 8.89844 22H21.8984V7.6C21.8984 5.63982 21.8984 4.65972 21.517 3.91103C21.1814 3.25247 20.646 2.71703 19.9874 2.38148C19.2387 2 18.2586 2 16.2984 2Z" fill="#4D4D4D"/>
<path d="M16.4648 8.89844H11.065C10.2007 8.89844 9.5 9.5991 9.5 10.4634V10.4634C9.5 11.3277 10.2007 12.0284 11.065 12.0284H14.8996C15.7641 12.0284 16.4648 12.7292 16.4648 13.5936V13.5936C16.4648 14.458 15.7641 15.1588 14.8996 15.1588H9.5" stroke="white" stroke-width="1.83"/>
<rect x="12.0898" y="7" width="1.83" height="1" fill="white"/>
<rect x="12.0898" y="16.0586" width="1.83" height="1" fill="white"/>
<path d="M2.89844 9L5.89844 12L2.89844 15" stroke="white" stroke-width="3"/>
<path d="M2.89844 9L5.89844 12L2.89844 15" stroke="#EFAF00" stroke-width="1.83"/>
</svg>
