<svg width="16" height="16" viewBox="0 0 16 16" fill="none" xmlns="http://www.w3.org/2000/svg">
<path fill-rule="evenodd" clip-rule="evenodd" d="M6.87925 4.11166C7.07891 3.74874 6.94657 3.29269 6.58365 3.09302C6.22074 2.89336 5.76468 3.0257 5.56501 3.38862L4.08173 6.08469L3.47022 7.19621H4.73885H12.6497C13.0639 7.19621 13.3997 6.86043 13.3997 6.44621C13.3997 6.032 13.0639 5.69621 12.6497 5.69621H6.00749L6.87925 4.11166ZM9.55957 11.4134C9.32486 11.7547 9.41126 12.2216 9.75256 12.4563C10.0939 12.691 10.5608 12.6046 10.7955 12.2633L12.2788 10.1065L13.0868 8.93148H11.6608H3.75C3.33579 8.93148 3 9.26726 3 9.68148C3 10.0957 3.33579 10.4315 3.75 10.4315H10.2348L9.55957 11.4134Z" fill="black"/>
</svg>
