<svg width="60" height="60" viewBox="0 0 60 60" fill="none" xmlns="http://www.w3.org/2000/svg">
<path fill-rule="evenodd" clip-rule="evenodd" d="M9.79876 21.8994C10.1305 22.3409 10.0415 22.9678 9.59994 23.2996C8.01927 24.4871 7 26.3744 7 28.5001C7 29.6836 7.3154 30.7904 7.86606 31.7443C8.14217 32.2226 7.97826 32.8342 7.49995 33.1103C7.02164 33.3864 6.41006 33.2225 6.13394 32.7442C5.41249 31.4944 5 30.0439 5 28.5001C5 25.7189 6.33676 23.2497 8.39859 21.7006C8.84014 21.3688 9.46702 21.4578 9.79876 21.8994Z" fill="#FFD429"/>
<path fill-rule="evenodd" clip-rule="evenodd" d="M50.2012 21.8994C49.8695 22.3409 49.9585 22.9678 50.4001 23.2996C51.9807 24.4871 53 26.3744 53 28.5001C53 29.6836 52.6846 30.7904 52.1339 31.7443C51.8578 32.2226 52.0217 32.8342 52.5001 33.1103C52.9784 33.3864 53.5899 33.2225 53.8661 32.7442C54.5875 31.4944 55 30.0439 55 28.5001C55 25.7189 53.6632 23.2497 51.6014 21.7006C51.1599 21.3688 50.533 21.4578 50.2012 21.8994Z" fill="#FFD429"/>
<mask id="path-3-inside-1_25107_75607" fill="white">
<path d="M27.3307 10.0225C26.8495 7.54608 28.8483 5.28713 31.3649 5.46311C33.8815 5.63909 35.5464 8.15422 34.7253 10.5396L31.6353 19.5162L29.1413 19.3418L27.3307 10.0225Z"/>
</mask>
<path d="M27.3307 10.0225C26.8495 7.54608 28.8483 5.28713 31.3649 5.46311C33.8815 5.63909 35.5464 8.15422 34.7253 10.5396L31.6353 19.5162L29.1413 19.3418L27.3307 10.0225Z" fill="white"/>
<path d="M31.6353 19.5162L31.5655 20.5138L32.331 20.5673L32.5808 19.8417L31.6353 19.5162ZM29.1413 19.3418L28.1597 19.5325L28.3061 20.2858L29.0716 20.3394L29.1413 19.3418ZM34.7253 10.5396L33.7797 10.2141L34.7253 10.5396ZM27.3307 10.0225L26.3491 10.2133L27.3307 10.0225ZM33.7797 10.2141L30.6897 19.1907L32.5808 19.8417L35.6708 10.8651L33.7797 10.2141ZM31.705 18.5186L29.2111 18.3443L29.0716 20.3394L31.5655 20.5138L31.705 18.5186ZM30.123 19.1511L28.3123 9.83182L26.3491 10.2133L28.1597 19.5325L30.123 19.1511ZM31.2951 6.46068C33.1559 6.59079 34.3869 8.45043 33.7797 10.2141L35.6708 10.8651C36.706 7.85802 34.6072 4.68739 31.4346 4.46555L31.2951 6.46068ZM31.4346 4.46555C28.2621 4.24371 25.7425 7.09138 26.3491 10.2133L28.3123 9.83182C27.9566 8.00078 29.4344 6.33056 31.2951 6.46068L31.4346 4.46555Z" fill="black" mask="url(#path-3-inside-1_25107_75607)"/>
<circle cx="30.2914" cy="49.4968" r="5" transform="rotate(4 30.2914 49.4968)" fill="#FF6813"/>
<path d="M14.0296 26.1986C15.3843 18.11 22.6618 12.3737 30.8432 12.9458C39.0245 13.5179 45.4328 20.2112 45.6486 28.4097L46.0877 45.0875L11.2737 42.6531L14.0296 26.1986Z" fill="white" stroke="black"/>
<rect x="8.29984" y="41.4438" width="41" height="5" rx="2.5" transform="rotate(4 8.29984 41.4438)" fill="white" stroke="black"/>
<path fill-rule="evenodd" clip-rule="evenodd" d="M32.4734 23.7486C36.2006 24.0093 39.4333 21.1991 39.694 17.4719C39.4333 21.1991 42.2435 24.4318 45.9707 24.6925C42.2435 24.4318 39.0108 27.242 38.7501 30.9692C39.0108 27.242 36.2006 24.0093 32.4734 23.7486Z" fill="#FFD429"/>
</svg>
