<svg width="18" height="18" viewBox="0 0 18 18" fill="none" xmlns="http://www.w3.org/2000/svg">
<path d="M8.76584 0.239802C8.89425 0.108297 9.10575 0.108297 9.23416 0.239802L11.5196 2.58039C11.5822 2.64443 11.6682 2.68006 11.7577 2.67899L15.0288 2.64003C15.2126 2.63784 15.3622 2.78739 15.36 2.97118L15.321 6.2423C15.3199 6.3318 15.3556 6.41783 15.4196 6.48036L17.7602 8.76584C17.8917 8.89425 17.8917 9.10575 17.7602 9.23416L15.4196 11.5196C15.3556 11.5822 15.3199 11.6682 15.321 11.7577L15.36 15.0288C15.3622 15.2126 15.2126 15.3622 15.0288 15.36L11.7577 15.321C11.6682 15.3199 11.5822 15.3556 11.5196 15.4196L9.23416 17.7602C9.10575 17.8917 8.89425 17.8917 8.76584 17.7602L6.48036 15.4196C6.41783 15.3556 6.3318 15.3199 6.2423 15.321L2.97118 15.36C2.78739 15.3622 2.63784 15.2126 2.64003 15.0288L2.67899 11.7577C2.68006 11.6682 2.64443 11.5822 2.58039 11.5196L0.239802 9.23416C0.108297 9.10575 0.108297 8.89425 0.239802 8.76584L2.58039 6.48036C2.64443 6.41783 2.68006 6.3318 2.67899 6.2423L2.64003 2.97118C2.63784 2.78739 2.78739 2.63784 2.97118 2.64003L6.2423 2.67899C6.3318 2.68006 6.41783 2.64443 6.48036 2.58039L8.76584 0.239802Z" fill="#FFD429"/>
<mask id="mask0_576_5557" style="mask-type:alpha" maskUnits="userSpaceOnUse" x="0" y="0" width="18" height="18">
<path d="M8.76584 0.239802C8.89425 0.108297 9.10575 0.108297 9.23416 0.239802L11.5196 2.58039C11.5822 2.64443 11.6682 2.68006 11.7577 2.67899L15.0288 2.64003C15.2126 2.63784 15.3622 2.78739 15.36 2.97118L15.321 6.2423C15.3199 6.3318 15.3556 6.41783 15.4196 6.48036L17.7602 8.76584C17.8917 8.89425 17.8917 9.10575 17.7602 9.23416L15.4196 11.5196C15.3556 11.5822 15.3199 11.6682 15.321 11.7577L15.36 15.0288C15.3622 15.2126 15.2126 15.3622 15.0288 15.36L11.7577 15.321C11.6682 15.3199 11.5822 15.3556 11.5196 15.4196L9.23416 17.7602C9.10575 17.8917 8.89425 17.8917 8.76584 17.7602L6.48036 15.4196C6.41783 15.3556 6.3318 15.3199 6.2423 15.321L2.97118 15.36C2.78739 15.3622 2.63784 15.2126 2.64003 15.0288L2.67899 11.7577C2.68006 11.6682 2.64443 11.5822 2.58039 11.5196L0.239802 9.23416C0.108297 9.10575 0.108297 8.89425 0.239802 8.76584L2.58039 6.48036C2.64443 6.41783 2.68006 6.3318 2.67899 6.2423L2.64003 2.97118C2.63784 2.78739 2.78739 2.63784 2.97118 2.64003L6.2423 2.67899C6.3318 2.68006 6.41783 2.64443 6.48036 2.58039L8.76584 0.239802Z" fill="#FFD429"/>
</mask>
<g mask="url(#mask0_576_5557)">
<path d="M16.245 19.8373L5.39648 9.18565L8.59391 10.7141L13.0944 7.54272L25.1028 19.8373H16.245Z" fill="url(#paint0_linear_576_5557)" fill-opacity="0.1"/>
</g>
<path d="M6.00098 8.59083L8.45552 11.0454L12.5464 6.95447" stroke="#111111" stroke-width="1.63636"/>
<defs>
<linearGradient id="paint0_linear_576_5557" x1="9.41315" y1="10.2944" x2="14.6235" y2="14.6663" gradientUnits="userSpaceOnUse">
<stop stop-color="#151515"/>
<stop offset="1" stop-color="#FFD429"/>
</linearGradient>
</defs>
</svg>
