<svg width="20" height="20" viewBox="0 0 20 20" fill="none" xmlns="http://www.w3.org/2000/svg">
<path d="M7 12C9.76143 12 12 9.76143 12 7C12 4.23857 9.76143 2 7 2C4.23857 2 2 4.23857 2 7C2 9.76143 4.23857 12 7 12Z" stroke="#333333" stroke-width="1.5" stroke-linejoin="round"/>
<path d="M11.5 20C16.1944 20 20 16.1944 20 11.5C20 6.80558 16.1944 3 11.5 3C6.80558 3 3 6.80558 3 11.5C3 16.1944 6.80558 20 11.5 20Z" fill="white"/>
<path d="M11.5 18C15.0899 18 18 15.0899 18 11.5C18 7.91015 15.0899 5 11.5 5C7.91015 5 5 7.91015 5 11.5C5 15.0899 7.91015 18 11.5 18Z" fill="white" stroke="#333333" stroke-width="1.5" stroke-linejoin="round"/>
<path d="M13.3066 10.8183L11.9985 9.51024C11.7577 9.26943 11.3673 9.26943 11.1265 9.51024L9.8184 10.8183C9.57758 11.0591 9.57758 11.4496 9.8184 11.6904L11.1265 12.9985C11.3673 13.2393 11.7577 13.2393 11.9985 12.9985L13.3066 11.6904C13.5474 11.4496 13.5474 11.0591 13.3066 10.8183Z" stroke="#333333" stroke-width="1.5" stroke-linejoin="round"/>
</svg>
