<svg width="20" height="20" viewBox="0 0 20 20" fill="none" xmlns="http://www.w3.org/2000/svg">
<rect x="8" y="8" width="11" height="11" rx="1.85741" stroke="#111111" stroke-width="2"/>
<path fill-rule="evenodd" clip-rule="evenodd" d="M4.57186 2H8.42814C9.26129 2 9.76587 2.00156 10.142 2.03229C10.4146 2.05456 10.5126 2.08603 10.5323 2.0937C10.6933 2.17584 10.8242 2.30672 10.9063 2.46767C10.914 2.48736 10.9454 2.58535 10.9677 2.85798C10.9984 3.23413 11 3.73871 11 4.57186V7.00064C11.1786 7 11.3688 7 11.5719 7H13V4.57186C13 2.97156 13 2.17141 12.6886 1.56018C12.4146 1.02252 11.9775 0.58539 11.4398 0.31144C10.8286 0 10.0284 0 8.42814 0H4.57186C2.97156 0 2.17141 0 1.56018 0.31144C1.02252 0.58539 0.58539 1.02252 0.31144 1.56018C0 2.17141 0 2.97156 0 4.57186V8.42814C0 10.0284 0 10.8286 0.31144 11.4398C0.58539 11.9775 1.02252 12.4146 1.56018 12.6886C2.17141 13 2.97156 13 4.57186 13H7V11.5719C7 11.3688 7 11.1786 7.00064 11H4.57186C3.73871 11 3.23413 10.9984 2.85798 10.9677C2.58535 10.9454 2.48736 10.914 2.46767 10.9063C2.30672 10.8242 2.17584 10.6933 2.0937 10.5323C2.08603 10.5126 2.05456 10.4146 2.03229 10.142C2.00156 9.76587 2 9.26129 2 8.42814V4.57186C2 3.73871 2.00156 3.23413 2.03229 2.85798C2.05456 2.58536 2.08603 2.48737 2.0937 2.46767C2.17584 2.30672 2.30672 2.17584 2.46767 2.0937C2.48737 2.08603 2.58536 2.05456 2.85798 2.03229C3.23413 2.00156 3.73871 2 4.57186 2ZM2.09493 10.5353L2.09543 10.5363C2.09543 10.5363 2.09491 10.5348 2.0937 10.5323L2.09493 10.5353Z" fill="#111111"/>
</svg>
