<svg width="20" height="20" viewBox="0 0 20 20" fill="none" xmlns="http://www.w3.org/2000/svg">
<g clip-path="url(#clip0_648_39138)">
<path fill-rule="evenodd" clip-rule="evenodd" d="M13.3338 2.22172H6.66714C5.60556 2.22172 4.89847 2.22287 4.35519 2.26726C3.82921 2.31023 3.58852 2.38623 3.43605 2.46392C3.01791 2.67698 2.67795 3.01693 2.4649 3.43507C2.38721 3.58755 2.31121 3.82823 2.26823 4.35422C2.22384 4.89749 2.22269 5.60458 2.22269 6.66616V13.3328C2.22269 14.3944 2.22384 15.1015 2.26823 15.6448C2.31121 16.1708 2.38721 16.4114 2.4649 16.5639C2.67795 16.9821 3.01791 17.322 3.43605 17.5351C3.58852 17.6128 3.82921 17.6888 4.35519 17.7317C4.89847 17.7761 5.60556 17.7773 6.66714 17.7773H13.3338C14.3954 17.7773 15.1025 17.7761 15.6457 17.7317C16.1717 17.6888 16.4124 17.6128 16.5649 17.5351C16.983 17.322 17.323 16.9821 17.536 16.5639C17.6137 16.4114 17.6897 16.1708 17.7327 15.6448C17.7771 15.1015 17.7782 14.3944 17.7782 13.3328V6.66616C17.7782 5.60458 17.7771 4.89749 17.7327 4.35422C17.6897 3.82823 17.6137 3.58755 17.536 3.43507C17.323 3.01693 16.983 2.67698 16.5649 2.46392C16.4124 2.38623 16.1717 2.31023 15.6457 2.26726C15.1025 2.22287 14.3954 2.22172 13.3338 2.22172ZM1.14489 2.76249C0.741211 3.55476 0.741211 4.59189 0.741211 6.66616V13.3328C0.741211 15.4071 0.741211 16.4442 1.14489 17.2365C1.49998 17.9334 2.06657 18.5 2.76347 18.8551C3.55573 19.2588 4.59287 19.2588 6.66714 19.2588H13.3338C15.4081 19.2588 16.4452 19.2588 17.2375 18.8551C17.9344 18.5 18.501 17.9334 18.8561 17.2365C19.2597 16.4442 19.2597 15.4071 19.2597 13.3328V6.66616C19.2597 4.59189 19.2597 3.55476 18.8561 2.76249C18.501 2.0656 17.9344 1.499 17.2375 1.14391C16.4452 0.740234 15.4081 0.740234 13.3338 0.740234H6.66714C4.59287 0.740234 3.55573 0.740234 2.76347 1.14391C2.06657 1.499 1.49998 2.0656 1.14489 2.76249Z" fill="#111111"/>
<path fill-rule="evenodd" clip-rule="evenodd" d="M8.68194 12.0846C8.20176 11.7417 7.53725 11.8339 7.1686 12.2947L2.70845 17.869L1.55167 16.9435L6.01183 11.3691C6.87201 10.294 8.42251 10.0789 9.54295 10.8791L17.8384 16.8035L16.9774 18.0091L8.68194 12.0846Z" fill="#111111"/>
<path d="M14.6301 6.29579C14.6301 7.31854 13.801 8.14764 12.7782 8.14764C11.7555 8.14764 10.9264 7.31854 10.9264 6.29579C10.9264 5.27304 11.7555 4.44394 12.7782 4.44394C13.801 4.44394 14.6301 5.27304 14.6301 6.29579Z" fill="#111111"/>
<path d="M4.35519 2.26726L4.37148 2.46659L4.35519 2.26726ZM3.43605 2.46392L3.52685 2.64213L3.43605 2.46392ZM2.4649 3.43507L2.6431 3.52587L2.4649 3.43507ZM2.26823 4.35422L2.46757 4.3705L2.26823 4.35422ZM2.26823 15.6448L2.46757 15.6285L2.26823 15.6448ZM2.4649 16.5639L2.6431 16.4731L2.6431 16.4731L2.4649 16.5639ZM3.43605 17.5351L3.34525 17.7133H3.34525L3.43605 17.5351ZM4.35519 17.7317L4.33891 17.9311L4.35519 17.7317ZM15.6457 17.7317L15.662 17.9311L15.6457 17.7317ZM16.5649 17.5351L16.6557 17.7133L16.5649 17.5351ZM17.536 16.5639L17.7142 16.6547L17.536 16.5639ZM17.7327 15.6448L17.932 15.6611L17.7327 15.6448ZM17.7327 4.35422L17.932 4.33793L17.7327 4.35422ZM17.536 3.43507L17.7142 3.34427V3.34427L17.536 3.43507ZM16.5649 2.46392L16.4741 2.64212L16.4741 2.64213L16.5649 2.46392ZM15.6457 2.26726L15.6295 2.46659L15.6457 2.26726ZM1.14489 2.76249L1.32309 2.85329L1.14489 2.76249ZM1.14489 17.2365L0.966689 17.3273H0.966689L1.14489 17.2365ZM2.76347 18.8551L2.67267 19.0333H2.67267L2.76347 18.8551ZM17.2375 18.8551L17.3283 19.0333L17.2375 18.8551ZM18.8561 17.2365L19.0343 17.3273L18.8561 17.2365ZM18.8561 2.76249L19.0343 2.67169V2.67169L18.8561 2.76249ZM17.2375 1.14391L17.3283 0.965713V0.965713L17.2375 1.14391ZM2.76347 1.14391L2.85427 1.32212L2.76347 1.14391ZM7.1686 12.2947L7.32477 12.4196H7.32477L7.1686 12.2947ZM8.68194 12.0846L8.56571 12.2474L8.68194 12.0846ZM2.70845 17.869L2.58349 18.0252L2.73966 18.1502L2.86461 17.994L2.70845 17.869ZM1.55167 16.9435L1.3955 16.8185L1.27055 16.9747L1.42672 17.0997L1.55167 16.9435ZM6.01183 11.3691L5.85566 11.2442L6.01183 11.3691ZM9.54295 10.8791L9.65919 10.7163L9.54295 10.8791ZM17.8384 16.8035L18.0012 16.9198L18.1174 16.757L17.9547 16.6408L17.8384 16.8035ZM16.9774 18.0091L16.8612 18.1719L17.0239 18.2881L17.1402 18.1253L16.9774 18.0091ZM6.66714 2.42172H13.3338V2.02172H6.66714V2.42172ZM4.37148 2.46659C4.9047 2.42303 5.60215 2.42172 6.66714 2.42172V2.02172C5.60897 2.02172 4.89224 2.02271 4.33891 2.06792L4.37148 2.46659ZM3.52685 2.64213C3.64636 2.58123 3.85774 2.50857 4.37148 2.46659L4.33891 2.06792C3.80068 2.11189 3.53069 2.19124 3.34525 2.28572L3.52685 2.64213ZM2.6431 3.52587C2.83698 3.14536 3.14634 2.836 3.52685 2.64213L3.34525 2.28572C2.88948 2.51795 2.51893 2.8885 2.2867 3.34427L2.6431 3.52587ZM2.46757 4.3705C2.50954 3.85676 2.58221 3.64538 2.6431 3.52587L2.2867 3.34427C2.19221 3.52971 2.11287 3.7997 2.0689 4.33793L2.46757 4.3705ZM2.42269 6.66616C2.42269 5.60117 2.424 4.90372 2.46757 4.3705L2.0689 4.33793C2.02369 4.89127 2.02269 5.60799 2.02269 6.66616H2.42269ZM2.42269 13.3328V6.66616H2.02269V13.3328H2.42269ZM2.46757 15.6285C2.424 15.0953 2.42269 14.3978 2.42269 13.3328H2.02269C2.02269 14.391 2.02369 15.1077 2.0689 15.6611L2.46757 15.6285ZM2.6431 16.4731C2.58221 16.3536 2.50954 16.1422 2.46757 15.6285L2.0689 15.6611C2.11287 16.1993 2.19221 16.4693 2.2867 16.6547L2.6431 16.4731ZM3.52685 17.3569C3.14634 17.163 2.83698 16.8536 2.6431 16.4731L2.2867 16.6547C2.51893 17.1105 2.88948 17.481 3.34525 17.7133L3.52685 17.3569ZM4.37148 17.5324C3.85774 17.4904 3.64636 17.4178 3.52684 17.3569L3.34525 17.7133C3.53069 17.8078 3.80068 17.8871 4.33891 17.9311L4.37148 17.5324ZM6.66714 17.5773C5.60215 17.5773 4.9047 17.576 4.37148 17.5324L4.33891 17.9311C4.89224 17.9763 5.60897 17.9773 6.66714 17.9773V17.5773ZM13.3338 17.5773H6.66714V17.9773H13.3338V17.5773ZM15.6295 17.5324C15.0962 17.576 14.3988 17.5773 13.3338 17.5773V17.9773C14.392 17.9773 15.1087 17.9763 15.662 17.9311L15.6295 17.5324ZM16.4741 17.3569C16.3546 17.4178 16.1432 17.4904 15.6295 17.5324L15.662 17.9311C16.2003 17.8871 16.4703 17.8078 16.6557 17.7133L16.4741 17.3569ZM17.3578 16.4731C17.164 16.8536 16.8546 17.163 16.4741 17.3569L16.6557 17.7133C17.1115 17.481 17.482 17.1105 17.7142 16.6547L17.3578 16.4731ZM17.5334 15.6285C17.4914 16.1422 17.4187 16.3536 17.3578 16.4731L17.7142 16.6547C17.8087 16.4693 17.8881 16.1993 17.932 15.6611L17.5334 15.6285ZM17.5782 13.3328C17.5782 14.3978 17.5769 15.0953 17.5334 15.6285L17.932 15.6611C17.9773 15.1077 17.9782 14.391 17.9782 13.3328H17.5782ZM17.5782 6.66616V13.3328H17.9782V6.66616H17.5782ZM17.5334 4.3705C17.5769 4.90372 17.5782 5.60117 17.5782 6.66616H17.9782C17.9782 5.60799 17.9773 4.89127 17.932 4.33793L17.5334 4.3705ZM17.3578 3.52587C17.4187 3.64538 17.4914 3.85676 17.5334 4.3705L17.932 4.33793C17.8881 3.7997 17.8087 3.52971 17.7142 3.34427L17.3578 3.52587ZM16.4741 2.64213C16.8546 2.836 17.164 3.14536 17.3578 3.52587L17.7142 3.34427C17.482 2.8885 17.1115 2.51795 16.6557 2.28572L16.4741 2.64213ZM15.6295 2.46659C16.1432 2.50857 16.3546 2.58123 16.4741 2.64212L16.6557 2.28572C16.4703 2.19124 16.2003 2.11189 15.662 2.06792L15.6295 2.46659ZM13.3338 2.42172C14.3988 2.42172 15.0962 2.42303 15.6295 2.46659L15.662 2.06792C15.1087 2.02271 14.392 2.02172 13.3338 2.02172V2.42172ZM0.941211 6.66616C0.941211 5.62573 0.941366 4.85743 0.991007 4.24986C1.04046 3.64463 1.13801 3.21653 1.32309 2.85329L0.966689 2.67169C0.748089 3.10072 0.643806 3.58732 0.592335 4.21729C0.541055 4.84492 0.541211 5.63233 0.541211 6.66616H0.941211ZM0.941211 13.3328V6.66616H0.541211V13.3328H0.941211ZM1.32309 17.1457C1.13801 16.7825 1.04046 16.3544 0.991007 15.7491C0.941366 15.1416 0.941211 14.3733 0.941211 13.3328H0.541211C0.541211 14.3667 0.541055 15.1541 0.592335 15.7817C0.643806 16.4117 0.748089 16.8983 0.966689 17.3273L1.32309 17.1457ZM2.85427 18.6769C2.195 18.341 1.659 17.805 1.32309 17.1457L0.966689 17.3273C1.34095 18.0618 1.93814 18.659 2.67267 19.0333L2.85427 18.6769ZM6.66714 19.0588C5.6267 19.0588 4.85841 19.0586 4.25084 19.009C3.64561 18.9595 3.21751 18.862 2.85427 18.6769L2.67267 19.0333C3.1017 19.2519 3.5883 19.3562 4.21827 19.4076C4.8459 19.4589 5.6333 19.4588 6.66714 19.4588V19.0588ZM13.3338 19.0588H6.66714V19.4588H13.3338V19.0588ZM17.1467 18.6769C16.7834 18.862 16.3553 18.9595 15.7501 19.009C15.1425 19.0586 14.3742 19.0588 13.3338 19.0588V19.4588C14.3676 19.4588 15.155 19.4589 15.7827 19.4076C16.4126 19.3562 16.8992 19.2519 17.3283 19.0333L17.1467 18.6769ZM18.6778 17.1457C18.3419 17.805 17.8059 18.341 17.1467 18.6769L17.3283 19.0333C18.0628 18.659 18.66 18.0618 19.0343 17.3273L18.6778 17.1457ZM19.0597 13.3328C19.0597 14.3733 19.0596 15.1416 19.0099 15.7491C18.9605 16.3544 18.8629 16.7825 18.6778 17.1457L19.0343 17.3273C19.2529 16.8983 19.3571 16.4117 19.4086 15.7817C19.4599 15.1541 19.4597 14.3667 19.4597 13.3328H19.0597ZM19.0597 6.66616V13.3328H19.4597V6.66616H19.0597ZM18.6778 2.85329C18.8629 3.21653 18.9605 3.64463 19.0099 4.24986C19.0596 4.85743 19.0597 5.62573 19.0597 6.66616H19.4597C19.4597 5.63233 19.4599 4.84492 19.4086 4.21729C19.3571 3.58732 19.2529 3.10072 19.0343 2.67169L18.6778 2.85329ZM17.1467 1.32212C17.8059 1.65803 18.3419 2.19403 18.6778 2.85329L19.0343 2.67169C18.66 1.93716 18.0628 1.33997 17.3283 0.965713L17.1467 1.32212ZM13.3338 0.940234C14.3742 0.940234 15.1425 0.94039 15.7501 0.99003C16.3553 1.03948 16.7834 1.13704 17.1467 1.32212L17.3283 0.965713C16.8992 0.747113 16.4126 0.642829 15.7827 0.591359C15.155 0.540079 14.3676 0.540234 13.3338 0.540234V0.940234ZM6.66714 0.940234H13.3338V0.540234H6.66714V0.940234ZM2.85427 1.32212C3.21751 1.13704 3.64561 1.03948 4.25084 0.99003C4.85841 0.94039 5.6267 0.940234 6.66714 0.940234V0.540234C5.6333 0.540234 4.8459 0.540079 4.21827 0.591359C3.5883 0.642829 3.1017 0.747113 2.67267 0.965713L2.85427 1.32212ZM1.32309 2.85329C1.659 2.19403 2.195 1.65803 2.85427 1.32212L2.67267 0.965713C1.93814 1.33997 1.34095 1.93716 0.966689 2.67169L1.32309 2.85329ZM7.32477 12.4196C7.62706 12.0418 8.17195 11.9662 8.56571 12.2474L8.79818 11.9219C8.23156 11.5172 7.44744 11.626 7.01244 12.1697L7.32477 12.4196ZM2.86461 17.994L7.32477 12.4196L7.01244 12.1697L2.55228 17.7441L2.86461 17.994ZM1.42672 17.0997L2.58349 18.0252L2.8334 17.7129L1.67662 16.7873L1.42672 17.0997ZM5.85566 11.2442L1.3955 16.8185L1.70783 17.0684L6.16799 11.4941L5.85566 11.2442ZM9.65919 10.7163C8.45231 9.85438 6.7822 10.0862 5.85566 11.2442L6.16799 11.4941C6.96182 10.5019 8.39271 10.3033 9.42671 11.0418L9.65919 10.7163ZM17.9547 16.6408L9.65919 10.7163L9.42671 11.0418L17.7222 16.9663L17.9547 16.6408ZM17.1402 18.1253L18.0012 16.9198L17.6757 16.6873L16.8147 17.8929L17.1402 18.1253ZM8.56571 12.2474L16.8612 18.1719L17.0936 17.8463L8.79818 11.9219L8.56571 12.2474ZM14.4301 6.29579C14.4301 7.20808 13.6905 7.94764 12.7782 7.94764V8.34764C13.9115 8.34764 14.8301 7.429 14.8301 6.29579H14.4301ZM12.7782 7.94764C11.866 7.94764 11.1264 7.20808 11.1264 6.29579H10.7264C10.7264 7.429 11.645 8.34764 12.7782 8.34764V7.94764ZM11.1264 6.29579C11.1264 5.3835 11.866 4.64394 12.7782 4.64394V4.24394C11.645 4.24394 10.7264 5.16258 10.7264 6.29579H11.1264ZM12.7782 4.64394C13.6905 4.64394 14.4301 5.3835 14.4301 6.29579H14.8301C14.8301 5.16258 13.9115 4.24394 12.7782 4.24394V4.64394Z" fill="#111111"/>
</g>
<defs>
<clipPath id="clip0_648_39138">
<rect width="20" height="20" fill="white"/>
</clipPath>
</defs>
</svg>
