<svg width="20" height="20" viewBox="0 0 20 20" fill="none" xmlns="http://www.w3.org/2000/svg">
<g id="icon/add-subtract">
<g id="Vector">
<path d="M10.416 12.917C10.416 12.4568 10.7891 12.0837 11.2493 12.0837H14.5827C15.0429 12.0837 15.416 12.4568 15.416 12.917C15.416 13.3772 15.0429 13.7503 14.5827 13.7503H11.2493C10.7891 13.7503 10.416 13.3772 10.416 12.917Z" fill="black" fill-opacity="0.85"/>
<path d="M7.91602 5.41699C7.91602 4.95675 7.54292 4.58366 7.08268 4.58366C6.62245 4.58366 6.24935 4.95675 6.24935 5.41699V6.25033H5.41602C4.95578 6.25033 4.58268 6.62342 4.58268 7.08366C4.58268 7.5439 4.95578 7.91699 5.41602 7.91699H6.24935V8.75033C6.24935 9.21056 6.62245 9.58366 7.08268 9.58366C7.54292 9.58366 7.91602 9.21056 7.91602 8.75033V7.91699H8.74935C9.20959 7.91699 9.58268 7.5439 9.58268 7.08366C9.58268 6.62342 9.20959 6.25033 8.74935 6.25033H7.91602V5.41699Z" fill="black" fill-opacity="0.85"/>
<path d="M14.7553 6.42291C15.0807 6.09748 15.0807 5.56984 14.7553 5.2444C14.4298 4.91897 13.9022 4.91897 13.5768 5.2444L5.24343 13.5777C4.91799 13.9032 4.91799 14.4308 5.24343 14.7562C5.56886 15.0817 6.0965 15.0817 6.42194 14.7562L14.7553 6.42291Z" fill="black" fill-opacity="0.85"/>
<path fill-rule="evenodd" clip-rule="evenodd" d="M1.66602 3.75033C1.66602 2.59973 2.59876 1.66699 3.74935 1.66699H16.2493C17.3999 1.66699 18.3327 2.59973 18.3327 3.75033V16.2503C18.3327 17.4009 17.3999 18.3337 16.2493 18.3337H3.74935C2.59876 18.3337 1.66602 17.4009 1.66602 16.2503V3.75033ZM3.74935 3.33366C3.51923 3.33366 3.33268 3.52021 3.33268 3.75033V16.2503C3.33268 16.4804 3.51923 16.667 3.74935 16.667H16.2493C16.4795 16.667 16.666 16.4804 16.666 16.2503V3.75033C16.666 3.52021 16.4795 3.33366 16.2493 3.33366H3.74935Z" fill="black" fill-opacity="0.85"/>
</g>
</g>
</svg>
