<svg width="12" height="12" viewBox="0 0 12 12" fill="none" xmlns="http://www.w3.org/2000/svg">
<g clip-path="url(#clip0_9349_14720)">
<circle cx="6" cy="6" r="6" fill="#111111"/>
<path d="M6.52138 3.879V5.584H8.23738C8.31438 5.584 8.36938 5.639 8.36938 5.716V6.497C8.36938 6.574 8.31438 6.629 8.23738 6.629H6.52138V8.345C6.52138 8.422 6.46638 8.477 6.38938 8.477H5.60838C5.53138 8.477 5.47638 8.422 5.47638 8.345V6.629H3.76038C3.68338 6.629 3.62838 6.574 3.62838 6.497V5.716C3.62838 5.639 3.68338 5.584 3.76038 5.584H5.47638V3.879C5.47638 3.802 5.53138 3.747 5.60838 3.747H6.38938C6.46638 3.747 6.52138 3.802 6.52138 3.879Z" fill="white"/>
</g>
<defs>
<clipPath id="clip0_9349_14720">
<rect width="12" height="12" fill="white"/>
</clipPath>
</defs>
</svg>
