<svg width="16" height="14" viewBox="0 0 16 14" fill="none" xmlns="http://www.w3.org/2000/svg">
<path d="M8.59655 0.370291C8.4837 0.142911 8.25152 -0.000649902 7.99768 2.21228e-06C7.74383 0.000654327 7.51239 0.145407 7.40071 0.373363L5.51784 4.21659L1.23752 4.83727C0.986525 4.87366 0.777921 5.04932 0.699335 5.29046C0.620748 5.5316 0.685792 5.79644 0.867145 5.97374L3.96867 9.00591L3.22806 13.2179C3.18391 13.469 3.28684 13.7233 3.49322 13.873C3.69961 14.0227 3.97329 14.0416 4.19828 13.9216L7.99942 11.8952L11.8014 13.9217C12.0263 14.0415 12.2998 14.0227 12.5061 13.8732C12.7124 13.7237 12.8155 13.4697 12.7717 13.2187L12.0364 9.00592L15.133 5.97333C15.314 5.79602 15.3789 5.53138 15.3004 5.29044C15.2218 5.04949 15.0135 4.87391 14.7627 4.83734L10.5055 4.21658L8.59655 0.370291Z" fill="#FFC01E"/>
</svg>
