<svg width="20" height="20" viewBox="0 0 20 20" fill="none" xmlns="http://www.w3.org/2000/svg">
<path d="M17.5 10V3.75C17.5 3.05965 16.9404 2.5 16.25 2.5H3.75C3.05965 2.5 2.5 3.05965 2.5 3.75V16.25C2.5 16.9404 3.05965 17.5 3.75 17.5H10" stroke="#4D4D4D" stroke-width="1.5" stroke-linecap="round" stroke-linejoin="round"/>
<path d="M13.332 15.832C14.7127 15.832 15.832 14.7127 15.832 13.332C15.832 11.9513 14.7127 10.832 13.332 10.832C11.9513 10.832 10.832 11.9513 10.832 13.332C10.832 14.7127 11.9513 15.832 13.332 15.832Z" stroke="#4D4D4D" stroke-width="1.5"/>
<path d="M15.418 15L17.5013 16.6667" stroke="#4D4D4D" stroke-width="1.5" stroke-linecap="round" stroke-linejoin="round"/>
<path d="M5.83203 6.66797H14.1654" stroke="#4D4D4D" stroke-width="1.5" stroke-linecap="round" stroke-linejoin="round"/>
<path d="M5.83203 10H9.16536" stroke="#4D4D4D" stroke-width="1.5" stroke-linecap="round" stroke-linejoin="round"/>
</svg>
