<svg width="313" height="294" viewBox="0 0 313 294" fill="none" xmlns="http://www.w3.org/2000/svg">
<mask id="mask0_1588_71206" style="mask-type:alpha" maskUnits="userSpaceOnUse" x="0" y="0" width="313" height="294">
<path d="M0 25.6C0 16.6392 0 12.1587 1.7439 8.73615C3.27787 5.72556 5.72556 3.27787 8.73615 1.7439C12.1587 0 16.6392 0 25.6 0H287.4C296.361 0 300.841 0 304.264 1.7439C307.274 3.27787 309.722 5.72556 311.256 8.73615C313 12.1587 313 16.6392 313 25.6V268.4C313 277.361 313 281.841 311.256 285.264C309.722 288.274 307.274 290.722 304.264 292.256C300.841 294 296.361 294 287.4 294H25.6C16.6392 294 12.1587 294 8.73615 292.256C5.72556 290.722 3.27787 288.274 1.7439 285.264C0 281.841 0 277.361 0 268.4V25.6Z" fill="white"/>
</mask>
<g mask="url(#mask0_1588_71206)">
<path d="M92.0166 42.1067L97.8134 36.9573L92.0166 31.8079H95.6653L99.6083 35.3389L103.537 31.8079H107.2L101.403 36.9573L107.2 42.1067H103.537L99.6083 38.5757L95.6653 42.1067H92.0166Z" fill="white"/>
<path d="M90.7442 31.8079V34.0295H85.7419V42.1067H83.0936V34.0295H78.0913V31.8079H90.7442Z" fill="white"/>
<path d="M72.8791 31.8079C75.2184 31.8079 76.822 33.2938 76.822 35.589C76.822 37.8842 75.2184 39.3554 72.8791 39.3554H67.4354V42.1067H64.7871V31.8079H72.8791ZM72.1434 37.1338C72.9379 37.1338 74.1738 37.1338 74.1738 35.589C74.1738 34.0295 72.9379 34.0295 72.1434 34.0295H67.4354V37.1338H72.1434Z" fill="white"/>
<path d="M62.9471 36.9426C62.9471 40.5177 60.9903 42.2538 56.4736 42.2538C51.9421 42.2538 50 40.5324 50 36.9426V31.8079H52.6483V36.9426C52.6483 38.3844 53.0455 40.0322 56.4736 40.0322C59.9016 40.0322 60.2988 38.3697 60.2988 36.9426V31.8079H62.9471V36.9426Z" fill="white"/>
<rect x="20.2" y="25.2" width="23.6" height="23.6" rx="5.8" stroke="white" stroke-width="0.4"/>
<path d="M30.1909 31.2772C30.1909 31.0733 30.0255 30.908 29.8216 30.908H26.2765C26.0726 30.908 25.9072 31.0733 25.9072 31.2772V34.8223C25.9072 35.0263 26.0726 35.1916 26.2765 35.1916H29.5378C29.8186 35.1916 29.9967 35.4927 29.8614 35.7388L25.9524 42.8483C25.8811 42.9779 26.0234 43.1202 26.153 43.0489L33.2626 39.1399C33.5087 39.0046 33.8098 39.1826 33.8098 39.4635V42.651C33.8098 42.855 33.9751 43.0203 34.1791 43.0203H37.7241C37.9281 43.0203 38.0934 42.855 38.0934 42.651V39.1059C38.0934 38.902 37.9281 38.7367 37.7241 38.7367H34.5034C34.2226 38.7367 34.0445 38.4356 34.1798 38.1895L38.0483 31.1536C38.1195 31.0241 37.9773 30.8818 37.8477 30.953L30.7381 34.8621C30.4919 34.9974 30.1909 34.8194 30.1909 34.5385V31.2772Z" fill="white"/>
<path opacity="0.7" d="M180 110.638C180 109.322 180.433 108.043 181.231 106.997L191.731 93.2454C194.133 90.1004 198.867 90.1005 201.269 93.2454L211.769 106.997C212.567 108.043 213 109.322 213 110.638V316H180V110.638Z" fill="#1A1A1A"/>
<path d="M226 45.141C226 43.8096 226.443 42.5159 227.259 41.4639L264.759 -6.88696C267.161 -9.98409 271.839 -9.9841 274.241 -6.88697L311.741 41.4639C312.557 42.5159 313 43.8096 313 45.141V298H226V45.141Z" fill="#1A1A1A"/>
<g filter="url(#filter0_d_1588_71206)">
<path d="M220.742 141.4L241 125V164H222C220.895 164 220 163.105 220 162V142.954C220 142.351 220.273 141.779 220.742 141.4Z" fill="url(#paint0_linear_1588_71206)"/>
</g>
<g filter="url(#filter1_d_1588_71206)">
<path d="M317.258 141.4L297 125V164H316C317.105 164 318 163.105 318 162V142.954C318 142.351 317.727 141.779 317.258 141.4Z" fill="url(#paint1_linear_1588_71206)"/>
</g>
<path d="M255.357 163.216C255.731 161.346 257.372 160 259.279 160H281.721C283.628 160 285.269 161.346 285.643 163.216L288.043 175.216C288.538 177.691 286.645 180 284.121 180H256.879C254.355 180 252.462 177.691 252.957 175.216L255.357 163.216Z" fill="#575757"/>
<g filter="url(#filter2_d_1588_71206)">
<path d="M240 68.8891C240 67.5522 240.447 66.2535 241.269 65.1993L264.769 35.0666C267.171 31.9864 271.829 31.9864 274.231 35.0666L297.731 65.1993C298.553 66.2535 299 67.5522 299 68.8891V166C299 167.657 297.657 169 296 169H243C241.343 169 240 167.657 240 166V68.8891Z" fill="url(#paint2_linear_1588_71206)"/>
</g>
<g filter="url(#filter3_d_1588_71206)">
<path d="M266.871 184.125C263.619 184.788 260.645 186.422 258.341 188.811C256.813 190.395 255.62 192.271 254.832 194.326C254.045 196.381 253.678 198.574 253.756 200.773C253.725 212.094 263.692 226.901 268.084 232.886C268.317 233.213 268.624 233.479 268.98 233.663C269.337 233.847 269.732 233.943 270.133 233.943C270.534 233.943 270.929 233.847 271.286 233.663C271.642 233.479 271.95 233.213 272.182 232.886C276.574 226.901 286.541 212.094 286.541 200.773C286.658 197.457 285.766 194.183 283.982 191.384C282.199 188.585 279.609 186.393 276.554 185.097C273.499 183.801 270.122 183.462 266.871 184.125Z" fill="url(#paint3_linear_1588_71206)"/>
</g>
<g filter="url(#filter4_i_1588_71206)">
<rect x="256" y="81" width="27" height="27" rx="13.5" fill="#252525"/>
</g>
<g filter="url(#filter5_d_1588_71206)">
<path d="M268.749 193.889C267.363 194.171 266.096 194.868 265.114 195.886C264.463 196.561 263.954 197.36 263.618 198.236C263.283 199.112 263.127 200.047 263.159 200.984C263.146 205.809 267.394 212.12 269.266 214.671C269.365 214.81 269.496 214.924 269.648 215.002C269.8 215.081 269.969 215.121 270.14 215.121C270.311 215.121 270.479 215.081 270.631 215.002C270.783 214.924 270.914 214.81 271.013 214.671C272.885 212.12 277.133 205.809 277.133 200.984C277.183 199.571 276.802 198.175 276.042 196.982C275.282 195.789 274.178 194.855 272.876 194.303C271.574 193.75 270.135 193.606 268.749 193.889Z" fill="#FFD429"/>
</g>
<g filter="url(#filter6_d_1588_71206)">
<path d="M268.634 101.5C269.019 102.167 269.981 102.167 270.366 101.5L275.995 91.75C276.38 91.0833 275.899 90.25 275.129 90.25H263.871C263.101 90.25 262.62 91.0833 263.005 91.75L268.634 101.5Z" fill="#FFD429"/>
</g>
<path fill-rule="evenodd" clip-rule="evenodd" d="M282.758 46.0003H256.242L264.769 35.067C267.171 31.9868 271.829 31.9868 274.232 35.067L282.758 46.0003Z" fill="url(#paint4_linear_1588_71206)"/>
</g>
<defs>
<filter id="filter0_d_1588_71206" x="196" y="105" width="69" height="87" filterUnits="userSpaceOnUse" color-interpolation-filters="sRGB">
<feFlood flood-opacity="0" result="BackgroundImageFix"/>
<feColorMatrix in="SourceAlpha" type="matrix" values="0 0 0 0 0 0 0 0 0 0 0 0 0 0 0 0 0 0 127 0" result="hardAlpha"/>
<feOffset dy="4"/>
<feGaussianBlur stdDeviation="12"/>
<feComposite in2="hardAlpha" operator="out"/>
<feColorMatrix type="matrix" values="0 0 0 0 0 0 0 0 0 0 0 0 0 0 0 0 0 0 0.4 0"/>
<feBlend mode="normal" in2="BackgroundImageFix" result="effect1_dropShadow_1588_71206"/>
<feBlend mode="normal" in="SourceGraphic" in2="effect1_dropShadow_1588_71206" result="shape"/>
</filter>
<filter id="filter1_d_1588_71206" x="273" y="105" width="69" height="87" filterUnits="userSpaceOnUse" color-interpolation-filters="sRGB">
<feFlood flood-opacity="0" result="BackgroundImageFix"/>
<feColorMatrix in="SourceAlpha" type="matrix" values="0 0 0 0 0 0 0 0 0 0 0 0 0 0 0 0 0 0 127 0" result="hardAlpha"/>
<feOffset dy="4"/>
<feGaussianBlur stdDeviation="12"/>
<feComposite in2="hardAlpha" operator="out"/>
<feColorMatrix type="matrix" values="0 0 0 0 0 0 0 0 0 0 0 0 0 0 0 0 0 0 0.4 0"/>
<feBlend mode="normal" in2="BackgroundImageFix" result="effect1_dropShadow_1588_71206"/>
<feBlend mode="normal" in="SourceGraphic" in2="effect1_dropShadow_1588_71206" result="shape"/>
</filter>
<filter id="filter2_d_1588_71206" x="216" y="12.7566" width="107" height="184.243" filterUnits="userSpaceOnUse" color-interpolation-filters="sRGB">
<feFlood flood-opacity="0" result="BackgroundImageFix"/>
<feColorMatrix in="SourceAlpha" type="matrix" values="0 0 0 0 0 0 0 0 0 0 0 0 0 0 0 0 0 0 127 0" result="hardAlpha"/>
<feOffset dy="4"/>
<feGaussianBlur stdDeviation="12"/>
<feComposite in2="hardAlpha" operator="out"/>
<feColorMatrix type="matrix" values="0 0 0 0 0 0 0 0 0 0 0 0 0 0 0 0 0 0 0.4 0"/>
<feBlend mode="normal" in2="BackgroundImageFix" result="effect1_dropShadow_1588_71206"/>
<feBlend mode="normal" in="SourceGraphic" in2="effect1_dropShadow_1588_71206" result="shape"/>
</filter>
<filter id="filter3_d_1588_71206" x="229.746" y="163.794" width="80.8057" height="98.1484" filterUnits="userSpaceOnUse" color-interpolation-filters="sRGB">
<feFlood flood-opacity="0" result="BackgroundImageFix"/>
<feColorMatrix in="SourceAlpha" type="matrix" values="0 0 0 0 0 0 0 0 0 0 0 0 0 0 0 0 0 0 127 0" result="hardAlpha"/>
<feOffset dy="4"/>
<feGaussianBlur stdDeviation="12"/>
<feComposite in2="hardAlpha" operator="out"/>
<feColorMatrix type="matrix" values="0 0 0 0 0 0 0 0 0 0 0 0 0 0 0 0 0 0 0.4 0"/>
<feBlend mode="normal" in2="BackgroundImageFix" result="effect1_dropShadow_1588_71206"/>
<feBlend mode="normal" in="SourceGraphic" in2="effect1_dropShadow_1588_71206" result="shape"/>
</filter>
<filter id="filter4_i_1588_71206" x="256" y="81" width="27" height="29" filterUnits="userSpaceOnUse" color-interpolation-filters="sRGB">
<feFlood flood-opacity="0" result="BackgroundImageFix"/>
<feBlend mode="normal" in="SourceGraphic" in2="BackgroundImageFix" result="shape"/>
<feColorMatrix in="SourceAlpha" type="matrix" values="0 0 0 0 0 0 0 0 0 0 0 0 0 0 0 0 0 0 127 0" result="hardAlpha"/>
<feOffset dy="2"/>
<feGaussianBlur stdDeviation="2"/>
<feComposite in2="hardAlpha" operator="arithmetic" k2="-1" k3="1"/>
<feColorMatrix type="matrix" values="0 0 0 0 0 0 0 0 0 0 0 0 0 0 0 0 0 0 0.12 0"/>
<feBlend mode="normal" in2="shape" result="effect1_innerShadow_1588_71206"/>
</filter>
<filter id="filter5_d_1588_71206" x="255.155" y="189.748" width="29.9819" height="37.3738" filterUnits="userSpaceOnUse" color-interpolation-filters="sRGB">
<feFlood flood-opacity="0" result="BackgroundImageFix"/>
<feColorMatrix in="SourceAlpha" type="matrix" values="0 0 0 0 0 0 0 0 0 0 0 0 0 0 0 0 0 0 127 0" result="hardAlpha"/>
<feOffset dy="4"/>
<feGaussianBlur stdDeviation="4"/>
<feComposite in2="hardAlpha" operator="out"/>
<feColorMatrix type="matrix" values="0 0 0 0 1 0 0 0 0 0.831373 0 0 0 0 0.160784 0 0 0 0.2 0"/>
<feBlend mode="normal" in2="BackgroundImageFix" result="effect1_dropShadow_1588_71206"/>
<feBlend mode="normal" in="SourceGraphic" in2="effect1_dropShadow_1588_71206" result="shape"/>
</filter>
<filter id="filter6_d_1588_71206" x="258.869" y="90.25" width="21.2617" height="19.75" filterUnits="userSpaceOnUse" color-interpolation-filters="sRGB">
<feFlood flood-opacity="0" result="BackgroundImageFix"/>
<feColorMatrix in="SourceAlpha" type="matrix" values="0 0 0 0 0 0 0 0 0 0 0 0 0 0 0 0 0 0 127 0" result="hardAlpha"/>
<feOffset dy="4"/>
<feGaussianBlur stdDeviation="2"/>
<feComposite in2="hardAlpha" operator="out"/>
<feColorMatrix type="matrix" values="0 0 0 0 0 0 0 0 0 0 0 0 0 0 0 0 0 0 0.1 0"/>
<feBlend mode="normal" in2="BackgroundImageFix" result="effect1_dropShadow_1588_71206"/>
<feBlend mode="normal" in="SourceGraphic" in2="effect1_dropShadow_1588_71206" result="shape"/>
</filter>
<linearGradient id="paint0_linear_1588_71206" x1="241" y1="153.693" x2="220.004" y2="154.148" gradientUnits="userSpaceOnUse">
<stop stop-color="#111111"/>
<stop offset="1" stop-color="#232323"/>
</linearGradient>
<linearGradient id="paint1_linear_1588_71206" x1="297" y1="153.693" x2="317.996" y2="154.148" gradientUnits="userSpaceOnUse">
<stop stop-color="#222222"/>
<stop offset="1" stop-color="#3A3A3A"/>
</linearGradient>
<linearGradient id="paint2_linear_1588_71206" x1="299" y1="132" x2="240" y2="133" gradientUnits="userSpaceOnUse">
<stop stop-color="#4A4A4A"/>
<stop offset="1" stop-color="#222222"/>
</linearGradient>
<linearGradient id="paint3_linear_1588_71206" x1="291.473" y1="198.324" x2="263.677" y2="228.451" gradientUnits="userSpaceOnUse">
<stop stop-color="#4A4A4A"/>
<stop offset="1" stop-color="#232323"/>
</linearGradient>
<linearGradient id="paint4_linear_1588_71206" x1="269.5" y1="32.7568" x2="269.5" y2="46.0003" gradientUnits="userSpaceOnUse">
<stop stop-color="#363636"/>
<stop offset="1" stop-color="#252525"/>
</linearGradient>
</defs>
</svg>
