<svg width="90" height="24" viewBox="0 0 90 24" fill="none" xmlns="http://www.w3.org/2000/svg">
<path d="M72.0166 17.1067L77.8134 11.9573L72.0166 6.80786H75.6653L79.6083 10.3389L83.5366 6.80786H87.2L81.4033 11.9573L87.2 17.1067H83.5366L79.6083 13.5757L75.6653 17.1067H72.0166Z" fill="white"/>
<path d="M70.7442 6.80786V9.02947H65.7419V17.1067H63.0936V9.02947H58.0913V6.80786H70.7442Z" fill="white"/>
<path d="M52.8791 6.80786C55.2184 6.80786 56.822 8.29384 56.822 10.589C56.822 12.8842 55.2184 14.3554 52.8791 14.3554H47.4354V17.1067H44.7871V6.80786H52.8791ZM52.1434 12.1338C52.9379 12.1338 54.1738 12.1338 54.1738 10.589C54.1738 9.02947 52.9379 9.02947 52.1434 9.02947H47.4354V12.1338H52.1434Z" fill="white"/>
<path d="M42.9471 11.9426C42.9471 15.5177 40.9903 17.2538 36.4736 17.2538C31.9421 17.2538 30 15.5324 30 11.9426V6.80786H32.6483V11.9426C32.6483 13.3844 33.0455 15.0322 36.4736 15.0322C39.9016 15.0322 40.2988 13.3697 40.2988 11.9426V6.80786H42.9471V11.9426Z" fill="white"/>
<rect x="0.2" y="0.2" width="23.6" height="23.6" rx="5.8" stroke="white" stroke-width="0.4"/>
<path d="M10.1909 6.27724C10.1909 6.07329 10.0255 5.90796 9.82158 5.90796H6.27651C6.07256 5.90796 5.90723 6.07329 5.90723 6.27724V9.82231C5.90723 10.0263 6.07256 10.1916 6.27651 10.1916H9.53778C9.81863 10.1916 9.99669 10.4927 9.86137 10.7388L5.95238 17.8483C5.88113 17.9779 6.0234 18.1202 6.15298 18.0489L13.2626 14.1399C13.5087 14.0046 13.8098 14.1826 13.8098 14.4635V17.651C13.8098 17.855 13.9751 18.0203 14.1791 18.0203H17.7241C17.9281 18.0203 18.0934 17.855 18.0934 17.651V14.1059C18.0934 13.902 17.9281 13.7367 17.7241 13.7367H14.5034C14.2226 13.7367 14.0445 13.4356 14.1798 13.1895L18.0483 6.15364C18.1195 6.02406 17.9773 5.88179 17.8477 5.95304L10.7381 9.8621C10.4919 9.99741 10.1909 9.81936 10.1909 9.53851V6.27724Z" fill="white"/>
</svg>
