<svg width="44" height="44" viewBox="0 0 44 44" fill="none" xmlns="http://www.w3.org/2000/svg">
<g filter="url(#filter0_b_7534_63944)">
<rect width="44" height="44" rx="22" fill="#F5F5F5"/>
</g>
<path d="M30.3741 15.431C28.0852 12.6177 23.9379 12.1837 21.1104 14.4624L18.9414 16.2105L20.0248 17.5424L22.1939 15.7944C22.6903 15.3943 23.2611 15.0954 23.8736 14.9148C24.4862 14.7342 25.1284 14.6755 25.7637 14.742C26.3991 14.8084 27.015 14.9988 27.5764 15.3021C28.1378 15.6055 28.6337 16.016 29.0357 16.5101C29.4378 17.0042 29.7381 17.5722 29.9195 18.1818C30.1009 18.7914 30.16 19.4306 30.0932 20.0629C30.0264 20.6952 29.8351 21.3082 29.5303 21.867C29.2255 22.4257 28.8131 22.9192 28.3166 23.3193L25.9926 25.1922L27.0761 26.5241L29.4001 24.6513C30.0724 24.1096 30.631 23.4414 31.0438 22.6848C31.4566 21.9282 31.7156 21.0982 31.8061 20.242C31.8965 19.3857 31.8166 18.5202 31.5709 17.6947C31.3252 16.8693 30.9185 16.1001 30.3741 15.431ZM21.8901 28.4991C21.3937 28.8992 20.8229 29.1981 20.2104 29.3787C19.5978 29.5592 18.9556 29.618 18.3203 29.5515C17.6849 29.4851 17.069 29.2947 16.5076 28.9914C15.9462 28.688 15.4503 28.2775 15.0483 27.7834C14.6462 27.2893 14.3459 26.7213 14.1645 26.1117C13.9831 25.5021 13.924 24.8629 13.9908 24.2306C14.0576 23.5983 14.2489 22.9853 14.5537 22.4265C14.8585 21.8678 15.2709 21.3743 15.7674 20.9742L18.1561 19.0492L17.0726 17.7173L14.6839 19.6422C11.8571 21.9202 11.421 26.0484 13.7099 28.8618C15.9988 31.6751 20.1468 32.1091 22.9736 29.8311L25.2363 28.0076L24.1528 26.6756L21.8901 28.4991Z" fill="#111111" stroke="#111111" stroke-width="0.202048"/>
<rect x="17.7549" y="24.2924" width="9.5163" height="2" rx="1" transform="rotate(-40 17.7549 24.2924)" fill="#111111"/>
<defs>
<filter id="filter0_b_7534_63944" x="-64" y="-64" width="172" height="172" filterUnits="userSpaceOnUse" color-interpolation-filters="sRGB">
<feFlood flood-opacity="0" result="BackgroundImageFix"/>
<feGaussianBlur in="BackgroundImageFix" stdDeviation="32"/>
<feComposite in2="SourceAlpha" operator="in" result="effect1_backgroundBlur_7534_63944"/>
<feBlend mode="normal" in="SourceGraphic" in2="effect1_backgroundBlur_7534_63944" result="shape"/>
</filter>
</defs>
</svg>
