<svg width="25" height="24" viewBox="0 0 25 24" fill="none" xmlns="http://www.w3.org/2000/svg">
<path d="M20.5 8C20.5 5.79086 18.7091 4 16.5 4H2.5V14C2.5 16.2091 4.29086 18 6.5 18H10.5C10.5 16.9565 11.0328 16.0375 11.8411 15.5C11.0328 14.9625 10.5 14.0435 10.5 13C10.5 11.3431 11.8431 10 13.5 10H20.5V8Z" fill="#4D4D4D"/>
<rect x="5.5" y="7" width="5" height="2" fill="white"/>
<path fill-rule="evenodd" clip-rule="evenodd" d="M14.5 11.75C13.3954 11.75 12.5 12.6454 12.5 13.75C12.5 14.8546 13.3954 15.75 14.5 15.75C13.3954 15.75 12.5 16.6454 12.5 17.75C12.5 18.8546 13.3954 19.75 14.5 19.75H20.5C21.6046 19.75 22.5 18.8546 22.5 17.75C22.5 16.6454 21.6046 15.75 20.5 15.75C21.6046 15.75 22.5 14.8546 22.5 13.75C22.5 12.6454 21.6046 11.75 20.5 11.75H14.5Z" fill="#EFAF00"/>
</svg>
