<svg width="24" height="24" viewBox="0 0 24 24" fill="none" xmlns="http://www.w3.org/2000/svg">
<path d="M2.91667 3.91667H16.4C17.3952 3.91667 18.0865 3.91738 18.6241 3.96131C19.1511 4.00436 19.4492 4.08431 19.6728 4.19823C20.1589 4.44591 20.5541 4.84111 20.8018 5.32719L21.6185 4.91103L20.8018 5.32719C20.9157 5.55077 20.9956 5.84891 21.0387 6.37585C21.0826 6.9135 21.0833 7.60478 21.0833 8.6V21.0833H7.6C6.60478 21.0833 5.9135 21.0826 5.37585 21.0387C4.84891 20.9956 4.55077 20.9157 4.32719 20.8018L3.91103 21.6185L4.32719 20.8018C3.84111 20.5541 3.44591 20.1589 3.19823 19.6728C3.08431 19.4492 3.00436 19.1511 2.96131 18.6241C2.91738 18.0865 2.91667 17.3952 2.91667 16.4V3.91667Z" fill="#4D4D4D" stroke="#4D4D4D" stroke-width="1.83333"/>
<path d="M5.97656 16L9.97656 12.4L12.9983 14.8L17.9766 10" stroke="white" stroke-width="1.74682"/>
<rect x="7" y="2" width="1.83" height="4" fill="#EFAF00"/>
<rect x="15.1719" y="2" width="1.83" height="4" fill="#EFAF00"/>
</svg>
