<svg width="24" height="25" viewBox="0 0 24 25" fill="none" xmlns="http://www.w3.org/2000/svg">
<g clip-path="url(#clip0_4572_45869)">
<path d="M11.902 24.0501C5.55207 24.0501 0.384766 18.8828 0.384766 12.5328C0.384766 6.18293 5.55207 1.01562 11.902 1.01562C12.3778 1.01562 12.7646 1.40241 12.7646 1.87823C12.7646 2.35406 12.3778 2.74084 11.902 2.74084C6.50372 2.74084 2.11277 7.1318 2.11277 12.5301C2.11277 17.9283 6.50372 22.3221 11.902 22.3221C17.3002 22.3221 21.6912 17.9311 21.6912 12.5328C21.6912 12.057 22.078 11.6702 22.5538 11.6702C23.0296 11.6702 23.4164 12.057 23.4164 12.5328C23.4192 18.8828 18.2519 24.0501 11.902 24.0501Z" fill="white"/>
<path d="M13.1965 7.08984V8.20984H15.4365V10.4498H10.9565C10.8166 10.4496 10.6816 10.5017 10.5782 10.596C10.4748 10.6903 10.4104 10.8199 10.3978 10.9592C10.3851 11.0986 10.4251 11.2377 10.5099 11.349C10.5946 11.4604 10.718 11.536 10.8557 11.5609L10.9565 11.5698H13.1965C13.5642 11.5698 13.9284 11.6422 14.2681 11.7829C14.6079 11.9236 14.9166 12.1298 15.1766 12.3898C15.4366 12.6499 15.6429 12.9585 15.7836 13.2983C15.9244 13.638 15.9968 14.0021 15.9968 14.3698C15.9968 14.7376 15.9244 15.1017 15.7836 15.4414C15.6429 15.7811 15.4366 16.0898 15.1766 16.3498C14.9166 16.6098 14.6079 16.8161 14.2681 16.9568C13.9284 17.0975 13.5642 17.1699 13.1965 17.1698V18.2898H10.9565V17.1698H8.71652V14.9298H13.1965C13.3365 14.9301 13.4714 14.878 13.5748 14.7837C13.6783 14.6894 13.7426 14.5598 13.7553 14.4204C13.7679 14.2811 13.7279 14.142 13.6432 14.0307C13.5584 13.9193 13.435 13.8437 13.2973 13.8188L13.1965 13.8098H10.9565C10.5888 13.8099 10.2247 13.7375 9.88492 13.5968C9.54518 13.4561 9.23648 13.2498 8.97645 12.9898C8.71641 12.7298 8.51014 12.4211 8.36941 12.0814C8.22868 11.7417 8.15625 11.3776 8.15625 11.0098C8.15625 10.6421 8.22868 10.278 8.36941 9.93827C8.51014 9.59854 8.71641 9.28986 8.97645 9.02985C9.23648 8.76984 9.54518 8.5636 9.88492 8.4229C10.2247 8.28221 10.5888 8.20981 10.9565 8.20984V7.08984H13.1965Z" fill="white"/>
<path d="M16.6383 5.59427C16.8581 5.59427 17.0807 5.5108 17.2477 5.34106L20.0971 2.49167C20.4338 2.15497 20.4338 1.6068 20.0971 1.2701C19.7604 0.933404 19.2122 0.933404 18.8755 1.2701L16.0289 4.12227C15.6922 4.45897 15.6922 5.00714 16.0289 5.34384C16.1958 5.5108 16.4185 5.59427 16.6383 5.59427Z" fill="white"/>
<path d="M19.4875 8.44584C19.7073 8.44584 19.93 8.36236 20.0969 8.19262C20.4336 7.85592 20.4336 7.30775 20.0969 6.97105L17.2475 4.12166C16.9108 3.78497 16.3627 3.78497 16.026 4.12166C15.6893 4.45836 15.6893 5.00653 16.026 5.34323L18.8754 8.19262C19.0451 8.35958 19.2677 8.44584 19.4875 8.44584Z" fill="white"/>
<path d="M16.7972 5.59436H22.5544C23.0302 5.59436 23.417 5.20758 23.417 4.73175C23.417 4.25592 23.0302 3.86914 22.5544 3.86914H16.7972C16.3214 3.86914 15.9346 4.25592 15.9346 4.73175C15.9346 5.20758 16.3186 5.59436 16.7972 5.59436Z" fill="white"/>
</g>
<defs>
<clipPath id="clip0_4572_45869">
<rect width="24" height="24" fill="white" transform="translate(0 0.5)"/>
</clipPath>
</defs>
</svg>
