<svg width="24" height="23" viewBox="0 0 24 23" fill="none" xmlns="http://www.w3.org/2000/svg">
<g clip-path="url(#clip0_4572_45913)">
<path d="M21.752 22.5002C21.427 22.5002 21.102 22.3752 20.865 22.1381L18.8878 19.4819L9.03199 19.4919C8.76727 19.4919 8.51335 19.387 8.32589 19.2001C8.13842 19.0132 8.0327 18.7596 8.03191 18.4949L8.00391 8.50404C8.00364 8.37229 8.02942 8.24178 8.07975 8.12002C8.13007 7.99825 8.20397 7.88763 8.29718 7.79452C8.39039 7.7014 8.50108 7.62762 8.62289 7.57741C8.7447 7.5272 8.87524 7.50156 9.00699 7.50196L22.0351 7.54296C22.3001 7.54376 22.554 7.64975 22.741 7.83764C22.9279 8.02554 23.0327 8.27998 23.0321 8.54504L23.0021 21.2501C23.0021 21.7501 22.7021 22.2132 22.2271 22.4002C22.0771 22.4752 21.915 22.5002 21.752 22.5002ZM10.0051 17.4928L19.5809 17.5258C19.9189 17.5258 20.1709 17.6778 20.4079 17.9028L20.988 18.7229L21.002 9.49912H10.0011L10.0051 17.4928Z" fill="white"/>
<path d="M2.18731 18.5013C2.03183 18.5052 1.87763 18.4723 1.73727 18.4053C1.51965 18.3138 1.33374 18.1604 1.20268 17.9641C1.07162 17.7678 1.00121 17.5372 1.00021 17.3012L0.991211 1.50789C0.991211 1.24266 1.09658 0.988281 1.28413 0.80073C1.47168 0.613178 1.72605 0.507812 1.99129 0.507812L18.9947 0.511813C19.2596 0.511812 19.5136 0.616903 19.7011 0.804022C19.8886 0.991142 19.9942 1.245 19.9948 1.50989L20.0018 5.3002C20.0018 5.96026 19.7067 6.4713 19.0537 6.4713C18.3996 6.4713 18.0246 6.11727 18.0246 5.45722L18.0076 2.50898L2.98037 2.45097L2.98737 14.622L3.71643 14.0829C3.94145 13.8549 4.24148 13.7129 4.5615 13.7129H5.7506V16.1131H5.05054L3.01938 18.1652C2.79709 18.3825 2.49809 18.5032 2.18731 18.5013Z" fill="white"/>
</g>
<defs>
<clipPath id="clip0_4572_45913">
<rect width="24" height="22.001" fill="white" transform="translate(0 0.5)"/>
</clipPath>
</defs>
</svg>
