<svg width="24" height="24" viewBox="0 0 24 24" fill="none" xmlns="http://www.w3.org/2000/svg">
<rect x="3.09849" y="1.9625" width="17.2054" height="19.1185" rx="1.90706" stroke="white" stroke-width="1.925"/>
<mask id="path-2-inside-1_1176_12703" fill="white">
<path fill-rule="evenodd" clip-rule="evenodd" d="M12.3128 14.5668C12 15.1806 12 15.9842 12 17.5913V18.4087C12 20.0158 12 20.8194 12.3128 21.4332C12.5879 21.9731 13.0269 22.4121 13.5668 22.6872C14.1806 23 14.9842 23 16.5913 23H17.4087C19.0158 23 19.8194 23 20.4332 22.6872C20.9731 22.4121 21.4121 21.9731 21.6872 21.4332C22 20.8194 22 20.0158 22 18.4087V17.5913C22 15.9842 22 15.1806 21.6872 14.5668C21.4121 14.0269 20.9731 13.5879 20.4332 13.3128C19.8194 13 19.0158 13 17.4087 13H16.5913C14.9842 13 14.1806 13 13.5668 13.3128C13.0269 13.5879 12.5879 14.0269 12.3128 14.5668ZM16.7652 16.1304C16.3426 16.1304 16 16.473 16 16.8957V18.2348C16 18.6574 16.3426 19 16.7652 19C16.7852 19 16.8051 18.9992 16.8247 18.9977H18.1044C18.527 18.9977 18.8696 18.6551 18.8696 18.2325C18.8696 17.8099 18.527 17.4673 18.1044 17.4673H17.5304V16.8957C17.5304 16.473 17.1878 16.1304 16.7652 16.1304Z"/>
</mask>
<path fill-rule="evenodd" clip-rule="evenodd" d="M12.3128 14.5668C12 15.1806 12 15.9842 12 17.5913V18.4087C12 20.0158 12 20.8194 12.3128 21.4332C12.5879 21.9731 13.0269 22.4121 13.5668 22.6872C14.1806 23 14.9842 23 16.5913 23H17.4087C19.0158 23 19.8194 23 20.4332 22.6872C20.9731 22.4121 21.4121 21.9731 21.6872 21.4332C22 20.8194 22 20.0158 22 18.4087V17.5913C22 15.9842 22 15.1806 21.6872 14.5668C21.4121 14.0269 20.9731 13.5879 20.4332 13.3128C19.8194 13 19.0158 13 17.4087 13H16.5913C14.9842 13 14.1806 13 13.5668 13.3128C13.0269 13.5879 12.5879 14.0269 12.3128 14.5668ZM16.7652 16.1304C16.3426 16.1304 16 16.473 16 16.8957V18.2348C16 18.6574 16.3426 19 16.7652 19C16.7852 19 16.8051 18.9992 16.8247 18.9977H18.1044C18.527 18.9977 18.8696 18.6551 18.8696 18.2325C18.8696 17.8099 18.527 17.4673 18.1044 17.4673H17.5304V16.8957C17.5304 16.473 17.1878 16.1304 16.7652 16.1304Z" fill="white"/>
<path d="M12.3128 14.5668L10.9491 13.872V13.872L12.3128 14.5668ZM12.3128 21.4332L13.6764 20.7384V20.7384L12.3128 21.4332ZM13.5668 22.6872L14.2616 21.3236L13.5668 22.6872ZM20.4332 22.6872L19.7384 21.3236H19.7384L20.4332 22.6872ZM21.6872 21.4332L20.3236 20.7384V20.7384L21.6872 21.4332ZM21.6872 14.5668L20.3236 15.2616L21.6872 14.5668ZM20.4332 13.3128L19.7384 14.6764H19.7384L20.4332 13.3128ZM13.5668 13.3128L12.872 11.9491H12.872L13.5668 13.3128ZM16.8247 18.9977V17.4673H16.7659L16.7074 17.4718L16.8247 18.9977ZM17.5304 17.4673H16V18.9977H17.5304V17.4673ZM13.5304 17.5913C13.5304 16.7625 13.5316 16.2329 13.5644 15.8312C13.5958 15.4473 13.6483 15.3168 13.6764 15.2616L10.9491 13.872C10.6645 14.4306 10.5606 15.0088 10.5137 15.582C10.4684 16.1372 10.4696 16.813 10.4696 17.5913H13.5304ZM13.5304 18.4087V17.5913H10.4696V18.4087H13.5304ZM13.6764 20.7384C13.6483 20.6832 13.5958 20.5527 13.5644 20.1688C13.5316 19.7671 13.5304 19.2375 13.5304 18.4087H10.4696C10.4696 19.187 10.4684 19.8628 10.5137 20.418C10.5606 20.9912 10.6645 21.5694 10.9491 22.128L13.6764 20.7384ZM14.2616 21.3236C14.0096 21.1952 13.8048 20.9904 13.6764 20.7384L10.9491 22.128C11.371 22.9559 12.0441 23.629 12.872 24.0509L14.2616 21.3236ZM16.5913 21.4696C15.7625 21.4696 15.2329 21.4684 14.8312 21.4356C14.4473 21.4042 14.3168 21.3517 14.2616 21.3236L12.872 24.0509C13.4306 24.3355 14.0088 24.4394 14.582 24.4863C15.1372 24.5316 15.813 24.5304 16.5913 24.5304V21.4696ZM17.4087 21.4696H16.5913V24.5304H17.4087V21.4696ZM19.7384 21.3236C19.6832 21.3517 19.5527 21.4042 19.1688 21.4356C18.7671 21.4684 18.2375 21.4696 17.4087 21.4696V24.5304C18.187 24.5304 18.8628 24.5316 19.418 24.4863C19.9912 24.4394 20.5694 24.3355 21.128 24.0509L19.7384 21.3236ZM20.3236 20.7384C20.1952 20.9904 19.9904 21.1952 19.7384 21.3236L21.128 24.0509C21.9559 23.629 22.629 22.9559 23.0509 22.128L20.3236 20.7384ZM20.4696 18.4087C20.4696 19.2375 20.4684 19.7671 20.4356 20.1688C20.4042 20.5527 20.3517 20.6832 20.3236 20.7384L23.0509 22.128C23.3355 21.5694 23.4394 20.9912 23.4863 20.418C23.5316 19.8628 23.5304 19.187 23.5304 18.4087H20.4696ZM20.4696 17.5913V18.4087H23.5304V17.5913H20.4696ZM20.3236 15.2616C20.3517 15.3168 20.4042 15.4473 20.4356 15.8312C20.4684 16.2329 20.4696 16.7625 20.4696 17.5913H23.5304C23.5304 16.813 23.5316 16.1372 23.4863 15.582C23.4394 15.0088 23.3355 14.4306 23.0509 13.872L20.3236 15.2616ZM19.7384 14.6764C19.9904 14.8048 20.1952 15.0096 20.3236 15.2616L23.0509 13.872C22.629 13.0441 21.9559 12.371 21.128 11.9491L19.7384 14.6764ZM17.4087 14.5304C18.2375 14.5304 18.7671 14.5316 19.1688 14.5644C19.5527 14.5958 19.6832 14.6483 19.7384 14.6764L21.128 11.9491C20.5694 11.6645 19.9912 11.5606 19.418 11.5137C18.8628 11.4684 18.187 11.4696 17.4087 11.4696V14.5304ZM16.5913 14.5304H17.4087V11.4696H16.5913V14.5304ZM14.2616 14.6764C14.3168 14.6483 14.4473 14.5958 14.8312 14.5644C15.2329 14.5316 15.7625 14.5304 16.5913 14.5304V11.4696C15.813 11.4696 15.1372 11.4684 14.582 11.5137C14.0088 11.5606 13.4306 11.6645 12.872 11.9491L14.2616 14.6764ZM13.6764 15.2616C13.8048 15.0096 14.0096 14.8048 14.2616 14.6764L12.872 11.9491C12.0441 12.371 11.371 13.0441 10.9491 13.872L13.6764 15.2616ZM17.5304 16.8957C17.5304 17.3183 17.1878 17.6609 16.7652 17.6609V14.6C15.4974 14.6 14.4696 15.6278 14.4696 16.8957H17.5304ZM17.5304 18.2348V16.8957H14.4696V18.2348H17.5304ZM16.7652 17.4696C17.1878 17.4696 17.5304 17.8122 17.5304 18.2348H14.4696C14.4696 19.5026 15.4974 20.5304 16.7652 20.5304V17.4696ZM16.7074 17.4718C16.7268 17.4703 16.7461 17.4696 16.7652 17.4696V20.5304C16.8244 20.5304 16.8834 20.5282 16.942 20.5237L16.7074 17.4718ZM18.1044 17.4673H16.8247V20.5282H18.1044V17.4673ZM17.3392 18.2325C17.3392 17.8099 17.6818 17.4673 18.1044 17.4673V20.5282C19.3723 20.5282 20.4001 19.5004 20.4001 18.2325H17.3392ZM18.1044 18.9977C17.6818 18.9977 17.3392 18.6551 17.3392 18.2325H20.4001C20.4001 16.9647 19.3723 15.9369 18.1044 15.9369V18.9977ZM17.5304 18.9977H18.1044V15.9369H17.5304V18.9977ZM16 16.8957V17.4673H19.0609V16.8957H16ZM16.7652 17.6609C16.3426 17.6609 16 17.3183 16 16.8957H19.0609C19.0609 15.6278 18.0331 14.6 16.7652 14.6V17.6609Z" fill="white" mask="url(#path-2-inside-1_1176_12703)"/>
<rect x="5.96143" y="4.82422" width="5.73913" height="1.925" rx="0.9625" fill="white"/>
<rect x="5.96191" y="8.64844" width="9.56522" height="1.925" rx="0.9625" fill="white"/>
</svg>
