<svg width="24" height="24" viewBox="0 0 24 24" fill="none" xmlns="http://www.w3.org/2000/svg">
<path d="M18.75 4H6.25C5.55965 4 5 4.55965 5 5.25V17.75C5 18.4404 5.55965 19 6.25 19H18.75C19.4404 19 20 18.4404 20 17.75V5.25C20 4.55965 19.4404 4 18.75 4Z" stroke="#333333" stroke-width="1.25" stroke-linejoin="round"/>
<path d="M12.5 13.4274V11.7607C13.8807 11.7607 15 10.6415 15 9.26074C15 7.88003 13.8807 6.76074 12.5 6.76074C11.1193 6.76074 10 7.88003 10 9.26074" stroke="#333333" stroke-width="1.25" stroke-linecap="round" stroke-linejoin="round"/>
<path fill-rule="evenodd" clip-rule="evenodd" d="M12.4999 17.1771C13.0752 17.1771 13.5416 16.7107 13.5416 16.1354C13.5416 15.5601 13.0752 15.0938 12.4999 15.0938C11.9246 15.0938 11.4583 15.5601 11.4583 16.1354C11.4583 16.7107 11.9246 17.1771 12.4999 17.1771Z" fill="#333333"/>
</svg>
