<svg width="28" height="28" viewBox="0 0 28 28" fill="none" xmlns="http://www.w3.org/2000/svg">
<path d="M6.48655 7.36589C5.93732 6.41624 5.76078 5.29632 5.99124 4.22376C6.2217 3.15121 6.84269 2.20264 7.73353 1.56242C8.62437 0.922196 9.72142 0.636043 10.8115 0.759575C11.9015 0.883108 12.9067 1.4075 13.6317 2.23084C14.3567 1.4075 15.3619 0.883108 16.4519 0.759575C17.542 0.636043 18.639 0.922196 19.5299 1.56242C20.4207 2.20264 21.0417 3.15121 21.2722 4.22376C21.5026 5.29632 21.3261 6.41624 20.7769 7.36589H26.5264H6.48655ZM16.9475 7.36589C17.3847 7.36589 17.8121 7.23625 18.1756 6.99335C18.5391 6.75046 18.8224 6.40522 18.9898 6.0013C19.1571 5.59738 19.2008 5.15291 19.1155 4.72411C19.0303 4.29531 18.8197 3.90144 18.5106 3.59229C18.2014 3.28314 17.8075 3.07261 17.3787 2.98731C16.9499 2.90202 16.5055 2.9458 16.1016 3.11311C15.6976 3.28042 15.3524 3.56374 15.1095 3.92726C14.8666 4.29078 14.737 4.71817 14.737 5.15537V7.36589H16.9475ZM12.5264 7.36589V5.15537C12.5264 4.71817 12.3968 4.29078 12.1539 3.92726C11.911 3.56374 11.5658 3.28042 11.1618 3.11311C10.7579 2.9458 10.3135 2.90202 9.88467 2.98731C9.45586 3.07261 9.06199 3.28314 8.75284 3.59229C8.44369 3.90144 8.23316 4.29531 8.14787 4.72411C8.06257 5.15291 8.10635 5.59738 8.27366 6.0013C8.44097 6.40522 8.7243 6.75046 9.08781 6.99335C9.45133 7.23625 9.87872 7.36589 10.3159 7.36589H12.5264Z" fill="#111111"/>
<rect x="2" y="8" width="23" height="7" rx="3" stroke="#111111" stroke-width="2"/>
<path d="M4 15H23V22C23 23.6569 21.6569 25 20 25H7C5.34315 25 4 23.6569 4 22V15Z" stroke="#111111" stroke-width="2"/>
<path d="M4 15H23V22C23 23.6569 21.6569 25 20 25H7C5.34315 25 4 23.6569 4 22V15Z" stroke="#111111" stroke-width="2"/>
<rect x="12.5" y="15" width="2" height="10" fill="#111111"/>
</svg>
