<svg width="24" height="24" viewBox="0 0 24 24" fill="none" xmlns="http://www.w3.org/2000/svg">
<path d="M9.95158 20.0201C8.55529 19.6044 7.31242 18.8326 6.32828 17.8099C6.69542 17.3748 6.91667 16.8126 6.91667 16.1987C6.91667 14.818 5.79738 13.6987 4.41667 13.6987C4.33315 13.6987 4.25058 13.7029 4.16916 13.7109C4.05825 13.1686 4 12.6071 4 12.0321C4 11.161 4.13365 10.3211 4.38158 9.53182C4.39325 9.53198 4.40495 9.53207 4.41667 9.53207C5.79738 9.53207 6.91667 8.41278 6.91667 7.03207C6.91667 6.63569 6.82442 6.2609 6.66025 5.9279C7.62396 5.03182 8.80021 4.3612 10.105 4C10.5185 4.81044 11.3611 5.36541 12.3333 5.36541C13.3055 5.36541 14.1482 4.81044 14.5616 4C15.8665 4.3612 17.0427 5.03182 18.0064 5.9279C17.8422 6.2609 17.75 6.63569 17.75 7.03207C17.75 8.41278 18.8693 9.53207 20.25 9.53207C20.2617 9.53207 20.2734 9.53198 20.2851 9.53182C20.533 10.3211 20.6667 11.161 20.6667 12.0321C20.6667 12.6071 20.6084 13.1686 20.4975 13.7109C20.4161 13.7029 20.3335 13.6987 20.25 13.6987C18.8693 13.6987 17.75 14.818 17.75 16.1987C17.75 16.8126 17.9713 17.3748 18.3384 17.8099C17.3543 18.8326 16.1114 19.6044 14.7151 20.0201C14.3928 19.012 13.4483 18.2821 12.3333 18.2821C11.2183 18.2821 10.2738 19.012 9.95158 20.0201Z" stroke="#111111" stroke-width="1.25" stroke-linejoin="round"/>
<path d="M12.3332 14.9486C13.944 14.9486 15.2498 13.6427 15.2498 12.0319C15.2498 10.4211 13.944 9.11523 12.3332 9.11523C10.7223 9.11523 9.4165 10.4211 9.4165 12.0319C9.4165 13.6427 10.7223 14.9486 12.3332 14.9486Z" stroke="#111111" stroke-width="1.25" stroke-linejoin="round"/>
</svg>
