<svg width="24" height="24" viewBox="0 0 24 24" fill="none" xmlns="http://www.w3.org/2000/svg">
<path d="M15.4379 14.387C15.4379 15.219 15.1823 15.8647 14.6709 16.324C14.1596 16.7747 13.4836 17 12.6429 17H8.89894V7.744H12.4999C13.3579 7.744 14.0383 7.97367 14.5409 8.433C15.0436 8.88367 15.2949 9.499 15.2949 10.279C15.2949 10.747 15.1693 11.1587 14.9179 11.514C14.6753 11.8607 14.3849 12.1033 14.0469 12.242C14.4456 12.398 14.7749 12.658 15.0349 13.022C15.3036 13.386 15.4379 13.841 15.4379 14.387ZM14.0339 14.322C14.0339 13.906 13.8996 13.568 13.6309 13.308C13.3623 13.048 12.9896 12.918 12.5129 12.918H10.3029V15.739H12.5129C12.9896 15.739 13.3623 15.609 13.6309 15.349C13.8996 15.089 14.0339 14.7467 14.0339 14.322ZM13.4749 11.319C13.7523 11.085 13.8909 10.7557 13.8909 10.331C13.8909 9.90633 13.7523 9.58133 13.4749 9.356C13.2063 9.122 12.8423 9.005 12.3829 9.005H10.3029V11.657H12.3829C12.8423 11.657 13.2063 11.5443 13.4749 11.319Z" fill="#111111"/>
<path d="M11.3008 6.84453C11.3008 6.45793 11.6142 6.14453 12.0008 6.14453C12.3874 6.14453 12.7008 6.45793 12.7008 6.84453V7.74453H11.3008V6.84453Z" fill="#111111"/>
<path d="M11.3008 17H12.7008V17.9C12.7008 18.2866 12.3874 18.6 12.0008 18.6C11.6142 18.6 11.3008 18.2866 11.3008 17.9V17Z" fill="#111111"/>
<rect x="2.7" y="2.7" width="18.6" height="18.6" rx="2.3" stroke="#111111" stroke-width="1.4"/>
</svg>
