<svg width="24" height="24" viewBox="0 0 24 24" fill="none" xmlns="http://www.w3.org/2000/svg">
<path d="M3.7 4.22222C3.7 3.38152 4.38152 2.7 5.22222 2.7H11.8889H15.5082C16.2066 2.7 16.8764 2.97744 17.3702 3.47129L20.4176 6.51866C20.9114 7.01251 21.1889 7.68231 21.1889 8.38071V12V19.7778C21.1889 20.6185 20.5074 21.3 19.6667 21.3H5.22222C4.38152 21.3 3.7 20.6185 3.7 19.7778V4.22222Z" stroke="#111111" stroke-width="1.4"/>
<path d="M14.8113 2.7H15.5084C16.2068 2.7 16.8766 2.97744 17.3704 3.47129L20.4178 6.51866C20.9117 7.01251 21.1891 7.68231 21.1891 8.38071V9.07778H17.4447C15.9903 9.07778 14.8113 7.89879 14.8113 6.44444V2.7Z" stroke="#111111" stroke-width="1.4"/>
<rect x="7.44531" y="15.332" width="5.55556" height="1.4" rx="0.7" fill="#111111"/>
</svg>
