<svg width="16" height="16" viewBox="0 0 16 16" fill="none" xmlns="http://www.w3.org/2000/svg">
<path d="M0.800781 3.00078C0.800781 1.50961 2.00961 0.300781 3.50078 0.300781H8.59279C8.97939 0.300781 9.2928 0.614182 9.2928 1.00078C9.2928 1.38738 8.97939 1.70078 8.59279 1.70078H3.50078C2.78281 1.70078 2.20078 2.28281 2.20078 3.00078V13.0008C2.20078 13.7188 2.78281 14.3008 3.50078 14.3008H12.5008C13.2188 14.3008 13.8008 13.7188 13.8008 13.0008V5.33924C13.8008 4.95264 14.1142 4.63924 14.5008 4.63924C14.8874 4.63924 15.2008 4.95264 15.2008 5.33924V13.0008C15.2008 14.492 13.992 15.7008 12.5008 15.7008H3.50078C2.00961 15.7008 0.800781 14.492 0.800781 13.0008V3.00078Z" fill="#111111"/>
<path fill-rule="evenodd" clip-rule="evenodd" d="M14.5139 0.539838C14.7685 0.830783 14.739 1.27302 14.4481 1.52759L10.4481 5.02759C10.1571 5.28217 9.71489 5.25269 9.46032 4.96174C9.20574 4.6708 9.23522 4.22856 9.52617 3.97399L13.5262 0.473987C13.8171 0.21941 14.2593 0.248892 14.5139 0.539838Z" fill="#111111"/>
<path d="M3.48633 6.42461C3.48633 6.03801 3.79973 5.72461 4.18633 5.72461H7.78633C8.17293 5.72461 8.48633 6.03801 8.48633 6.42461C8.48633 6.81121 8.17293 7.12461 7.78633 7.12461H4.18633C3.79973 7.12461 3.48633 6.81121 3.48633 6.42461Z" fill="#111111"/>
<path d="M3.48633 9.42461C3.48633 9.03801 3.79973 8.72461 4.18633 8.72461H9.78633C10.1729 8.72461 10.4863 9.03801 10.4863 9.42461C10.4863 9.81121 10.1729 10.1246 9.78633 10.1246H4.18633C3.79973 10.1246 3.48633 9.81121 3.48633 9.42461Z" fill="#111111"/>
</svg>
