<svg width="25" height="24" viewBox="0 0 25 24" fill="none" xmlns="http://www.w3.org/2000/svg">
<g clip-path="url(#clip0_25666_93091)">
<path d="M15 9.79431C14.8552 9.64952 14.7008 9.519 14.5417 9.39798L14.5414 9.39824C14.3777 9.24076 14.1554 9.14377 13.9103 9.14377C13.4072 9.14377 12.9994 9.55159 12.9994 10.0547C12.9994 10.2772 13.0793 10.4811 13.212 10.6393L13.2121 10.6394C13.2758 10.7154 13.3516 10.781 13.4367 10.8329C13.5226 10.9037 13.6069 10.9734 13.6858 11.0523L13.7609 11.1274C14.7049 12.0702 14.4231 13.6947 13.479 14.6388L9.45057 18.666C8.50655 19.6089 6.97178 19.6089 6.02771 18.666L5.95202 18.5903C5.00792 17.6463 5.00792 16.1104 5.95202 15.1686L7.73176 13.3895C7.9601 13.2082 8.10669 12.9285 8.10669 12.6144C8.10669 12.068 7.66376 11.625 7.11736 11.625C6.91118 11.625 6.71979 11.6882 6.5613 11.7961C6.5608 11.795 6.56027 11.794 6.55974 11.7929L6.54077 11.8107C6.47071 11.861 6.40737 11.9201 6.35267 11.9867L4.50314 13.7174C2.76458 15.4571 2.76458 18.3025 4.50314 20.0398L4.57823 20.1149C6.31679 21.8523 9.16095 21.8523 10.8995 20.1149L14.9268 16.0864C16.6629 14.348 16.8101 11.6056 15.074 9.8682L15 9.79431Z" fill="#333333"/>
<path d="M20.8051 3.88682L20.7301 3.81173C18.9915 2.07317 16.1474 2.07317 14.4088 3.81173L10.3816 7.84016C8.64299 9.57872 8.54725 12.0893 10.2858 13.829L10.3597 13.9017C10.4387 13.9807 10.5206 14.0551 10.6043 14.1265C10.6648 14.1941 10.736 14.252 10.815 14.2978C10.8156 14.2983 10.8163 14.2988 10.8169 14.2992L10.8171 14.299C10.9432 14.3715 11.0892 14.4132 11.245 14.4132C11.72 14.4132 12.105 14.0281 12.105 13.5533C12.105 13.4192 12.0743 13.2923 12.0195 13.1792C11.9058 12.924 11.693 12.7686 11.5458 12.6214L11.4719 12.5486C10.5279 11.6046 10.8864 10.2331 11.8304 9.28909L15.86 5.26181C16.8017 4.31774 18.337 4.31774 19.2811 5.26181L19.3562 5.33571C20.3003 6.2798 20.3003 7.8163 19.3562 8.75917L17.5823 10.5343C17.341 10.7131 17.1845 10.9999 17.1845 11.3232C17.1845 11.8652 17.6239 12.3046 18.1659 12.3046C18.3545 12.3046 18.5306 12.2512 18.6802 12.159C18.6813 12.1609 18.6824 12.1627 18.6835 12.1646L18.711 12.1392C18.7958 12.0825 18.8711 12.0128 18.9343 11.9332L20.8039 10.2081C22.5437 8.46956 22.5437 5.62536 20.8051 3.88682Z" fill="#333333"/>
</g>
<defs>
<clipPath id="clip0_25666_93091">
<rect width="24" height="24" fill="white" transform="translate(0.75)"/>
</clipPath>
</defs>
</svg>
