<svg width="36" height="36" viewBox="0 0 36 36" fill="none" xmlns="http://www.w3.org/2000/svg">
<circle cx="18" cy="18" r="17.5" stroke="#EEEEEE"/>
<path d="M25.1111 14.0966H22.2589C22.5217 13.6831 22.6763 13.1923 22.6763 12.6667C22.6763 11.1961 21.4802 10 20.0096 10C19.2096 10 18.4889 10.3556 18 10.9159C17.5111 10.3556 16.7903 10 15.9903 10C14.5198 10 13.3236 11.1961 13.3236 12.6667C13.3236 13.1923 13.4763 13.6831 13.741 14.0966H10.8889C10.5468 14.0966 10.2705 14.3729 10.2705 14.715V18.5797C10.2705 18.6647 10.3401 18.7343 10.4251 18.7343H11.198V25.3816C11.198 25.7237 11.4744 26 11.8164 26H24.1836C24.5256 26 24.8019 25.7237 24.8019 25.3816V18.7343H25.5749C25.6599 18.7343 25.7294 18.6647 25.7294 18.5797V14.715C25.7294 14.3729 25.4531 14.0966 25.1111 14.0966ZM18.657 12.6667C18.657 11.9208 19.2637 11.314 20.0096 11.314C20.7555 11.314 21.3623 11.9208 21.3623 12.6667C21.3623 13.4126 20.7555 14.0193 20.0096 14.0193H18.657V12.6667ZM15.9903 11.314C16.7362 11.314 17.343 11.9208 17.343 12.6667V14.0193H15.9903C15.2444 14.0193 14.6377 13.4126 14.6377 12.6667C14.6377 11.9208 15.2444 11.314 15.9903 11.314ZM11.5845 17.4203V15.4106H17.343V17.4203H11.5845ZM12.5121 18.7343H17.343V24.686H12.5121V18.7343ZM23.4879 24.686H18.657V18.7343H23.4879V24.686ZM24.4154 17.4203H18.657V15.4106H24.4154V17.4203Z" fill="#111111" stroke="#111111" stroke-width="0.3"/>
</svg>
