<svg width="36" height="36" viewBox="0 0 36 36" fill="none" xmlns="http://www.w3.org/2000/svg">
<circle cx="18" cy="18" r="17.5" stroke="#EEEEEE"/>
<path d="M18 11.3523C14.322 11.3523 11.3403 14.3605 11.3403 18.0714C11.3403 21.2598 13.5415 23.9295 16.4944 24.618V26C12.7959 25.2894 10 22.0098 10 18.0714C10 13.6137 13.5817 10 18 10C22.4183 10 26 13.6137 26 18.0714H24.6597C24.6597 14.3605 21.678 11.3523 18 11.3523Z" fill="#111111" stroke="#111111" stroke-width="0.4"/>
<path fill-rule="evenodd" clip-rule="evenodd" d="M25.8188 21.4308L22.6161 25.6636L20.7064 23.9006L19.0696 25.9974L18.1743 25.234L20.5069 22.135L22.4196 23.9005L24.9259 20.664L25.8188 21.4308Z" fill="#111111" stroke="#111111" stroke-width="0.4" stroke-linecap="square"/>
<rect width="3.8198" height="3.8198" transform="matrix(0.707102 -0.707112 0.707102 0.707112 15.4727 18.0781)" stroke="black" stroke-width="1.6"/>
</svg>
