<svg width="36" height="36" viewBox="0 0 36 36" fill="none" xmlns="http://www.w3.org/2000/svg">
<circle cx="18" cy="18" r="17.5" stroke="#EEEEEE"/>
<path d="M11.8 14.8H23.44C23.9012 14.8 24.1991 14.8006 24.4257 14.8191C24.6431 14.8369 24.7236 14.867 24.7632 14.8872L25.1264 14.1744L24.7632 14.8872C24.9137 14.9639 25.0361 15.0863 25.1128 15.2368C25.133 15.2764 25.1631 15.3569 25.1809 15.5743C25.1994 15.8009 25.2 16.0988 25.2 16.56V23.44C25.2 23.9012 25.1994 24.1991 25.1809 24.4257C25.1631 24.6431 25.133 24.7236 25.1128 24.7632C25.0361 24.9137 24.9137 25.0361 24.7632 25.1128C24.7236 25.133 24.6431 25.1631 24.4257 25.1809C24.1991 25.1994 23.9012 25.2 23.44 25.2H13.56C13.0988 25.2 12.8009 25.1994 12.5743 25.1809C12.3569 25.1631 12.2764 25.133 12.2368 25.1128C12.0863 25.0361 11.9639 24.9137 11.8872 24.7632L11.1744 25.1264L11.8872 24.7632C11.867 24.7236 11.8369 24.6431 11.8191 24.4257C11.8006 24.1991 11.8 23.9012 11.8 23.44V14.8Z" stroke="#111111" stroke-width="1.6"/>
<path d="M11.7939 13.3031C11.7939 12.4195 12.5103 11.7031 13.3939 11.7031H19.1939C20.0776 11.7031 20.7939 12.4195 20.7939 13.3031V14.7031H11.7939V13.3031Z" stroke="#111111" stroke-width="1.6"/>
<rect x="20" y="19" width="3" height="1.6" rx="0.8" fill="#111111"/>
</svg>
