<svg width="18" height="18" viewBox="0 0 18 18" fill="none" xmlns="http://www.w3.org/2000/svg">
<path d="M9.00039 17.0984C11.2371 17.0984 13.2621 16.1918 14.7279 14.726C16.1938 13.2602 17.1004 11.2352 17.1004 8.99844C17.1004 6.7617 16.1938 4.7367 14.7279 3.27087C13.2621 1.80506 11.2371 0.898438 9.00039 0.898438C6.76366 0.898438 4.73866 1.80506 3.27282 3.27087C1.80702 4.7367 0.900391 6.7617 0.900391 8.99844C0.900391 11.2352 1.80702 13.2602 3.27282 14.726C4.73866 16.1918 6.76366 17.0984 9.00039 17.0984Z" stroke="#111111" stroke-width="1.8" stroke-linejoin="round"/>
<path d="M9.13672 10.875V9.375C10.3794 9.375 11.3867 8.36764 11.3867 7.125C11.3867 5.88236 10.3794 4.875 9.13672 4.875C7.89408 4.875 6.88672 5.88236 6.88672 7.125" stroke="#111111" stroke-width="1.8" stroke-linecap="round" stroke-linejoin="round"/>
<path fill-rule="evenodd" clip-rule="evenodd" d="M9.13672 14.25C9.65448 14.25 10.0742 13.8303 10.0742 13.3125C10.0742 12.7947 9.65448 12.375 9.13672 12.375C8.61896 12.375 8.19922 12.7947 8.19922 13.3125C8.19922 13.8303 8.61896 14.25 9.13672 14.25Z" fill="#111111"/>
</svg>
