<svg width="15" height="10" viewBox="0 0 15 10" fill="none" xmlns="http://www.w3.org/2000/svg">
<rect width="15" height="10" rx="3" fill="#FFD429"/>
<path d="M5.185 7H4.525V5.525H3.07V7H2.41V3.51H3.07V4.94H4.525V3.51H5.185V7ZM7.37375 7.06C6.91708 7.06 6.54875 6.90667 6.26875 6.6C5.99208 6.29333 5.85375 5.845 5.85375 5.255C5.85375 4.665 5.99208 4.21667 6.26875 3.91C6.54875 3.60333 6.91708 3.45 7.37375 3.45C7.83375 3.45 8.20208 3.60333 8.47875 3.91C8.75542 4.21667 8.89375 4.665 8.89375 5.255C8.89375 5.845 8.75542 6.29333 8.47875 6.6C8.20208 6.90667 7.83375 7.06 7.37375 7.06ZM7.37375 6.475C7.62375 6.475 7.82208 6.39167 7.96875 6.225C8.11875 6.055 8.19375 5.82167 8.19375 5.525V4.985C8.19375 4.68833 8.11875 4.45667 7.96875 4.29C7.82208 4.12 7.62375 4.035 7.37375 4.035C7.12375 4.035 6.92375 4.12 6.77375 4.29C6.62708 4.45667 6.55375 4.68833 6.55375 4.985V5.525C6.55375 5.82167 6.62708 6.055 6.77375 6.225C6.92375 6.39167 7.12375 6.475 7.37375 6.475ZM10.9333 7H10.2733V4.095H9.28332V3.51H11.9233V4.095H10.9333V7Z" fill="black"/>
</svg>
