<svg width="287" height="144" viewBox="0 0 287 144" fill="none" xmlns="http://www.w3.org/2000/svg">
<rect width="287" height="144" rx="6" fill="white"/>
<path d="M225.27 72.0125C225.027 69.4938 225.108 67.625 225.108 65.2687C226.243 64.6188 230.297 60.7188 230.622 57.4688C231.514 57.3875 232.973 56.4937 233.378 52.9188C233.622 51.05 232.73 49.9125 232.162 49.5875C233.622 45.1187 234.27 31.1438 224.054 29.7625C223 27.975 220.324 27 216.838 27C202.892 27.2437 198.757 37.725 201.838 49.6687C201.27 49.9937 200.378 51.05 200.622 53C201.027 56.575 202.486 57.4688 203.378 57.55C203.703 60.8812 207.757 64.7812 208.892 65.35C208.892 67.7062 208.973 69.4938 208.73 72.0938C205.973 79.5688 187.892 75.6688 187 92H247C246.514 75.425 228.027 79.5687 225.27 72.0125Z" fill="#F5F5F5"/>
<rect x="40" y="27" width="120" height="14" rx="6" fill="#F5F5F5"/>
<rect x="40" y="65" width="90" height="14" rx="6" fill="#F5F5F5"/>
<rect x="40" y="103" width="60" height="14" rx="6" fill="#F5F5F5"/>
<rect x="187" y="103" width="60" height="14" rx="6" fill="#F5F5F5"/>
</svg>
