<svg width="287" height="144" viewBox="0 0 287 144" fill="none" xmlns="http://www.w3.org/2000/svg">
<rect width="287" height="144" rx="6" fill="white"/>
<g clip-path="url(#clip0_6182_12495)">
<path d="M182 90.9447C182.051 91.0539 162.678 95 143.992 95C125.323 95 105.798 91.1546 106.002 90.9447C106.341 88.4259 107.528 84.4547 109.03 82.3976C110.429 80.4582 112.312 78.9385 114.288 77.6623C118.869 74.8077 124.128 73.4055 128.911 70.9791C131.091 69.7953 133.441 68.284 134.297 65.7988C134.62 63.0869 134.518 60.3498 134.509 57.6211C134.509 57.428 134.416 57.2349 134.272 57.109C133.339 56.3113 132.694 55.2199 132.109 54.1452C131.032 52.0882 130.251 49.8716 129.921 47.5711C129.912 47.504 129.861 47.4452 129.785 47.4284C128.598 47.1597 127.724 46.1522 127.266 45.0523C126.731 43.8013 126.469 42.458 126.384 41.1146C126.316 39.8216 126.833 38.5119 127.8 37.6639C127.894 37.5799 127.936 37.454 127.902 37.3364C126.918 33.2896 126.197 29.1336 126.367 24.9524C126.477 22.3244 126.952 19.6629 128.08 17.2868C129.005 15.339 130.387 13.601 132.126 12.3416C135.595 9.78922 140.031 9.06717 144.238 9C146.613 9.04198 149.098 9.37782 151.16 10.6624C151.923 11.1242 152.542 11.7959 153.034 12.5347C155.036 12.8454 157.046 13.5758 158.564 14.9863C160.761 17.0182 161.77 20.0239 162.067 22.9541C162.568 27.8154 161.626 32.6851 160.261 37.3196C160.227 37.4456 160.261 37.5799 160.362 37.6639C161.38 38.5538 161.889 39.956 161.753 41.3161C161.601 42.9281 161.27 44.6073 160.354 45.9927C159.887 46.6895 159.175 47.2017 158.361 47.4032C158.293 47.42 158.242 47.4704 158.233 47.5459C157.886 49.9808 157.071 52.34 155.909 54.5062C155.384 55.4549 154.807 56.3869 153.984 57.0922C153.909 57.1537 153.85 57.2308 153.808 57.3178C153.767 57.4049 153.746 57.4998 153.747 57.5959C153.73 60.3162 153.636 63.0533 153.95 65.7652C154.646 67.8222 156.435 69.2327 158.2 70.3242C163.518 73.372 169.676 74.6817 174.739 78.2164C177.292 79.9544 179.532 82.3053 180.711 85.2187C181.33 86.6544 181.813 89.3915 182 90.9447Z" fill="#EDEDED"/>
</g>
<rect x="62.5" y="44.5" width="160" height="74" rx="5.5" fill="#F5F5F5" stroke="#EDEDED"/>
<circle cx="62" cy="82" r="5" fill="#EDEDED"/>
<circle cx="223" cy="82" r="5" fill="#EDEDED"/>
<defs>
<clipPath id="clip0_6182_12495">
<rect width="70" height="70" fill="white" transform="translate(109 9)"/>
</clipPath>
</defs>
</svg>
