<svg width="287" height="144" viewBox="0 0 287 144" fill="none" xmlns="http://www.w3.org/2000/svg">
<rect width="287" height="144" rx="6" fill="white"/>
<rect x="247" y="118" width="120" height="14" rx="6" transform="rotate(180 247 118)" fill="#F5F5F5"/>
<rect x="247" y="80" width="90" height="14" rx="6" transform="rotate(180 247 80)" fill="#F5F5F5"/>
<rect x="247" y="42" width="60" height="14" rx="6" transform="rotate(180 247 42)" fill="#F5F5F5"/>
<rect x="40" y="104" width="64" height="14" rx="6" fill="#F5F5F5"/>
<path d="M96.9183 93C97.5153 93.0002 98.105 92.872 98.646 92.6244C99.1869 92.3768 99.6658 92.0159 100.049 91.5671C100.432 91.1182 100.71 90.5924 100.863 90.0268C101.017 89.4611 101.041 88.8694 100.936 88.2933L100.854 87.9467L95.561 68.92C95.5148 68.752 95.4522 68.5947 95.3788 68.4453C97.5647 64.5275 98.7071 60.1323 98.6999 55.6667C98.6999 40.9387 86.5223 29 71.4995 29C56.4767 29 44.299 40.9387 44.299 55.6667C44.299 60.2693 45.4904 64.6 47.5848 68.3813L42.1447 87.9467C41.9872 88.5111 41.9578 89.1026 42.0588 89.6794C42.1598 90.2561 42.3887 90.8042 42.7292 91.2848C43.0698 91.7654 43.5138 92.1669 44.0299 92.461C44.546 92.755 45.1216 92.9345 45.7162 92.9867L46.0806 93H96.9183Z" fill="#F5F5F5"/>
</svg>
