<svg width="20" height="21" viewBox="0 0 20 21" fill="none" xmlns="http://www.w3.org/2000/svg">
<rect y="0.5" width="20" height="20" fill="white"/>
<g clip-path="url(#clip0_152_28534)">
<path d="M10 3.23438C5.98633 3.23438 2.73438 6.48633 2.73438 10.5C2.73438 14.5137 5.98633 17.7656 10 17.7656C14.0137 17.7656 17.2656 14.5137 17.2656 10.5C17.2656 6.48633 14.0137 3.23438 10 3.23438ZM13.5684 8.21191L12.376 13.8311C12.2881 14.2295 12.0508 14.3262 11.7197 14.1387L9.90332 12.7998L9.02734 13.6436C8.93066 13.7402 8.84863 13.8223 8.66113 13.8223L8.79004 11.9736L12.1562 8.93262C12.3027 8.80371 12.124 8.73047 11.9307 8.85937L7.77051 11.4785L5.97754 10.9189C5.58789 10.7959 5.5791 10.5293 6.05957 10.3418L13.0645 7.64062C13.3896 7.52344 13.6738 7.71973 13.5684 8.21191Z" fill="#4D4D4D"/>
</g>
<defs>
<clipPath id="clip0_152_28534">
<rect width="15" height="15" fill="white" transform="translate(2.5 3)"/>
</clipPath>
</defs>
</svg>
